<svg width="206" height="257" viewBox="0 0 206 257" fill="none" xmlns="http://www.w3.org/2000/svg">
<path d="M30.2205 198.97C27.9013 198.548 25.6378 197.862 23.4739 196.927C10.6433 191.457 7.58906 175.73 12.1302 164.298C16.7776 152.611 30.5983 142.057 54.2428 150.801C95.6908 166.122 105.767 151.836 105.875 151.743L108.384 153.398C107.928 154.079 96.883 169.757 53.2342 153.618C31.6086 145.629 19.2499 154.472 14.9197 165.403C10.8959 175.525 13.4867 189.403 24.6956 194.168C38.5081 200.057 47.9131 192.974 57.8603 185.469C61.7413 182.365 65.8854 179.605 70.2455 177.22C74.7647 174.853 79.7511 173.515 84.8479 173.301C89.9446 173.087 95.0257 174.002 99.7275 175.981L98.4044 178.681C94.1136 176.942 89.4978 176.151 84.8728 176.361C80.2478 176.571 75.7228 177.778 71.6075 179.9C67.4022 182.203 63.407 184.871 59.6675 187.873C51.025 194.38 42.1238 201.086 30.2205 198.97Z" fill="#CAB3DA"/>
<path fill-rule="evenodd" clip-rule="evenodd" d="M74.5797 227.281C74.5797 227.281 67.8991 238.921 59.3244 237.163L74.5797 227.281Z" fill="#CAB3DA"/>
<path fill-rule="evenodd" clip-rule="evenodd" d="M182.609 113.412C181.146 121.643 165.246 134.235 155.166 134.606C154.717 134.622 154.267 134.613 153.819 134.58C147.632 134.079 142.198 128.766 139.185 125.143C138.28 124.075 137.438 122.955 136.663 121.789L132.825 102.246L133.55 102.283C136.283 102.469 138.985 102.98 141.597 103.805C145.952 105.25 160.047 105.552 166.808 102.711C173.57 99.8711 175.684 97.1796 177.426 97.0931C179.168 97.0067 181.033 99.6541 181.033 99.6541C181.033 99.6541 184.153 104.729 182.609 113.412Z" fill="url(#paint0_radial_187_2864)"/>
<path fill-rule="evenodd" clip-rule="evenodd" d="M181.023 99.6526C181.023 99.6526 177.843 99.0872 176.999 101.151C176.154 103.215 176.612 114.754 182.609 113.413C188.606 112.072 180.993 99.6474 180.993 99.6474L181.023 99.6526Z" fill="#684D73"/>
<path fill-rule="evenodd" clip-rule="evenodd" d="M179.594 100.607C179.832 104.572 181.421 108.335 184.097 111.27C184.097 111.27 185.702 103.328 179.594 100.607Z" fill="#53345F"/>
<path fill-rule="evenodd" clip-rule="evenodd" d="M193.642 97.569C192.539 101.318 190.37 104.666 187.399 107.205C186.114 108.372 184.697 109.385 183.176 110.222C181.296 108.257 180.144 105.709 179.91 102.999C179.91 102.999 180.052 102.202 180.417 101.058C181.151 98.4765 182.588 94.0497 184.267 92.3168L184.905 95.071C184.905 95.071 186.448 90.7341 192.569 89.8927C192.573 89.873 195.671 90.0988 193.642 97.569Z" fill="#4BDF15"/>
<path d="M159.161 104.48C159.161 104.48 156.555 110.111 158.057 120.626C159.56 131.141 166.821 130.574 166.821 130.574C164.664 131.906 162.347 132.961 159.925 133.715C159.925 133.715 142.198 132.595 152.478 104.876L159.161 104.48Z" fill="#4BDF15"/>
<path style="mix-blend-mode:multiply" fill-rule="evenodd" clip-rule="evenodd" d="M139.235 125.151C139.259 126.73 139.23 128.38 139.133 130.12L131.211 120.525L131.703 102.331L133.489 102.11L133.601 102.282C136.334 102.468 139.036 102.979 141.649 103.804C141.649 103.804 130.796 119.142 153.853 134.565C147.632 134.079 142.198 128.766 139.235 125.151Z" fill="url(#paint1_linear_187_2864)"/>
<path fill-rule="evenodd" clip-rule="evenodd" d="M147.335 220.643C147.335 220.643 142.761 214.894 126.68 219.48C126.68 219.48 134.542 226.332 147.335 220.643Z" fill="#53345F"/>
<path fill-rule="evenodd" clip-rule="evenodd" d="M67.6598 210.846C67.6598 210.846 78.1583 208.924 85.7463 219.831C85.7463 219.831 81.5164 222.542 75.1953 220.22C68.8742 217.897 67.6598 210.846 67.6598 210.846Z" fill="#53345F"/>
<path fill-rule="evenodd" clip-rule="evenodd" d="M136.429 226.627L128.307 225.183C128.307 225.183 128.072 223.191 127.584 220.047C126.368 212.092 123.594 196.79 119.221 187.795L144.015 165.735C144.015 165.735 144.478 167.584 145.196 170.515C147.173 178.992 153.447 195.749 152.807 202.948C151.905 212.589 136.429 226.627 136.429 226.627Z" fill="url(#paint2_radial_187_2864)"/>
<path fill-rule="evenodd" clip-rule="evenodd" d="M143.997 165.721C138.628 175.303 130.425 182.987 120.514 187.721L119.201 187.792L112.168 188.157L112.179 188.098L112.198 187.989C112.206 187.957 112.212 187.924 112.216 187.891C112.21 187.845 112.201 187.799 112.189 187.754C108.933 173.562 101.201 160.793 90.1342 151.331C91.2668 149.404 92.2704 147.404 93.1384 145.345C93.3122 144.939 93.501 144.505 93.7032 144.054C94.602 141.969 95.6712 139.325 96.8761 136.147C99.5382 129.114 104.059 117.628 107.179 109.732C108.118 107.36 108.979 105.319 109.533 103.803C109.756 103.233 109.957 102.731 110.119 102.333C110.437 101.516 110.618 101.071 110.618 101.071C110.618 101.071 125.839 105.321 133.076 101.407C133.076 101.407 133.248 101.641 133.54 102.109L133.652 102.281C135.154 104.742 139.077 112.387 139.287 125.141C139.311 126.719 139.282 128.37 139.186 130.11C139.148 130.722 139.109 131.345 139.056 131.986C142.077 141.345 143.758 151.086 144.049 160.916C144.081 162.507 144.07 164.109 143.997 165.721Z" fill="#CAB3DA"/>
<path fill-rule="evenodd" clip-rule="evenodd" d="M109.553 121.915C109.371 122.421 109.168 122.934 108.962 123.466C105.708 131.774 99.862 140.374 93.0381 145.336C88.8309 148.377 84.2391 150.039 79.5929 149.436C76.0791 148.933 72.7092 147.701 69.6995 145.819C66.6898 143.937 64.1067 141.447 62.1159 138.508L61.98 138.301C61.9488 138.237 61.912 138.176 61.8702 138.119L61.728 137.891C60.7088 137.424 59.8662 136.642 59.324 135.661C58.7818 134.68 58.5686 133.551 58.7157 132.439C59.3973 129.143 60.3888 125.919 61.6771 122.809L63.5823 122.376C63.8238 121.608 64.2676 120.92 64.867 120.383C65.4665 119.846 66.1994 119.481 66.9889 119.325C69.6385 118.933 75.7095 120.205 83.4963 116.968C90.5434 113.778 97.2536 109.891 103.527 105.365C103.869 105.112 104.187 104.828 104.479 104.519C105.507 103.458 106.724 102.599 108.068 101.988L109.23 102.133L109.988 102.268L112.343 102.565C112.343 102.565 114.742 107.867 109.553 121.915Z" fill="url(#paint3_radial_187_2864)"/>
<path fill-rule="evenodd" clip-rule="evenodd" d="M112.168 188.156C112.168 188.156 99.0881 204.601 95.9585 208.95C92.8288 213.299 82.8887 220.765 77.3663 222.576C77.2261 222.622 77.0859 222.668 76.959 222.697C71.7012 224.22 68.8597 221.064 68.8597 221.064C68.8597 221.064 68.8026 219.957 68.7278 218.207C68.6329 215.884 68.504 212.438 68.4522 209.016C68.3752 204.422 68.4326 199.872 68.8614 197.917C69.5874 194.633 80.7927 170.796 86.5919 158.573L90.0235 151.382C107.23 160.119 111.588 184.336 112.079 187.805C112.09 187.85 112.099 187.896 112.105 187.942C112.102 187.975 112.096 188.008 112.087 188.04L112.068 188.149L112.168 188.156Z" fill="url(#paint4_radial_187_2864)"/>
<path fill-rule="evenodd" clip-rule="evenodd" d="M113.673 102.741C113.673 102.741 121.723 106.823 124.739 107.166C127.755 107.509 132.984 101.41 132.984 101.41C132.984 101.41 126.414 103.513 113.673 102.741Z" fill="#53345F"/>
<path fill-rule="evenodd" clip-rule="evenodd" d="M108.098 102.105C108.098 102.105 112.379 125.212 96.6436 142.88C96.6436 142.88 111.47 129.813 113.672 102.741L108.098 102.105Z" fill="#53345F"/>
<path fill-rule="evenodd" clip-rule="evenodd" d="M131.662 102.333C131.662 102.333 138.039 119.138 138.964 131.989C138.964 131.989 141.343 117.177 135.396 102.469L132.984 101.41L131.662 102.333Z" fill="#53345F"/>
<path fill-rule="evenodd" clip-rule="evenodd" d="M87.9357 155.755C87.9357 155.755 99.7859 161.427 110.05 190.817L112.17 188.147C112.17 188.147 108.405 158.48 90.0418 151.335L87.9357 155.755Z" fill="#53345F"/>
<path fill-rule="evenodd" clip-rule="evenodd" d="M144.043 160.946C144.043 160.946 134.03 182.08 119.201 187.792L120.005 189.55C120.005 189.55 135.575 185.899 144.812 169.137L144.043 160.946Z" fill="#53345F"/>
<path fill-rule="evenodd" clip-rule="evenodd" d="M61.7245 137.91C60.7024 137.442 59.858 136.657 59.3162 135.672C58.7744 134.687 58.5639 133.553 58.7157 132.439C59.3973 129.143 60.3888 125.918 61.6771 122.809L63.5823 122.376C63.5823 122.376 71.6428 130.339 61.7245 137.91Z" fill="#684D73"/>
<path fill-rule="evenodd" clip-rule="evenodd" d="M60.2073 134.848C60.2073 134.848 65.4524 127.797 61.6974 122.924C61.7026 122.895 57.4009 132.866 60.2073 134.848Z" fill="#53345F"/>
<path fill-rule="evenodd" clip-rule="evenodd" d="M62.9628 126.776C62.9628 126.776 62.3624 121.469 57.7444 119.622L57.3156 122.034C57.3156 122.034 51.1796 117.185 46.0358 120.638C46.0358 120.638 47.2058 131.196 60.9582 133.824C62.397 131.765 63.1029 129.283 62.9628 126.776Z" fill="#4BDF15"/>
<path d="M71.9873 190.103C71.9873 190.103 70.7404 197.631 80.8343 203.183C90.9282 208.736 98.7682 205.143 98.7682 205.143C97.0266 207.716 95.0453 210.118 92.8509 212.318C90.3374 214.572 74.8391 211.482 68.4734 203.24C68.4734 203.24 68.3094 199.25 69.1301 197.09C69.9508 194.931 71.9873 190.103 71.9873 190.103Z" fill="#4BDF15"/>
<path d="M123.283 199.222C127.766 202.564 132.789 205.113 138.133 206.758C142.898 208.061 147.976 207.564 152.398 205.363C152.398 205.363 150.651 210.558 147.938 213.711C147.938 213.711 138.952 214.724 133.903 212.669C130.491 211.11 127.453 208.838 124.992 206.006L123.283 199.222Z" fill="#4BDF15"/>
<path d="M85.5487 116.166C85.5487 116.166 100.627 130.476 86.2167 148.857C88.5198 148.198 90.6813 147.119 92.5923 145.674C97.1224 142.417 106.117 118.045 90.8632 113.353L85.5487 116.166Z" fill="#4BDF15"/>
<path d="M119.313 187.904L119.093 187.773C119.18 187.626 127.907 172.47 129.901 161.256C131.629 151.538 131.038 146.517 130.214 139.555C129.901 136.92 129.547 133.942 129.299 130.363C128.749 122.675 127.639 115.036 125.978 107.509L126.222 107.451C127.883 115.005 128.992 122.67 129.539 130.386C129.788 133.954 130.142 136.932 130.458 139.558C131.249 146.534 131.873 151.591 130.14 161.339C128.155 172.504 119.411 187.697 119.313 187.904Z" fill="#53345F"/>
<path style="mix-blend-mode:multiply" fill-rule="evenodd" clip-rule="evenodd" d="M128.224 220.161L127.565 220.043C126.348 212.088 123.574 196.786 119.201 187.791L112.168 188.156C112.168 188.156 99.0881 204.6 95.9585 208.95C92.8288 213.299 82.8886 220.764 77.3663 222.576C77.2261 222.622 77.0858 222.668 76.9589 222.696L68.7313 218.187C68.6364 215.864 68.5075 212.418 68.4557 208.996L69.0869 208.702C69.0869 208.702 78.0985 216.287 86.7458 214.208C95.3931 212.13 106.535 189.105 105.635 185.37C102.384 171.435 92.115 162.469 86.5989 158.533L90.0304 151.343C91.1631 149.416 92.1667 147.416 93.0347 145.356C88.8276 148.397 84.2358 150.059 79.5895 149.456C76.0757 148.953 72.7059 147.721 69.6962 145.839C66.6864 143.957 64.1033 141.467 62.1125 138.528C63.7315 140.847 70.6411 149.114 85.3814 147.5C88.3906 147.156 91.2404 145.965 93.5994 144.065C104.2 135.854 107.469 115.756 107.323 111.606C107.302 110.979 107.219 110.355 107.075 109.744C106.893 108.792 106.475 107.901 105.859 107.153C105.243 106.405 104.449 105.823 103.55 105.461C103.892 105.207 104.211 104.924 104.503 104.615C105.53 103.554 106.748 102.695 108.092 102.084L109.254 102.229C109.296 102.623 109.364 103.153 109.433 103.795C110.057 109.814 110.098 115.879 109.555 121.906C109.162 126.632 108.13 131.283 106.487 135.732C100.864 150.222 98.6211 152.84 98.6211 152.84C98.6211 152.84 108.499 173.487 115.346 177.823C122.193 182.158 137.193 170.798 140.62 165.862C142.255 163.522 143.352 161.919 144.054 160.886C144.086 162.477 144.075 164.079 144.002 165.691C144.002 165.691 144.465 167.541 145.184 170.472C141.838 175.636 130.487 193.495 128.91 200.192C127.028 208.095 128.224 220.161 128.224 220.161Z" fill="url(#paint5_linear_187_2864)"/>
<g style="mix-blend-mode:multiply" opacity="0.5">
<path fill-rule="evenodd" clip-rule="evenodd" d="M108.09 102.094C108.09 102.094 113.352 114.202 126.298 119.652C139.243 125.102 138.982 103.036 138.982 103.036L135.397 102.459L133.428 102.109L108.09 102.094Z" fill="#53345F"/>
</g>
<path fill-rule="evenodd" clip-rule="evenodd" d="M166.415 80.8142C166.387 80.9717 166.3 81.1188 166.231 81.2791C164.936 83.9067 163.138 86.2546 160.939 88.1896C160.939 88.1896 160.79 88.3458 160.501 88.5992C154.81 93.6949 148.055 97.459 140.727 99.6181C127.967 103.291 108.489 104.815 94.7943 97.8101C81.0991 90.8048 72.5108 65.643 74.6456 56.8916C75.3859 53.8633 76.3125 50.8836 77.4201 47.9695C81.0058 38.5416 88.0037 26.6022 101.962 21.1005C112.511 16.953 127.402 16.147 139.113 17.8025C142.43 18.2353 145.698 18.9863 148.871 20.0451C150.57 20.6014 152.199 21.3545 153.723 22.2891L154.268 22.6501C154.624 22.8968 154.963 23.1674 155.282 23.4601C171.973 38.5242 170.257 69.888 166.415 80.8142Z" fill="url(#paint6_linear_187_2864)"/>
<path d="M164.266 79.1929C164.239 79.3406 164.213 79.4883 164.098 79.6202C161.743 82.929 153.259 91.9736 136.168 90.9867C115.184 89.7852 109.528 72.864 109.528 72.864L105.462 72.8826C105.109 70.3009 104.682 67.96 104.187 65.8305C101.469 53.87 97.0897 48.6225 96.9361 46.8584C96.7151 44.7877 99.5092 32.3853 113.352 25.0756C121.145 21.0908 129.894 19.361 138.617 20.0807C141.721 20.4885 144.779 21.192 147.75 22.1818C149.342 22.7082 150.869 23.4124 152.303 24.2812L152.809 24.6352C153.148 24.8615 153.47 25.1123 153.772 25.3854C160.275 31.2543 163.804 39.743 165.443 48.4037C167.828 60.6401 166.389 73.1919 164.266 79.1929Z" fill="url(#paint7_linear_187_2864)"/>
<path style="mix-blend-mode:multiply" fill-rule="evenodd" clip-rule="evenodd" d="M160.495 88.5781C154.807 93.6807 148.054 97.4521 140.727 99.6184C127.967 103.292 108.489 104.816 94.7942 97.8104C81.099 90.8051 72.5107 65.6433 74.6455 56.8919C75.3858 53.8636 76.3124 50.8839 77.4201 47.9698C78.0788 46.9346 78.9928 46.0863 80.0742 45.5065C81.1556 44.9268 82.368 44.6351 83.5948 44.6595C93.6439 44.9226 100.924 76.3013 100.924 76.3013L105.62 75.1962C107.717 80.68 111.232 85.5088 115.806 89.1896C120.38 92.8704 125.849 95.2712 131.654 96.1468C149.361 98.929 158.4 90.359 160.495 88.5781Z" fill="url(#paint8_linear_187_2864)"/>
<path fill-rule="evenodd" clip-rule="evenodd" d="M88.5011 93.0452C93.8354 96.4617 102.074 93.4269 100.546 77.0567C99.0175 60.6864 87.449 46.2892 87.449 46.2892C101.128 45.6741 103.698 74.1231 103.698 74.1231C103.63 75.3604 103.545 76.5235 103.435 77.6008L103.414 77.719C101.085 100.757 89.5116 93.7023 88.5011 93.0452Z" fill="url(#paint9_linear_187_2864)"/>
<path fill-rule="evenodd" clip-rule="evenodd" d="M74.3625 59.3404C74.8883 53.5836 77.7642 49.2907 80.9432 48.891C84.1223 48.4913 94.7769 61.3447 95.4588 77.6762C96.1406 94.0077 85.1492 90.4183 82.1518 84.6547L80.4428 81.5273C80.4428 81.5273 89.7968 90.4422 92.3097 80.0212C95.1871 68.1211 83.7498 55.2707 79.2727 57.8875C74.7955 60.5042 75.8555 69.6814 75.8555 69.6814C75.8555 69.6814 74.009 63.1575 74.3625 59.3404Z" fill="#53345F"/>
<path fill-rule="evenodd" clip-rule="evenodd" d="M126.759 227.315L127.607 225.059L126.67 219.479C126.67 219.479 139.17 222.981 147.335 220.644C144.742 223.817 141.337 226.228 137.482 227.617C137.482 227.617 144.556 229.647 145.361 236.717L126.759 227.315Z" fill="#684D73"/>
<path fill-rule="evenodd" clip-rule="evenodd" d="M85.7034 219.843L74.9999 224.918L74.5798 227.281C74.5798 227.281 69.1255 235.737 59.3181 237.142C59.3181 237.142 59.5462 228.661 68.2467 223.027L67.6499 210.844C69.2518 213.964 71.6308 216.619 74.5573 218.552C79.2051 221.603 85.179 219.994 85.7034 219.843Z" fill="#684D73"/>
<path fill-rule="evenodd" clip-rule="evenodd" d="M126.759 227.315L125.778 228.492L144.893 237.923L145.361 236.716L126.759 227.315Z" fill="#CAB3DA"/>
<path style="mix-blend-mode:multiply" fill-rule="evenodd" clip-rule="evenodd" d="M147.335 220.644C144.742 223.817 141.337 226.228 137.482 227.617C137.482 227.617 129.942 226.723 126.759 227.315L127.607 225.059L126.67 219.479C126.67 219.479 139.17 222.981 147.335 220.644Z" fill="url(#paint10_linear_187_2864)"/>
<path style="mix-blend-mode:multiply" fill-rule="evenodd" clip-rule="evenodd" d="M85.7032 219.843L74.9997 224.918C72.6231 224.837 70.3006 224.187 68.2268 223.023L67.63 210.841C69.2319 213.961 71.6109 216.616 74.5374 218.549C79.2049 221.603 85.1788 219.994 85.7032 219.843Z" fill="url(#paint11_linear_187_2864)"/>
<path d="M103.828 45.6262C103.828 45.6262 103.142 40.8016 103.404 39.3248C105.165 37.3102 107.308 35.6647 109.709 34.4836L113.863 42.4842C113.863 42.4842 105.946 44.5706 103.828 45.6262Z" fill="white"/>
<path d="M113.524 75.5248C114.489 77.7385 115.816 79.7764 117.449 81.5549L119.602 79.8453C119.602 79.8453 117.156 76.4649 116.063 74.3816L113.524 75.5248Z" fill="white"/>
<path style="mix-blend-mode:screen" d="M144.932 41.9748C145.47 44.6605 141.043 47.794 135.056 48.964C129.068 50.1341 123.801 48.9132 123.272 46.2293C122.744 43.5454 127.171 40.4119 133.148 39.2401C139.126 38.0682 144.413 39.2926 144.932 41.9748Z" fill="url(#paint12_radial_187_2864)"/>
<path style="mix-blend-mode:screen" d="M164.591 50.4783C164.034 59.6242 150.837 69.2089 135.151 71.8565C119.465 74.504 107.251 69.2669 107.831 60.1289C108.412 50.991 121.609 41.4063 137.272 38.7508C152.935 36.0953 165.195 41.3484 164.591 50.4783Z" fill="url(#paint13_radial_187_2864)"/>
<path style="mix-blend-mode:multiply" fill-rule="evenodd" clip-rule="evenodd" d="M49.5764 127.86C49.5764 127.86 54.2837 131.49 58.4094 130.964C62.5352 130.438 62.8258 126.061 62.8258 126.061C62.8258 126.061 63.9059 129.412 60.943 133.852C60.943 133.852 53.165 132.469 49.5764 127.86Z" fill="url(#paint14_linear_187_2864)"/>
<path style="mix-blend-mode:multiply" fill-rule="evenodd" clip-rule="evenodd" d="M187.399 107.205C186.114 108.372 184.697 109.384 183.176 110.222C181.296 108.257 180.144 105.708 179.91 102.999C179.91 102.999 180.052 102.201 180.417 101.058C180.421 101.038 181.041 105.435 187.399 107.205Z" fill="url(#paint15_linear_187_2864)"/>
<path d="M116.277 131.45C119.844 132.085 123.25 129.707 123.884 126.14C124.519 122.573 122.141 119.167 118.574 118.533C115.007 117.899 111.601 120.276 110.967 123.843C110.333 127.411 112.71 130.816 116.277 131.45Z" fill="#684D73"/>
<path fill-rule="evenodd" clip-rule="evenodd" d="M121.492 125.714C121.351 126.519 120.974 127.264 120.41 127.855C119.845 128.446 119.117 128.856 118.32 129.033C117.522 129.21 116.689 129.147 115.928 128.85C115.166 128.554 114.509 128.039 114.041 127.369C113.572 126.7 113.313 125.906 113.295 125.089C113.278 124.272 113.503 123.468 113.943 122.779C114.382 122.09 115.017 121.547 115.765 121.219C116.513 120.891 117.342 120.792 118.147 120.935C118.681 121.028 119.191 121.226 119.648 121.517C120.105 121.808 120.5 122.187 120.811 122.631C121.122 123.074 121.342 123.575 121.459 124.104C121.576 124.634 121.587 125.181 121.492 125.714Z" fill="#4BDF15"/>
<path fill-rule="evenodd" clip-rule="evenodd" d="M93.2721 112.084C93.2721 112.084 100.523 117.802 102.592 106.164C102.592 106.164 95.8716 110.545 93.2721 112.084Z" fill="#684D73"/>
<path d="M121.837 194.446L121.88 194.2C122.097 194.238 144.46 193.562 149.775 186.636L149.982 186.784C144.504 193.834 122.739 194.454 121.837 194.446Z" fill="#53345F"/>
<path d="M105.346 197.222C104.884 193.249 103.809 189.371 102.159 185.726C97.8994 176.437 82.9216 166.705 82.7665 166.607L82.9052 166.398C83.0603 166.497 98.0919 176.269 102.381 185.624C104.048 189.294 105.135 193.202 105.603 197.207L105.346 197.222Z" fill="#53345F"/>
<path d="M69.9383 145.983L69.7009 145.89C73.732 134.642 72.7985 128.067 71.2632 124.534C70.4621 122.415 68.9445 120.643 66.9736 119.526L67.0157 119.29C69.0619 120.412 70.6346 122.235 71.4453 124.424C73.0424 128.009 74.0344 134.655 69.9383 145.983Z" fill="#53345F"/>
<path d="M173.418 125.917C163.304 115.74 172.896 99.5486 172.978 99.4312L173.198 99.5618C173.098 99.7267 163.616 115.754 173.612 125.799L173.418 125.917Z" fill="#53345F"/>
<path d="M115.886 144.452C115.588 145.918 115.106 147.341 114.452 148.687L111.456 147.829C111.755 146.314 112.49 144.92 113.571 143.817L115.886 144.452Z" fill="white"/>
<path d="M73.3351 120.535C74.4212 120.667 75.523 120.539 76.5501 120.162L77.9331 121.353C77.9331 121.353 75.8506 123.126 73.9639 122.14L73.3351 120.535Z" fill="white"/>
<path d="M78.2809 190.582C77.2912 191.73 76.5974 193.102 76.2599 194.58L78.4305 195.91L80.1555 191.921L78.2809 190.582Z" fill="white"/>
<path d="M177.01 97.3747C176.114 98.0584 175.458 99.0085 175.136 100.089L173.12 100.858C173.392 100.246 173.736 99.6693 174.147 99.1407C175.003 98.4061 175.969 97.8102 177.01 97.3747Z" fill="white"/>
<path d="M147.982 193.467C147.982 193.467 150.069 198.409 150.006 200.937L152.197 200.493C152.249 197.947 151.687 195.426 150.558 193.143L147.982 193.467Z" fill="white"/>
<path d="M105.292 26.1922C105.292 26.1922 116.823 19.4362 124.774 18.3005C124.774 18.3005 96.1798 19.575 105.292 26.1922Z" fill="white"/>
<path d="M94.0772 56.7106L98.5305 54.628L100.566 59.5197L96.1964 61.1298L94.0772 56.7106Z" fill="white"/>
<defs>
<radialGradient id="paint0_radial_187_2864" cx="0" cy="0" r="1" gradientUnits="userSpaceOnUse" gradientTransform="translate(156.582 114.239) rotate(10.081) scale(23.16)">
<stop stop-color="#F4DBEE"/>
<stop offset="1" stop-color="#D1BDE5"/>
</radialGradient>
<linearGradient id="paint1_linear_187_2864" x1="129.259" y1="115.791" x2="156.305" y2="120.599" gradientUnits="userSpaceOnUse">
<stop stop-color="#9579A7"/>
<stop offset="1" stop-color="white"/>
</linearGradient>
<radialGradient id="paint2_radial_187_2864" cx="0" cy="0" r="1" gradientUnits="userSpaceOnUse" gradientTransform="translate(152.662 195.305) rotate(10.081) scale(24.69)">
<stop stop-color="#F4F1FF"/>
<stop offset="1" stop-color="#D1BDE5"/>
</radialGradient>
<radialGradient id="paint3_radial_187_2864" cx="0" cy="0" r="1" gradientUnits="userSpaceOnUse" gradientTransform="translate(85.2274 124.142) rotate(10.081) scale(25.28)">
<stop stop-color="#F4DBEE"/>
<stop offset="1" stop-color="#D1BDE5"/>
</radialGradient>
<radialGradient id="paint4_radial_187_2864" cx="0" cy="0" r="1" gradientUnits="userSpaceOnUse" gradientTransform="translate(91.2506 188.927) rotate(10.081) scale(29.77)">
<stop stop-color="#F4F1FF"/>
<stop offset="1" stop-color="#D1BDE5"/>
</radialGradient>
<linearGradient id="paint5_linear_187_2864" x1="58.9373" y1="156.388" x2="144.939" y2="171.678" gradientUnits="userSpaceOnUse">
<stop stop-color="white"/>
<stop offset="1" stop-color="#9579A7"/>
</linearGradient>
<linearGradient id="paint6_linear_187_2864" x1="114.652" y1="103.118" x2="130.111" y2="16.1615" gradientUnits="userSpaceOnUse">
<stop stop-color="#D1BDE5"/>
<stop offset="1" stop-color="white"/>
</linearGradient>
<linearGradient id="paint7_linear_187_2864" x1="126.038" y1="89.4601" x2="138.387" y2="19.9993" gradientUnits="userSpaceOnUse">
<stop stop-color="#4BDF15"/>
<stop offset="1" stop-color="#0F183B"/>
</linearGradient>
<linearGradient id="paint8_linear_187_2864" x1="72.4814" y1="69.1219" x2="161.151" y2="84.886" gradientUnits="userSpaceOnUse">
<stop stop-color="white"/>
<stop offset="1" stop-color="#9579A7"/>
</linearGradient>
<linearGradient id="paint9_linear_187_2864" x1="89.8171" y1="94.0409" x2="98.0212" y2="47.8946" gradientUnits="userSpaceOnUse">
<stop stop-color="#D1BDE5"/>
<stop offset="1" stop-color="#F4DBEE"/>
</linearGradient>
<linearGradient id="paint10_linear_187_2864" x1="126.211" y1="222.058" x2="146.444" y2="225.655" gradientUnits="userSpaceOnUse">
<stop stop-color="white"/>
<stop offset="1" stop-color="#9579A7"/>
</linearGradient>
<linearGradient id="paint11_linear_187_2864" x1="66.5364" y1="217.106" x2="85.5877" y2="220.493" gradientUnits="userSpaceOnUse">
<stop stop-color="white"/>
<stop offset="1" stop-color="#9579A7"/>
</linearGradient>
<radialGradient id="paint12_radial_187_2864" cx="0" cy="0" r="1" gradientUnits="userSpaceOnUse" gradientTransform="translate(132.627 41.8558) rotate(-11.0686) scale(11.0171 4.98623)">
<stop stop-color="#003CEE"/>
<stop offset="0.06" stop-color="#0036D6"/>
<stop offset="0.2" stop-color="#00289E"/>
<stop offset="0.34" stop-color="#001C6D"/>
<stop offset="0.48" stop-color="#001246"/>
<stop offset="0.62" stop-color="#000A27"/>
<stop offset="0.75" stop-color="#000412"/>
<stop offset="0.88" stop-color="#000104"/>
<stop offset="1"/>
</radialGradient>
<radialGradient id="paint13_radial_187_2864" cx="0" cy="0" r="1" gradientUnits="userSpaceOnUse" gradientTransform="translate(134.134 47.434) rotate(-9.59385) scale(28.73 16.2475)">
<stop stop-color="#BFCFFF"/>
<stop offset="0.0833333" stop-color="#BFCFFE" stop-opacity="0.3"/>
<stop offset="1" stop-color="#C1CCF0" stop-opacity="0"/>
</radialGradient>
<linearGradient id="paint14_linear_187_2864" x1="49.5956" y1="127.752" x2="62.7297" y2="130.087" gradientUnits="userSpaceOnUse">
<stop stop-color="white"/>
<stop offset="1" stop-color="#9579A7"/>
</linearGradient>
<linearGradient id="paint15_linear_187_2864" x1="179.514" y1="105.224" x2="187.499" y2="106.644" gradientUnits="userSpaceOnUse">
<stop stop-color="#9579A7"/>
<stop offset="1" stop-color="white"/>
</linearGradient>
</defs>
</svg>
