<svg width="22" height="21" viewBox="0 0 22 21" fill="none" xmlns="http://www.w3.org/2000/svg">
<path d="M1.06215 1.70711C0.671625 1.31658 0.671625 0.683417 1.06215 0.292893C1.45267 -0.0976312 2.08584 -0.097631 2.47636 0.292894L1.06215 1.70711ZM20.9379 18.7544C21.3284 19.145 21.3284 19.7781 20.9379 20.1686C20.5474 20.5592 19.9142 20.5592 19.5237 20.1686L20.9379 18.7544ZM19.5236 0.292894C19.9142 -0.097631 20.5473 -0.0976312 20.9379 0.292893C21.3284 0.683417 21.3284 1.31658 20.9379 1.70711L19.5236 0.292894ZM2.47634 20.1686C2.08582 20.5592 1.45265 20.5592 1.06213 20.1686C0.671606 19.7781 0.671606 19.145 1.06213 18.7544L2.47634 20.1686ZM2.47636 0.292894L20.9379 18.7544L19.5237 20.1686L1.06215 1.70711L2.47636 0.292894ZM20.9379 1.70711L2.47634 20.1686L1.06213 18.7544L19.5236 0.292894L20.9379 1.70711Z" fill="#4BDF15"/>
</svg>
