<svg width="145" height="280" viewBox="0 0 145 280" fill="none" xmlns="http://www.w3.org/2000/svg">
<g opacity="0.1">
<path opacity="0.1" d="M5.17887 67.6576C21.7971 59.3636 -7.58397 51.2695 -15.317 64.4377C-23.05 77.6059 58.5457 76.3513 36.8865 65.6035C36.8865 65.6035 73.2252 70.0448 40.5536 79.2714C7.8821 88.4981 -67.7865 49.7928 -2.16642 55.0445C63.4536 60.2963 5.17887 67.6576 5.17887 67.6576Z" fill="#D2EFFF"/>
<path opacity="0.1" d="M41.672 108.217C23.5581 139.883 -53.0632 103.698 -18.9293 105.508C15.2047 107.318 39.2347 109.116 17.6309 112.381C17.6309 112.381 63.4309 112.381 7.65996 104.42C-48.111 96.4589 -63.5106 87.0436 -35.6473 111.293C-7.78396 135.542 86.1204 115.734 67.386 104.42C48.6517 93.1058 79.5728 83.7904 74.3546 98.624C74.3546 98.624 117.019 73.9531 40.6528 82.8577C40.6528 82.8577 87.051 87.6653 44.6522 91.8845C2.25348 96.1036 -76.1294 59.941 -19.0844 70.0448C-19.0844 70.0448 -91.4404 44.7854 -38.1622 82.8244C15.116 120.863 59.7859 76.5623 41.672 108.217ZM17.1213 95.2709C14.7615 96.6477 -10.3653 96.3812 -19.9707 87.632C-25.6431 82.4802 24.0345 91.2183 17.1213 95.2709ZM54.4681 96.8254C61.3924 100.367 73.9336 112.37 44.9403 113.347C41.6609 113.458 47.5549 93.2835 54.5124 96.8254H54.4681Z" fill="#D2EFFF"/>
<path opacity="0.1" d="M59.797 129.646C74.975 122.507 99.5368 109.861 81.5558 125.305C63.5749 140.749 -21.3112 160.99 -35.625 140.55C-49.9389 120.109 18.7167 132.022 9.4326 138.329C9.4326 138.329 60.2845 133.599 -14.1542 125.261C-88.593 116.922 -72.0855 102.744 -51.922 110.027C-51.922 110.027 -111.415 91.152 -62.3029 120.564C-13.1904 149.976 -121.143 131.19 -28.1136 151.408C64.9154 171.627 72.8479 143.081 72.8479 143.081C72.8479 143.081 65.0927 153.729 30.8923 151.408C-3.30807 149.088 63.3755 149.743 85.9985 131.345C108.621 112.947 109.009 95.5044 58.5451 130.235L59.797 129.646Z" fill="#D2EFFF"/>
<path opacity="0.1" d="M68.5933 158.692C68.5933 158.692 64.6271 201.628 -57.7056 152.63C-57.7056 152.63 -15.6724 180.043 21.8406 181.398C59.3535 182.753 -48.6985 202.072 -57.7056 161.612C-57.7056 161.612 -87.1975 208.745 28.7981 189.492C96.4788 178.245 49.3604 191.346 49.3604 191.346C49.3604 191.346 99.0712 184.684 54.213 177.801C54.1797 177.801 112.299 152.63 68.5933 158.692Z" fill="#D2EFFF"/>
<path opacity="0.1" d="M51.9648 194.11C51.9648 194.11 13.2996 215.106 -39.2917 204.325C-91.883 193.544 -24.4128 197.263 -24.4128 197.263C-24.4128 197.263 -72.1626 186.793 -68.2961 197.574C-64.4296 208.355 18.9942 207.922 11.8926 213.762C4.79108 219.603 -36.9762 221.823 -17.6436 216.638C-17.6436 216.638 -65.0389 214.839 -8.27089 223.067C48.4972 231.294 46.5584 207.944 46.5584 207.944C46.5584 207.944 38.6813 221.779 24.1237 216.638C9.56607 211.497 76.5045 189.713 53.6045 211.631C53.6045 211.631 78.9418 191.867 48.0651 198.474L51.9648 194.11Z" fill="#D2EFFF"/>
<path opacity="0.1" d="M5.95361 230.051C5.95361 230.051 -21.5108 234.981 -31.5593 224.822C-31.5593 224.822 -36.5891 242.287 5.95361 230.051Z" fill="#D2EFFF"/>
</g>
<path style="mix-blend-mode:screen" d="M75.1526 210.001C113.728 171.341 113.728 108.66 75.1526 70.0005C36.577 31.3405 -25.9664 31.3405 -64.5421 70.0005C-103.118 108.66 -103.118 171.341 -64.5421 210.001C-25.9664 248.66 36.577 248.66 75.1526 210.001Z" fill="url(#paint0_radial_187_3243)"/>
<path style="mix-blend-mode:screen" opacity="0.53" d="M92.8012 151.608C73.6901 175.036 30.826 97.4917 -27.9584 138.973C-86.7428 180.454 -97.6 110.127 -61.483 76.5068C-33.2651 50.2259 -6.59834 39.145 39.4454 54.9336C85.4891 70.7221 105.475 136.008 92.8012 151.608Z" fill="url(#paint1_linear_187_3243)"/>
<path style="mix-blend-mode:screen" opacity="0.55" d="M-83.4522 130.001C-64.3522 106.574 -21.4881 184.118 37.3074 142.637C96.1029 101.156 106.894 171.505 70.7877 205.113C42.5587 231.383 15.8919 242.475 -30.1518 226.687C-76.1955 210.898 -96.1597 145.612 -83.4522 130.001Z" fill="url(#paint2_linear_187_3243)"/>
<g style="mix-blend-mode:screen">
<path style="mix-blend-mode:screen" d="M6.51857 48.8159C-19.694 38.3123 26.6489 28.0642 38.8356 44.741C51.0223 61.4178 -77.6253 59.819 -43.4803 46.2621C-43.4803 46.2621 -100.78 51.8137 -49.2634 63.5718C2.25322 75.33 121.561 26.1989 18.1071 32.8496C-85.3473 39.5004 6.51857 48.8159 6.51857 48.8159Z" fill="url(#paint3_linear_187_3243)"/>
<path style="mix-blend-mode:screen" d="M74.8647 68.0574C158.876 19.8923 44.7856 51.8913 44.7856 51.8913C134.713 39.045 11.0283 84.823 -55.8105 79.4935C-122.649 74.164 -49.5066 68.0574 -49.5066 68.0574C-169.901 56.7988 -102.685 88.0429 -102.685 88.0429C-110.928 69.2565 -62.2473 81.059 -91.706 95.3709C-121.165 109.683 26.9154 134.787 70.8431 104.087C114.771 73.3868 90.5302 85.2782 2.57513 95.3709C-85.3799 105.464 -13.179 105.464 -13.179 105.464C-47.2243 101.333 -9.33465 99.046 44.4865 96.7477C98.3076 94.4493 -22.5074 140.283 -51.0687 100.19C-79.63 60.0965 -9.14632 116.222 74.8647 68.0574ZM46.1815 74.1085C31.0367 85.2116 -8.59235 85.5225 -12.3038 83.7793C-23.2054 78.6497 55.1222 67.591 46.1815 74.1085ZM-56.165 106.685C-101.887 105.397 -82.1117 90.2413 -71.199 85.7668C-60.2863 81.2922 -51.0022 106.818 -56.165 106.685Z" fill="url(#paint4_linear_187_3243)"/>
<path style="mix-blend-mode:screen" d="M-79.608 127.314C-103.538 118.276 -142.259 102.255 -113.952 121.763C-85.646 141.271 48.2863 167.008 70.854 141.104C93.4216 115.201 -14.8188 130.312 -0.18367 138.351C-0.18367 138.351 -80.3614 132.366 37.0081 121.796C154.377 111.226 128.353 93.3611 96.6123 102.521C96.6123 102.521 190.417 78.5497 112.976 115.845C35.5346 153.14 205.75 129.313 59.0661 154.916C-87.618 180.52 -100.181 144.435 -100.181 144.435C-100.181 144.435 -87.9947 157.925 -34.0296 154.983C19.9355 152.041 -85.2471 152.862 -120.91 129.579C-156.573 106.296 -157.193 84.19 -77.6249 128.125L-79.608 127.314Z" fill="url(#paint5_linear_187_3243)"/>
<path style="mix-blend-mode:screen" d="M-93.4789 164.099C-93.4789 164.099 -87.2194 218.504 105.73 156.416C105.73 156.416 39.4451 191.135 -19.6938 192.845C-78.8327 194.555 91.5268 219.026 105.73 167.752C105.73 167.752 152.261 227.442 -30.6729 203.049C-137.384 188.814 -63.0896 205.391 -63.0896 205.391C-63.0896 205.391 -141.484 196.931 -70.7451 188.248C-70.7451 188.293 -162.378 156.416 -93.4789 164.099Z" fill="url(#paint6_linear_187_3243)"/>
<path style="mix-blend-mode:screen" d="M-67.2549 208.944C-67.2549 208.944 -6.32116 235.592 76.6484 221.879C159.618 208.167 53.1834 212.941 53.1834 212.941C53.1834 212.941 128.52 199.673 122.382 213.341C116.244 227.009 -15.2839 226.432 -4.07214 233.826C7.13966 241.221 72.9924 244.041 42.4591 237.479C42.4591 237.479 117.197 235.192 27.6909 245.607C-61.8151 256.021 -58.7241 226.454 -58.7241 226.454C-54.6316 231.661 -49.0601 235.502 -42.7446 237.47C-36.4292 239.439 -29.6666 239.442 -23.3493 237.479C-0.393959 230.973 -105.942 203.371 -69.8252 231.128C-69.8252 231.128 -109.787 206.102 -61.1615 214.474L-67.2549 208.944Z" fill="url(#paint7_linear_187_3243)"/>
<path style="mix-blend-mode:screen" d="M5.30023 254.456C5.30023 254.456 48.5964 260.696 64.4503 247.794C64.4835 247.838 72.3717 269.956 5.30023 254.456Z" fill="url(#paint8_linear_187_3243)"/>
</g>
<defs>
<radialGradient id="paint0_radial_187_3243" cx="0" cy="0" r="1" gradientUnits="userSpaceOnUse" gradientTransform="translate(5.30418 139.993) scale(98.7791 98.995)">
<stop offset="0.29"/>
<stop offset="0.42" stop-color="#010203"/>
<stop offset="0.51" stop-color="#050A0C"/>
<stop offset="0.6" stop-color="#0C181C"/>
<stop offset="0.67" stop-color="#152B33"/>
<stop offset="0.75" stop-color="#214450"/>
<stop offset="0.81" stop-color="#306274"/>
<stop offset="0.88" stop-color="#42869E"/>
<stop offset="0.94" stop-color="#56AFCE"/>
<stop offset="1" stop-color="#6AD8FF"/>
</radialGradient>
<linearGradient id="paint1_linear_187_3243" x1="50.5125" y1="56.6123" x2="-20.7619" y2="174.901" gradientUnits="userSpaceOnUse">
<stop stop-color="#00FDFD"/>
<stop offset="0.12" stop-color="#00C3C3"/>
<stop offset="0.25" stop-color="#008F8F"/>
<stop offset="0.37" stop-color="#006363"/>
<stop offset="0.5" stop-color="#003F3F"/>
<stop offset="0.62" stop-color="#002323"/>
<stop offset="0.75" stop-color="#001010"/>
<stop offset="0.87" stop-color="#000404"/>
<stop offset="1"/>
</linearGradient>
<linearGradient id="paint2_linear_187_3243" x1="-13.0364" y1="232.743" x2="15.7664" y2="117.586" gradientUnits="userSpaceOnUse">
<stop stop-color="#FF00FF"/>
<stop offset="0.01" stop-color="#F600F6"/>
<stop offset="0.05" stop-color="#C800C8"/>
<stop offset="0.09" stop-color="#9D009D"/>
<stop offset="0.14" stop-color="#770077"/>
<stop offset="0.2" stop-color="#570057"/>
<stop offset="0.25" stop-color="#3B003B"/>
<stop offset="0.32" stop-color="#250025"/>
<stop offset="0.4" stop-color="#140014"/>
<stop offset="0.49" stop-color="#090009"/>
<stop offset="0.63" stop-color="#020002"/>
<stop offset="1"/>
</linearGradient>
<linearGradient id="paint3_linear_187_3243" x1="-70.7453" y1="48.8158" x2="59.0102" y2="48.8158" gradientUnits="userSpaceOnUse">
<stop/>
<stop offset="0.09" stop-color="#1C1F32"/>
<stop offset="0.25" stop-color="#4C5689"/>
<stop offset="0.38" stop-color="#6F7FC8"/>
<stop offset="0.48" stop-color="#8598F0"/>
<stop offset="0.53" stop-color="#8DA1FF"/>
<stop offset="1"/>
</linearGradient>
<linearGradient id="paint4_linear_187_3243" x1="-121.375" y1="80.0709" x2="105.73" y2="80.0709" gradientUnits="userSpaceOnUse">
<stop/>
<stop offset="0.09" stop-color="#1C1F32"/>
<stop offset="0.25" stop-color="#4C5689"/>
<stop offset="0.38" stop-color="#6F7FC8"/>
<stop offset="0.48" stop-color="#8598F0"/>
<stop offset="0.53" stop-color="#8DA1FF"/>
<stop offset="1"/>
</linearGradient>
<linearGradient id="paint5_linear_187_3243" x1="-144.009" y1="129.524" x2="143.553" y2="129.524" gradientUnits="userSpaceOnUse">
<stop/>
<stop offset="0.09" stop-color="#1C1F32"/>
<stop offset="0.25" stop-color="#4C5689"/>
<stop offset="0.38" stop-color="#6F7FC8"/>
<stop offset="0.48" stop-color="#8598F0"/>
<stop offset="0.53" stop-color="#8DA1FF"/>
<stop offset="1"/>
</linearGradient>
<linearGradient id="paint6_linear_187_3243" x1="-119.149" y1="182.674" x2="111.014" y2="182.674" gradientUnits="userSpaceOnUse">
<stop/>
<stop offset="0.09" stop-color="#1C1F32"/>
<stop offset="0.25" stop-color="#4C5689"/>
<stop offset="0.38" stop-color="#6F7FC8"/>
<stop offset="0.48" stop-color="#8598F0"/>
<stop offset="0.53" stop-color="#8DA1FF"/>
<stop offset="1"/>
</linearGradient>
<linearGradient id="paint7_linear_187_3243" x1="-85.2691" y1="227.498" x2="122.725" y2="227.498" gradientUnits="userSpaceOnUse">
<stop/>
<stop offset="0.09" stop-color="#1C1F32"/>
<stop offset="0.25" stop-color="#4C5689"/>
<stop offset="0.38" stop-color="#6F7FC8"/>
<stop offset="0.48" stop-color="#8598F0"/>
<stop offset="0.53" stop-color="#8DA1FF"/>
<stop offset="1"/>
</linearGradient>
<linearGradient id="paint8_linear_187_3243" x1="5.30023" y1="253.901" x2="64.7383" y2="253.901" gradientUnits="userSpaceOnUse">
<stop/>
<stop offset="0.09" stop-color="#1C1F32"/>
<stop offset="0.25" stop-color="#4C5689"/>
<stop offset="0.38" stop-color="#6F7FC8"/>
<stop offset="0.48" stop-color="#8598F0"/>
<stop offset="0.53" stop-color="#8DA1FF"/>
<stop offset="1"/>
</linearGradient>
</defs>
</svg>
