<svg width="170" height="320" viewBox="0 0 170 320" fill="none" xmlns="http://www.w3.org/2000/svg">
<path d="M88.9331 66.7877L95.2241 25.4937C95.3025 25.0023 95.5248 24.5452 95.863 24.1801C96.2012 23.8151 96.64 23.5585 97.1239 23.4428L149.238 11.2635C149.855 11.1238 150.501 11.2209 151.048 11.5356C151.596 11.8503 152.006 12.3595 152.195 12.962L162.034 45.2977C162.18 45.7625 162.457 46.1751 162.832 46.4855C163.207 46.796 163.664 46.9909 164.148 47.0466L173.22 48.028C173.563 48.0638 173.91 48.0287 174.239 47.9248C174.568 47.8209 174.872 47.6504 175.132 47.4241L190.847 33.5839C191.153 33.3102 191.524 33.1183 191.924 33.0259C192.325 32.9336 192.742 32.9437 193.137 33.0554L242.383 46.342C242.91 46.4899 243.375 46.8058 243.706 47.2418C244.038 47.6778 244.218 48.21 244.22 48.7577V64.9633C244.228 65.4307 244.367 65.8865 244.62 66.2795C244.873 66.6725 245.231 66.9873 245.653 67.1885C246.075 67.3896 246.544 67.4693 247.009 67.4185C247.474 67.3678 247.915 67.1885 248.284 66.9009C248.596 66.6537 248.962 66.4841 249.353 66.4059C249.743 66.3278 250.146 66.3434 250.529 66.4515C250.913 66.5596 251.265 66.757 251.557 67.0276C251.849 67.2983 252.072 67.6343 252.209 68.0082L253.468 71.6066C253.665 72.1569 254.048 72.6212 254.551 72.9197C255.054 73.2182 255.645 73.3322 256.223 73.2423L283.098 68.7631C283.753 68.6614 284.422 68.8224 284.959 69.2111C285.497 69.5999 285.859 70.1849 285.967 70.8391L293.415 119.456C293.437 119.601 293.471 119.744 293.516 119.884L300.486 140.304C300.68 140.849 300.68 141.445 300.486 141.99L293.403 160.511C293.24 160.937 292.964 161.311 292.605 161.592C292.246 161.874 291.817 162.052 291.364 162.109L279.751 163.518C279.279 163.594 278.839 163.802 278.481 164.119C278.123 164.436 277.863 164.848 277.731 165.308C277.599 165.767 277.601 166.254 277.736 166.713C277.871 167.171 278.133 167.582 278.493 167.896L279.814 169.016C280.15 169.302 280.404 169.671 280.552 170.086C280.7 170.501 280.736 170.948 280.657 171.382L266.163 248.346C266.044 248.961 265.699 249.51 265.196 249.885C264.693 250.259 264.069 250.433 263.445 250.371L231.99 246.924C231.421 246.866 230.849 247.004 230.368 247.315C229.888 247.626 229.528 248.092 229.348 248.635L224.844 262.651C224.691 263.119 224.404 263.531 224.02 263.837C223.635 264.144 223.169 264.331 222.679 264.375L194.999 266.778C194.748 266.804 194.502 266.868 194.269 266.967L158.184 281.801C157.877 281.929 157.548 281.995 157.215 281.995C156.883 281.995 156.554 281.929 156.247 281.801L126.679 269.081C126.235 268.892 125.746 268.835 125.27 268.917L89.1973 275.107C88.6894 275.195 88.1667 275.125 87.7001 274.906L57.7801 260.563C57.1924 260.288 56.7335 259.797 56.4991 259.192C56.2646 258.587 56.2728 257.915 56.5219 257.316L67.8457 231.549C68.019 231.138 68.08 230.688 68.0225 230.246C67.9651 229.804 67.7911 229.385 67.5186 229.032L30.4772 182.164C30.1292 181.723 29.9388 181.179 29.9362 180.617V154.333C29.9391 153.841 30.086 153.361 30.3588 152.952C30.6316 152.543 31.0183 152.222 31.4712 152.031L42.493 147.451C42.7949 147.315 43.0669 147.121 43.2936 146.879C43.5203 146.638 43.6972 146.354 43.814 146.045C43.9309 145.735 43.9855 145.405 43.9748 145.074C43.964 144.743 43.888 144.418 43.7512 144.116L30.5276 115.216C30.35 114.823 30.2764 114.391 30.3139 113.961C30.3513 113.531 30.4986 113.119 30.7415 112.762L46.6954 89.5359C47.0344 89.0418 47.5385 88.6849 48.1172 88.5294L63.2155 84.5409C63.7432 84.3959 64.2092 84.0828 64.543 83.6492C64.8767 83.2155 65.06 82.6849 65.0651 82.1377V70.4239C65.0679 69.7638 65.3299 69.1311 65.7948 68.6624L71.1044 63.3402C71.4777 62.9701 71.9576 62.7262 72.4766 62.6427C72.9956 62.5592 73.5277 62.6403 73.9983 62.8747L85.3221 68.6373C85.6753 68.8141 86.0652 68.9054 86.4602 68.9036C86.8553 68.9018 87.2443 68.807 87.5959 68.6269C87.9475 68.4468 88.2518 68.1865 88.4841 67.867C88.7164 67.5474 88.8702 67.1777 88.9331 66.7877Z" fill="#870037"/>
<path d="M152.359 13.7036L133.021 32.7276L128.302 54.4566L93.2113 73.5812L86.3163 68.8881L73.9734 62.874L70.2995 68.7372L76.3137 91.2589L63.1907 84.5527L48.8724 88.3273L46.8593 107.892L53.9303 115.353L40.1782 119.015V125.041L52.7476 145.827L37.4228 154.37L48.6459 180.125L60.6114 195.488L72.1239 229.535L82.3404 264.097L87.7129 272.087L112.827 262.864L133.021 263.582L158.939 269.608L157.631 280.869L162.714 279.938L185.978 270.137L191.288 259.656L224.982 261.971L229.273 248.634L230.053 242.23L236.721 241.576L257.343 244.331L263.181 239.097V198.898L271.812 202.685L280.557 171.381L270.642 163.807L269.724 156.597L265.534 144.292L290.937 159.214L299.191 140.366L285.829 121.896L290.56 101.161L286.105 72.0085L248.12 86.9307L251.128 73.707L249.429 68.5987L235.148 80.5139L238.432 67.4286L242.094 47.9895L238.508 45.3473L193.993 33.3189L180.945 55.5135L171.383 55.1109L155.668 54.0666L158.688 48.6941L152.359 13.7036Z" fill="#5B003F"/>
<path d="M48.3068 141.839L45.5513 135.787L46.8095 128.049L49.8669 126.539V125.054L53.0124 120.21L58.775 97.9528L64.7892 91.926L68.0731 91.3976L78.9439 75.5443L91.7775 69.744L130.92 54.3311L140.168 48.5937L149.516 43.3345L153.052 43.9887L154.889 45.8257L157.707 43.3093L163.658 41.5981L165.256 46.87L177.046 48.1282L182.67 45.2847L189.086 46.0647L192.232 50.1287L201.53 51.8524L204.046 54.3688L230.469 66.674L232.696 70.738L231.802 72.6001L236.156 76.3747L244.737 79.6712L246.964 81.7598L248.423 85.7986L250.814 92.5677L252.072 94.2789L255.104 98.7203L259.621 101.476L264.327 113.542L266.717 126.539L272.505 171.91L273.134 175.684L270.114 190.38L268.252 191.965L266.843 206.422L263.182 212.096L259.873 213.178L258.073 219.469C258.073 219.469 257.155 222.565 256.815 222.703C256.476 222.841 253.934 224.527 253.934 224.527L248.738 226.226L245.026 238.015L237.779 244.81H234.797L225.989 251.855L224.731 254.875L212.552 262.991H205.519L157.858 273.056L153.278 276.327L150.334 277.107L144.634 273.056H135.059L135.273 270.338L128.768 268.778L124.893 270.426L109.443 264.135L87.248 248.584L77.0314 242.998L73.7601 234.832L68.375 222.992L58.5485 213.82L53.5409 200.647L49.5021 191.965L54.8746 180.642L45.5765 171.608L45.048 162.171L44.6832 150.407L47.6903 146.532L48.3068 141.839Z" fill="#C90052"/>
<path d="M240 240C284.183 195.817 284.183 124.183 240 80C195.817 35.8172 124.183 35.8172 80 80C35.8172 124.183 35.8172 195.817 80 240C124.183 284.183 195.817 284.183 240 240Z" fill="#C90052"/>
<g style="mix-blend-mode:multiply">
<g style="mix-blend-mode:multiply">
<path d="M62.8388 172.325C55.2896 166.034 59.7437 144.116 76.4777 147.337C93.2117 150.558 123.585 204.975 106.825 205.529C90.0662 206.082 93.2243 197.489 62.8388 172.325Z" fill="#DF00FF"/>
</g>
</g>
<g style="mix-blend-mode:multiply">
<g style="mix-blend-mode:multiply">
<path d="M120.817 225.937C126.994 228.302 129.234 243.476 118.024 245.111C106.813 246.747 75.3329 218.387 85.6753 214.26C96.0177 210.134 96.0554 216.437 120.817 225.937Z" fill="#DF00FF"/>
</g>
</g>
<g style="mix-blend-mode:multiply">
<g style="mix-blend-mode:multiply">
<path d="M97.6026 196.181C103.78 198.546 106.032 213.72 94.8219 215.356C83.6114 216.991 52.1187 188.594 62.4737 184.505C72.8287 180.416 72.8287 186.681 97.6026 196.181Z" fill="#DF00FF"/>
</g>
</g>
<g style="mix-blend-mode:multiply">
<g style="mix-blend-mode:multiply">
<path d="M201.982 237.261C207.757 236.707 213.746 247.502 204.889 253.064C196.031 258.625 162.185 248.949 169.659 241.828C177.133 234.707 178.844 239.551 201.982 237.261Z" fill="#DF00FF"/>
</g>
</g>
<g style="mix-blend-mode:multiply">
<g style="mix-blend-mode:multiply">
<path d="M180.354 256.222C183.525 257.065 183.965 263.519 177.939 264.551C171.912 265.583 156.549 254.272 162.287 252.208C168.024 250.145 167.672 252.85 180.354 256.222Z" fill="#DF00FF"/>
</g>
</g>
<g style="mix-blend-mode:multiply">
<g style="mix-blend-mode:multiply">
<path d="M189.678 227.195C192.836 228.038 193.276 234.505 187.25 235.537C181.223 236.569 165.923 225.245 171.61 223.194C177.297 221.143 176.995 223.874 189.678 227.195Z" fill="#DF00FF"/>
</g>
</g>
<path style="mix-blend-mode:screen" opacity="0.53" d="M263.395 168.563C241.515 195.325 192.42 106.71 124.993 154.119C57.5665 201.528 45.2991 121.154 86.656 82.7289C118.967 52.6958 149.566 40.0257 202.259 58.0683C254.952 76.1108 277.94 150.734 263.395 168.563Z" fill="url(#paint0_linear_187_3162)"/>
<path style="mix-blend-mode:screen" opacity="0.53" d="M56.812 150.446C78.692 123.671 127.787 212.298 195.214 164.89C262.64 117.481 274.908 197.854 233.551 236.28C201.228 266.313 170.641 278.983 117.948 260.94C65.2545 242.898 42.2421 168.249 56.812 150.446Z" fill="url(#paint1_linear_187_3162)"/>
<path d="M164.086 47.0459L150.057 56.9479L151.089 58.2061L149.252 60.3073L138.784 70.3729V75.8712L100.862 124.387H76.4525C76.4525 124.387 72.6779 124.916 72.1243 124.387C71.5707 123.859 72.1243 129.496 72.1243 129.496L69.8973 132.83L69.1172 133.874L48.3066 141.901V145.034L76.0625 136.604L94.4951 133.61L124.692 207.844L130.983 242.419L129.938 244.646L130.719 245.69L131.637 247.527L129.221 251.1L131.184 252.9L128.768 268.778L131.574 267.52L137.072 251.1L139.262 204.547L186.645 187.889L192.194 194.444L211.482 220.765L215.018 245.929L232.695 246.722L234.822 244.897L228.367 242.658L220.516 242.519L218.151 241.349L215.936 217.255L213.42 215.808L211.319 215.292L210.803 212.008L208.966 211.618L207.129 208.347L191.288 187.662L200.712 185.297L229.827 111.063L239.955 105.552L252.437 102.935V95.3858L250.813 92.5675L249.555 99.2988L239.741 100.079L225.725 86.9307L225.536 80.1742L231.827 72.5621L229.877 70.9894L227.562 72.5621V74.4998L224.001 77.0162L221.85 79.3312L219.17 83.3826L170.415 87.4466L150.372 100.821L147.943 74.9527L165.885 51.9277L166.867 47.1088L164.086 47.0459Z" fill="#773000"/>
<path d="M101.29 125.458L81.7626 100.659C81.5489 100.386 81.3939 100.072 81.3073 99.736C81.2207 99.4005 81.2043 99.0506 81.2593 98.7084L84.4299 80.0493C84.5225 79.5039 84.7923 79.0042 85.1974 78.6276L119.106 47.5501C119.372 47.3073 119.687 47.1244 120.03 47.0139C120.373 46.9034 120.736 46.8678 121.094 46.9095C121.451 46.9513 121.796 47.0694 122.104 47.2559C122.413 47.4424 122.677 47.6929 122.88 47.9905L156.739 97.8151C157.084 98.2777 157.579 98.6073 158.139 98.7485C158.699 98.8896 159.291 98.8338 159.815 98.5903C160.338 98.3468 160.763 97.9306 161.016 97.4114C161.269 96.8922 161.336 96.3017 161.205 95.739L158.55 86.1768C158.376 85.5422 158.457 84.8647 158.777 84.2895L170.226 63.7683C170.503 63.2815 170.934 62.9008 171.451 62.6866C171.969 62.4724 172.543 62.4368 173.082 62.5855L230.557 78.9421C231.011 79.0773 231.42 79.334 231.74 79.6845L240.622 89.662C240.859 89.9287 241.037 90.2428 241.143 90.5833C241.249 90.9239 241.282 91.2832 241.239 91.6373L235.325 138.581C235.263 139.113 235.372 139.652 235.636 140.118C235.901 140.584 236.308 140.954 236.798 141.173L257.369 150.219C257.868 150.446 258.282 150.824 258.552 151.301L267.976 168.488C268.165 168.849 268.264 169.25 268.264 169.658C268.264 170.066 268.165 170.467 267.976 170.828L240.912 223.006C240.643 223.525 240.203 223.934 239.666 224.163C239.129 224.393 238.528 224.429 237.968 224.264L224.48 220.175C224.095 220.062 223.744 219.854 223.461 219.571L192.169 188.934C191.78 188.576 191.289 188.35 190.764 188.287C190.239 188.224 189.708 188.328 189.246 188.585C188.783 188.841 188.414 189.236 188.189 189.714C187.964 190.192 187.895 190.729 187.992 191.249L193.025 214.022C193.128 214.478 193.098 214.954 192.937 215.394L180.896 249.453C180.712 249.964 180.368 250.403 179.914 250.702C179.46 251.001 178.922 251.146 178.379 251.114L149.542 248.95C149.032 248.908 148.547 248.713 148.152 248.389C147.756 248.066 147.469 247.629 147.327 247.138L135.211 204.548C135.075 204.104 134.82 203.706 134.472 203.399C134.125 203.091 133.699 202.885 133.242 202.805C132.785 202.724 132.314 202.771 131.882 202.941C131.45 203.111 131.074 203.397 130.794 203.768L116.514 223.547C116.248 223.91 115.889 224.194 115.475 224.371C115.061 224.548 114.607 224.611 114.161 224.553L77.5224 219.646C77.1135 219.588 76.7252 219.431 76.3917 219.187C76.0581 218.943 75.7897 218.622 75.61 218.25L65.0411 196.219C64.8306 195.773 64.7554 195.276 64.8247 194.789C64.894 194.301 65.1049 193.845 65.4312 193.476L94.8604 160.763C95.1014 160.494 95.2817 160.177 95.3893 159.832C95.4968 159.488 95.529 159.124 95.4836 158.766C95.4383 158.408 95.3165 158.064 95.1264 157.757C94.9364 157.451 94.6826 157.188 94.3823 156.988L79.1329 146.923C78.7694 146.678 78.4759 146.343 78.2817 145.95C78.0876 145.557 77.9993 145.12 78.0257 144.683L78.831 131.812C78.8756 131.175 79.1603 130.579 79.6275 130.145C80.0946 129.711 80.7094 129.47 81.3473 129.471H99.3396C99.7994 129.458 100.247 129.319 100.633 129.07C101.02 128.82 101.33 128.469 101.531 128.056C101.732 127.642 101.816 127.181 101.774 126.723C101.731 126.265 101.564 125.827 101.29 125.458Z" fill="#E54600"/>
<path d="M122.855 47.9897L116.35 91.9134L151.089 118.273L104.473 129.496L128.768 144.984L86.3168 197.891L116.513 223.584L133.801 199.628L135.022 203.906L169.773 209.24L192.81 173.973L223.548 187.587L257.343 150.168L236.772 141.122L241.213 91.5863L229.311 81.4326L181.462 132.767L170.817 133.635L166.527 108.144L141.426 75.3052L122.855 47.9897Z" fill="#C63D00"/>
<path d="M116.35 91.9137L105.655 93.5242L86.5308 96.3425C86.09 96.4094 85.6397 96.3692 85.2177 96.2255C84.7956 96.0818 84.4144 95.8387 84.106 95.5168C83.7976 95.1948 83.5712 94.8034 83.4457 94.3756C83.3203 93.9478 83.2996 93.4961 83.3853 93.0586L86.3169 77.5576L117.281 52.3937C117.713 52.0409 118.24 51.8258 118.795 51.7765C119.351 51.7272 119.908 51.8459 120.395 52.1171C120.882 52.3884 121.276 52.7997 121.526 53.2978C121.776 53.7958 121.871 54.3575 121.798 54.9101L116.35 91.9137Z" fill="#FF8B00"/>
<path d="M81.0575 132.616L80.1516 143.499C80.1161 143.945 80.2 144.392 80.3946 144.795C80.5892 145.197 80.8875 145.54 81.2588 145.789L104.624 161.328L126.818 143.713L84.3162 130.427C83.9566 130.314 83.5763 130.284 83.2034 130.338C82.8305 130.392 82.4745 130.529 82.1617 130.74C81.8489 130.95 81.5873 131.227 81.3961 131.552C81.205 131.877 81.0893 132.241 81.0575 132.616Z" fill="#FF8B00"/>
<path d="M65.4299 193.526L86.316 197.892L113.669 163.807L94.8592 160.788L65.4299 193.526Z" fill="#FF8B00"/>
<path d="M135.211 204.547L147.289 247.024L171.195 248.559C172.012 248.611 172.83 248.474 173.585 248.158C174.341 247.842 175.013 247.355 175.549 246.736C176.085 246.117 176.47 245.383 176.675 244.59C176.881 243.798 176.9 242.968 176.731 242.167L169.798 209.202L135.06 203.905L135.211 204.547Z" fill="#FF8B00"/>
<path d="M229.31 81.4335L180.354 65.0517C178.29 64.358 176.05 64.4071 174.019 65.1905C171.988 65.974 170.294 67.4425 169.231 69.3422L158.637 88.3284L177.397 131.812L181.411 132.768L229.31 81.4335Z" fill="#FF8B00"/>
<path d="M212.702 99.2494L188.054 88.7182L158.688 88.3281L212.702 99.2494Z" fill="#FF5500"/>
<path d="M88.0652 77.9476L107.089 69.7441L113.669 88.7178L103.478 74.1478L88.0652 77.9476Z" fill="#FF5500"/>
<path d="M116.35 91.9136L101.29 125.457L151.089 118.273L116.35 91.9136Z" fill="#FF5500"/>
<path d="M86.3162 197.892L81.5728 220.238L98.9862 219.709C99.6053 219.689 100.206 219.493 100.717 219.143C101.228 218.793 101.628 218.304 101.87 217.733C102.112 217.163 102.186 216.536 102.083 215.925C101.98 215.314 101.704 214.746 101.289 214.286L86.3162 197.892Z" fill="#FF5500"/>
<path d="M104.472 129.496V136.743L126.818 143.739L104.472 129.496Z" fill="#FF5500"/>
<path d="M216.566 242.759L213.42 221.458L190.383 187.109L196.535 171.155L186.885 165.241L190.383 151.967L178.153 129.974L158.689 88.3277L151.617 76.9033L177.02 48.1409L165.231 46.8701L141.426 75.3054L165.231 110.346L166.452 114.033L121.937 121.594L100.925 125.004L76.1886 125.432L74.792 134.164L48.307 141.839L47.6653 146.456L78.4659 137.712L78.9818 129.496H104.473L124.629 125.042L169.773 124.035L186.885 153.024L182.255 165.342L190.383 172.577L186.18 182.994L187.602 189.411L210.627 221.458L210.979 247.301L225.977 251.919L232.671 246.697L216.566 242.759Z" fill="url(#paint2_radial_187_3162)"/>
<path d="M134.141 185.914L133.801 199.628L128.769 206.598L133.109 252.938L128.769 268.779L135.236 270.427L138.218 256.373L135.022 203.906L139.262 187.008L134.141 185.914Z" fill="url(#paint3_linear_187_3162)"/>
<g style="mix-blend-mode:multiply" opacity="0.47">
<path d="M100.157 180.642L107.266 196.734L133.927 194.759L175.385 200.647L183.563 175.723L190.382 172.577H195.994L218.39 185.31L257.344 150.169L236.772 141.122L239.955 105.528L217.257 102.911L207.859 109.114L104.473 175.27L100.157 180.642Z" fill="#C63D00"/>
</g>
<path d="M127.509 117.266L168.678 123.847C169.044 123.914 169.391 124.062 169.694 124.279C169.996 124.497 170.246 124.779 170.427 125.105L186.33 152.056C186.517 152.376 186.631 152.734 186.664 153.104C186.697 153.474 186.647 153.846 186.519 154.194L172.339 191.94C172.125 192.497 171.72 192.959 171.197 193.244C170.674 193.53 170.067 193.621 169.483 193.501L134.253 185.951C134.028 185.921 133.799 185.921 133.574 185.951L107.768 187.562C107.239 187.602 106.711 187.474 106.259 187.196C105.807 186.918 105.455 186.505 105.252 186.014L98.1934 168.714C97.9932 168.214 97.9584 167.664 98.0943 167.143C98.2302 166.622 98.5295 166.158 98.9483 165.82L132.542 139.197C133.055 138.784 133.386 138.187 133.464 137.533C133.541 136.879 133.36 136.22 132.957 135.699L123.219 123.268C122.858 122.799 122.674 122.217 122.699 121.626C122.725 121.035 122.958 120.471 123.357 120.034L125.207 118.034C125.495 117.722 125.857 117.488 126.26 117.354C126.662 117.22 127.092 117.19 127.509 117.266Z" fill="#FF6700"/>
<path d="M172.264 191.903L147.943 160.007L166.526 138.266L150.044 135.787L170.364 125.042L186.884 153.024L172.264 191.903Z" fill="#F25100"/>
<path d="M150.044 135.787L128.881 124.3C128.281 123.973 127.759 123.518 127.353 122.969C126.947 122.419 126.665 121.787 126.529 121.117C126.392 120.447 126.404 119.755 126.562 119.09C126.721 118.425 127.023 117.803 127.447 117.267L169.773 124.023L170.364 125.03L150.044 135.787Z" fill="#FF9E10"/>
<path d="M147.943 160.007L130.203 162.108L98.9492 165.82L132.556 139.196L166.527 138.265L147.943 160.007Z" fill="#FF9E10"/>
<path d="M134.141 185.913L150.849 163.807L164.564 184.164C164.998 184.815 165.233 185.578 165.24 186.361C165.247 187.143 165.024 187.91 164.6 188.568C164.177 189.226 163.57 189.745 162.855 190.063C162.14 190.38 161.347 190.482 160.575 190.355L134.141 185.913Z" fill="#FF9E10"/>
<g style="mix-blend-mode:multiply" opacity="0.47">
<path d="M133.663 63.894L140.771 110.447L149.327 116.94L166.451 114.033L165.231 110.347L133.663 63.894Z" fill="#C63D00"/>
</g>
<path d="M58.8498 4.46875L76.15 14.2449L79.761 28.2109L72.9919 50.5691L55.8804 24.0211L58.8498 4.46875Z" fill="#FF6700"/>
<path d="M55.8804 24.0211L65.1659 17.5666L58.8498 4.46875L55.8804 24.0211Z" fill="#FF9E10"/>
<path d="M65.1658 17.5669L79.7609 28.2112L72.9918 50.5694L65.1658 17.5669Z" fill="#F25100"/>
<path d="M65.1659 17.5669L72.9919 50.5694L55.8804 24.0215L65.1659 17.5669Z" fill="#FF6700"/>
<path d="M72.4636 12.1567L70.4504 21.4171L79.7611 28.2113L76.1501 14.2453L72.4636 12.1567Z" fill="#FF6700"/>
<path d="M60.4355 20.8512C60.4355 20.8512 65.8584 15.1012 72.7281 50.1546C72.7281 50.1546 65.7829 19.14 69.2681 21.4929C72.7533 23.8457 79.6986 28.2116 79.6986 28.2116C79.6986 28.2116 71.1302 22.1471 71.3693 16.8879C71.3693 16.8879 70.2621 21.279 68.2615 19.0142C66.261 16.7495 58.8502 4.49463 58.8502 4.49463L60.4355 20.8512Z" fill="#FF9E10"/>
<path d="M55.654 39.0571L50.5834 56.3322L57.4658 80.5147L60.0576 63.7681L61.1774 50.7458L55.654 39.0571Z" fill="#FF6700"/>
<path d="M60.5106 51.7275L55.8804 58.4966L57.4658 80.5151L59.7683 65.6306L60.5106 51.7275Z" fill="#F25100"/>
<path d="M50.5834 56.3322L55.8805 58.4963L55.654 39.0571L50.5834 56.3322Z" fill="#FF9E10"/>
<path d="M55.3268 58.2692L50.5834 56.3315L57.4658 80.5141L55.3268 58.2692Z" fill="#FF6700"/>
<path d="M52.3331 57.0486C53.0386 57.2413 53.6898 57.595 54.2356 58.0818C54.7814 58.5687 55.2069 59.1754 55.4786 59.8544C56.0403 62.7039 56.4143 65.5871 56.5984 68.4856C56.5984 68.4856 55.9064 60.1312 57.6301 56.8096C59.3539 53.4879 59.5678 53.123 59.5678 53.123C59.5678 53.123 56.6613 57.6274 56.2587 57.2248C55.8561 56.8221 55.7932 55.1865 55.7932 55.1865L52.3331 57.0486Z" fill="#FF9E10"/>
<path d="M133.285 160.787C133.285 160.787 157.518 155.603 144.118 172.702L161.305 179.383C161.305 179.383 148.396 160.586 153.668 153.339C158.94 146.091 133.285 160.787 133.285 160.787Z" fill="#FF9E10"/>
<path d="M156.574 136.768C156.574 136.768 149.793 135.913 157.732 131.736C165.671 127.558 148.396 130.314 148.396 130.314L150.044 135.787C150.044 135.787 166.137 138.303 156.197 138.543L166.527 138.266L156.574 136.768Z" fill="#FF9E10"/>
<path d="M121.143 186.631C121.143 186.631 134.681 185.372 139.614 178.679L140.696 184.265L134.14 185.913L121.143 186.631Z" fill="#FF9E00"/>
<path d="M104.472 92.9578C104.472 92.9578 114.752 90.9447 111.807 98.67C108.863 106.395 101.905 124.086 101.905 124.086C101.905 124.086 115.167 92.2407 121.835 97.0218C128.504 101.803 145.452 114.045 145.452 114.045C145.452 114.045 142.709 113.253 140.545 102.583C138.381 91.9135 136.04 79.4448 136.04 79.4448C136.04 79.4448 140.545 107.566 135.248 104.357C129.951 101.149 116.979 95.663 117.633 86.7423C118.287 77.8217 119.57 69.6812 119.57 69.6812L115.016 90.3533L104.472 92.9578Z" fill="#FF8B00"/>
<path d="M99.9554 135.347C99.9554 135.347 103.994 137.058 104.472 129.509L114.84 127.219C114.84 127.219 105.504 129.044 110.751 132.957C115.997 136.87 126.352 143.752 131.184 140.292L120.955 148.407C120.955 148.407 125.384 144.519 116.425 138.015C107.467 131.51 101.088 129.056 106.737 137.448C112.386 145.841 99.9554 135.347 99.9554 135.347Z" fill="#FF8B00"/>
<path d="M75.697 195.665C75.697 195.665 84.1773 196.76 83.9508 201.956C83.7243 207.153 82.6171 215.381 82.6171 215.381C82.6171 215.381 85.2719 198.773 88.4048 201.428C91.5377 204.083 96.7341 209.354 96.7341 209.354C96.7341 209.354 87.3731 198.836 97.5142 207.467C97.5142 207.467 87.0208 198.811 89.5498 194.885C92.0788 190.96 98.0049 183.373 98.0049 183.373L75.697 195.665Z" fill="#FF8B00"/>
<path d="M155.656 207.064C155.656 207.064 169.975 209.581 175.096 201.088C175.096 201.088 170.226 210.537 173.523 227.057C176.819 243.577 155.656 207.064 155.656 207.064Z" fill="#FF8B00"/>
<defs>
<linearGradient id="paint0_linear_187_3162" x1="214.931" y1="60.021" x2="133.572" y2="195.359" gradientUnits="userSpaceOnUse">
<stop stop-color="#00FFFF"/>
<stop offset="0.02" stop-color="#00F0F0"/>
<stop offset="0.09" stop-color="#00BEBE"/>
<stop offset="0.17" stop-color="#009191"/>
<stop offset="0.25" stop-color="#006A6A"/>
<stop offset="0.34" stop-color="#004949"/>
<stop offset="0.43" stop-color="#002E2E"/>
<stop offset="0.53" stop-color="#001A1A"/>
<stop offset="0.65" stop-color="#000B0B"/>
<stop offset="0.78" stop-color="#000303"/>
<stop offset="1"/>
</linearGradient>
<linearGradient id="paint1_linear_187_3162" x1="110.706" y1="258.455" x2="192.065" y2="123.117" gradientUnits="userSpaceOnUse">
<stop stop-color="#FFFF00"/>
<stop offset="0.02" stop-color="#F0F000"/>
<stop offset="0.09" stop-color="#BEBE00"/>
<stop offset="0.17" stop-color="#919100"/>
<stop offset="0.25" stop-color="#6A6A00"/>
<stop offset="0.34" stop-color="#494900"/>
<stop offset="0.43" stop-color="#2E2E00"/>
<stop offset="0.53" stop-color="#1A1A00"/>
<stop offset="0.65" stop-color="#0B0B00"/>
<stop offset="0.78" stop-color="#030300"/>
<stop offset="1"/>
</linearGradient>
<radialGradient id="paint2_radial_187_3162" cx="0" cy="0" r="1" gradientUnits="userSpaceOnUse" gradientTransform="translate(140.168 149.388) scale(97.6361)">
<stop stop-color="#00FFFF"/>
<stop offset="0.13" stop-color="#00F4FF"/>
<stop offset="0.37" stop-color="#00D8FF"/>
<stop offset="0.67" stop-color="#00A9FF"/>
<stop offset="1" stop-color="#006FFF"/>
</radialGradient>
<linearGradient id="paint3_linear_187_3162" x1="134.015" y1="185.914" x2="134.015" y2="270.427" gradientUnits="userSpaceOnUse">
<stop stop-color="#00FFFF"/>
<stop offset="0.14" stop-color="#00DCFF"/>
<stop offset="0.32" stop-color="#00B5FF"/>
<stop offset="0.5" stop-color="#0096FF"/>
<stop offset="0.68" stop-color="#0081FF"/>
<stop offset="0.85" stop-color="#0073FF"/>
<stop offset="1" stop-color="#006FFF"/>
</linearGradient>
</defs>
</svg>
