<svg width="475" height="81" viewBox="0 0 475 81" fill="none" xmlns="http://www.w3.org/2000/svg">
<path fill-rule="evenodd" clip-rule="evenodd" d="M78.8557 79.3625C84.51 79.3625 89.1363 74.7362 89.1363 69.082V44.2282H128.68L143.026 28.4685H89.1363V15.9846H155.386L169.733 0.224609H89.1363H74.6752H68.5752V48.3332L17.7104 3.41772C15.8347 1.45404 13.1928 0.224609 10.2805 0.224609C4.62625 0.224609 0 4.85087 0 10.5051V79.3625H20.5611V31.2503L71.4847 76.231L71.4221 76.1658C73.298 78.1326 75.9398 79.3625 78.8557 79.3625Z" fill="#4BDF15"/>
<path d="M142.201 50.2293C142.201 46.304 143.317 43.2455 145.548 41.027C147.78 38.8086 150.865 37.6928 154.803 37.6928H180.007V48.3255H159.135C157.035 48.3255 155.985 49.3625 155.985 51.4502V66.7038C155.985 67.4784 156.247 68.1347 156.772 68.6469C157.297 69.1717 157.954 69.4346 158.741 69.4346C160.789 69.4346 163.047 69.4346 165.515 69.4346C167.983 69.4346 170.293 69.3425 172.446 69.1587C174.967 68.9093 177.487 68.6598 180.007 68.4104V78.6499C177.067 79.07 174.1 79.2801 171.107 79.2801C168.534 79.7526 165.738 79.9886 162.719 79.9886C159.7 79.9886 156.799 79.9886 154.016 79.9886C150.445 79.9886 147.583 78.9123 145.43 76.7728C143.277 74.6329 142.201 71.7841 142.201 68.2397V50.2293ZM198.517 37.6928L199.305 42.8119C200.513 41.762 201.851 40.7906 203.322 39.8978C204.582 39.1629 206.065 38.4805 207.772 37.8501C209.478 37.2199 211.382 36.905 213.482 36.905H217.027V49.113H210.332C208.967 49.113 207.667 49.2446 206.433 49.5069C205.199 49.7699 204.109 50.0323 203.164 50.2946C202.061 50.6625 201.037 51.0564 200.092 51.476V79.4374H186.308V37.6928H198.517ZM237.112 46.7503C235.011 46.7503 233.961 47.8008 233.961 49.9008V54.2328H247.351V49.9008C247.351 47.8008 246.301 46.7503 244.2 46.7503H237.112ZM220.177 49.4418C220.177 45.5165 221.293 42.458 223.524 40.2394C225.757 38.0209 228.841 36.905 232.78 36.905H248.532C252.471 36.905 255.556 38.0209 257.787 40.2523C260.019 42.4838 261.134 45.5687 261.134 49.5069V64.0785H233.961V67.0582C233.961 67.8066 234.223 68.4239 234.749 68.9224C235.273 69.4211 235.93 69.6706 236.718 69.6706C238.976 69.6706 241.43 69.6706 244.082 69.6706C246.734 69.6706 249.215 69.6706 251.525 69.6706C254.203 69.3689 256.882 69.0801 259.559 68.778V78.6499C256.514 79.07 253.389 79.2801 250.187 79.2801C247.456 79.7526 244.489 79.9886 241.286 79.9886C238.083 79.9886 234.985 79.9886 231.992 79.9886C228.421 79.9886 225.559 78.9123 223.406 76.7728C221.254 74.6329 220.177 71.7841 220.177 68.2397V49.4418ZM284.764 69.1981C285.762 69.1981 286.812 69.1194 287.914 68.9621C289.017 68.8042 290.041 68.6205 290.986 68.4104C292.089 68.2004 293.165 67.9381 294.215 67.6228V62.8969H282.795C282.007 62.8969 281.35 63.1597 280.825 63.6847C280.3 64.2098 280.038 64.866 280.038 65.6537V66.4413C280.038 67.229 280.3 67.8852 280.825 68.4104C281.35 68.9357 282.007 69.1981 282.795 69.1981H284.764ZM278.069 80.2251C274.498 80.2251 271.636 79.1486 269.483 76.9958C267.331 74.843 266.254 71.9813 266.254 68.4104V64.866C266.254 61.2953 267.331 58.434 269.483 56.2806C271.636 54.1278 274.498 53.0514 278.069 53.0514H294.215V50.0323C294.215 49.271 293.953 48.6408 293.428 48.1418C292.903 47.63 292.246 47.3805 291.459 47.3805C289.358 47.3805 287.087 47.3805 284.645 47.3805C282.204 47.3805 279.906 47.4985 277.754 47.748C275.233 48.0761 272.713 48.2469 270.192 48.2469V38.5198C273.081 38.0731 276.021 37.8501 279.014 37.8501C281.587 37.3776 284.396 37.1412 287.442 37.1412C290.487 37.1412 293.402 37.1412 296.185 37.1412C299.755 37.1412 302.617 38.2175 304.77 40.3574C306.922 42.4973 307.999 45.3457 307.999 48.89V79.4374H295.791L295.003 75.4992C293.637 76.392 292.167 77.1795 290.592 77.8622C289.227 78.4398 287.704 78.978 286.024 79.4767C284.344 79.9757 282.611 80.2251 280.825 80.2251H278.069ZM331.234 37.6928H341.08V48.3255H331.234V66.4413C331.234 67.229 331.497 67.8852 332.022 68.4104C332.547 68.9357 333.204 69.1981 333.991 69.1981H344.231V79.4767C342.708 79.6869 341.106 79.792 339.426 79.792C338.008 80.0281 336.406 80.1465 334.621 80.1465C332.836 80.1465 331.051 80.1465 329.265 80.1465C325.694 80.1465 322.833 79.07 320.68 76.9303C318.527 74.7773 317.451 71.9285 317.451 68.3581V48.3255H312.725V37.6928H317.451L319.026 28.2803H331.234V37.6928ZM390.701 67.6228C390.701 71.561 389.585 74.646 387.354 76.8778C385.122 79.1093 382.037 80.2251 378.099 80.2251H359.983C356.045 80.2251 352.96 79.1093 350.728 76.8778C348.497 74.646 347.381 71.561 347.381 67.6228V49.5069C347.381 45.5687 348.497 42.4838 350.728 40.2523C352.96 38.0209 356.045 36.905 359.983 36.905H378.099C382.037 36.905 385.122 38.0209 387.354 40.2523C389.585 42.4838 390.701 45.5687 390.701 49.5069V67.6228ZM376.918 50.6885C376.918 48.5883 375.867 47.5378 373.767 47.5378H364.315C362.215 47.5378 361.165 48.5883 361.165 50.6885V66.4413C361.165 68.5419 362.215 69.5919 364.315 69.5919H373.767C375.867 69.5919 376.918 68.5419 376.918 66.4413V50.6885ZM409.998 37.6928L410.786 42.8119C411.994 41.762 413.333 40.7906 414.803 39.8978C416.063 39.1629 417.547 38.4805 419.253 37.8501C420.96 37.2199 422.863 36.905 424.964 36.905H428.508V49.113H421.813C420.448 49.113 419.148 49.2446 417.914 49.5069C416.68 49.7699 415.591 50.0323 414.646 50.2946C413.543 50.6625 412.519 51.0564 411.574 51.476V79.4374H397.79V37.6928H409.998ZM445.442 50.6885C445.442 51.476 445.705 52.1327 446.23 52.6576C446.755 53.1827 447.412 53.4451 448.199 53.4451H462.377C465.947 53.4451 468.809 54.5087 470.962 56.6486C473.115 58.775 474.191 61.6105 474.191 65.1548V68.2791C474.191 71.8234 473.115 74.6593 470.962 76.7859C468.809 78.9256 465.947 79.9886 462.377 79.9886C459.016 79.9886 455.577 79.9886 452.059 79.9886C448.54 79.9886 445.311 79.7526 442.371 79.2801C438.958 79.2801 435.649 79.07 432.446 78.6628V68.4499C435.282 68.752 438.144 69.0537 441.032 69.356C443.552 69.356 446.282 69.356 449.223 69.356C452.163 69.356 454.973 69.356 457.651 69.356C458.439 69.356 459.095 69.1065 459.62 68.6076C460.145 68.0953 460.408 67.4655 460.408 66.7172V64.0785H443.473C439.903 64.0785 437.041 63.002 434.888 60.8492C432.735 58.6964 431.659 55.8345 431.659 52.2637V49.5069C431.659 45.9366 432.735 43.0749 434.888 40.9221C437.041 38.7691 439.903 37.6928 443.473 37.6928H470.253V47.9317H448.199C447.412 47.9317 446.755 48.1945 446.23 48.7194C445.705 49.2445 445.442 49.9008 445.442 50.6885Z" fill="#4BDF15"/>
</svg>
