<svg width="100" height="140" viewBox="0 0 100 140" fill="none" xmlns="http://www.w3.org/2000/svg">
<g clip-path="url(#clip0_246_4470)">
<g opacity="0.1">
<path opacity="0.1" d="M74.5884 33.8286C82.8975 29.6816 68.207 25.6345 64.3405 32.2186C60.4739 38.8027 101.272 38.1754 90.4422 32.8015C90.4422 32.8015 108.612 35.0221 92.2758 39.6355C75.94 44.2488 38.1057 24.8961 70.9158 27.522C103.726 30.1479 74.5884 33.8286 74.5884 33.8286Z" fill="#D2EFFF"/>
<path opacity="0.1" d="M92.835 54.1083C83.778 69.9412 45.4674 51.8488 62.5343 52.7537C79.6013 53.6586 91.6163 54.558 80.8144 56.1901C80.8144 56.1901 103.714 56.1901 75.8289 52.2097C47.9435 48.2292 40.2437 43.5215 54.1753 55.6461C68.107 67.7706 115.059 57.8667 105.692 52.2097C96.3248 46.5527 111.785 41.8949 109.176 49.3118C109.176 49.3118 130.509 36.9763 92.3253 41.4286C92.3253 41.4286 115.524 43.8324 94.3251 45.942C73.1257 48.0516 33.9343 29.9703 62.4568 35.0222C62.4568 35.0222 26.2788 22.3924 52.9179 41.412C79.557 60.4315 101.892 38.2809 92.835 54.1083ZM80.5596 47.6352C79.3797 48.3236 66.8163 48.1904 62.0136 43.8158C59.1774 41.2399 84.0162 45.6089 80.5596 47.6352ZM99.233 48.4124C102.695 50.1834 108.966 56.1846 94.4691 56.6731C92.8294 56.7286 95.7764 46.6415 99.2552 48.4124H99.233Z" fill="#D2EFFF"/>
<path opacity="0.1" d="M101.897 64.8229C109.486 61.2533 121.767 54.9301 112.777 62.6523C103.786 70.3744 61.3434 80.4949 54.1864 70.2745C47.0295 60.0541 81.3573 66.0109 76.7153 69.1642C76.7153 69.1642 102.141 66.7993 64.9218 62.6301C27.7025 58.4609 35.9562 51.3716 46.038 55.0134C46.038 55.0134 16.2913 45.5758 40.8475 60.2818C65.4038 74.9878 11.4277 65.5946 57.9422 75.7039C104.457 85.8132 108.423 71.5403 108.423 71.5403C108.423 71.5403 104.545 76.8642 87.4451 75.7039C70.3449 74.5436 103.687 74.8712 114.998 65.6723C126.31 56.4734 126.504 47.752 101.272 65.1171L101.897 64.8229Z" fill="#D2EFFF"/>
<path opacity="0.1" d="M106.296 79.3456C106.296 79.3456 104.313 100.813 43.1462 76.3145C43.1462 76.3145 64.1627 90.0212 82.9192 90.6985C101.676 91.3758 47.6497 101.035 43.1462 80.8056C43.1462 80.8056 28.4002 104.372 86.398 94.7456C120.238 89.1219 96.6792 95.6727 96.6792 95.6727C96.6792 95.6727 121.535 92.3418 99.1054 88.8998C99.0888 88.8998 128.149 76.3144 106.296 79.3456Z" fill="#D2EFFF"/>
<path opacity="0.1" d="M97.9814 97.0548C97.9814 97.0548 78.6488 107.553 52.3531 102.162C26.0575 96.7717 59.7926 98.6314 59.7926 98.6314C59.7926 98.6314 35.9176 93.3963 37.8509 98.7869C39.7842 104.177 81.496 103.961 77.9453 106.881C74.3945 109.801 53.5109 110.911 63.1772 108.319C63.1772 108.319 39.4795 107.42 67.8635 111.533C96.2475 115.647 95.2781 103.972 95.2781 103.972C95.2781 103.972 91.3396 110.889 84.0608 108.319C76.782 105.748 110.251 94.8564 98.8012 105.815C98.8012 105.815 111.47 95.9334 96.0315 99.2365L97.9814 97.0548Z" fill="#D2EFFF"/>
<path opacity="0.1" d="M74.9758 115.025C74.9758 115.025 61.2436 117.49 56.2193 112.411C56.2193 112.411 53.7044 121.143 74.9758 115.025Z" fill="#D2EFFF"/>
</g>
<path style="mix-blend-mode:screen" d="M109.575 105C128.863 85.67 128.863 54.33 109.575 35C90.2875 15.67 59.0157 15.67 39.7279 35C20.4401 54.33 20.4401 85.67 39.7279 105C59.0157 124.33 90.2875 124.33 109.575 105Z" fill="url(#paint0_radial_246_4470)"/>
<path style="mix-blend-mode:screen" opacity="0.53" d="M118.4 75.8038C108.844 87.5175 87.412 48.7456 58.0198 69.4861C28.6276 90.2267 23.1989 55.0632 41.2575 38.2532C55.3664 25.1127 68.6998 19.5722 91.7216 27.4665C114.744 35.3608 124.737 68.0039 118.4 75.8038Z" fill="url(#paint1_linear_246_4470)"/>
<path style="mix-blend-mode:screen" opacity="0.55" d="M30.2729 65.0007C39.8228 53.2869 61.2549 92.0588 90.6526 71.3183C120.05 50.5778 125.446 85.7523 107.393 102.557C93.2783 115.692 79.9449 121.238 56.9231 113.343C33.9012 105.449 23.9191 72.8061 30.2729 65.0007Z" fill="url(#paint2_linear_246_4470)"/>
<g style="mix-blend-mode:screen">
<path style="mix-blend-mode:screen" d="M75.2582 24.4074C62.152 19.1557 85.3234 14.0316 91.4168 22.37C97.5101 30.7084 33.1863 29.909 50.2588 23.1306C50.2588 23.1306 21.6089 25.9064 47.3672 31.7854C73.1256 37.6645 132.78 13.099 81.0525 16.4243C29.3253 19.7497 75.2582 24.4074 75.2582 24.4074Z" fill="url(#paint3_linear_246_4470)"/>
<path style="mix-blend-mode:screen" d="M109.431 34.0282C151.437 9.94564 94.3918 25.9452 94.3918 25.9452C139.355 19.522 77.5131 42.411 44.0937 39.7463C10.6743 37.0815 47.2457 34.0282 47.2457 34.0282C-12.9513 28.3989 20.6564 44.0209 20.6564 44.0209C16.5351 34.6278 40.8753 40.529 26.146 47.685C11.4166 54.8409 85.4567 67.3929 107.421 52.0429C129.384 36.6929 117.264 42.6386 73.2865 47.685C29.309 52.7313 65.4095 52.7313 65.4095 52.7313C48.3868 50.6661 67.3316 49.5225 94.2422 48.3733C121.153 47.2242 60.7453 70.1409 46.4646 50.0943C32.184 30.0477 67.4258 58.1107 109.431 34.0282ZM95.0897 37.0538C87.5173 42.6053 67.7028 42.7607 65.8471 41.8892C60.3963 39.3243 99.5601 33.795 95.0897 37.0538ZM43.9165 53.342C21.0552 52.698 30.9431 45.1201 36.3995 42.8829C41.8558 40.6456 46.4978 53.4086 43.9165 53.342Z" fill="url(#paint4_linear_246_4470)"/>
<path style="mix-blend-mode:screen" d="M32.195 63.6566C20.2298 59.1377 0.869488 51.1268 15.0227 60.8809C29.176 70.6349 96.1421 83.5033 107.426 70.5516C118.71 57.5999 64.5895 65.1555 71.9071 69.1748C71.9071 69.1748 31.8183 66.1826 90.503 60.8975C149.188 55.6125 136.176 46.6801 120.305 51.2601C120.305 51.2601 167.207 39.2743 128.487 57.9219C89.7662 76.5695 174.874 64.6559 101.532 77.4577C28.19 90.2595 21.9082 72.2171 21.9082 72.2171C21.9082 72.2171 28.0016 78.9622 54.9842 77.491C81.9667 76.0199 29.3754 76.4307 11.544 64.7891C-6.28745 53.1476 -6.59766 42.0945 33.1865 64.0619L32.195 63.6566Z" fill="url(#paint5_linear_246_4470)"/>
<path style="mix-blend-mode:screen" d="M25.2595 82.0487C25.2595 82.0487 28.3893 109.251 124.864 78.207C124.864 78.207 91.7215 95.5667 62.1521 96.4217C32.5826 97.2766 117.762 109.512 124.864 83.8752C124.864 83.8752 148.129 113.72 56.6625 101.524C3.30676 94.4064 40.4541 102.695 40.4541 102.695C40.4541 102.695 1.25717 98.4646 36.6264 94.1233C36.6264 94.1455 -9.19018 78.207 25.2595 82.0487Z" fill="url(#paint6_linear_246_4470)"/>
<path style="mix-blend-mode:screen" d="M38.3715 104.472C38.3715 104.472 68.8384 117.795 110.323 110.939C151.808 104.083 98.5907 106.47 98.5907 106.47C98.5907 106.47 136.259 99.8361 133.19 106.67C130.121 113.504 64.357 113.215 69.9629 116.913C75.5688 120.61 108.495 122.02 93.2285 118.739C93.2285 118.739 130.598 117.596 85.8444 122.803C41.0914 128.01 42.6369 113.226 42.6369 113.226C44.6832 115.83 47.4689 117.75 50.6267 118.735C53.7844 119.719 57.1657 119.72 60.3243 118.739C71.802 115.486 19.0278 101.685 37.0864 115.564C37.0864 115.564 17.1057 103.05 41.4182 107.236L38.3715 104.472Z" fill="url(#paint7_linear_246_4470)"/>
<path style="mix-blend-mode:screen" d="M74.6491 127.227C74.6491 127.227 96.2972 130.347 104.224 123.896C104.241 123.919 108.185 134.978 74.6491 127.227Z" fill="url(#paint8_linear_246_4470)"/>
</g>
</g>
<defs>
<radialGradient id="paint0_radial_246_4470" cx="0" cy="0" r="1" gradientUnits="userSpaceOnUse" gradientTransform="translate(74.651 69.996) scale(49.3895 49.4975)">
<stop offset="0.29"/>
<stop offset="0.42" stop-color="#010203"/>
<stop offset="0.51" stop-color="#050A0C"/>
<stop offset="0.6" stop-color="#0C181C"/>
<stop offset="0.67" stop-color="#152B33"/>
<stop offset="0.75" stop-color="#214450"/>
<stop offset="0.81" stop-color="#306274"/>
<stop offset="0.88" stop-color="#42869E"/>
<stop offset="0.94" stop-color="#56AFCE"/>
<stop offset="1" stop-color="#6AD8FF"/>
</radialGradient>
<linearGradient id="paint1_linear_246_4470" x1="97.2552" y1="28.3059" x2="61.618" y2="87.4502" gradientUnits="userSpaceOnUse">
<stop stop-color="#00FDFD"/>
<stop offset="0.12" stop-color="#00C3C3"/>
<stop offset="0.25" stop-color="#008F8F"/>
<stop offset="0.37" stop-color="#006363"/>
<stop offset="0.5" stop-color="#003F3F"/>
<stop offset="0.62" stop-color="#002323"/>
<stop offset="0.75" stop-color="#001010"/>
<stop offset="0.87" stop-color="#000404"/>
<stop offset="1"/>
</linearGradient>
<linearGradient id="paint2_linear_246_4470" x1="65.4808" y1="116.371" x2="79.8822" y2="58.7929" gradientUnits="userSpaceOnUse">
<stop stop-color="#FF00FF"/>
<stop offset="0.01" stop-color="#F600F6"/>
<stop offset="0.05" stop-color="#C800C8"/>
<stop offset="0.09" stop-color="#9D009D"/>
<stop offset="0.14" stop-color="#770077"/>
<stop offset="0.2" stop-color="#570057"/>
<stop offset="0.25" stop-color="#3B003B"/>
<stop offset="0.32" stop-color="#250025"/>
<stop offset="0.4" stop-color="#140014"/>
<stop offset="0.49" stop-color="#090009"/>
<stop offset="0.63" stop-color="#020002"/>
<stop offset="1"/>
</linearGradient>
<linearGradient id="paint3_linear_246_4470" x1="36.6263" y1="24.4074" x2="101.504" y2="24.4074" gradientUnits="userSpaceOnUse">
<stop/>
<stop offset="0.09" stop-color="#1C1F32"/>
<stop offset="0.25" stop-color="#4C5689"/>
<stop offset="0.38" stop-color="#6F7FC8"/>
<stop offset="0.48" stop-color="#8598F0"/>
<stop offset="0.53" stop-color="#8DA1FF"/>
<stop offset="1"/>
</linearGradient>
<linearGradient id="paint4_linear_246_4470" x1="11.3114" y1="40.0349" x2="124.864" y2="40.0349" gradientUnits="userSpaceOnUse">
<stop/>
<stop offset="0.09" stop-color="#1C1F32"/>
<stop offset="0.25" stop-color="#4C5689"/>
<stop offset="0.38" stop-color="#6F7FC8"/>
<stop offset="0.48" stop-color="#8598F0"/>
<stop offset="0.53" stop-color="#8DA1FF"/>
<stop offset="1"/>
</linearGradient>
<linearGradient id="paint5_linear_246_4470" x1="-0.00573953" y1="64.7614" x2="143.776" y2="64.7614" gradientUnits="userSpaceOnUse">
<stop/>
<stop offset="0.09" stop-color="#1C1F32"/>
<stop offset="0.25" stop-color="#4C5689"/>
<stop offset="0.38" stop-color="#6F7FC8"/>
<stop offset="0.48" stop-color="#8598F0"/>
<stop offset="0.53" stop-color="#8DA1FF"/>
<stop offset="1"/>
</linearGradient>
<linearGradient id="paint6_linear_246_4470" x1="12.4247" y1="91.3364" x2="127.506" y2="91.3364" gradientUnits="userSpaceOnUse">
<stop/>
<stop offset="0.09" stop-color="#1C1F32"/>
<stop offset="0.25" stop-color="#4C5689"/>
<stop offset="0.38" stop-color="#6F7FC8"/>
<stop offset="0.48" stop-color="#8598F0"/>
<stop offset="0.53" stop-color="#8DA1FF"/>
<stop offset="1"/>
</linearGradient>
<linearGradient id="paint7_linear_246_4470" x1="29.3644" y1="113.748" x2="133.362" y2="113.748" gradientUnits="userSpaceOnUse">
<stop/>
<stop offset="0.09" stop-color="#1C1F32"/>
<stop offset="0.25" stop-color="#4C5689"/>
<stop offset="0.38" stop-color="#6F7FC8"/>
<stop offset="0.48" stop-color="#8598F0"/>
<stop offset="0.53" stop-color="#8DA1FF"/>
<stop offset="1"/>
</linearGradient>
<linearGradient id="paint8_linear_246_4470" x1="74.6491" y1="126.95" x2="104.368" y2="126.95" gradientUnits="userSpaceOnUse">
<stop/>
<stop offset="0.09" stop-color="#1C1F32"/>
<stop offset="0.25" stop-color="#4C5689"/>
<stop offset="0.38" stop-color="#6F7FC8"/>
<stop offset="0.48" stop-color="#8598F0"/>
<stop offset="0.53" stop-color="#8DA1FF"/>
<stop offset="1"/>
</linearGradient>
<clipPath id="clip0_246_4470">
<rect width="144.5" height="140" fill="white"/>
</clipPath>
</defs>
</svg>
