<svg width="39" height="29" viewBox="0 0 39 29" fill="none" xmlns="http://www.w3.org/2000/svg">
<path d="M32.9676 2.92036C30.5452 1.8471 27.9486 1.05381 25.2333 0.602733C25.2091 0.598173 25.1841 0.601112 25.1617 0.611144C25.1392 0.621177 25.1206 0.637806 25.1082 0.65873C24.7757 1.23269 24.4052 1.98087 24.1456 2.57194C21.2657 2.14922 18.3379 2.14922 15.4581 2.57194C15.1688 1.91687 14.8427 1.27815 14.4812 0.65873C14.4689 0.637549 14.4504 0.620543 14.428 0.609982C14.4057 0.599421 14.3806 0.595807 14.3561 0.599622C11.6423 1.0507 9.04575 1.84399 6.62173 2.9188C6.60088 2.9274 6.5832 2.94205 6.57107 2.9608C1.64388 10.077 0.293334 17.0174 0.956731 23.8708C0.958577 23.8875 0.963881 23.9038 0.972319 23.9185C0.980757 23.9332 0.992153 23.9461 1.00581 23.9563C3.88168 26.0133 7.08934 27.5802 10.4945 28.5916C10.5182 28.5987 10.5436 28.5987 10.5673 28.5915C10.591 28.5843 10.612 28.5702 10.6275 28.5511C11.3589 27.5867 12.0112 26.5679 12.5686 25.4978C12.6018 25.4355 12.5701 25.3609 12.5036 25.336C11.4809 24.9576 10.4898 24.501 9.53973 23.9703C9.52266 23.9607 9.50828 23.9471 9.49787 23.9308C9.48746 23.9144 9.48135 23.8957 9.48009 23.8764C9.47884 23.8572 9.48247 23.8379 9.49067 23.8203C9.49887 23.8028 9.51138 23.7875 9.52707 23.7759C9.72656 23.6312 9.92605 23.4803 10.116 23.3295C10.1332 23.3159 10.1538 23.3073 10.1756 23.3045C10.1974 23.3018 10.2195 23.305 10.2395 23.3139C16.4571 26.0577 23.1908 26.0577 29.3356 23.3139C29.3557 23.3045 29.378 23.3008 29.4002 23.3033C29.4223 23.3058 29.4432 23.3143 29.4607 23.3279C29.6507 23.4803 29.8486 23.6312 30.0496 23.7759C30.0655 23.7873 30.0782 23.8023 30.0867 23.8197C30.0951 23.8371 30.099 23.8563 30.0981 23.8756C30.0972 23.8949 30.0914 23.9136 30.0813 23.9301C30.0711 23.9467 30.057 23.9605 30.0401 23.9703C29.0933 24.5054 28.1085 24.958 27.0746 25.3344C27.0588 25.3401 27.0443 25.349 27.0322 25.3606C27.0201 25.3722 27.0107 25.3862 27.0045 25.4017C26.9984 25.4171 26.9957 25.4337 26.9966 25.4503C26.9975 25.4668 27.002 25.483 27.0097 25.4978C27.5797 26.5664 28.232 27.5836 28.9493 28.5496C28.9642 28.5694 28.9849 28.5842 29.0087 28.592C29.0325 28.5998 29.0582 28.6002 29.0823 28.5931C32.4932 27.5846 35.7061 26.0169 38.5851 23.9563C38.5992 23.9467 38.611 23.9342 38.6197 23.9197C38.6285 23.9052 38.6339 23.8891 38.6358 23.8723C39.4274 15.9488 37.309 9.0644 33.0167 2.96391C33.0062 2.94409 32.9888 2.92863 32.9676 2.92036ZM13.498 19.6975C11.6265 19.6975 10.0828 18.0347 10.0828 15.9955C10.0828 13.9547 11.5964 12.2935 13.498 12.2935C15.4137 12.2935 16.9432 13.9687 16.9131 15.9955C16.9131 18.0363 15.3995 19.6975 13.498 19.6975ZM26.1247 19.6975C24.2516 19.6975 22.7095 18.0347 22.7095 15.9955C22.7095 13.9547 24.2216 12.2935 26.1247 12.2935C28.0404 12.2935 29.5699 13.9687 29.5398 15.9955C29.5398 18.0363 28.042 19.6975 26.1247 19.6975Z" fill="#4BDF15"/>
</svg>
