<svg width="234" height="240" viewBox="0 0 234 240" fill="none" xmlns="http://www.w3.org/2000/svg">
<g opacity="0.3">
<path opacity="0.3" fill-rule="evenodd" clip-rule="evenodd" d="M224.733 238.644C224.48 238.955 224.141 239.184 223.758 239.301C223.375 239.418 222.965 239.418 222.582 239.301C222.199 239.184 221.859 238.956 221.607 238.645C221.354 238.334 221.2 237.955 221.164 237.556C221.128 237.157 221.212 236.756 221.405 236.405C221.598 236.054 221.892 235.769 222.248 235.586C222.604 235.402 223.007 235.329 223.404 235.376C223.802 235.423 224.177 235.587 224.481 235.848C224.879 236.19 225.128 236.673 225.175 237.195C225.222 237.717 225.063 238.237 224.733 238.644Z" fill="#61D3FF"/>
<path opacity="0.3" fill-rule="evenodd" clip-rule="evenodd" d="M217.938 237.666C217.853 237.767 217.739 237.84 217.612 237.877C217.485 237.914 217.349 237.912 217.223 237.872C217.097 237.832 216.985 237.755 216.903 237.652C216.82 237.548 216.769 237.423 216.758 237.291C216.746 237.159 216.774 237.027 216.837 236.911C216.901 236.794 216.997 236.7 217.114 236.638C217.231 236.576 217.364 236.551 217.496 236.565C217.628 236.578 217.752 236.631 217.854 236.715C217.923 236.772 217.979 236.842 218.02 236.92C218.062 236.999 218.087 237.085 218.095 237.173C218.102 237.262 218.093 237.351 218.066 237.435C218.039 237.52 217.996 237.598 217.938 237.666Z" fill="#61D3FF"/>
<path opacity="0.3" fill-rule="evenodd" clip-rule="evenodd" d="M23.4401 238.644C23.1877 238.955 22.8482 239.184 22.4652 239.301C22.0821 239.418 21.6728 239.418 21.2897 239.301C20.9066 239.184 20.567 238.956 20.3144 238.645C20.0619 238.334 19.9078 237.955 19.8719 237.556C19.836 237.157 19.9199 236.756 20.1129 236.405C20.3059 236.054 20.5992 235.769 20.9553 235.586C21.3114 235.402 21.7141 235.329 22.1119 235.376C22.5097 235.423 22.8846 235.587 23.1885 235.848C23.5862 236.19 23.8351 236.673 23.8821 237.195C23.9291 237.717 23.7705 238.237 23.4401 238.644Z" fill="#61D3FF"/>
<path opacity="0.3" fill-rule="evenodd" clip-rule="evenodd" d="M16.6458 237.666C16.5602 237.767 16.4466 237.84 16.3194 237.877C16.1921 237.914 16.0569 237.912 15.9307 237.872C15.8045 237.832 15.693 237.755 15.6102 237.652C15.5274 237.548 15.477 237.423 15.4654 237.291C15.4537 237.159 15.4814 237.027 15.5448 236.911C15.6082 236.794 15.7046 236.7 15.8219 236.638C15.9391 236.576 16.0719 236.551 16.2036 236.565C16.3353 236.578 16.4599 236.631 16.5619 236.715C16.6968 236.832 16.781 236.996 16.7966 237.174C16.8123 237.351 16.7582 237.528 16.6458 237.666Z" fill="#61D3FF"/>
</g>
<path fill-rule="evenodd" clip-rule="evenodd" d="M219.323 116.062C219.313 134.45 214.662 152.537 205.803 168.649C196.943 184.761 184.16 198.377 168.638 208.234C153.117 218.092 135.358 223.873 117.008 225.041C98.6577 226.21 80.3094 222.728 63.6627 214.919C60.8666 213.619 58.1684 212.193 55.526 210.725C44.9456 204.595 35.4701 196.731 27.495 187.461C20.5993 179.511 14.8962 170.601 10.5645 161.01C4.17854 146.856 0.875977 131.506 0.875977 115.979C0.875977 100.451 4.17854 85.1008 10.5645 70.9471C12.5538 66.557 14.8378 62.3065 17.401 58.2248C22.9103 49.424 29.6522 41.458 37.4212 34.5696C55.0715 18.79 77.3779 9.18336 100.97 7.20093C124.563 5.21851 148.159 10.968 168.196 23.5809C170.097 24.7832 171.97 26.0415 173.788 27.3556C175.312 28.4461 176.808 29.5925 178.262 30.7529C185.425 36.4801 191.841 43.084 197.359 50.4096C211.606 69.3529 219.305 92.4158 219.295 116.118L219.323 116.062Z" fill="url(#paint0_radial_310_127)"/>
<g style="mix-blend-mode:multiply" opacity="0.58">
<g style="mix-blend-mode:multiply" opacity="0.58">
<path fill-rule="evenodd" clip-rule="evenodd" d="M76.2172 128.378C75.5042 128.672 74.1481 129.077 74.3718 129.776C74.54 130.076 74.7268 130.366 74.931 130.643C75.067 130.89 75.157 131.16 75.1966 131.44C75.3062 131.932 75.5953 132.365 76.0075 132.656C76.3291 132.866 76.6786 132.656 76.9023 132.446C77.1495 132.267 77.3311 132.012 77.4195 131.719C77.4222 131.365 77.4885 131.015 77.6153 130.685C77.6153 130.559 77.839 130.433 77.8949 130.293C77.9297 130.108 77.9297 129.919 77.8949 129.734C77.9089 129.287 77.4056 128.532 76.2172 128.378Z" fill="#9CBDFF"/>
</g>
<g style="mix-blend-mode:multiply" opacity="0.58">
<path fill-rule="evenodd" clip-rule="evenodd" d="M73.3374 133.844C73.3139 133.806 73.2992 133.762 73.2944 133.718C73.2895 133.673 73.2946 133.627 73.3093 133.585C73.324 133.542 73.3479 133.503 73.3793 133.471C73.4107 133.438 73.4489 133.413 73.4912 133.397C74.5537 133.397 74.8892 134.683 73.9245 134.935C72.9599 135.186 72.6383 134.264 72.9879 133.844H73.3374Z" fill="#9CBDFF"/>
</g>
<g style="mix-blend-mode:multiply" opacity="0.58">
<path fill-rule="evenodd" clip-rule="evenodd" d="M53.7784 141.995C54.2955 141.778 54.854 141.678 55.4142 141.702C55.8721 141.757 56.3092 141.925 56.6864 142.191C57.0444 142.465 57.3201 142.833 57.4833 143.253C57.5812 143.435 57.721 143.603 57.6371 143.799C57.3015 144.554 55.8755 145.085 54.7431 145.309C54.1029 145.454 53.4537 145.557 52.7998 145.616C52.3384 145.616 51.8631 145.616 51.4017 145.728C51.0252 145.808 50.6388 145.831 50.2553 145.798C49.9447 145.736 49.6438 145.632 49.3606 145.49C48.6056 145.141 48.1303 144.638 48.1722 144.092C48.1722 143.114 50.1715 142.317 51.4996 141.925C52.5761 141.562 54.2957 141.156 53.7784 141.995Z" fill="#9CBDFF"/>
</g>
<g style="mix-blend-mode:multiply" opacity="0.58">
<path fill-rule="evenodd" clip-rule="evenodd" d="M58.8809 140.653C58.7271 140.933 58.5873 141.03 58.9648 141.184C59.2714 141.268 59.5949 141.268 59.9015 141.184C60.4747 141.072 61.1877 140.555 60.7683 140.192C60.4618 139.927 60.0902 139.748 59.6918 139.674C58.9928 139.674 58.112 140.234 58.1959 140.611L58.8809 140.653Z" fill="#9CBDFF"/>
</g>
<g style="mix-blend-mode:multiply" opacity="0.58">
<path fill-rule="evenodd" clip-rule="evenodd" d="M80.9845 146.902C81.0785 146.759 81.2072 146.641 81.3588 146.561C81.5103 146.48 81.6797 146.439 81.8513 146.441C81.9265 146.446 81.9995 146.469 82.064 146.508C82.1286 146.548 82.1829 146.601 82.2225 146.666C82.2621 146.73 82.2859 146.802 82.2918 146.878C82.2978 146.953 82.2857 147.028 82.2567 147.098C82.1449 147.601 81.0824 147.098 81.1523 146.749L80.9845 146.902Z" fill="#9CBDFF"/>
</g>
<g style="mix-blend-mode:multiply" opacity="0.58">
<path fill-rule="evenodd" clip-rule="evenodd" d="M89.0093 150.048C88.8695 150.244 88.7297 150.425 88.7996 150.635C88.8695 150.845 89.2889 151.069 89.7782 151.082C90.5332 151.082 91.0505 150.985 91.1763 150.509C91.3021 150.034 90.9526 149.782 90.6031 149.587C90.4137 149.484 90.2032 149.427 89.9879 149.419C89.8145 149.414 89.6423 149.45 89.4847 149.523C89.3272 149.595 89.1884 149.703 89.0792 149.838L89.0093 150.048Z" fill="#9CBDFF"/>
</g>
<g style="mix-blend-mode:multiply" opacity="0.58">
<path fill-rule="evenodd" clip-rule="evenodd" d="M113.28 161.456C113.112 161.54 112.888 161.624 112.832 161.75C112.812 161.818 112.812 161.891 112.832 161.96C112.944 162.267 113.783 162.281 114.23 162.281C115.362 162.326 116.487 162.086 117.502 161.582C118.033 161.261 118.509 160.701 118.355 160.184C118.201 159.667 116.957 159.177 116.02 159.052C115.049 158.849 114.04 158.946 113.126 159.331C112.874 159.485 112.651 159.681 112.623 159.904C112.595 160.128 112.693 160.24 112.707 160.408C112.721 160.575 112.511 160.827 112.707 161.051C112.854 161.239 113.053 161.38 113.28 161.456Z" fill="#9CBDFF"/>
</g>
<g style="mix-blend-mode:multiply" opacity="0.58">
<path fill-rule="evenodd" clip-rule="evenodd" d="M120.088 161.498C120.088 161.316 120.088 161.288 120.228 161.149C120.314 161.076 120.415 161.025 120.525 160.998C120.634 160.971 120.748 160.97 120.857 160.995C121.291 160.995 121.542 161.372 121.361 161.61C121.152 161.78 120.889 161.87 120.62 161.862C120.486 161.882 120.349 161.864 120.225 161.809C120.102 161.755 119.996 161.666 119.921 161.554L120.088 161.498Z" fill="#9CBDFF"/>
</g>
<g style="mix-blend-mode:multiply" opacity="0.58">
<path fill-rule="evenodd" clip-rule="evenodd" d="M128.84 146.539C128.511 146.589 128.205 146.735 127.959 146.959C127.833 147.085 127.777 147.183 127.959 147.322C128.378 147.752 128.921 148.04 129.511 148.147C129.969 148.266 130.45 148.266 130.909 148.147C131.232 148.011 131.534 147.827 131.804 147.602C131.994 147.42 132.176 147.228 132.349 147.029C132.712 146.721 133.006 146.372 132.629 146.008C132.159 145.63 131.567 145.436 130.965 145.463C130.535 145.489 130.111 145.578 129.707 145.729C129.301 145.854 128.938 145.938 128.84 146.539Z" fill="#9CBDFF"/>
</g>
<g style="mix-blend-mode:multiply" opacity="0.58">
<path fill-rule="evenodd" clip-rule="evenodd" d="M126.547 148.091C126.878 148.106 127.206 148.158 127.526 148.245C127.526 148.343 127.708 148.399 127.638 148.497C127.568 148.595 127.12 148.609 126.925 148.609C126.685 148.608 126.449 148.545 126.24 148.427C126.24 148.427 125.89 148.203 126.114 148.189L126.547 148.091Z" fill="#9CBDFF"/>
</g>
<g style="mix-blend-mode:multiply" opacity="0.58">
<path fill-rule="evenodd" clip-rule="evenodd" d="M95.8597 160.156C95.65 160.394 95.4123 160.66 95.7758 160.925C96.2188 161.114 96.7144 161.139 97.1739 160.995C97.3976 160.925 97.6632 160.855 97.6912 160.702C97.7051 160.534 97.7051 160.366 97.6912 160.198C97.6912 159.807 98.3483 159.541 97.7751 159.164C97.442 158.981 97.0634 158.899 96.6846 158.926C96.4365 158.963 96.2003 159.057 95.9943 159.2C95.7882 159.343 95.6178 159.532 95.4962 159.751L95.8597 160.156Z" fill="#9CBDFF"/>
</g>
<g style="mix-blend-mode:multiply" opacity="0.58">
<path fill-rule="evenodd" clip-rule="evenodd" d="M44.3414 174.458C43.6736 174.546 43.0285 174.76 42.44 175.087V175.255C42.3343 175.383 42.2765 175.544 42.2765 175.709C42.2765 175.875 42.3343 176.036 42.44 176.164C43.195 177.045 44.7049 176.933 46.075 176.933C47.4451 176.933 49.4163 177.031 48.7453 175.786C48.4377 175.012 47.8755 174.366 47.1515 173.955C46.7883 173.808 46.3822 173.808 46.0191 173.955C45.4178 174.049 44.8307 174.218 44.2715 174.458H44.3414Z" fill="#9CBDFF"/>
</g>
<g style="mix-blend-mode:multiply" opacity="0.58">
<path fill-rule="evenodd" clip-rule="evenodd" d="M61.1741 175.856C61.3022 175.66 61.4685 175.493 61.6632 175.363C61.8578 175.233 62.0766 175.144 62.3066 175.101C62.653 175.098 62.9929 175.195 63.2852 175.381C64.0262 175.702 64.6833 176.136 63.9982 176.709C63.4909 177.003 62.904 177.13 62.3205 177.072C61.8312 177.072 61.0203 176.667 61.1741 176.317V175.856Z" fill="#9CBDFF"/>
</g>
<g style="mix-blend-mode:multiply" opacity="0.58">
<path fill-rule="evenodd" clip-rule="evenodd" d="M131.567 97.83C131.021 98.5011 130.965 98.543 131.287 99.2281C131.455 99.8281 131.82 100.355 132.321 100.724C133.294 101.113 134.336 101.299 135.383 101.269C136.062 101.432 136.775 101.363 137.41 101.074C138.095 100.744 138.715 100.294 139.242 99.7454C139.892 99.0185 140.269 98.0876 140.308 97.1128C140.346 96.1381 140.043 95.1805 139.452 94.4048C139.02 93.7478 138.461 93.184 137.808 92.7469C137.155 92.3099 136.421 92.0084 135.649 91.8603C134.07 91.559 132.436 91.8108 131.021 92.5733C130.543 92.8407 130.172 93.2651 129.971 93.7746C129.77 94.2841 129.75 94.8475 129.917 95.3695C130.029 95.6071 130.14 95.8308 130.238 96.0685C130.294 96.3688 130.294 96.6769 130.238 96.9772C130.322 97.3547 130.616 97.6483 131.567 97.83Z" fill="#9CBDFF"/>
</g>
<g style="mix-blend-mode:multiply" opacity="0.58">
<path fill-rule="evenodd" clip-rule="evenodd" d="M128.504 100.459C129.567 100.976 129.413 100.892 129.567 101.535C129.567 101.829 129.833 101.885 129.735 102.165C129.637 102.444 128.798 102.822 128.225 102.794C127.696 102.683 127.21 102.42 126.827 102.039C126.547 101.717 126.645 101.549 126.897 101.228L128.504 100.459Z" fill="#9CBDFF"/>
</g>
<g style="mix-blend-mode:multiply" opacity="0.58">
<path fill-rule="evenodd" clip-rule="evenodd" d="M21.1336 100.305C20.9099 100.864 20.6024 101.535 21.6369 101.913C22.4389 102.099 23.281 101.995 24.0136 101.619C24.9087 101.194 25.6085 100.444 25.9709 99.5221C26.1247 98.8091 24.7126 98.1241 23.6222 97.9703C22.7863 97.9642 21.9753 98.2543 21.3329 98.7891C20.6906 99.324 20.2584 100.069 20.113 100.892L21.1336 100.305Z" fill="#9CBDFF"/>
</g>
<g style="mix-blend-mode:multiply" opacity="0.58">
<path fill-rule="evenodd" clip-rule="evenodd" d="M19.6097 106.485C19.4839 106.317 18.9526 105.87 19.0365 105.674C19.1204 105.478 19.2602 105.562 19.3441 105.492C19.6208 105.169 20.0111 104.964 20.4346 104.919C20.8784 104.834 21.3359 104.855 21.7705 104.978C22.205 105.102 22.6046 105.326 22.9371 105.632C23.0275 105.698 23.0984 105.787 23.1419 105.89C23.1855 105.993 23.2002 106.106 23.1843 106.217C23.1685 106.327 23.1228 106.432 23.0522 106.518C22.9815 106.605 22.8886 106.671 22.7833 106.709C22.4185 106.914 22.0097 107.029 21.5912 107.044C21.1727 107.058 20.7569 106.972 20.3787 106.792L19.6097 106.485Z" fill="#9CBDFF"/>
</g>
<g style="mix-blend-mode:multiply" opacity="0.58">
<path fill-rule="evenodd" clip-rule="evenodd" d="M117.278 178.33C116.965 178.764 116.771 179.273 116.715 179.805C116.658 180.337 116.742 180.874 116.957 181.364C117.166 182.021 117.32 182.888 118.481 183.182C121.277 183.867 123.304 180.316 123.821 179.183C124.269 178.237 124.378 177.166 124.129 176.149C123.972 175.69 123.722 175.269 123.395 174.91C123.068 174.552 122.67 174.265 122.227 174.066C121.651 173.918 121.048 173.902 120.464 174.021C119.88 174.139 119.331 174.389 118.858 174.751C117.139 176.149 117.572 177.855 116.775 179.407L117.278 178.33Z" fill="#9CBDFF"/>
</g>
<g style="mix-blend-mode:multiply" opacity="0.58">
<path fill-rule="evenodd" clip-rule="evenodd" d="M115.88 178.093C115.221 178.122 114.566 178.211 113.923 178.359C113.629 178.471 113.14 178.667 113.056 178.876C112.972 179.086 113.293 179.491 113.629 179.687C113.928 179.85 114.27 179.913 114.608 179.869C114.832 179.774 115.036 179.636 115.209 179.463C115.465 179.243 115.691 178.989 115.88 178.708C115.981 178.595 116.066 178.468 116.131 178.331C116.131 178.107 115.964 178.037 115.88 177.87V178.093Z" fill="#9CBDFF"/>
</g>
<g style="mix-blend-mode:multiply" opacity="0.58">
<path fill-rule="evenodd" clip-rule="evenodd" d="M153.697 80.2295C152.984 80.5231 151.628 80.9285 151.852 81.6275C151.95 81.9351 152.257 82.1868 152.411 82.4804C152.543 82.7294 152.633 82.9987 152.677 83.2772C152.772 83.7756 153.058 84.2172 153.474 84.5075C153.627 84.577 153.799 84.5941 153.964 84.5562C154.128 84.5183 154.275 84.4275 154.383 84.2978C154.62 84.0741 154.872 83.8365 154.886 83.5708C154.893 83.2162 154.964 82.8658 155.096 82.5363C155.096 82.4105 155.319 82.2846 155.361 82.1448C155.396 81.96 155.396 81.7704 155.361 81.5856C155.375 81.1382 154.886 80.3833 153.697 80.2295Z" fill="#9CBDFF"/>
</g>
<g style="mix-blend-mode:multiply" opacity="0.58">
<path fill-rule="evenodd" clip-rule="evenodd" d="M150.804 85.6959C150.78 85.6564 150.766 85.6123 150.762 85.5667C150.759 85.521 150.765 85.4751 150.781 85.4323C150.797 85.3894 150.822 85.3506 150.855 85.3189C150.888 85.2871 150.928 85.263 150.971 85.2485C152.034 85.2485 152.369 86.5348 151.405 86.7864C150.44 87.0381 150.119 86.1153 150.468 85.6959H150.804Z" fill="#9CBDFF"/>
</g>
<g style="mix-blend-mode:multiply" opacity="0.58">
<path fill-rule="evenodd" clip-rule="evenodd" d="M158.451 98.7539C158.548 98.6101 158.68 98.4927 158.833 98.4122C158.987 98.3317 159.158 98.2906 159.332 98.2925C159.407 98.2978 159.48 98.321 159.545 98.36C159.609 98.3991 159.664 98.4529 159.703 98.5171C159.743 98.5813 159.767 98.654 159.773 98.7293C159.778 98.8045 159.766 98.88 159.737 98.9496C159.612 99.453 158.563 98.9496 158.633 98.6001L158.451 98.7539Z" fill="#9CBDFF"/>
</g>
<g style="mix-blend-mode:multiply" opacity="0.58">
<path fill-rule="evenodd" clip-rule="evenodd" d="M166.532 101.899C166.378 102.095 166.238 102.277 166.322 102.487C166.406 102.696 166.811 102.92 167.301 102.934C168.056 102.934 168.573 102.836 168.699 102.361C168.825 101.885 168.475 101.634 168.125 101.424C167.928 101.332 167.714 101.28 167.496 101.27C167.323 101.267 167.151 101.303 166.994 101.376C166.836 101.448 166.697 101.556 166.588 101.69L166.532 101.899Z" fill="#9CBDFF"/>
</g>
<g style="mix-blend-mode:multiply" opacity="0.58">
<path fill-rule="evenodd" clip-rule="evenodd" d="M190.76 113.307C190.578 113.391 190.355 113.461 190.313 113.601C190.299 113.67 190.299 113.741 190.313 113.81C190.439 114.118 191.263 114.132 191.711 114.132C192.842 114.167 193.964 113.927 194.982 113.433C195.513 113.111 195.989 112.552 195.835 112.035C195.681 111.518 194.437 111.028 193.5 110.888C192.523 110.69 191.51 110.793 190.592 111.182C190.474 111.239 190.369 111.319 190.282 111.418C190.196 111.516 190.13 111.631 190.089 111.755C190.089 111.923 190.173 112.077 190.173 112.258C190.173 112.44 189.991 112.678 190.173 112.902C190.323 113.093 190.528 113.234 190.76 113.307Z" fill="#9CBDFF"/>
</g>
<g style="mix-blend-mode:multiply" opacity="0.58">
<path fill-rule="evenodd" clip-rule="evenodd" d="M197.554 113.348C197.554 113.167 197.554 113.139 197.694 112.999C197.78 112.926 197.881 112.875 197.991 112.848C198.1 112.821 198.214 112.82 198.323 112.845C198.757 112.845 199.022 113.222 198.84 113.46C198.631 113.628 198.368 113.717 198.099 113.712C197.964 113.73 197.826 113.711 197.7 113.657C197.575 113.603 197.466 113.515 197.386 113.404L197.554 113.348Z" fill="#9CBDFF"/>
</g>
<g style="mix-blend-mode:multiply" opacity="0.58">
<path fill-rule="evenodd" clip-rule="evenodd" d="M138.053 24.6563C137.722 24.6968 137.413 24.844 137.172 25.0757C137.046 25.2015 136.991 25.2994 137.088 25.4392C137.515 25.8657 138.061 26.1533 138.654 26.264C139.113 26.3824 139.594 26.3824 140.052 26.264C140.373 26.1306 140.671 25.9466 140.933 25.7188C141.168 25.5611 141.392 25.3883 141.604 25.2015C141.968 24.8939 142.261 24.5444 141.884 24.1809C141.41 23.8004 140.813 23.6065 140.206 23.6357C139.781 23.6631 139.361 23.7526 138.962 23.9013C138.514 23.9992 138.151 23.9992 138.053 24.6563Z" fill="#9CBDFF"/>
</g>
<g style="mix-blend-mode:multiply" opacity="0.58">
<path fill-rule="evenodd" clip-rule="evenodd" d="M135.76 26.2075C136.087 26.221 136.41 26.2726 136.725 26.3613C136.725 26.4592 136.907 26.5151 136.851 26.6129C136.795 26.7108 136.333 26.7248 136.138 26.7248C135.899 26.7146 135.665 26.6525 135.453 26.543C135.453 26.543 135.103 26.3194 135.327 26.3054L135.76 26.2075Z" fill="#9CBDFF"/>
</g>
<g style="mix-blend-mode:multiply" opacity="0.58">
<path fill-rule="evenodd" clip-rule="evenodd" d="M173.326 112.077C173.117 112.315 172.879 112.581 173.256 112.832C173.696 113.034 174.197 113.059 174.654 112.902C174.878 112.902 175.13 112.776 175.172 112.622C175.186 112.455 175.186 112.287 175.172 112.119C175.172 111.728 175.829 111.462 175.256 111.085C174.922 110.903 174.544 110.821 174.165 110.847C173.915 110.882 173.676 110.975 173.467 111.118C173.258 111.261 173.086 111.451 172.963 111.672L173.326 112.077Z" fill="#9CBDFF"/>
</g>
<g style="mix-blend-mode:multiply" opacity="0.58">
<path fill-rule="evenodd" clip-rule="evenodd" d="M138.655 127.693C138.92 127.306 139.327 127.04 139.787 126.952C140.13 126.942 140.468 127.039 140.752 127.232C141.493 127.553 142.15 127.972 141.465 128.63C140.962 128.921 140.38 129.048 139.801 128.993C139.312 128.993 138.487 128.588 138.655 128.238V127.693Z" fill="#9CBDFF"/>
</g>
<g style="mix-blend-mode:multiply" opacity="0.58">
<path fill-rule="evenodd" clip-rule="evenodd" d="M194.759 130.251C194.442 130.683 194.245 131.192 194.189 131.725C194.132 132.257 194.218 132.796 194.437 133.285C194.647 133.942 194.801 134.809 195.961 135.102C198.673 135.787 200.77 132.306 201.288 131.104C201.741 130.159 201.85 129.086 201.595 128.07C201.439 127.613 201.191 127.192 200.866 126.834C200.542 126.476 200.148 126.187 199.708 125.987C199.131 125.834 198.527 125.816 197.943 125.935C197.358 126.054 196.809 126.306 196.338 126.672C194.605 128.07 195.052 129.776 194.241 131.328L194.759 130.251Z" fill="#9CBDFF"/>
</g>
<g style="mix-blend-mode:multiply" opacity="0.58">
<path fill-rule="evenodd" clip-rule="evenodd" d="M193.346 129.944C192.691 129.966 192.04 130.055 191.403 130.21C191.095 130.322 190.62 130.517 190.536 130.727C190.452 130.937 190.774 131.342 191.109 131.524C191.401 131.691 191.741 131.755 192.074 131.706C192.302 131.624 192.508 131.49 192.675 131.314C192.935 131.098 193.161 130.843 193.346 130.559C193.455 130.449 193.545 130.322 193.612 130.182C193.682 129.958 193.444 129.888 193.346 129.707V129.944Z" fill="#9CBDFF"/>
</g>
<g style="mix-blend-mode:multiply" opacity="0.58">
<path fill-rule="evenodd" clip-rule="evenodd" d="M132.195 171.2C132.287 171.055 132.416 170.936 132.568 170.855C132.72 170.774 132.89 170.734 133.062 170.739C133.137 170.744 133.21 170.768 133.275 170.807C133.339 170.846 133.394 170.899 133.433 170.964C133.473 171.028 133.497 171.101 133.503 171.176C133.508 171.251 133.496 171.327 133.467 171.396C133.356 171.899 132.293 171.396 132.363 171.047L132.195 171.2Z" fill="#9CBDFF"/>
</g>
<g style="mix-blend-mode:multiply" opacity="0.58">
<path fill-rule="evenodd" clip-rule="evenodd" d="M140.262 174.346C140.108 174.542 139.983 174.724 140.053 174.933C140.122 175.143 140.542 175.367 141.031 175.381C141.786 175.381 142.303 175.283 142.429 174.808C142.555 174.332 142.206 174.081 141.856 173.885C141.662 173.78 141.447 173.723 141.227 173.717C141.054 173.714 140.882 173.75 140.724 173.822C140.567 173.895 140.428 174.002 140.318 174.136L140.262 174.346Z" fill="#9CBDFF"/>
</g>
<g style="mix-blend-mode:multiply" opacity="0.58">
<path fill-rule="evenodd" clip-rule="evenodd" d="M164.504 185.754C164.336 185.838 164.099 185.921 164.057 186.047C164.036 186.116 164.036 186.189 164.057 186.257C164.169 186.565 165.007 186.579 165.455 186.579C166.587 186.622 167.711 186.382 168.726 185.88C169.258 185.558 169.733 184.999 169.579 184.481C169.425 183.964 168.181 183.475 167.244 183.349C166.269 183.147 165.255 183.244 164.336 183.629C164.218 183.686 164.113 183.766 164.027 183.864C163.94 183.963 163.874 184.077 163.833 184.202C163.852 184.372 163.885 184.54 163.931 184.705C163.931 184.929 163.735 185.125 163.931 185.348C164.077 185.537 164.277 185.679 164.504 185.754Z" fill="#9CBDFF"/>
</g>
<g style="mix-blend-mode:multiply" opacity="0.58">
<path fill-rule="evenodd" clip-rule="evenodd" d="M171.285 185.796C171.285 185.614 171.285 185.587 171.439 185.447C171.522 185.373 171.621 185.321 171.728 185.294C171.835 185.268 171.947 185.267 172.054 185.293C172.488 185.293 172.753 185.67 172.572 185.908C172.362 186.076 172.099 186.165 171.831 186.16C171.695 186.179 171.556 186.161 171.431 186.107C171.305 186.053 171.196 185.964 171.118 185.852L171.285 185.796Z" fill="#9CBDFF"/>
</g>
<g style="mix-blend-mode:multiply" opacity="0.58">
<path fill-rule="evenodd" clip-rule="evenodd" d="M147.071 184.454C146.847 184.692 146.609 184.958 146.987 185.223C147.437 185.395 147.935 185.395 148.385 185.223C148.609 185.223 148.86 185.098 148.902 184.944C148.916 184.776 148.916 184.608 148.902 184.44C148.902 184.049 149.559 183.783 148.986 183.406C148.653 183.223 148.274 183.141 147.896 183.168C147.646 183.205 147.408 183.299 147.199 183.442C146.991 183.585 146.818 183.773 146.693 183.993L147.071 184.454Z" fill="#9CBDFF"/>
</g>
<g style="mix-blend-mode:multiply" opacity="0.58">
<path fill-rule="evenodd" clip-rule="evenodd" d="M168.489 202.63C168.172 203.062 167.976 203.57 167.919 204.103C167.863 204.636 167.948 205.174 168.168 205.663C168.377 206.321 168.531 207.187 169.691 207.481C172.404 208.166 174.501 204.615 175.018 203.483C175.476 202.54 175.59 201.467 175.34 200.449C175.178 199.992 174.927 199.572 174.6 199.214C174.273 198.857 173.878 198.568 173.438 198.366C172.861 198.217 172.258 198.201 171.675 198.32C171.091 198.439 170.542 198.689 170.069 199.051C168.335 200.449 168.783 202.154 167.972 203.706L168.489 202.63Z" fill="#9CBDFF"/>
</g>
<g style="mix-blend-mode:multiply" opacity="0.58">
<path fill-rule="evenodd" clip-rule="evenodd" d="M167.091 202.392C166.432 202.42 165.777 202.509 165.134 202.658C164.826 202.769 164.351 202.965 164.267 203.175C164.183 203.385 164.505 203.79 164.84 203.986C165.134 204.147 165.472 204.211 165.805 204.168C166.036 204.076 166.245 203.938 166.42 203.762C166.676 203.545 166.898 203.291 167.077 203.007C167.186 202.897 167.276 202.769 167.343 202.63C167.413 202.406 167.175 202.336 167.091 202.154V202.392Z" fill="#9CBDFF"/>
</g>
<g style="mix-blend-mode:multiply" opacity="0.58">
<path fill-rule="evenodd" clip-rule="evenodd" d="M114.342 186.762L115.265 187.027C115.265 187.237 115.349 187.503 114.985 187.643C114.607 187.722 114.217 187.722 113.839 187.643C113.433 187.545 113.182 187.363 113.196 187.111C113.21 186.86 113.643 186.692 114.09 186.65L114.342 186.762Z" fill="#9CBDFF"/>
</g>
<g style="mix-blend-mode:multiply" opacity="0.58">
<path fill-rule="evenodd" clip-rule="evenodd" d="M72.0092 198.448C71.8694 198.728 71.8135 198.924 72.177 199.147C72.458 199.312 72.7736 199.41 73.0988 199.432C73.424 199.453 73.7498 199.399 74.0504 199.273C74.8473 198.882 75.728 198.043 75.4484 197.386C75.273 197.107 75.0115 196.894 74.7036 196.778C74.3957 196.662 74.0583 196.649 73.7428 196.743C73.3644 196.864 72.9991 197.024 72.6523 197.218C72.4571 197.347 72.293 197.519 72.1721 197.719C72.0512 197.92 71.9765 198.145 71.9533 198.378L72.0092 198.448Z" fill="#9CBDFF"/>
</g>
<g style="mix-blend-mode:multiply" opacity="0.58">
<path fill-rule="evenodd" clip-rule="evenodd" d="M105.786 61.7466C105.479 61.9283 105.311 61.9842 105.227 62.2359C105.164 62.3689 105.143 62.5183 105.168 62.6635C105.193 62.8087 105.263 62.9426 105.367 63.0467C106.202 63.6 107.164 63.9319 108.163 64.0114C108.917 64.1517 109.696 64.0641 110.4 63.7598C110.726 63.6533 111.023 63.4712 111.266 63.2283C111.509 62.9853 111.691 62.6884 111.798 62.3617C111.938 61.7465 111.798 61.2992 110.861 60.9636C110.058 60.5969 109.206 60.3519 108.331 60.2366C107.652 60.1476 106.962 60.2748 106.359 60.6001C105.856 60.8658 105.143 61.3691 105.786 61.7466Z" fill="#9CBDFF"/>
</g>
<g style="mix-blend-mode:multiply" opacity="0.58">
<path fill-rule="evenodd" clip-rule="evenodd" d="M112.944 63.6901C112.944 63.5224 112.944 63.3406 113.196 63.2987C113.649 63.2842 114.098 63.3904 114.496 63.6062C114.692 63.7321 114.915 64.0396 114.874 64.2214C114.832 64.4031 114.608 64.487 114.412 64.5709C114.08 64.7032 113.71 64.7032 113.378 64.5709C113.154 64.487 112.595 64.3053 112.693 64.0956L112.944 63.6901Z" fill="#9CBDFF"/>
</g>
<g style="mix-blend-mode:multiply" opacity="0.58">
<path fill-rule="evenodd" clip-rule="evenodd" d="M91.1342 43.18C91.1153 43.3095 91.1298 43.4417 91.1763 43.564C91.2228 43.6863 91.2997 43.7947 91.3998 43.879C91.8372 44.28 92.3507 44.589 92.9097 44.7878C93.764 45.1413 94.684 45.3081 95.608 45.2771C95.8975 45.2719 96.1802 45.1886 96.4263 45.036C96.6723 44.8835 96.8727 44.6673 97.0061 44.4103C97.0379 44.13 96.9967 43.8462 96.8864 43.5866C96.7762 43.3269 96.6007 43.1002 96.3769 42.9284C95.2341 42.0742 93.832 41.6397 92.4064 41.6981C90.6728 41.7959 90.6029 43.3618 91.1342 43.18Z" fill="#9CBDFF"/>
</g>
<g style="mix-blend-mode:multiply" opacity="0.58">
<path fill-rule="evenodd" clip-rule="evenodd" d="M98.6702 46.8998C98.4978 46.8193 98.3592 46.6807 98.2787 46.5083C98.5303 46.4384 98.6002 46.2707 98.8799 46.2008C99.155 46.1303 99.4435 46.1303 99.7187 46.2008C100.082 46.3126 100.306 46.5083 100.32 46.746C100.334 46.9837 100.18 47.0815 99.8166 47.1934C99.7193 47.2349 99.6147 47.2563 99.509 47.2563C99.4033 47.2563 99.2986 47.2349 99.2014 47.1934L98.6702 46.9557V46.8998Z" fill="#9CBDFF"/>
</g>
</g>
<path fill-rule="evenodd" clip-rule="evenodd" d="M28.3478 43.1953L28.9071 33.5627C28.9071 33.5627 60.7968 6.56617 106.597 0.00927734L112.93 6.77588L117.25 13.6264C117.25 13.6264 78.1047 34.3875 52.9397 68.1507L55.9036 70.807L83.2636 55.4283L110.106 60.3495L109.617 68.2066C109.617 68.2066 77.4616 106.681 41.21 132.797H15.4997L6.80377 75.8959L5.1261 64.7114L20.7005 46.5367L28.3478 43.1953Z" fill="url(#paint1_linear_310_127)"/>
<path fill-rule="evenodd" clip-rule="evenodd" d="M186.65 26.7964C186.65 26.7964 162.813 31.6616 134.153 59.5529L123.15 63.7471C123.15 63.7471 176.011 76.4554 194.549 85.5009L191.389 94.4484L208.809 110.68C208.809 110.68 199.848 143.073 180.023 166.952L183.672 173.033C183.672 173.033 211.13 168 224.216 157.459L232.073 123.514L227.347 121.431C227.347 121.431 224.621 49.8504 186.65 26.7964Z" fill="url(#paint2_linear_310_127)"/>
<path fill-rule="evenodd" clip-rule="evenodd" d="M78.3843 201.931L97.3979 184.777L148.105 187.573L143.156 200.155L152.062 202.7C152.062 202.7 137.075 220.385 84.5497 215.199L78.3843 201.931Z" fill="url(#paint3_linear_310_127)"/>
<path fill-rule="evenodd" clip-rule="evenodd" d="M55.5259 210.668V217.659L80.3554 228.004L99.2991 224.579C99.2991 224.579 71.31 220.776 55.5259 210.668Z" fill="url(#paint4_linear_310_127)"/>
<path fill-rule="evenodd" clip-rule="evenodd" d="M138.794 221.127L146.679 210.613L168.028 194.563L184.804 195.724L193.193 204.182C193.193 204.182 179.03 224.915 147.49 237.736L138.794 221.127Z" fill="url(#paint5_linear_310_127)"/>
<path fill-rule="evenodd" clip-rule="evenodd" d="M141.031 43.4608C141.031 43.4608 151.279 16.0029 158.912 6.83162C158.912 6.83162 175.046 6.69182 183.099 18.2677L173.816 27.3411C173.816 27.3411 160.772 28.0122 141.031 43.4608Z" fill="url(#paint6_linear_310_127)"/>
<g style="mix-blend-mode:soft-light">
<path fill-rule="evenodd" clip-rule="evenodd" d="M106.597 0.0654297C106.597 0.0654297 63.537 34.5276 47.4034 66.4173L30.7106 88.6185L83.2356 55.4146L110.106 60.3497C110.106 60.3497 64.8092 108.723 34.1358 128.477L15.4997 132.769L5.1261 64.6837L22.0845 46.3691L24.4193 68.1788L28.8931 40.5951V33.6049C28.8931 33.6049 60.7968 5.33611 106.597 0.0654297Z" fill="#A99AF4"/>
</g>
<path fill-rule="evenodd" clip-rule="evenodd" d="M147.504 237.721L166.42 209.648L193.207 204.126C193.207 204.126 181.1 224.719 147.504 237.721Z" fill="#573DAE"/>
<path fill-rule="evenodd" clip-rule="evenodd" d="M186.091 172.599L219.882 131.063L232.059 123.569L224.202 157.514C224.202 157.514 211.102 170.181 186.091 172.599Z" fill="#573DAE"/>
<path fill-rule="evenodd" clip-rule="evenodd" d="M166.42 184.316L188.509 174.278L195.29 178.863L186.091 189.223L166 191.698L166.42 184.316Z" fill="url(#paint7_linear_310_127)"/>
<path fill-rule="evenodd" clip-rule="evenodd" d="M195.29 178.862L172.683 186.244L166 191.696L186.091 189.222L195.29 178.862Z" fill="#573DAE"/>
<g style="mix-blend-mode:multiply">
<path fill-rule="evenodd" clip-rule="evenodd" d="M52.9115 68.1788L30.7103 88.6184L47.4031 66.4173C47.4031 66.4173 75.3643 20.3513 106.597 0.0654297L124.772 12.8437C124.772 12.8437 76.6645 37.0441 52.9115 68.1788Z" fill="#A972B0"/>
</g>
<g style="mix-blend-mode:multiply">
<path fill-rule="evenodd" clip-rule="evenodd" d="M110.106 60.3496L109.785 65.5923L118.173 66.4451C118.173 66.4451 80.1737 110.875 44.2156 133.161L41.2517 132.797L110.106 60.3496Z" fill="#A972B0"/>
</g>
<g style="mix-blend-mode:multiply">
<path fill-rule="evenodd" clip-rule="evenodd" d="M141.031 43.4612L176.724 29.4806L173.816 27.3136L183.099 18.2402C183.099 18.2402 161.89 18.7016 141.031 43.4612Z" fill="#A972B0"/>
</g>
<g style="mix-blend-mode:multiply">
<path fill-rule="evenodd" clip-rule="evenodd" d="M194.549 85.4303L210.878 68.1782L172.865 70.8346L127.26 64.6831L193.207 88.6178L194.549 85.4303Z" fill="#A972B0"/>
</g>
<path fill-rule="evenodd" clip-rule="evenodd" d="M89.8766 107.673L132.657 77.9785L175.815 84.9408V99.9141L138.627 120.563L89.8766 107.673Z" fill="url(#paint8_linear_310_127)"/>
<path fill-rule="evenodd" clip-rule="evenodd" d="M83.2358 125.442L90.3799 121.486L108.639 123.457L106.639 131.063L94.7698 133.132L83.2358 125.442Z" fill="url(#paint9_linear_310_127)"/>
<g style="mix-blend-mode:soft-light">
<path fill-rule="evenodd" clip-rule="evenodd" d="M89.8766 107.673L117.251 109.7L143.478 80.495L132.657 77.9785L89.8766 107.673Z" fill="#A99AF4"/>
</g>
<g style="mix-blend-mode:soft-light" opacity="0.88">
<path fill-rule="evenodd" clip-rule="evenodd" d="M83.2358 125.442L92.1554 129.469L99.3415 125.442L108.639 123.457L90.3799 121.486L83.2358 125.442Z" fill="#A99AF4"/>
</g>
<g style="mix-blend-mode:multiply">
<path fill-rule="evenodd" clip-rule="evenodd" d="M117.251 109.701L138.795 116.048L175.815 99.9146L146.526 125.653L89.8766 107.674L117.251 109.701Z" fill="#A972B0"/>
</g>
<g style="mix-blend-mode:multiply">
<path fill-rule="evenodd" clip-rule="evenodd" d="M94.7696 133.132L92.1553 129.469L99.3413 125.443L108.638 123.458L112.427 133.132H94.7696Z" fill="#A972B0"/>
</g>
<path fill-rule="evenodd" clip-rule="evenodd" d="M225.502 103.914L214.066 117.279L204.363 133.133L225.502 117.279V103.914Z" fill="#573DAE"/>
<path fill-rule="evenodd" clip-rule="evenodd" d="M149.629 202.659L143.156 200.254L148.105 187.671L99.9422 188.622L81.418 204.057L84.5496 215.241C84.5496 215.241 103.395 220.987 121.025 218.331C138.654 215.674 149.629 202.659 149.629 202.659Z" fill="#5729AE"/>
<g style="mix-blend-mode:soft-light" opacity="0.88">
<path fill-rule="evenodd" clip-rule="evenodd" d="M97.328 184.734L99.9423 188.565L81.4181 204.056L78.3843 201.931L97.328 184.734Z" fill="#A99AF4"/>
</g>
<g style="mix-blend-mode:multiply">
<path fill-rule="evenodd" clip-rule="evenodd" d="M191.389 94.3784L218.651 103.969L208.809 110.736L191.389 94.3784Z" fill="#A972B0"/>
</g>
<path d="M15.6114 122.996L15.3877 122.562C15.8351 122.339 60.9924 99.6902 75.9935 88.4218C89.7085 78.1321 94.8254 69.6739 95.5663 68.2618L84.8153 61.8727L10.7182 100.138L10.4945 99.6902L84.8153 61.3135L96.3073 68.0801L96.1955 68.2898C96.1955 68.3737 91.3861 77.517 76.3291 88.8133C61.272 100.11 16.0588 122.772 15.6114 122.996Z" fill="#00E7F4"/>
<path d="M13.4587 118.886L13.235 118.453L43.5309 102.794L69.9542 78.0069L67.228 76.1754L11.068 103.214L10.8583 102.766L67.2699 75.6162L70.7371 77.951L70.5134 78.1607L43.7825 103.214L13.4587 118.886Z" fill="#00E7F4"/>
<path d="M9.93503 93.8608L9.57153 93.5253L53.9739 42.594L95.7618 1.82666L96.1113 2.17617L54.3234 42.9296L9.93503 93.8608Z" fill="#00E7F4"/>
<path d="M7.82397 88.4228L20.5882 47.7952L21.0496 47.949L9.22203 85.6267L33.9397 51.0387L70.1634 9.72607L70.5269 10.0476L34.3172 51.3463L7.82397 88.4228Z" fill="#00E7F4"/>
<path d="M214.933 63.9006L181.547 63.0478L144.82 56.5748V53.499L144.946 53.4291L176.556 35.4082L195.262 33.0874L195.318 33.5767L176.668 35.8835L145.309 53.7787V56.1693L181.603 62.5585L214.947 63.4113L214.933 63.9006Z" fill="#00E7F4"/>
<path d="M183.113 58.2238L161.821 55.6234V53.4005L161.918 53.3306L178.737 39.364L199.778 37.7842L199.82 38.2735L178.919 39.8533L162.31 53.6382V55.19L183.127 57.7345L212.165 57.1193L212.179 57.6226L183.113 58.2238Z" fill="#00E7F4"/>
<path d="M224.146 99.0889L211.997 95.7895L211.941 95.6776L207.327 84.8986L217.826 71.7988L218.204 72.1064L207.9 84.9825L212.346 95.3841L224.271 98.6136L224.146 99.0889Z" fill="#00E7F4"/>
<path d="M224.118 96.377L217.813 93.8745L217.785 93.7627L215.646 86.9961L215.702 86.8982L220.176 79.5444L220.595 79.7961L216.177 87.052L218.218 93.511L224.3 95.9157L224.118 96.377Z" fill="#00E7F4"/>
<path d="M89.9321 107.911L89.8342 107.436L127.204 99.0337L175.745 84.7036L175.885 85.179L127.33 99.5091L89.9321 107.911Z" fill="#00E7F4"/>
<path d="M138.808 120.732L138.445 120.396L147.602 110.526L175.675 92.4492L175.941 92.8686L147.896 110.932L138.808 120.732Z" fill="#00E7F4"/>
<path d="M82.3548 203.538L82.3129 203.049L144.345 196.912L144.401 197.387L82.3548 203.538Z" fill="#00E7F4"/>
<path d="M147.504 189.404L106.597 188.677V188.188L147.504 188.9V189.404Z" fill="#00E7F4"/>
<path fill-rule="evenodd" clip-rule="evenodd" d="M10.5648 161.01V174.515L18.6456 184.301C18.6456 184.301 38.8196 192.494 54.1563 191.697L48.1446 179.884L51.2623 174.557L10.5648 161.01Z" fill="url(#paint10_linear_310_127)"/>
<path fill-rule="evenodd" clip-rule="evenodd" d="M8.52295 150.258L16.1284 154.523H36.4701L40.6503 147.309L12.7031 144.191L8.52295 150.258Z" fill="url(#paint11_linear_310_127)"/>
<g style="mix-blend-mode:soft-light">
<path fill-rule="evenodd" clip-rule="evenodd" d="M8.52295 150.258L18.6589 151.866L36.9734 150.258L40.6503 147.309L12.7031 144.191L8.52295 150.258Z" fill="#A99AF4"/>
</g>
<g style="mix-blend-mode:soft-light">
<path fill-rule="evenodd" clip-rule="evenodd" d="M10.5648 161.052V174.557L22.4343 181.813L40.651 178.877L51.2064 174.557L10.5648 161.052Z" fill="#A99AF4"/>
</g>
<g style="mix-blend-mode:multiply">
<path fill-rule="evenodd" clip-rule="evenodd" d="M40.651 147.309L36.9741 150.259L16.129 154.523L39.1271 156.522L40.651 147.309Z" fill="#A972B0"/>
</g>
<g style="mix-blend-mode:multiply">
<path fill-rule="evenodd" clip-rule="evenodd" d="M48.1444 179.883L34.1359 184.734L54.1561 191.696L51.2062 179.883V174.556L48.1444 179.883Z" fill="#A972B0"/>
</g>
<defs>
<radialGradient id="paint0_radial_310_127" cx="0" cy="0" r="1" gradientUnits="userSpaceOnUse" gradientTransform="translate(86.8006 80.3281) scale(150.165)">
<stop stop-color="#B840C7"/>
<stop offset="0.7" stop-color="#750088"/>
<stop offset="0.95" stop-color="#5E1377"/>
<stop offset="1" stop-color="#8160FF"/>
</radialGradient>
<linearGradient id="paint1_linear_310_127" x1="61.1882" y1="132.769" x2="61.1882" y2="0.0651993" gradientUnits="userSpaceOnUse">
<stop stop-color="#4F0E6F"/>
<stop offset="1" stop-color="#450086"/>
</linearGradient>
<linearGradient id="paint2_linear_310_127" x1="177.605" y1="173.089" x2="177.605" y2="26.7405" gradientUnits="userSpaceOnUse">
<stop stop-color="#4F0E6F"/>
<stop offset="1" stop-color="#450086"/>
</linearGradient>
<linearGradient id="paint3_linear_310_127" x1="115.223" y1="216.247" x2="115.223" y2="184.735" gradientUnits="userSpaceOnUse">
<stop stop-color="#4F0E6F"/>
<stop offset="1" stop-color="#450086"/>
</linearGradient>
<linearGradient id="paint4_linear_310_127" x1="77.4055" y1="228.004" x2="77.4055" y2="210.668" gradientUnits="userSpaceOnUse">
<stop stop-color="#4F0E6F"/>
<stop offset="1" stop-color="#450086"/>
</linearGradient>
<linearGradient id="paint5_linear_310_127" x1="166.001" y1="237.722" x2="166.001" y2="194.508" gradientUnits="userSpaceOnUse">
<stop stop-color="#4F0E6F"/>
<stop offset="1" stop-color="#450086"/>
</linearGradient>
<linearGradient id="paint6_linear_310_127" x1="162.072" y1="43.4608" x2="162.072" y2="6.83162" gradientUnits="userSpaceOnUse">
<stop stop-color="#4F0E6F"/>
<stop offset="1" stop-color="#450086"/>
</linearGradient>
<linearGradient id="paint7_linear_310_127" x1="180.638" y1="191.698" x2="180.638" y2="174.278" gradientUnits="userSpaceOnUse">
<stop stop-color="#4F0E6F"/>
<stop offset="1" stop-color="#450086"/>
</linearGradient>
<linearGradient id="paint8_linear_310_127" x1="132.853" y1="120.563" x2="132.853" y2="77.9785" gradientUnits="userSpaceOnUse">
<stop stop-color="#4F0E6F"/>
<stop offset="1" stop-color="#450086"/>
</linearGradient>
<linearGradient id="paint9_linear_310_127" x1="95.9442" y1="133.132" x2="95.9442" y2="121.486" gradientUnits="userSpaceOnUse">
<stop stop-color="#4F0E6F"/>
<stop offset="1" stop-color="#450086"/>
</linearGradient>
<linearGradient id="paint10_linear_310_127" x1="32.3605" y1="191.753" x2="32.3605" y2="161.052" gradientUnits="userSpaceOnUse">
<stop stop-color="#4F0E6F"/>
<stop offset="1" stop-color="#450086"/>
</linearGradient>
<linearGradient id="paint11_linear_310_127" x1="24.5866" y1="154.523" x2="24.5866" y2="144.191" gradientUnits="userSpaceOnUse">
<stop stop-color="#4F0E6F"/>
<stop offset="1" stop-color="#450086"/>
</linearGradient>
</defs>
</svg>
