<svg width="245" height="241" viewBox="0 0 245 241" fill="none" xmlns="http://www.w3.org/2000/svg">
<g opacity="0.3">
<path opacity="0.3" fill-rule="evenodd" clip-rule="evenodd" d="M229.09 239.533C228.837 239.845 228.497 240.074 228.113 240.191C227.729 240.309 227.318 240.309 226.934 240.191C226.55 240.074 226.21 239.845 225.956 239.534C225.703 239.222 225.549 238.842 225.513 238.442C225.477 238.042 225.561 237.64 225.754 237.288C225.948 236.936 226.242 236.65 226.599 236.466C226.956 236.282 227.36 236.209 227.759 236.256C228.157 236.303 228.533 236.468 228.838 236.729C229.237 237.072 229.486 237.556 229.533 238.08C229.581 238.603 229.422 239.125 229.09 239.533Z" fill="#61D3FF"/>
<path opacity="0.3" fill-rule="evenodd" clip-rule="evenodd" d="M222.278 238.552C222.192 238.653 222.078 238.727 221.95 238.763C221.823 238.8 221.687 238.798 221.561 238.758C221.434 238.718 221.322 238.641 221.239 238.537C221.156 238.434 221.106 238.308 221.094 238.176C221.082 238.044 221.11 237.911 221.174 237.794C221.237 237.678 221.334 237.583 221.452 237.521C221.569 237.459 221.702 237.434 221.834 237.447C221.966 237.461 222.091 237.514 222.194 237.598C222.262 237.655 222.319 237.725 222.36 237.804C222.402 237.883 222.427 237.969 222.435 238.058C222.442 238.146 222.433 238.236 222.406 238.32C222.379 238.405 222.335 238.484 222.278 238.552Z" fill="#61D3FF"/>
<path opacity="0.3" fill-rule="evenodd" clip-rule="evenodd" d="M27.2658 239.533C27.0128 239.845 26.6724 240.074 26.2883 240.191C25.9042 240.309 25.4939 240.309 25.1097 240.191C24.7256 240.074 24.3851 239.845 24.1319 239.534C23.8787 239.222 23.7242 238.842 23.6882 238.442C23.6522 238.042 23.7363 237.64 23.9298 237.288C24.1233 236.936 24.4174 236.65 24.7745 236.466C25.1315 236.282 25.5353 236.209 25.9342 236.256C26.333 236.303 26.7088 236.468 27.0135 236.729C27.4124 237.072 27.6619 237.556 27.709 238.08C27.7561 238.603 27.5971 239.125 27.2658 239.533Z" fill="#61D3FF"/>
<path opacity="0.3" fill-rule="evenodd" clip-rule="evenodd" d="M20.4534 238.552C20.3675 238.653 20.2537 238.727 20.1261 238.763C19.9985 238.8 19.8629 238.798 19.7364 238.758C19.6099 238.718 19.4981 238.641 19.415 238.537C19.332 238.434 19.2815 238.308 19.2698 238.176C19.2581 238.044 19.2859 237.911 19.3495 237.794C19.4131 237.678 19.5097 237.583 19.6272 237.521C19.7448 237.459 19.8779 237.434 20.01 237.447C20.142 237.461 20.267 237.514 20.3692 237.598C20.5045 237.715 20.5889 237.88 20.6046 238.058C20.6203 238.236 20.566 238.413 20.4534 238.552Z" fill="#61D3FF"/>
</g>
<path style="mix-blend-mode:screen" fill-rule="evenodd" clip-rule="evenodd" d="M130.533 172.361C93.0081 186.925 52.161 151.881 53.6329 101.012C55.1047 50.142 138.663 44.3387 169.558 64.6922C200.452 85.0456 188.706 149.694 130.533 172.361Z" fill="url(#paint0_radial_310_542)"/>
<path opacity="0.61" fill-rule="evenodd" clip-rule="evenodd" d="M129.145 198.517C75.1077 219.544 16.2621 169.081 18.4068 95.7269C20.5515 22.3732 140.878 14.0888 185.37 43.4275C229.861 72.7662 212.942 165.899 129.145 198.517Z" fill="#5BAEFF"/>
<path fill-rule="evenodd" clip-rule="evenodd" d="M191.411 114.566C191.404 127.397 188.159 140.019 181.976 151.261C175.793 162.504 166.873 172.005 156.042 178.883C145.21 185.762 132.818 189.795 120.014 190.61C107.209 191.426 94.4054 188.996 82.7893 183.547C80.8549 182.612 78.9859 181.622 77.1823 180.575C69.7825 176.312 63.1491 170.84 57.5578 164.385C52.75 158.846 48.774 152.636 45.755 145.952C41.2973 136.077 38.9918 125.366 38.9918 114.531C38.9918 103.697 41.2973 92.9862 45.755 83.1111C47.1398 80.0484 48.7322 77.0838 50.521 74.238C54.3824 68.0854 59.1026 62.5156 64.5385 57.6973C76.861 46.698 92.4251 40.0021 108.885 38.6191C125.344 37.2361 141.807 41.2409 155.793 50.0298C157.124 50.8708 158.428 51.7399 159.69 52.6651C160.951 53.5902 161.792 54.221 162.815 55.034C178.599 67.6632 188.727 86.039 190.977 106.128C191.284 108.93 191.429 111.748 191.411 114.566Z" fill="url(#paint1_radial_310_542)"/>
<g opacity="0.61">
<path opacity="0.61" d="M119.992 28.3725C145.798 28.3725 170.09 34.2178 184.963 44.0301C202.121 55.3422 210.755 77.2095 208.078 102.525C204.784 133.546 182.075 177.112 128.879 197.844C120.914 200.983 112.432 202.599 103.872 202.61C83.9387 202.61 64.4123 193.807 48.8949 177.841C29.0461 157.39 18.1965 127.476 19.1077 95.8108C20.5094 49.2586 70.7482 28.4285 120.034 28.4285L119.992 28.3725ZM119.992 27.6436C71.7435 27.6436 19.7805 47.7867 18.3787 95.7267C16.5845 157.656 58.2867 203.325 103.886 203.325C112.522 203.306 121.079 201.676 129.117 198.517C212.942 165.898 229.847 72.752 185.37 43.4273C169.95 33.2786 145.504 27.6436 119.992 27.6436Z" fill="#90CCFF"/>
</g>
<path d="M73.72 31.8489C63.2205 39.8053 53.173 48.3412 43.6243 57.4169C34.3167 66.6544 25.5137 76.5929 19.374 87.9611C13.2942 99.198 11.1806 112.157 13.3745 124.743C15.7855 137.191 21.1823 149.232 27.5462 160.46C40.7505 183.161 61.8381 200.218 86.7983 208.386C99.2327 212.532 112.347 214.255 125.431 213.46C138.458 212.763 151.108 208.837 162.241 202.036C173.194 195.15 182.405 185.823 189.154 174.786C195.789 163.727 200.323 151.537 202.527 138.831C204.753 126.071 205.351 113.081 204.307 100.17C203.371 87.199 201.307 74.3337 198.14 61.7203C195.336 49.2447 189.729 37.4699 180.842 28.5408C171.721 19.6021 160.03 13.7443 147.41 11.7898C134.521 9.82815 121.358 10.7133 108.848 14.3831C96.1541 17.9693 84.2409 23.8926 73.72 31.8489ZM73.3835 31.3303C83.9348 23.298 95.7301 17.0476 108.301 12.8271C120.993 8.39714 134.487 6.74319 147.873 7.97705C161.645 9.25421 174.6 15.0785 184.697 24.5318C194.845 34.1338 200.943 47.142 204.111 60.2204C210.587 86.0267 213.082 113.361 207.924 139.868C205.423 153.181 200.373 165.884 193.051 177.281C185.662 188.645 175.66 198.075 163.881 204.783C152.176 211.582 138.817 214.778 125.557 215.521C112.235 216.06 98.922 214.257 86.2236 210.194C73.4585 206.244 61.4367 200.204 50.6471 192.322C39.7557 184.348 30.4995 174.354 23.383 162.885C21.572 160.054 19.92 157.124 18.4348 154.11C16.8671 151.147 15.4632 148.101 14.2296 144.984C11.5244 138.753 9.55339 132.229 8.35622 125.542C6.12678 111.901 8.91017 97.9147 16.192 86.1668C23.2849 74.6304 32.7327 65.0985 42.545 56.2955C52.3572 47.4925 62.9265 39.4464 73.3835 31.3303Z" fill="#4ACCFF"/>
<path d="M189.827 175.711C192.392 162.661 195.743 149.765 199.303 136.953C201.069 130.547 202.877 124.141 204.461 117.692C206.133 111.266 207.3 104.718 207.952 98.11C208.255 94.8433 208.204 91.5533 207.798 88.2977C207.152 85.0652 206.214 81.8982 204.994 78.8359C203.823 75.7601 202.344 72.8107 200.579 70.0329C198.812 67.2294 196.864 64.524 195.14 61.6224C193.401 58.7571 191.847 55.784 190.486 52.7212C189.084 49.6934 188.019 46.4834 186.645 43.5257C183.821 37.5573 180.21 31.9943 175.908 26.985C167.413 16.9205 156.76 8.3137 144.382 3.67389C138.222 1.24647 131.534 0.473254 124.982 1.43109C123.356 1.71144 121.8 2.24411 120.202 2.6366C118.604 3.02909 117.104 3.81407 115.562 4.37477C114.02 4.93547 112.577 5.77652 111.077 6.50544C109.624 7.29544 108.22 8.17073 106.871 9.12671C101.405 12.9395 98.0264 18.939 93.8772 24.0554C89.7229 29.2707 84.9659 33.9759 79.7055 38.0729C77.1543 40.2316 74.3928 42.0819 71.7015 44.0584L63.5713 49.5533C58.0016 53.1511 52.7953 57.2824 48.0258 61.8887C38.4243 71.0785 30.4142 81.798 24.3222 93.6104C18.1221 105.327 14.4858 118.228 13.6549 131.458C12.9247 144.703 16.2974 157.851 23.3129 169.109C30.3217 180.323 40.5966 189.126 51.9508 195.896C63.0586 203.108 75.3046 208.392 88.1721 211.526C101.108 214.47 114.525 214.609 127.519 211.932C140.57 209.479 152.905 204.237 164.974 198.728C170.988 195.924 177.267 193.583 183.197 190.78C184.691 190.067 186.142 189.266 187.542 188.383C188.981 187.584 190.218 186.467 191.159 185.117C191.596 184.43 191.765 183.607 191.635 182.804C191.431 182.008 191.139 181.237 190.766 180.505C189.919 179.06 189.588 177.369 189.827 175.711ZM189.967 175.711C189.756 177.356 190.117 179.025 190.991 180.435C191.387 181.181 191.692 181.972 191.902 182.79C192.043 183.638 191.874 184.509 191.425 185.243C190.476 186.64 189.22 187.8 187.753 188.635C186.344 189.529 184.888 190.348 183.393 191.088C177.38 193.976 171.156 196.303 165.17 199.204C153.143 204.811 140.822 210.194 127.687 212.843C114.565 215.682 100.987 215.682 87.8637 212.843C74.7292 210.04 62.4639 204.167 51.1798 197.088C39.7555 190.247 29.3265 181.22 22.1215 169.824C14.9796 158.324 11.5535 144.903 12.3092 131.388C13.1493 117.974 16.9045 104.905 23.3129 93.0917C29.5307 81.2467 37.6737 70.5173 47.4091 61.342C52.2448 56.7322 57.5114 52.5968 63.1367 48.9926L71.5473 43.5678C74.2246 41.6053 77.0001 39.769 79.5513 37.6384C84.7992 33.5794 89.5511 28.9169 93.709 23.747C97.9142 18.6446 101.18 12.533 106.745 8.66413C108.097 7.69144 109.501 6.79299 110.951 5.97277C112.45 5.25787 113.908 4.40281 115.464 3.80005C117.02 3.1973 118.52 2.3983 120.146 2.00581C121.772 1.61332 123.37 1.0386 125.01 0.730212C131.686 -0.298846 138.516 0.440638 144.817 2.8749C157.433 7.50068 168.24 16.1215 176.903 26.2561C181.306 31.3185 185.012 36.9474 187.921 42.9931C189.323 46.0769 190.416 49.1748 191.832 52.1745C193.165 55.1937 194.672 58.133 196.345 60.9776C198.027 63.7811 199.934 66.5846 201.7 69.3881C203.471 72.2483 204.955 75.2768 206.13 78.4294C207.319 81.5697 208.22 84.8118 208.821 88.1155C209.209 91.4579 209.232 94.8326 208.891 98.1801C208.142 104.809 206.881 111.37 205.12 117.805C203.48 124.267 201.616 130.645 199.808 137.051C196.107 149.821 192.645 162.675 189.967 175.711Z" fill="url(#paint2_radial_310_542)"/>
<path opacity="0.61" fill-rule="evenodd" clip-rule="evenodd" d="M130.547 199.289C76.4954 220.315 17.6498 169.852 19.8085 96.5121C21.9672 23.1723 142.294 14.86 186.785 44.1986C231.277 73.5373 214.33 166.642 130.547 199.289Z" fill="#5BAEFF"/>
<path fill-rule="evenodd" clip-rule="evenodd" d="M166.965 138.747C164.957 140.94 163.281 143.415 161.988 146.092C161.203 147.844 159.703 150.396 161.4 152.036C163.348 153.942 167.778 150.942 169.404 149.358C170.189 148.587 171.016 147.76 171.787 146.933C172.621 146.042 173.277 145.001 173.721 143.863C174.842 141.06 174.674 138.256 174.674 135.453C174.867 133.589 174.867 131.71 174.674 129.846C174.053 127.952 173.104 126.182 171.871 124.617C169.488 121.674 168.324 124.814 167.89 127.07C167.371 129.804 167.413 132.369 166.488 135.004C166.264 135.607 166.264 136.28 166.025 136.855C165.787 137.429 165.395 137.57 165.268 137.878C165.039 139.122 165.006 140.394 165.17 141.649L166.965 138.747Z" fill="#5BAEFF"/>
<path fill-rule="evenodd" clip-rule="evenodd" d="M178.038 113.207C177.744 112.576 176.258 110.642 177.534 110.277C177.869 110.242 178.209 110.277 178.53 110.381C178.851 110.484 179.147 110.655 179.398 110.88C180.548 112.085 180.435 114.51 180.449 116.01C180.463 117.51 180.225 118.085 179.132 116.935C178.368 116.157 177.826 115.19 177.562 114.132L178.038 113.207Z" fill="#5BAEFF"/>
<path fill-rule="evenodd" clip-rule="evenodd" d="M153.956 150.312C152.989 149.12 152.555 148.251 151.153 147.887C150.396 147.69 149.429 147.662 148.616 147.508C145.546 146.919 142.7 148.686 139.995 149.863C137.556 150.928 134.934 151.727 132.425 152.667C129.414 153.949 126.863 156.114 125.108 158.876C122.936 162.222 121.144 165.8 119.768 169.544C118.983 171.632 117.735 175.151 118.366 177.379C118.73 178.485 119.437 179.446 120.385 180.122C121.333 180.797 122.472 181.153 123.636 181.136C126.06 181.304 128.495 181.262 130.911 181.01C132.187 180.828 133.407 180.337 134.682 180.169C135.719 180.043 136.757 180.169 137.794 180.169C138.831 180.169 139.855 179.734 140.934 179.65C142.889 179.443 144.77 178.786 146.429 177.73C148.086 176.575 149.63 175.265 151.041 173.819C152.933 172.179 155.064 170.497 156.073 168.212C156.743 166.341 157.001 164.347 156.83 162.367C156.977 160.669 156.977 158.962 156.83 157.264C156.631 156.565 156.481 155.853 156.381 155.134C156.381 154.433 156.493 153.732 156.381 153.017C156.241 151.727 155.288 150.942 153.956 150.312Z" fill="#5BAEFF"/>
<path fill-rule="evenodd" clip-rule="evenodd" d="M152.022 139.265C152.947 138.116 154.433 136.28 156.031 137.667C156.42 138.126 156.661 138.691 156.724 139.288C156.786 139.886 156.667 140.489 156.381 141.018C155.302 142.419 152.344 140.892 152.022 139.265Z" fill="#5BAEFF"/>
<path fill-rule="evenodd" clip-rule="evenodd" d="M78.5279 88.9843C81.5592 86.5405 84.4557 83.934 87.2048 81.1765C89.4476 79.0459 91.8726 77.1395 94.1294 75.0368C96.2594 73.0956 97.7707 70.5703 98.4748 67.7758C99.0033 65.2954 98.9698 62.7281 98.3767 60.2624C98.1725 58.3236 97.2945 56.5179 95.8956 55.16C94.2275 53.7582 92.5174 53.8564 90.3867 53.9124C87.8333 54.0658 85.3598 54.8614 83.1957 56.2253C79.3269 58.342 76.187 61.1735 72.6265 63.5705C69.3744 65.7993 67.7765 68.8411 69.1782 70.8036C67.394 72.2632 65.9575 74.102 64.9729 76.1863C63.4112 79.4888 62.5429 83.0763 62.4218 86.7275C62.4218 89.0964 62.4218 91.5915 64.1179 93.4839C66.6691 96.2874 72.3321 93.0634 74.8833 91.4794C75.9206 90.8206 76.8878 90.0776 77.8831 89.3347C79.2848 88.3255 80.8268 87.0078 82.635 87.4844C83.1581 87.578 83.6538 87.7867 84.0864 88.0952C84.519 88.4038 84.8777 88.8046 85.1365 89.2686C85.3954 89.7327 85.548 90.2484 85.5832 90.7786C85.6185 91.3088 85.5355 91.8402 85.3404 92.3345C83.8405 95.3763 80.7567 93.4138 79.3129 91.5635L78.5279 88.9843Z" fill="#5BAEFF"/>
<path fill-rule="evenodd" clip-rule="evenodd" d="M110.109 48.6423C109.423 50.0441 108.792 50.7169 109.689 51.9785C110.652 53.3761 111.929 54.5284 113.418 55.3427C114.977 55.8784 116.606 56.1853 118.254 56.2539C120.843 56.4338 123.44 56.4666 126.033 56.352C128.318 56.352 130.589 56.352 132.874 56.352C134.563 56.5544 136.276 56.3625 137.878 55.7913C140.682 54.4736 142.224 52.5953 140.962 49.6236C138.018 42.6148 129.215 40.8906 122.515 40.9187C119.795 40.9187 116.992 40.7364 114.441 41.8579C111.525 43.1615 107.558 45.4744 110.109 48.6423Z" fill="#5BAEFF"/>
<path fill-rule="evenodd" clip-rule="evenodd" d="M148.658 62.6176C149.667 60.7953 151.167 59.4917 153.227 60.6691C153.983 61.0566 154.6 61.6696 154.991 62.423C155.383 63.1765 155.531 64.0332 155.414 64.8744C155.245 65.4098 154.927 65.8862 154.498 66.2484C154.068 66.6107 153.545 66.8438 152.989 66.921C151.083 67.2854 149.429 65.351 148.167 64.1175L148.658 62.6176Z" fill="#5BAEFF"/>
<path fill-rule="evenodd" clip-rule="evenodd" d="M158.778 127.182C157.531 129.271 157.377 129.397 157.377 131.766C157.377 132.916 156.998 135.172 158.33 135.817C159.171 136.238 159.816 135.719 160.362 135.383C161.28 134.903 162.014 134.135 162.451 133.196C163.129 131.68 163.376 130.007 163.166 128.36C162.717 125.697 160.362 126.678 158.82 128.15L158.778 127.182Z" fill="#5BAEFF"/>
<path fill-rule="evenodd" clip-rule="evenodd" d="M97.1012 170.539C95.4331 170.679 91.6204 170.174 90.3588 171.94C89.802 172.601 89.4511 173.41 89.3495 174.267C89.0692 177.071 91.0877 179.482 93.2464 181.066C96.5545 183.477 101.951 184.935 105.554 182.313C106.191 181.854 106.718 181.258 107.094 180.568C107.47 179.878 107.686 179.113 107.726 178.328C107.767 177.544 107.63 176.76 107.327 176.035C107.024 175.31 106.561 174.663 105.974 174.141C104.012 172.571 99.1338 169.333 96.6246 171.029L97.1012 170.539Z" fill="#5BAEFF"/>
<path fill-rule="evenodd" clip-rule="evenodd" d="M109.142 166.207C110.768 168.226 111.063 168.59 112.969 167.525C113.726 167.118 114.259 167.132 114.483 166.221C114.589 165.666 114.589 165.095 114.483 164.539C114.123 164.234 113.701 164.009 113.246 163.881C112.791 163.753 112.314 163.724 111.848 163.796C111.577 163.775 111.306 163.809 111.049 163.896C110.793 163.983 110.556 164.121 110.355 164.302C110.153 164.483 109.99 164.703 109.875 164.948C109.761 165.194 109.698 165.46 109.689 165.731L109.142 166.207Z" fill="#5BAEFF"/>
<path d="M125.347 22.3035C112.871 23.9295 100.339 25.1771 87.9057 26.9853C75.4721 28.7936 63.0386 30.9523 51.1798 34.8632C45.25 36.7299 39.5938 39.3742 34.3587 42.727C31.8306 44.4199 29.5192 46.4159 27.4761 48.6704C25.5087 50.9494 23.9272 53.5347 22.7943 56.324C21.6814 59.1405 21.0283 62.1174 20.8598 65.141L20.4954 69.7808C20.4113 71.3228 20.4954 72.8647 20.4253 74.4206C20.461 80.5995 21.4056 86.7395 23.2288 92.6434C26.8453 104.502 34.4428 114.749 41.5918 125.038C45.2363 130.154 48.8248 135.341 52.3012 140.597C54.0253 143.219 55.6513 145.966 57.5577 148.419L60.3612 152.19C61.3705 153.353 62.4919 154.461 63.5572 155.596C72.4147 164.504 83.3354 171.086 95.349 174.758C107.279 178.546 119.741 180.392 132.257 180.225C157.349 180.015 181.921 172.796 204.097 161.385C209.666 158.645 214.985 155.423 219.993 151.755C224.773 148.041 229.244 143.457 230.254 137.738C231.263 132.019 229.216 126.005 227.128 120.202C225.039 114.399 222.628 108.427 220.834 102.316C219.06 96.2059 217.762 89.9682 216.951 83.6582C215.998 77.4344 215.101 71.2387 213.909 65.113C212.81 59.0165 211.014 53.0667 208.555 47.3808C206.097 41.7341 202.381 36.7238 197.691 32.7325C192.864 28.8416 187.293 25.9794 181.319 24.322C175.314 22.5666 169.139 21.4576 162.899 21.0139C156.641 20.5233 150.356 20.4531 144.088 20.8036C137.864 20.9998 131.598 21.6306 125.347 22.3035ZM125.347 22.0091C137.816 20.2671 150.416 19.6338 162.998 20.1167C169.327 20.3795 175.61 21.3193 181.739 22.9202C187.97 24.5305 193.807 27.3921 198.896 31.3308C203.973 35.341 208.035 40.4884 210.755 46.3576C213.413 52.1834 215.384 58.2988 216.629 64.5803C218.03 70.7761 218.914 77.0279 219.867 83.2377C220.673 89.4034 221.962 95.4963 223.722 101.46C225.488 107.418 227.787 113.207 230.001 119.137C231.161 122.136 232.125 125.208 232.889 128.332C233.701 131.598 233.82 134.998 233.239 138.313C232.541 141.641 231.034 144.746 228.852 147.354C226.757 149.862 224.372 152.111 221.745 154.054C216.571 157.791 211.084 161.074 205.345 163.867C182.79 175.305 157.601 182.089 132.257 181.851C119.588 181.719 107.013 179.649 94.9705 175.711C82.8464 171.852 71.8016 165.191 62.7302 156.269C61.6368 155.12 60.5014 154.012 59.4501 152.835L56.6466 149.022C54.6701 146.513 53.0861 143.821 51.2919 141.242C47.7034 136.084 44.0261 130.986 40.2601 125.949C32.9149 115.842 24.9249 105.68 20.9159 93.3583C18.9892 87.2331 17.983 80.8556 17.9302 74.4347C17.9302 72.8367 17.9302 71.2387 17.9302 69.6407L18.2806 64.8747C18.4745 61.6025 19.2136 58.3856 20.4673 55.3568C21.7539 52.3303 23.5298 49.5362 25.7239 47.0865C27.9397 44.7071 30.4341 42.6033 33.1532 40.8206C38.5852 37.4392 44.4709 34.848 50.6331 33.125C62.8003 29.5085 75.332 27.7423 87.8216 26.2284L125.347 22.0091Z" fill="url(#paint3_radial_310_542)"/>
<path fill-rule="evenodd" clip-rule="evenodd" d="M233.45 151.993C232.567 152.386 231.894 152.512 231.389 153.227C230.999 153.761 230.784 154.402 230.772 155.063C230.719 155.396 230.733 155.736 230.812 156.063C230.891 156.39 231.035 156.698 231.235 156.97C231.901 157.43 232.672 157.715 233.478 157.797C237.094 158.54 241.622 156.871 243.29 153.451C243.681 152.656 243.963 151.812 244.131 150.942C244.216 150.653 244.23 150.348 244.171 150.053C244.113 149.757 243.984 149.48 243.795 149.246C243.157 148.55 242.726 147.691 242.547 146.765C242.337 144.116 244.664 141.354 243.795 138.733C243.29 137.261 242.715 135.789 240.991 136.21C239.129 136.899 237.567 138.218 236.576 139.938C235.799 141.044 235.212 142.271 234.838 143.569C234.515 144.69 234.305 145.84 233.884 146.933C233.464 148.026 233.099 148.881 232.679 149.877C232.034 151.517 231.599 152.834 233.45 151.993Z" fill="#5BAEFF"/>
<path fill-rule="evenodd" clip-rule="evenodd" d="M239.001 130.855C238.776 130.182 238.286 128.332 239.519 128.402C240.501 128.402 241.159 130.014 241.356 130.855C241.706 132.397 239.155 132.383 239.239 131.332L239.001 130.855Z" fill="#5BAEFF"/>
<path fill-rule="evenodd" clip-rule="evenodd" d="M239.449 169.151C240.592 169.083 241.738 169.135 242.87 169.305C242.859 169.625 242.912 169.944 243.024 170.244C243.144 171.129 243.043 172.03 242.729 172.866C242.232 174.318 241.24 175.548 239.926 176.342C237.767 177.575 235.454 176.594 233.688 175.178C232.286 174.029 230.983 171.884 232.679 170.342C233.935 169.325 235.392 168.584 236.954 168.17C237.683 167.931 239.463 167.244 240.136 167.945L239.449 169.151Z" fill="#5BAEFF"/>
<path fill-rule="evenodd" clip-rule="evenodd" d="M8.69265 60.6832C7.57125 61.2159 6.88439 61.2299 6.53395 62.3373C6.0189 63.9794 5.75889 65.6907 5.76299 67.4117C5.66748 70.2971 6.41784 73.1475 7.92168 75.6119C8.15998 75.9904 8.6506 76.7333 9.15523 76.8174C9.65986 76.9015 10.6691 76.0184 11.0896 75.6399C12.5802 74.324 13.8487 72.7762 14.8463 71.0562C15.8001 69.3525 16.118 67.3655 15.7435 65.4492C15.5472 64.1736 15.2108 62.9401 15.0005 61.6785C14.9069 60.8336 14.6897 60.0071 14.3557 59.2254C13.8791 58.2442 13.3044 57.0807 12.0288 57.319C10.9104 57.6822 9.87281 58.2582 8.973 59.0152C7.76749 59.9263 7.20679 61.2299 8.69265 60.6832Z" fill="#5BAEFF"/>
<path fill-rule="evenodd" clip-rule="evenodd" d="M7.96376 85.7467C7.79681 85.363 7.72469 84.9447 7.75349 84.5272C8.0778 84.2762 8.47259 84.1331 8.88241 84.118C9.29222 84.1029 9.69646 84.2166 10.0383 84.4431C10.7813 84.8356 11.4401 85.7467 10.9635 86.5878C10.7791 86.949 10.4778 87.2371 10.1087 87.4051C9.7396 87.5731 9.32445 87.6111 8.93096 87.5129C8.04786 87.1485 7.06663 86.3214 7.24886 85.2561L7.96376 85.7467Z" fill="#5BAEFF"/>
<path fill-rule="evenodd" clip-rule="evenodd" d="M1.22128 109.828C0.856828 110.599 0.254075 112.043 1.22128 112.758C1.51114 112.96 1.8666 113.045 2.21653 112.996C2.62303 112.898 2.69312 112.604 2.9174 112.309C3.66033 111.342 4.68361 110.249 4.61352 108.987C4.61352 108.188 4.26308 106.184 3.04356 106.464C1.82404 106.745 1.30539 109.828 1.2353 110.796L1.22128 109.828Z" fill="#5BAEFF"/>
<path fill-rule="evenodd" clip-rule="evenodd" d="M14.5099 171.268C15.2686 172.479 16.2149 173.563 17.3134 174.478C17.8461 174.968 18.8694 176.02 19.7244 175.585C20.2992 175.291 20.5515 173.791 20.4674 173.202C20.2298 172.144 19.75 171.156 19.0656 170.314C18.6895 169.789 18.1737 169.379 17.5767 169.131C16.9797 168.883 16.3252 168.808 15.6874 168.913C14.9024 169.221 14.4679 169.586 14.4819 170.483L14.5099 171.268Z" fill="#5BAEFF"/>
<path fill-rule="evenodd" clip-rule="evenodd" d="M29.9291 161.147C31.5274 164.223 33.8394 166.872 36.6716 168.871C37.2042 169.221 38.0032 169.684 38.5499 169.123C39.0966 168.562 38.4378 167.16 38.1154 166.446C36.9219 164.019 35.5637 161.677 34.0503 159.437C33.2291 158.272 32.4936 157.049 31.8495 155.778C31.2608 154.376 30.4478 153.157 29.7469 151.825C29.046 150.494 28.4853 149.498 27.8686 148.335C27.6443 147.9 27.0836 146.933 26.5509 146.793C26.0182 146.653 25.3594 147.34 25.1492 147.83C24.7993 148.88 24.7556 150.008 25.023 151.082C25.2852 152.329 25.675 153.546 26.1865 154.713C26.5867 155.98 27.0883 157.213 27.6863 158.399C28.3656 159.614 29.1144 160.789 29.9291 161.918C30.4693 162.695 31.0494 163.444 31.6673 164.161C32.3962 164.918 33.2793 165.562 34.0503 166.207L29.9291 161.147Z" fill="#5BAEFF"/>
<path fill-rule="evenodd" clip-rule="evenodd" d="M181.178 196.555C182.328 196.331 184.136 195.434 184.907 196.793C185.121 197.251 185.222 197.753 185.203 198.258C185.183 198.763 185.043 199.255 184.795 199.695C184.066 201.643 182.804 203.55 180.59 203.55C179.006 203.55 176.651 202.849 176.651 200.971C176.685 200.443 176.859 199.934 177.154 199.496C177.45 199.057 177.857 198.705 178.333 198.475C179.419 197.683 180.654 197.116 181.963 196.807L181.178 196.555Z" fill="#5BAEFF"/>
<defs>
<radialGradient id="paint0_radial_310_542" cx="0" cy="0" r="1" gradientUnits="userSpaceOnUse" gradientTransform="translate(91.7886 81.9477) scale(63.6816)">
<stop stop-color="#2C6AFF"/>
<stop offset="0.11" stop-color="#2B68FA"/>
<stop offset="0.23" stop-color="#2962EC"/>
<stop offset="0.36" stop-color="#2558D4"/>
<stop offset="0.5" stop-color="#1F4AB3"/>
<stop offset="0.65" stop-color="#183989"/>
<stop offset="0.79" stop-color="#0F2355"/>
<stop offset="0.94" stop-color="#040A18"/>
<stop offset="1"/>
</radialGradient>
<radialGradient id="paint1_radial_310_542" cx="0" cy="0" r="1" gradientUnits="userSpaceOnUse" gradientTransform="translate(98.9375 89.6152) scale(104.781)">
<stop stop-color="#5EA4EA"/>
<stop offset="0.77" stop-color="#75FFF6"/>
<stop offset="1" stop-color="#F2F4FF"/>
</radialGradient>
<radialGradient id="paint2_radial_310_542" cx="0" cy="0" r="1" gradientUnits="userSpaceOnUse" gradientTransform="translate(110.656 107.6) scale(103.281)">
<stop stop-color="#5EA4EA"/>
<stop offset="0.77" stop-color="#75FFF6"/>
<stop offset="1" stop-color="#F2F4FF"/>
</radialGradient>
<radialGradient id="paint3_radial_310_542" cx="0" cy="0" r="1" gradientUnits="userSpaceOnUse" gradientTransform="translate(125.767 100.633) scale(95.7117)">
<stop stop-color="#5EA4EA"/>
<stop offset="0.77" stop-color="#75FFF6"/>
<stop offset="1" stop-color="#F2F4FF"/>
</radialGradient>
</defs>
</svg>
