<svg width="208" height="240" viewBox="0 0 208 240" fill="none" xmlns="http://www.w3.org/2000/svg">
<g clip-path="url(#clip0_199_3768)">
<path d="M108.188 211.112C158.548 211.112 199.373 170.287 199.373 119.927C199.373 69.5677 158.548 28.7432 108.188 28.7432C57.8287 28.7432 17.0042 69.5677 17.0042 119.927C17.0042 170.287 57.8287 211.112 108.188 211.112Z" fill="url(#paint0_radial_199_3768)"/>
<g style="mix-blend-mode:multiply" opacity="0.29">
<g style="mix-blend-mode:multiply" opacity="0.29">
<path d="M37.6878 65.2216C39.5003 66.537 41.6132 65.2216 43.3843 64.507C47.6928 62.6841 51.9358 60.7197 56.1132 58.6138C64.1081 54.5652 71.8178 49.9768 79.1889 44.8802C81.7575 43.1195 88.0961 39.9813 85.4032 35.9938C83.425 33.0938 78.9818 33.9224 75.9575 34.6163C60.4549 40.5058 46.849 50.5061 36.6003 63.5438C36.755 64.2132 37.1399 64.8071 37.6878 65.2216Z" fill="#FF0000"/>
</g>
<g style="mix-blend-mode:multiply" opacity="0.29">
<path d="M45.6934 94.3247C48.1659 92.1892 50.4083 89.801 52.3841 87.199C54.4555 84.589 56.1644 81.5958 58.3809 79.1308C59.6134 77.743 60.5455 78.1676 62.1094 78.7683C63.562 79.4143 65.177 79.6021 66.7391 79.3069C69.7841 78.6233 71.8244 76.0237 73.8855 73.9005C76.4643 71.2359 79.3141 68.8477 82.3887 66.7748C83.7715 65.8084 85.2179 64.9364 86.718 64.1648C88.4269 63.3258 89.9598 63.5226 91.793 63.7608C98.4112 64.5894 103.579 60.0219 106.645 54.5533C110.198 48.194 111.244 40.4676 117.872 36.3351C121.352 34.1705 125.309 32.8758 129.11 31.4155L129.483 31.2705C122.507 29.609 115.359 28.7746 108.188 28.7848C105.682 28.7848 103.207 28.909 100.742 29.1058C97.4431 32.3364 94.7771 36.1546 92.8805 40.364C91.9407 42.4793 91.1886 44.6731 90.633 46.9201C90.5495 47.9611 90.0671 48.9296 89.2866 49.6233C88.3592 50.1033 87.3448 50.3921 86.3037 50.4726C84.1017 50.7365 81.9823 51.4712 80.0894 52.6269C78.3336 53.8702 76.7401 55.328 75.3459 56.9665C73.9851 58.6364 72.4543 60.1602 70.7784 61.5133C68.7275 62.8233 66.4162 63.6715 64.0048 63.999C58.8262 64.9623 53.8341 65.2212 49.1941 67.8726C46.5944 69.3537 44.2123 71.2905 41.3952 72.3883C38.5357 73.5076 35.443 73.8991 32.3948 73.5276C31.5729 73.4342 30.7615 73.2643 29.9712 73.0201C25.4468 80.5535 22.0384 88.703 19.8523 97.2144C22.6797 99.1936 26.0243 100.302 29.4741 100.404C35.5848 100.643 41.1052 98.1776 45.6934 94.3247Z" fill="#FF0000"/>
</g>
<g style="mix-blend-mode:multiply" opacity="0.29">
<path d="M34.3526 122.175C38.5887 121.202 42.5037 121.502 46.7812 121.906C50.5098 122.248 54.4766 122.31 57.8012 120.332C61.1259 118.353 62.2651 114.615 65.1444 112.295C68.0237 109.975 72.3944 110.513 75.0355 107.468C77.2416 104.879 77.8526 100.218 74.3623 98.3641C72.2909 97.2559 69.7016 98.0016 67.4851 98.3641L61.8923 99.2756C62.6069 96.5931 65.5794 94.5941 67.9202 93.4963C71.5348 91.7873 75.6569 91.4248 79.313 90.0059C80.9945 89.3976 82.5811 88.5537 84.0255 87.4995C84.7451 86.9644 85.4079 86.3571 86.0037 85.687C86.6666 84.9206 87.2466 83.6156 88.1891 83.1495C89.8669 82.3934 92.9637 83.7813 94.6209 84.1852C97.1169 84.8273 99.6234 85.4591 102.14 85.9977C111.389 87.9345 121.166 88.2245 129.4 82.8906C136.723 78.1781 141.611 70.5966 144.066 62.3523C145.465 57.3347 146.22 52.1595 146.313 46.9513C146.313 45.7602 146.313 45.1181 147.515 44.6623C148.8 44.2333 150.111 43.8874 151.44 43.6266L156.298 42.4045C150.753 38.9445 144.85 36.0968 138.691 33.9116C137.792 34.9875 136.673 35.8567 135.407 36.4595C130.736 38.4688 125.454 38.2202 120.907 40.6023C118.583 41.8579 116.535 43.5674 114.884 45.6294C113.233 47.6914 112.013 50.0639 111.296 52.6063C111.214 52.9374 111.207 53.2828 111.276 53.6169C111.345 53.951 111.488 54.2654 111.695 54.5368C111.901 54.8082 112.167 55.0297 112.47 55.185C112.774 55.3402 113.109 55.4252 113.45 55.4338C118.784 55.8688 122.316 51.6534 126.397 49.002C128.24 47.8005 130.187 47.262 130.177 50.0377C130.003 52.147 129.231 54.1628 127.95 55.8481C125.129 60.1771 121.281 63.7415 116.749 66.2243C112.217 68.7071 107.142 70.0312 101.974 70.0788C96.133 70.1513 90.1155 69.3745 84.5537 71.6323C82.2343 72.5022 80.1618 73.9242 78.5155 75.7752C77.7617 76.6442 77.1373 77.6174 76.6616 78.6648C76.0609 80.0009 75.7398 80.8398 74.1966 81.1609C68.6969 82.3209 61.7059 81.2231 57.4491 85.5213C55.4916 87.4995 53.8344 89.7781 51.8976 91.7356C50.0342 93.708 48.0112 95.5232 45.8491 97.1627C41.1469 100.643 35.668 103.118 29.7334 103.108C25.9923 103.136 22.3269 102.055 19.2001 100.001C17.7544 106.544 17.0319 113.226 17.0459 119.928C17.0459 121.316 17.0458 122.693 17.1494 124.071C22.6594 125.407 28.853 123.439 34.3526 122.175Z" fill="#FF0000"/>
</g>
<g style="mix-blend-mode:multiply" opacity="0.29">
<path d="M84.0875 112.677C87.4535 113.34 90.0739 111.248 92.6425 109.446C93.7178 108.632 94.9708 108.086 96.2985 107.851C97.7801 107.676 99.2707 107.59 100.762 107.592C102.152 107.645 103.534 107.376 104.802 106.805C105.507 106.39 106.088 105.794 106.484 105.078C106.879 104.362 107.074 103.552 107.049 102.734C107.132 101.15 107.049 99.534 107.049 97.939C107.049 96.344 107.339 94.3243 106.014 93.0814C104.688 91.8386 102.906 92.3772 101.498 93.2679C100.814 93.7132 99.1778 95.3393 98.225 94.9975C97.966 94.894 97.8625 94.5936 97.6864 94.3243C97.262 93.6206 96.7023 93.0081 96.0396 92.5222C94.8016 91.7507 93.3522 91.3883 91.8967 91.4864C88.6964 91.6004 84.481 92.5222 83.611 96.1679C83.3819 97.1051 83.4958 98.0934 83.9321 98.954C83.5973 100.148 83.0952 101.288 82.4407 102.341C81.6328 103.635 80.3693 104.671 79.8928 106.142C78.8985 109.042 81.1875 112.108 84.0875 112.677Z" fill="#FF0000"/>
</g>
<g style="mix-blend-mode:multiply" opacity="0.29">
<path d="M44.5753 159.284C49.1196 158.383 53.5687 157.055 57.8636 155.318C61.8383 154 65.5507 151.995 68.8318 149.393C72.2289 146.514 74.0103 142.63 75.6571 138.56C77.1071 134.873 78.4432 130.574 81.8714 128.203C83.9429 126.794 86.3664 126.183 88.6346 125.282C90.8459 124.287 92.9757 123.12 95.0043 121.792C99.5304 119.182 102.731 124.008 104.781 127.478C104.931 127.736 105.131 127.962 105.369 128.143C105.606 128.323 105.877 128.455 106.166 128.53C106.455 128.605 106.756 128.622 107.052 128.58C107.348 128.538 107.632 128.438 107.889 128.285C115.431 122.988 120.689 115.033 122.606 106.018C123.206 106.04 123.787 106.229 124.285 106.564C124.782 106.899 125.177 107.366 125.423 107.913C125.601 108.203 125.841 108.449 126.126 108.633C126.412 108.818 126.735 108.935 127.072 108.978C127.409 109.021 127.751 108.987 128.074 108.88C128.396 108.773 128.69 108.595 128.934 108.358C132.688 105.182 137.104 102.885 141.86 101.637C147.132 100.259 152.569 100.673 157.914 99.9587C162.016 99.4103 165.924 97.8752 169.302 95.485C172.681 93.0949 175.43 89.921 177.313 86.2355C179.223 82.6025 180.259 78.5737 180.337 74.4698C180.337 69.8401 178.825 65.6351 177.012 61.4405C176.629 60.5601 176.246 59.6901 175.873 58.8098C171.47 53.9469 166.556 49.5717 161.218 45.7598C156.909 47.1891 153.035 49.654 151.047 53.9626C148.872 58.6544 149.069 63.9987 149.452 69.0426C149.607 71.1141 152.559 72.3051 153.595 70.1612C155.487 66.4594 156.847 62.5088 157.634 58.4266C157.82 57.3908 158.431 50.2962 160.544 52.2123C161.653 53.248 161.922 55.5576 162.212 56.9041C162.678 59.1572 162.927 61.4496 162.958 63.7501C163.009 67.4891 162.958 72.5019 160.161 75.3294C157.365 78.1569 153.108 80.3216 149.607 82.4241C147.712 83.5633 145.806 84.6819 143.859 85.728C143.164 86.1936 142.398 86.5434 141.591 86.7637C140.306 86.9812 139.519 86.1733 138.359 85.728C135.408 84.6923 132.932 86.2562 130.944 88.338C130.121 89.3276 129.213 90.2426 128.23 91.0723C126.531 92.3255 124.398 91.7248 122.471 91.4555C119.188 90.9998 114.486 91.4555 113.43 95.3083C113.19 96.3604 113.269 97.4598 113.657 98.4669C114.044 99.4739 114.722 100.343 115.605 100.963C113.825 102.994 112.463 105.356 111.596 107.913C110.374 111.113 109.401 115.277 106.304 117.234C105.057 117.975 103.567 118.191 102.161 117.835C101.829 117.629 101.483 117.446 101.125 117.286C100.257 116.875 99.3187 116.633 98.36 116.572C97.0753 115.98 95.7318 115.525 94.3518 115.215C90.0225 114.469 85.8279 115.826 81.7161 116.965C79.8626 117.554 77.9479 117.929 76.0093 118.084C73.7825 118.187 71.68 117.172 69.4946 117.379C65.3518 117.773 63.2804 122.724 60.8464 125.417C55.0878 131.631 47.1336 135.825 38.475 135.194C34.1902 134.787 30.1112 133.162 26.7196 130.512C23.9439 128.524 20.5053 126.991 17.3982 128.565C18.1612 136.719 20.0252 144.733 22.9393 152.387C25.2944 154.7 28.0398 156.58 31.0489 157.938C35.3283 159.703 40.032 160.171 44.5753 159.284Z" fill="#FF0000"/>
</g>
<g style="mix-blend-mode:multiply" opacity="0.29">
<path d="M68.5416 193.464C71.6487 192.811 77.024 190.16 76.9205 186.296C76.9079 185.882 76.8094 185.475 76.6311 185.1C76.4528 184.726 76.1987 184.392 75.8848 184.121C74.849 183.262 73.979 183.562 72.7776 183.655C72.1355 183.707 70.8926 183.873 70.3955 183.303C69.8983 182.734 70.3955 181.118 70.8201 180.465C72.8915 177.234 77.7801 177.058 81.1773 177.358C86.6458 177.804 92.5701 178.901 97.2723 175.287C99.1721 173.834 100.64 171.891 101.52 169.667C102.399 167.443 102.657 165.021 102.264 162.661C102.171 162.333 102.004 162.029 101.777 161.775C101.549 161.52 101.266 161.321 100.949 161.192C100.632 161.063 100.291 161.008 99.9497 161.031C99.6087 161.054 99.2775 161.155 98.9812 161.325L94.9005 163.904L92.7048 165.292C92.4355 165.468 92.1248 165.624 91.8658 165.82C91.8334 165.841 91.8056 165.869 91.7842 165.901C91.7628 165.933 91.7483 165.969 91.7416 166.007C90.8301 164.153 91.6173 160.828 92.2076 159.016C92.5188 157.859 93.1067 156.796 93.9204 155.917C94.7342 155.038 95.7495 154.371 96.8787 153.972C97.8294 153.616 98.8685 153.572 99.846 153.846C100.823 154.119 101.689 154.697 102.316 155.494C103.652 157.151 104.729 159.202 106.904 159.875C109.463 160.673 111.555 159.026 112.932 157.048C116.585 152.002 119.847 146.683 122.689 141.139C125.516 135.288 126.977 128.897 124.139 122.776C123.963 122.484 123.724 122.236 123.439 122.049C123.155 121.862 122.831 121.743 122.493 121.699C122.156 121.655 121.812 121.688 121.489 121.796C121.166 121.903 120.872 122.083 120.628 122.32C116.585 126.318 113.02 130.77 110.001 135.588C108.965 137.286 107.37 140.476 104.905 140.197C103.922 140.083 103.58 139.161 103.165 138.426C102.67 137.346 101.966 136.374 101.094 135.567C100.738 135.227 100.283 135.009 99.795 134.946C99.3069 134.883 98.8113 134.977 98.3805 135.215C97.6244 135.733 94.9833 137.794 94.1548 136.458C93.9062 136.064 94.1548 135.184 94.248 134.728C94.4102 133.839 94.3855 132.925 94.1755 132.046C93.0362 128.255 88.3858 129.384 86.0555 131.228C83.114 133.548 82.0162 137.162 81.4258 140.715C80.9618 144.381 79.9384 147.954 78.3912 151.31C75.3213 157.368 70.4123 162.299 64.3676 165.396C57.5919 168.728 49.824 169.44 42.5555 167.395C36.3857 165.728 30.6343 162.786 25.6733 158.757C30.9956 170.007 38.5548 180.054 47.8894 188.285C50.6554 189.775 53.4971 191.12 56.403 192.314C60.2643 193.815 64.467 194.213 68.5416 193.464Z" fill="#FF0000"/>
</g>
<g style="mix-blend-mode:multiply" opacity="0.29">
<path d="M101.032 200.807C102.039 198.851 103.699 197.308 105.724 196.446C110.333 194.178 115.811 194.737 120.772 194.044C125.558 193.367 130.086 191.461 133.916 188.513C141.901 182.433 146.541 173.485 150.311 164.401C152.382 159.316 154.288 154.137 156.681 149.176C158.255 145.883 160.616 140.891 157.52 137.68C156.832 137.002 155.978 136.517 155.044 136.271C153.884 135.94 153.532 136.116 153.252 134.842C152.783 132.837 152.851 130.743 153.449 128.773C155.179 123.76 161.155 125.127 164.977 126.515C169.617 128.193 174.599 130.44 179.539 128.504C181.713 127.505 183.659 126.07 185.256 124.288C187.452 122.113 189.637 119.917 191.822 117.742C194.309 115.41 196.66 112.937 198.865 110.337C197.491 97.1769 193.249 84.4778 186.437 73.1343C185.587 77.215 185.639 81.4718 185.246 85.6146C184.8 90.2546 183.433 94.6046 180.264 98.126C177.485 101.225 173.865 103.449 169.845 104.527C167.856 105.049 165.796 105.248 163.744 105.117C161.176 104.951 158.783 104.164 156.318 105.314C154.468 106.333 152.893 107.787 151.73 109.55C150.767 110.814 149.037 113.351 147.142 113.061C145.826 112.864 144.936 110.285 143.941 109.477C141.87 107.831 139.509 108.442 137.634 109.995C134.382 112.657 132.621 116.603 131.585 120.57C130.425 124.972 130.042 129.529 128.748 133.889C127.277 138.83 124.76 143.345 122.295 147.84C121.145 149.964 119.975 152.087 118.919 154.251C117.862 156.416 116.236 159.181 116.07 161.719C115.952 162.754 116.19 163.798 116.746 164.68C117.301 165.561 118.141 166.226 119.126 166.566C120.14 166.788 121.19 166.785 122.202 166.557C123.215 166.33 124.166 165.884 124.988 165.251C128.696 162.703 131.378 158.001 133.118 153.992C134.084 151.782 134.803 149.473 135.262 147.105C135.687 144.847 135.542 142.382 136.298 140.197C136.888 138.353 138.556 138.125 139.809 139.658C141.321 141.491 140.99 144.681 140.845 146.908C140.45 151.668 139.075 156.294 136.805 160.497C132.081 169.089 124.711 175.929 115.791 179.999C111.189 182.157 106.345 183.756 101.363 184.764C96.2779 185.799 91.1822 185.924 86.0657 186.617C83.9043 186.779 81.8791 187.735 80.3797 189.3C78.94 190.967 78.5775 193.153 77.49 195.007C75.2632 198.766 70.5507 200.424 66.3768 200.444C65.9729 200.444 65.569 200.444 65.165 200.382C75.9679 206.16 87.8319 209.684 100.038 210.739C100.396 209.85 100.613 208.91 100.68 207.953C100.845 205.581 100.048 203.065 101.032 200.807Z" fill="#FF0000"/>
</g>
<g style="mix-blend-mode:multiply" opacity="0.29">
<path d="M172.03 182.371C171.543 182.081 170.248 181.905 169.886 181.48C169.523 181.055 169.886 179.73 169.938 179.264C170.145 178.021 170.435 176.799 170.725 175.576C171.626 171.744 172.506 167.891 171.875 163.945C171.346 160.579 169.606 157.244 166.51 155.597C165.143 154.837 163.601 154.446 162.037 154.464C160.473 154.482 158.941 154.909 157.592 155.701C154.371 157.772 154.06 161.656 154.133 165.136C154.236 169.435 154.64 173.867 153.542 178.083C151.523 185.84 143.838 190.946 136.971 194.167C129.079 197.896 120.037 197.927 112.238 201.79C108.286 203.73 105.124 206.975 103.29 210.977C104.905 211.07 106.531 211.112 108.168 211.112C120.332 211.137 132.378 208.718 143.59 204C154.802 199.282 164.952 192.36 173.438 183.645C173.07 183.12 172.588 182.685 172.03 182.371Z" fill="#FF0000"/>
</g>
<g style="mix-blend-mode:multiply" opacity="0.29">
<path d="M199.332 117.431C197.327 118.118 195.451 119.133 193.78 120.435C192.532 121.422 191.415 122.563 190.455 123.832C190.062 124.36 188.239 127.56 187.97 127.374C187.629 127.168 187.239 127.06 186.841 127.06C186.443 127.06 186.053 127.168 185.712 127.374C182.068 129.738 179.472 133.413 178.462 137.638C178.422 137.987 178.36 138.333 178.275 138.674C178.182 138.467 177.395 138.228 177.302 138.187C176.308 137.598 175.395 136.88 174.588 136.053C173 134.336 171.151 132.878 169.109 131.734C168.121 131.193 167.024 130.879 165.899 130.815C164.774 130.75 163.649 130.937 162.605 131.362C162.146 131.564 161.734 131.86 161.395 132.229C161.055 132.599 160.796 133.035 160.632 133.509C160.469 133.983 160.405 134.487 160.445 134.987C160.486 135.487 160.628 135.973 160.865 136.416C161.901 138.415 162.937 140.082 163.195 142.382C163.421 144.64 162.993 146.915 161.963 148.938C161.721 149.394 161.645 149.921 161.749 150.428C161.853 150.934 162.13 151.389 162.533 151.713C162.579 152.122 162.76 152.503 163.047 152.797C163.334 153.092 163.71 153.282 164.117 153.339C166.453 153.845 168.658 154.833 170.59 156.239C172.413 157.648 174.542 158.606 176.805 159.036C179.208 159.336 181.548 158.58 182.657 156.281C183.62 154.272 184.075 152.583 186.333 151.62C188.591 150.657 190.29 151.62 192.496 152.283C192.81 152.384 193.132 152.461 193.459 152.511C197.394 142.101 199.385 131.056 199.332 119.927C199.332 119.088 199.332 118.26 199.332 117.431Z" fill="#FF0000"/>
</g>
<g style="mix-blend-mode:multiply" opacity="0.29">
<path d="M182.688 159.429C181.146 161.319 179.74 163.316 178.483 165.405L176.256 168.699C175.398 169.766 174.7 170.952 174.184 172.22C173.418 174.727 174.899 177.824 175.956 180.061C176.038 180.247 176.142 180.423 176.235 180.599C182.418 173.669 187.507 165.835 191.326 157.368C190.632 157.234 189.917 157.161 189.254 157.089C188.052 156.923 186.828 157.05 185.685 157.457C184.542 157.864 183.514 158.541 182.688 159.429Z" fill="#FF0000"/>
</g>
</g>
<g style="mix-blend-mode:multiply" opacity="0.36">
<g style="mix-blend-mode:multiply" opacity="0.39">
<path d="M140.296 127.292C159.208 106.899 175.085 87.6348 185.981 72.2545C185.118 70.8735 184.22 69.4925 183.288 68.1116C173.118 82.7566 157.261 102.083 138.059 122.839C138.059 86.4127 135.666 53.8084 131.896 31.8305C130.291 31.3955 128.675 31.0019 127.039 30.6602C130.902 51.2605 133.419 84.8902 133.419 122.911V123.408C128.882 120.902 124.239 118.396 119.488 115.889C82.4097 96.3452 48.3658 82.1662 27.7861 76.967C27.0335 78.3893 26.3154 79.8324 25.6318 81.2962C43.9743 85.263 78.8572 99.7216 117.324 119.991C122.647 122.801 127.826 125.604 132.859 128.401C131.057 130.32 129.231 132.243 127.38 134.169C100.918 161.751 75.6879 184.339 58.6711 196.426C60.0521 197.331 61.4676 198.194 62.9176 199.016C80.8665 185.841 105.382 163.853 130.736 137.391L133.325 134.667C132.911 164.267 130.974 190.471 128.147 208.886C129.763 208.523 131.358 208.119 132.942 207.684C135.853 187.83 137.748 161.077 138.059 131.29C158.524 142.869 176.038 154.076 188.477 163.346C189.202 161.989 189.907 160.611 190.549 159.203C177.581 149.705 160.223 138.623 140.296 127.292Z" fill="#FF0000"/>
</g>
</g>
<path style="mix-blend-mode:screen" opacity="0.53" d="M189.616 111.932C172.009 90.358 132.414 161.781 78.1011 123.573C23.7882 85.3659 13.8868 150.15 47.1954 181.118C73.2436 205.322 97.8728 215.524 140.41 200.993C182.946 186.462 201.403 126.308 189.616 111.932Z" fill="url(#paint1_linear_199_3768)"/>
<path style="mix-blend-mode:screen" opacity="0.53" d="M24.7101 128.286C42.3173 149.86 81.9126 78.437 136.226 116.645C190.538 154.852 200.44 90.0681 167.131 59.1003C141.083 34.8956 116.474 24.6938 74.0101 39.2249C31.5458 53.756 12.9651 113.91 24.7101 128.286Z" fill="url(#paint2_linear_199_3768)"/>
<path d="M95.3665 113.849C95.3665 113.693 95.3665 113.548 95.3665 113.393C95.3768 113.538 95.3768 113.714 95.3665 113.849Z" fill="#FF0000"/>
<path d="M112.953 0.0336914C108.572 0.0336914 104.574 10.9501 101.487 29.0337C104.046 14.8755 107.204 6.49655 110.633 6.49655C119.074 6.49655 125.92 57.3191 125.92 120.011C125.92 182.703 119.074 233.536 110.633 233.536C107.204 233.536 104.046 225.157 101.487 210.998C104.594 229.02 108.572 239.998 112.953 239.998C122.678 239.998 130.56 186.297 130.56 120.063C130.56 53.8287 122.688 0.0336914 112.953 0.0336914Z" fill="#FF0000"/>
<path d="M102.078 105.676L102.399 105.345L102.078 105.676Z" fill="#FF0000"/>
<path d="M193.345 35.9522C190.186 32.9279 179.756 38.0237 165.09 48.8469C176.701 40.4265 184.769 36.584 187.244 38.9558C193.334 44.8076 163.185 86.1119 119.923 131.228C76.6612 176.343 36.579 208.171 30.5097 202.329C28.0447 199.947 31.5454 191.734 39.479 179.782C29.2565 194.883 24.6061 205.509 27.7651 208.544C34.7769 215.276 77.5415 182.102 123.279 134.438C169.016 86.7747 200.367 42.6844 193.345 35.9522Z" fill="#FF0000"/>
<path d="M90.312 141.295L89.9185 141.077L90.312 141.295Z" fill="#FF0000"/>
<path d="M0.391307 74.0361C-1.68012 77.9097 5.90131 86.4646 20.0077 97.3189C8.98774 88.6396 3.23952 82.0318 4.83452 78.9972C8.77024 71.5297 55.7813 88.5672 109.825 117.049C163.868 145.531 204.499 174.666 200.564 182.134C198.969 185.168 190.269 184.205 176.877 179.99C193.852 185.448 205.131 186.867 207.172 182.993C211.708 174.397 169.099 143.025 111.989 112.938C54.8802 82.85 4.92773 65.4293 0.391307 74.0361Z" fill="#FF0000"/>
<path d="M124.656 46.8999C124.656 46.8999 133.978 137.722 126.728 172.066C128.25 130.337 127.559 88.556 124.656 46.8999Z" fill="#FF9700"/>
<path d="M171.274 76.7798C171.274 76.7798 114.413 148.244 85.3098 167.726C115.554 138.953 144.249 108.595 171.274 76.7798Z" fill="#FF9700"/>
<path d="M9.3916 73.3208C9.3916 73.3208 43.3837 79.2347 59.9552 90.7311C59.9552 90.6897 35.4294 79.3176 9.3916 73.3208Z" fill="#FF9700"/>
<path d="M155.469 141.077C155.469 141.077 187.431 157.027 197.125 170.585C197.125 170.585 176.297 154.106 155.469 141.077Z" fill="#FF9700"/>
<path style="mix-blend-mode:screen" opacity="0.57" d="M129.493 180.983C158.637 180.983 182.263 157.492 182.263 128.514C182.263 99.5357 158.637 76.0444 129.493 76.0444C100.349 76.0444 76.7236 99.5357 76.7236 128.514C76.7236 157.492 100.349 180.983 129.493 180.983Z" fill="url(#paint3_radial_199_3768)"/>
</g>
<defs>
<radialGradient id="paint0_radial_199_3768" cx="0" cy="0" r="1" gradientUnits="userSpaceOnUse" gradientTransform="translate(108.188 119.927) scale(97.8439)">
<stop stop-color="#FF594D"/>
<stop offset="0.27" stop-color="#FD584F"/>
<stop offset="0.42" stop-color="#F55458"/>
<stop offset="0.54" stop-color="#E84D66"/>
<stop offset="0.65" stop-color="#D5437A"/>
<stop offset="0.75" stop-color="#BC3693"/>
<stop offset="0.84" stop-color="#9E26B3"/>
<stop offset="0.93" stop-color="#7B14D8"/>
<stop offset="1" stop-color="#5600FF"/>
</radialGradient>
<linearGradient id="paint1_linear_199_3768" x1="145.642" y1="201.334" x2="92.0218" y2="91.4524" gradientUnits="userSpaceOnUse">
<stop stop-color="#00FFFF"/>
<stop offset="0.03" stop-color="#00D8D8"/>
<stop offset="0.07" stop-color="#00ABAB"/>
<stop offset="0.12" stop-color="#008282"/>
<stop offset="0.17" stop-color="#005F5F"/>
<stop offset="0.22" stop-color="#004141"/>
<stop offset="0.27" stop-color="#002929"/>
<stop offset="0.34" stop-color="#001717"/>
<stop offset="0.42" stop-color="#000A0A"/>
<stop offset="0.52" stop-color="#000202"/>
<stop offset="0.72"/>
</linearGradient>
<linearGradient id="paint2_linear_199_3768" x1="69.5332" y1="41.0743" x2="135.112" y2="150.159" gradientUnits="userSpaceOnUse">
<stop stop-color="#FFFF00"/>
<stop offset="0.17" stop-color="#BDBD00"/>
<stop offset="0.33" stop-color="#838300"/>
<stop offset="0.49" stop-color="#545400"/>
<stop offset="0.64" stop-color="#303000"/>
<stop offset="0.78" stop-color="#151500"/>
<stop offset="0.9" stop-color="#060600"/>
<stop offset="1"/>
</linearGradient>
<radialGradient id="paint3_radial_199_3768" cx="0" cy="0" r="1" gradientUnits="userSpaceOnUse" gradientTransform="translate(128.581 128.751) scale(56.376)">
<stop stop-color="#FFFF4D"/>
<stop offset="0.3" stop-color="#96962D"/>
<stop offset="0.55" stop-color="#454515"/>
<stop offset="0.72" stop-color="#131306"/>
<stop offset="0.81"/>
</radialGradient>
<clipPath id="clip0_199_3768">
<rect width="207.536" height="240" fill="white"/>
</clipPath>
</defs>
</svg>
