<svg width="400" height="400" viewBox="0 0 400 400" fill="none" xmlns="http://www.w3.org/2000/svg">
<path d="M104.948 89.328L113.362 34.0972C113.467 33.44 113.765 32.8286 114.217 32.3403C114.669 31.8521 115.256 31.5089 115.903 31.3542L185.607 15.0643C186.431 14.8774 187.295 15.0074 188.027 15.4282C188.76 15.8491 189.308 16.5302 189.561 17.3361L202.721 60.5851C202.915 61.2067 203.286 61.7586 203.788 62.1738C204.29 62.589 204.901 62.8497 205.548 62.9242L217.681 64.2368C218.14 64.2847 218.604 64.2378 219.044 64.0988C219.484 63.9598 219.891 63.7319 220.239 63.4291L241.258 44.9178C241.668 44.5518 242.163 44.2951 242.699 44.1716C243.234 44.048 243.792 44.0616 244.321 44.2111L310.187 61.9818C310.892 62.1796 311.514 62.6022 311.957 63.1853C312.401 63.7684 312.642 64.4803 312.644 65.2129V86.8878C312.656 87.513 312.841 88.1226 313.18 88.6482C313.518 89.1739 313.996 89.5949 314.561 89.864C315.125 90.1331 315.753 90.2396 316.375 90.1717C316.996 90.1038 317.587 89.864 318.08 89.4794C318.497 89.1487 318.987 88.9218 319.509 88.8173C320.031 88.7128 320.571 88.7337 321.083 88.8783C321.596 89.0228 322.067 89.2869 322.457 89.6489C322.848 90.0108 323.147 90.4603 323.33 90.9603L325.013 95.7732C325.277 96.5093 325.79 97.1303 326.462 97.5295C327.135 97.9287 327.926 98.0813 328.698 97.9609L364.644 91.97C365.52 91.834 366.415 92.0493 367.133 92.5693C367.852 93.0892 368.336 93.8717 368.481 94.7467L378.443 159.772C378.472 159.966 378.517 160.157 378.578 160.344L387.901 187.656C388.16 188.386 388.16 189.182 387.901 189.911L378.426 214.683C378.208 215.252 377.839 215.752 377.359 216.129C376.879 216.505 376.305 216.744 375.7 216.82L360.167 218.705C359.536 218.806 358.947 219.085 358.469 219.509C357.99 219.933 357.642 220.484 357.466 221.098C357.289 221.713 357.291 222.364 357.472 222.978C357.652 223.591 358.003 224.14 358.485 224.561L360.252 226.059C360.7 226.441 361.04 226.935 361.238 227.49C361.436 228.045 361.485 228.642 361.379 229.222L341.993 332.162C341.833 332.985 341.372 333.719 340.7 334.22C340.028 334.721 339.192 334.953 338.358 334.871L296.287 330.26C295.525 330.183 294.76 330.367 294.118 330.783C293.475 331.2 292.994 331.822 292.753 332.549L286.728 351.295C286.524 351.92 286.141 352.472 285.626 352.882C285.112 353.291 284.489 353.541 283.834 353.601L246.811 356.815C246.475 356.85 246.146 356.935 245.835 357.068L197.572 376.908C197.161 377.079 196.721 377.168 196.276 377.168C195.831 377.168 195.391 377.079 194.98 376.908L155.433 359.895C154.839 359.643 154.185 359.567 153.548 359.676L105.301 367.956C104.622 368.073 103.923 367.979 103.299 367.686L63.281 348.502C62.495 348.135 61.8811 347.478 61.5676 346.669C61.254 345.86 61.265 344.961 61.5982 344.16L76.7437 309.696C76.9755 309.146 77.0571 308.545 76.9803 307.954C76.9034 307.362 76.6707 306.802 76.3062 306.33L26.7634 243.644C26.2979 243.054 26.0432 242.326 26.0398 241.574V206.42C26.0436 205.762 26.2401 205.12 26.605 204.573C26.9699 204.025 27.4871 203.597 28.0929 203.34L42.8345 197.215C43.2383 197.033 43.6021 196.773 43.9053 196.451C44.2085 196.128 44.445 195.748 44.6014 195.334C44.7577 194.92 44.8308 194.479 44.8163 194.036C44.8019 193.594 44.7003 193.158 44.5174 192.755L26.8307 154.1C26.5932 153.575 26.4948 152.997 26.5449 152.422C26.595 151.848 26.7919 151.296 27.1168 150.819L48.4552 119.754C48.9086 119.093 49.5829 118.615 50.3568 118.407L70.5509 113.073C71.2566 112.879 71.8799 112.46 72.3263 111.88C72.7727 111.3 73.0179 110.59 73.0246 109.859V94.1914C73.0284 93.3084 73.3789 92.4623 74.0007 91.8354L81.1023 84.717C81.6015 84.2219 82.2433 83.8956 82.9375 83.784C83.6317 83.6723 84.3435 83.7808 84.9728 84.0943L100.118 91.8017C100.591 92.0383 101.112 92.1603 101.641 92.1579C102.169 92.1555 102.689 92.0287 103.16 91.7879C103.63 91.547 104.037 91.1988 104.348 90.7714C104.658 90.3441 104.864 89.8496 104.948 89.328Z" fill="#870037"/>
<path d="M189.78 18.3291L163.915 43.7736L157.605 72.8362L110.67 98.4154L101.448 92.1384L84.9396 84.0944L80.0257 91.9365L88.0696 122.059L70.5176 113.09L51.3669 118.138L48.6744 144.306L58.1319 154.286L39.7385 159.183V167.243L56.5501 195.044L36.0531 206.47L51.064 240.918L67.0678 261.466L82.4658 307.003L96.1304 353.231L103.316 363.917L136.906 351.582L163.915 352.541L198.582 360.602L196.832 375.663L203.63 374.418L234.746 361.308L241.847 347.29L286.914 350.387L292.652 332.549L293.696 323.983L302.615 323.108L330.197 326.793L338.005 319.793V266.026L349.549 271.091L361.245 229.222L347.984 219.092L346.756 209.449L341.152 192.991L375.128 212.949L386.168 187.74L368.296 163.036L374.623 135.303L368.666 96.3118L317.861 116.27L321.883 98.5837L319.611 91.7513L300.511 107.688L304.903 90.1863L309.801 64.1865L305.004 60.6525L245.466 44.5646L228.015 74.2498L215.225 73.7113L194.206 72.3146L198.245 65.1288L189.78 18.3291Z" fill="#5B003F"/>
<path d="M50.6104 189.709L46.925 181.615L48.6078 171.265L52.6971 169.246V167.26L56.9042 160.781L64.6116 131.012L72.6556 122.951L77.0478 122.244L91.5875 101.04L108.752 93.2823L161.106 72.6675L173.474 64.9938L185.978 57.9595L190.707 58.8346L193.164 61.2915L196.933 57.9259L204.893 55.6372L207.03 62.6883L222.798 64.3711L230.321 60.5679L238.903 61.6113L243.11 67.0469L255.546 69.3523L258.912 72.718L294.252 89.1762L297.23 94.6117L296.036 97.1023L301.858 102.151L313.335 106.56L316.314 109.353L318.266 114.755L321.463 123.809L323.146 126.098L327.202 132.038L333.243 135.723L339.537 151.862L342.734 169.246L350.475 229.929L351.317 234.977L347.278 254.633L344.787 256.753L342.903 276.089L338.006 283.679L333.58 285.126L331.173 293.54C331.173 293.54 329.945 297.68 329.49 297.865C329.036 298.05 325.637 300.305 325.637 300.305L318.687 302.577L313.722 318.345L304.029 327.432H300.041L288.261 336.856L286.578 340.895L270.288 351.749H260.881L197.135 365.212L191.01 369.588L187.072 370.631L179.449 365.212H166.642L166.928 361.577L158.228 359.491L153.045 361.695L132.38 353.281L102.694 332.481L89.0296 325.009L84.6542 314.088L77.4517 298.252L64.3087 285.984L57.611 268.365L52.2091 256.753L59.3948 241.608L46.9586 229.525L46.2518 216.904L45.7638 201.169L49.7858 195.986L50.6104 189.709Z" fill="#C90052"/>
<path d="M307 321C366.094 261.906 366.094 166.094 307 107C247.905 47.9056 152.094 47.9055 93 107C33.9055 166.094 33.9055 261.906 93 321C152.094 380.094 247.905 380.094 307 321Z" fill="#C90052"/>
<g style="mix-blend-mode:multiply">
<g style="mix-blend-mode:multiply">
<path d="M70.0468 230.486C59.9498 222.071 65.9071 192.756 88.2888 197.064C110.671 201.372 151.294 274.155 128.879 274.896C106.463 275.636 110.687 264.142 70.0468 230.486Z" fill="#DF00FF"/>
</g>
</g>
<g style="mix-blend-mode:multiply">
<g style="mix-blend-mode:multiply">
<path d="M147.592 302.191C155.855 305.354 158.851 325.649 143.856 327.837C128.862 330.025 86.7578 292.094 100.591 286.574C114.424 281.054 114.474 289.485 147.592 302.191Z" fill="#DF00FF"/>
</g>
</g>
<g style="mix-blend-mode:multiply">
<g style="mix-blend-mode:multiply">
<path d="M116.544 262.392C124.806 265.556 127.819 285.851 112.824 288.038C97.8303 290.226 55.7089 252.244 69.5586 246.775C83.4084 241.306 83.4084 249.686 116.544 262.392Z" fill="#DF00FF"/>
</g>
</g>
<g style="mix-blend-mode:multiply">
<g style="mix-blend-mode:multiply">
<path d="M256.151 317.337C263.875 316.596 271.886 331.035 260.038 338.473C248.191 345.911 202.923 332.97 212.919 323.445C222.915 313.92 225.204 320.399 256.151 317.337Z" fill="#DF00FF"/>
</g>
</g>
<g style="mix-blend-mode:multiply">
<g style="mix-blend-mode:multiply">
<path d="M227.224 342.696C231.465 343.824 232.054 352.457 223.993 353.837C215.932 355.217 195.385 340.088 203.058 337.328C210.732 334.568 210.261 338.186 227.224 342.696Z" fill="#DF00FF"/>
</g>
</g>
<g style="mix-blend-mode:multiply">
<g style="mix-blend-mode:multiply">
<path d="M239.694 303.874C243.918 305.001 244.507 313.651 236.446 315.031C228.386 316.411 207.922 301.265 215.529 298.522C223.135 295.779 222.731 299.431 239.694 303.874Z" fill="#DF00FF"/>
</g>
</g>
<g style="mix-blend-mode:multiply">
<g style="mix-blend-mode:multiply">
<path d="M308.589 300.154C312.813 301.281 313.402 309.931 305.341 311.311C297.28 312.691 276.817 297.546 284.423 294.803C292.03 292.059 291.626 295.644 308.589 300.154Z" fill="#DF00FF"/>
</g>
</g>
<path style="mix-blend-mode:screen" opacity="0.53" d="M338.291 225.453C309.026 261.247 243.362 142.725 153.178 206.134C62.995 269.543 46.5873 162.044 101.902 110.65C145.118 70.4803 186.044 53.5342 256.521 77.6661C326.999 101.798 357.744 201.607 338.291 225.453Z" fill="url(#paint0_linear_187_1945)"/>
<path style="mix-blend-mode:screen" opacity="0.53" d="M61.986 201.22C91.2506 165.41 156.915 283.949 247.098 220.539C337.281 157.13 353.689 264.63 298.374 316.024C255.142 356.193 214.232 373.139 143.755 349.007C73.2779 324.875 42.4988 225.032 61.986 201.22Z" fill="url(#paint1_linear_187_1945)"/>
<path d="M205.465 62.9243L186.701 76.1683L188.081 77.8511L185.624 80.6614L171.623 94.1242V101.478L120.902 166.368H88.2552C88.2552 166.368 83.2067 167.075 82.4662 166.368C81.7258 165.662 82.4662 173.201 82.4662 173.201L79.4876 177.66L78.4443 179.057L50.6101 189.794V193.984L87.7335 182.709L112.387 178.704L152.775 277.991L161.189 324.236L159.793 327.214L160.836 328.611L162.064 331.068L158.833 335.847L161.459 338.254L158.228 359.491L161.98 357.808L169.334 335.847L172.262 273.582L235.638 251.301L243.06 260.069L268.857 295.274L273.586 328.931L297.23 329.991L300.074 327.551L291.441 324.555L280.94 324.37L277.776 322.805L274.815 290.579L271.449 288.644L268.639 287.954L267.949 283.561L265.492 283.04L263.035 278.664L241.848 250.998L254.452 247.835L293.393 148.547L306.94 141.176L323.634 137.676V127.579L321.463 123.809L319.78 132.813L306.654 133.856L287.907 116.27L287.655 107.233L296.069 97.0523L293.461 94.9487L290.364 97.0523V99.6439L285.602 103.01L282.724 106.106L279.14 111.525L213.93 116.96L187.122 134.849L183.874 100.25L207.871 69.4537L209.184 63.0085L205.465 62.9243Z" fill="#773000"/>
<path d="M323.129 126.031L320.486 137.29L286.863 141.143L295.261 105.787L301.824 102.068L296.001 97.0361L285.534 103.027L279.072 151.863L325.03 141.143L327.184 131.955L323.129 126.031Z" fill="#0098FF"/>
<path d="M121.475 167.8L95.3574 134.631C95.0716 134.266 94.8643 133.846 94.7484 133.397C94.6326 132.948 94.6107 132.48 94.6842 132.022L98.925 107.066C99.0488 106.336 99.4096 105.668 99.9515 105.164L145.304 63.5982C145.66 63.2734 146.082 63.0288 146.54 62.881C146.999 62.7332 147.484 62.6856 147.963 62.7414C148.441 62.7973 148.902 62.9552 149.315 63.2047C149.727 63.4541 150.081 63.7891 150.353 64.1872L195.638 130.828C196.1 131.446 196.762 131.887 197.511 132.076C198.26 132.265 199.051 132.19 199.752 131.864C200.453 131.539 201.02 130.982 201.358 130.288C201.697 129.593 201.787 128.803 201.612 128.051L198.061 115.261C197.828 114.413 197.937 113.507 198.364 112.737L213.678 85.29C214.048 84.6389 214.624 84.1298 215.316 83.8433C216.008 83.5568 216.776 83.5092 217.498 83.7081L294.37 105.585C294.978 105.766 295.525 106.109 295.952 106.578L307.833 119.923C308.149 120.28 308.387 120.7 308.529 121.155C308.671 121.611 308.715 122.091 308.657 122.565L300.748 185.352C300.664 186.064 300.81 186.784 301.164 187.408C301.518 188.031 302.062 188.526 302.717 188.818L330.231 200.918C330.898 201.221 331.452 201.728 331.813 202.365L344.417 225.353C344.671 225.835 344.803 226.372 344.803 226.918C344.803 227.463 344.671 228 344.417 228.483L308.22 298.27C307.861 298.964 307.271 299.511 306.553 299.819C305.834 300.126 305.031 300.173 304.282 299.953L286.242 294.484C285.727 294.333 285.258 294.055 284.879 293.676L243.026 252.699C242.506 252.22 241.849 251.917 241.147 251.834C240.445 251.75 239.734 251.889 239.116 252.232C238.498 252.574 238.003 253.103 237.702 253.743C237.401 254.382 237.309 255.1 237.439 255.795L244.171 286.255C244.309 286.865 244.268 287.502 244.053 288.089L227.948 333.643C227.702 334.327 227.242 334.913 226.635 335.314C226.028 335.714 225.308 335.908 224.583 335.865L186.012 332.97C185.331 332.915 184.682 332.653 184.153 332.22C183.624 331.788 183.239 331.204 183.05 330.547L166.844 273.583C166.663 272.989 166.321 272.457 165.856 272.045C165.392 271.634 164.822 271.359 164.211 271.251C163.599 271.143 162.97 271.206 162.392 271.434C161.815 271.661 161.311 272.044 160.938 272.539L141.837 298.994C141.481 299.479 141.001 299.86 140.448 300.097C139.894 300.333 139.287 300.417 138.69 300.34L89.6862 293.777C89.1393 293.699 88.6199 293.488 88.1738 293.163C87.7277 292.837 87.3686 292.406 87.1283 291.909L72.9924 262.442C72.7109 261.847 72.6102 261.182 72.703 260.53C72.7957 259.878 73.0777 259.267 73.5141 258.774L112.876 215.02C113.198 214.661 113.439 214.236 113.583 213.776C113.727 213.315 113.77 212.829 113.709 212.35C113.649 211.871 113.486 211.411 113.232 211C112.977 210.59 112.638 210.239 112.236 209.971L91.8402 196.509C91.354 196.182 90.9615 195.733 90.7018 195.208C90.442 194.682 90.324 194.098 90.3593 193.513L91.4363 176.298C91.4961 175.447 91.8769 174.65 92.5017 174.069C93.1265 173.488 93.9487 173.166 94.802 173.168H118.867C119.482 173.15 120.08 172.965 120.597 172.631C121.114 172.297 121.529 171.828 121.798 171.274C122.067 170.721 122.179 170.104 122.122 169.492C122.065 168.879 121.841 168.294 121.475 167.8Z" fill="#E54600"/>
<path d="M150.318 64.1865L141.618 122.934L188.081 158.19L125.732 173.201L158.228 193.917L101.449 264.68L141.837 299.044L164.959 267.002L166.591 272.724L213.071 279.859L243.884 232.689L284.996 250.898L330.197 200.85L302.682 188.75L308.623 122.497L292.703 108.916L228.705 177.576L214.468 178.737L208.73 144.643L175.157 100.721L150.318 64.1865Z" fill="#C63D00"/>
<path d="M141.618 122.934L127.314 125.088L101.735 128.858C101.145 128.947 100.543 128.894 99.9785 128.701C99.4141 128.509 98.9041 128.184 98.4917 127.753C98.0792 127.323 97.7763 126.799 97.6086 126.227C97.4408 125.655 97.4131 125.051 97.5278 124.466L101.449 103.733L142.863 70.0764C143.441 69.6045 144.146 69.3169 144.889 69.2509C145.631 69.185 146.376 69.3437 147.028 69.7065C147.679 70.0693 148.206 70.6194 148.541 71.2856C148.876 71.9517 149.002 72.703 148.905 73.4421L141.618 122.934Z" fill="#FF8B00"/>
<path d="M94.4145 177.374L93.2029 191.931C93.1554 192.527 93.2676 193.125 93.5279 193.663C93.7882 194.201 94.1871 194.66 94.6838 194.993L125.934 215.776L155.619 192.217L98.7731 174.446C98.2921 174.296 97.7834 174.255 97.2846 174.327C96.7858 174.4 96.3097 174.583 95.8913 174.864C95.4729 175.145 95.123 175.517 94.8674 175.951C94.6118 176.386 94.4571 176.872 94.4145 177.374Z" fill="#FF8B00"/>
<path d="M73.5125 258.841L101.448 264.68L138.033 219.092L112.874 215.053L73.5125 258.841Z" fill="#FF8B00"/>
<path d="M166.844 273.582L182.999 330.395L214.973 332.448C216.066 332.518 217.16 332.334 218.171 331.911C219.181 331.488 220.079 330.838 220.796 330.01C221.513 329.182 222.029 328.2 222.303 327.14C222.578 326.08 222.603 324.97 222.378 323.899L213.105 279.808L166.642 272.724L166.844 273.582Z" fill="#FF8B00"/>
<path d="M284.878 293.574L284.996 250.897L243.884 232.688L243.026 252.596L284.878 293.574Z" fill="#FF8B00"/>
<path d="M292.702 108.917L227.223 87.0065C224.463 86.0787 221.466 86.1443 218.75 87.1922C216.033 88.24 213.769 90.2042 212.347 92.745L198.177 118.139L223.268 176.298L228.637 177.577L292.702 108.917Z" fill="#FF8B00"/>
<path d="M270.489 132.746L237.522 118.66L198.245 118.139L270.489 132.746Z" fill="#FF5500"/>
<path d="M103.787 104.255L129.232 93.2827L138.033 118.66L124.402 99.1727L103.787 104.255Z" fill="#FF5500"/>
<path d="M141.619 122.935L121.475 167.799L188.082 158.19L141.619 122.935Z" fill="#FF5500"/>
<path d="M101.448 264.681L95.1034 294.568L118.394 293.861C119.222 293.835 120.025 293.572 120.708 293.103C121.392 292.635 121.927 291.981 122.251 291.219C122.575 290.456 122.674 289.617 122.536 288.8C122.398 287.983 122.029 287.222 121.473 286.608L101.448 264.681Z" fill="#FF5500"/>
<path d="M307.596 288.526L295.968 238.748L284.996 250.898L284.878 293.575L301.706 295.258C302.577 295.342 303.454 295.218 304.267 294.896C305.08 294.574 305.804 294.062 306.38 293.404C306.955 292.746 307.366 291.961 307.578 291.112C307.789 290.264 307.796 289.378 307.596 288.526Z" fill="#FF5500"/>
<path d="M125.731 173.201V182.894L155.619 192.251L125.731 173.201Z" fill="#FF5500"/>
<path d="M275.656 324.69L271.449 296.2L240.637 250.258L248.866 228.92L235.958 221.01L240.637 203.256L224.279 173.84L198.246 118.138L188.788 102.858L222.765 64.3886L206.997 62.689L175.157 100.721L206.997 147.588L208.629 152.519L149.09 162.633L120.987 167.193L87.9021 167.765L86.0342 179.444L50.6104 189.71L49.7522 195.886L90.9481 184.19L91.638 173.201H125.732L152.691 167.244L213.072 165.897L235.958 204.67L229.765 221.145L240.637 230.821L235.016 244.755L236.917 253.338L267.713 296.2L268.185 330.765L288.244 336.941L297.197 329.957L275.656 324.69Z" fill="url(#paint2_radial_187_1945)"/>
<path d="M165.414 248.659L164.959 267.002L158.228 276.325L164.034 338.304L158.228 359.491L166.878 361.695L170.866 342.898L166.592 272.724L172.263 250.123L165.414 248.659Z" fill="url(#paint3_linear_187_1945)"/>
<g style="mix-blend-mode:multiply" opacity="0.47">
<path d="M119.96 241.609L129.468 263.132L165.127 260.49L220.577 268.366L231.515 235.029L240.636 230.822H248.142L278.096 247.852L330.197 200.85L302.682 188.751L306.94 141.143L276.582 137.643L264.011 145.939L125.732 234.423L119.96 241.609Z" fill="#C63D00"/>
</g>
<path d="M156.544 156.844L211.606 165.645C212.097 165.735 212.561 165.932 212.965 166.224C213.37 166.515 213.705 166.892 213.946 167.328L235.217 203.374C235.467 203.803 235.62 204.282 235.663 204.776C235.707 205.271 235.641 205.769 235.469 206.235L216.504 256.72C216.217 257.464 215.676 258.082 214.976 258.464C214.277 258.846 213.464 258.968 212.683 258.807L165.564 248.71C165.262 248.669 164.957 248.669 164.655 248.71L130.14 250.864C129.433 250.918 128.726 250.747 128.122 250.375C127.517 250.003 127.046 249.45 126.775 248.794L117.334 225.655C117.066 224.987 117.02 224.25 117.201 223.554C117.383 222.857 117.783 222.237 118.344 221.785L163.275 186.176C163.962 185.624 164.404 184.825 164.508 183.95C164.612 183.075 164.369 182.195 163.831 181.497L150.805 164.871C150.323 164.243 150.077 163.466 150.11 162.675C150.144 161.884 150.456 161.13 150.991 160.546L153.464 157.87C153.849 157.453 154.334 157.141 154.872 156.961C155.411 156.782 155.986 156.741 156.544 156.844Z" fill="#FF6700"/>
<path d="M224.28 173.841L251.828 141.144L293.394 157.501L318.62 206.067L267.242 240.162L235.958 221.011L240.637 203.257L224.28 173.841Z" fill="#FF6700"/>
<path d="M267.243 240.161L261.992 178.973L293.394 157.5L318.62 206.067L267.243 240.161Z" fill="#F25100"/>
<path d="M216.402 256.67L183.873 214.01L208.729 184.931L186.684 181.616L213.861 167.244L235.957 204.67L216.402 256.67Z" fill="#F25100"/>
<path d="M224.28 173.84L250.784 199.234L235.958 221.01L240.637 203.256L224.28 173.84Z" fill="#F25100"/>
<path d="M186.684 181.616L158.379 166.251C157.576 165.814 156.878 165.206 156.335 164.471C155.791 163.735 155.415 162.89 155.232 161.994C155.049 161.098 155.065 160.173 155.277 159.283C155.489 158.394 155.893 157.561 156.46 156.844L213.071 165.881L213.862 167.227L186.684 181.616Z" fill="#FF9E10"/>
<path d="M183.874 214.009L160.146 216.82L118.345 221.784L163.293 186.175L208.73 184.93L183.874 214.009Z" fill="#FF9E10"/>
<path d="M165.413 248.659L187.761 219.091L206.104 246.32C206.685 247.19 207 248.211 207.008 249.257C207.017 250.304 206.72 251.33 206.153 252.21C205.586 253.089 204.775 253.784 203.818 254.209C202.862 254.633 201.802 254.769 200.769 254.599L165.413 248.659Z" fill="#FF9E10"/>
<path d="M224.28 173.841L261.992 178.974L293.394 157.501L251.828 141.144L224.28 173.841Z" fill="#FF9E10"/>
<path d="M250.783 199.234L263.27 193.899L267.241 240.161L235.957 221.01L250.783 199.234Z" fill="#FF9E10"/>
<g style="mix-blend-mode:multiply" opacity="0.47">
<path d="M164.774 85.4585L174.282 147.723L185.725 156.407L208.628 152.52L206.996 147.589L164.774 85.4585Z" fill="#C63D00"/>
</g>
<path d="M64.7116 5.97705L87.8507 19.0527L92.6804 37.7322L83.6267 67.6362L60.7401 32.1284L64.7116 5.97705Z" fill="#FF6700"/>
<path d="M60.7401 32.1284L73.1595 23.4954L64.7116 5.97705L60.7401 32.1284Z" fill="#FF9E10"/>
<path d="M73.1593 23.4956L92.6802 37.7324L83.6266 67.6365L73.1593 23.4956Z" fill="#F25100"/>
<path d="M73.1595 23.4956L83.6267 67.6365L60.7401 32.1286L73.1595 23.4956Z" fill="#FF6700"/>
<path d="M82.92 16.2603L80.2274 28.646L92.6804 37.7333L87.8507 19.0538L82.92 16.2603Z" fill="#FF6700"/>
<path d="M66.8325 27.8881C66.8325 27.8881 74.0856 20.1976 83.2739 67.0815C83.2739 67.0815 73.9846 25.5995 78.6461 28.7464C83.3075 31.8933 92.5968 37.7327 92.5968 37.7327C92.5968 37.7327 81.1367 29.6215 81.4564 22.5872C81.4564 22.5872 79.9755 28.4603 77.2998 25.4312C74.6241 22.4021 64.7122 6.01123 64.7122 6.01123L66.8325 27.8881Z" fill="#FF9E10"/>
<path d="M373.261 230.485L400.809 247.263L393.337 287.802L373.261 303.806L364.376 257.074L373.261 230.485Z" fill="#7C0050"/>
<path d="M373.261 230.485L389.77 259.329L373.261 303.806L364.376 257.074L373.261 230.485Z" fill="#AA003D"/>
<path d="M389.314 259.783L400.808 247.263L393.336 287.802L373.26 303.806L389.314 259.783Z" fill="#7C0050"/>
<path d="M389.315 259.783L377.922 262.761L364.376 257.073L375.533 270.502L389.315 259.783Z" fill="#7C0050"/>
<path d="M381.053 244.722C381.053 244.722 387.784 257.528 391.47 255.071C394.735 252.656 397.854 250.049 400.81 247.263C400.81 247.263 389.03 260.372 388.054 263.283L389.215 259.817L382.046 252.951L381.053 244.722Z" fill="#AA003D"/>
<path d="M60.4371 52.2388L53.6553 75.3441L62.8604 107.688L66.327 85.2897L67.8248 67.8723L60.4371 52.2388Z" fill="#FF6700"/>
<path d="M66.9329 69.1855L60.7401 78.2392L62.8605 107.689L65.9401 87.7809L66.9329 69.1855Z" fill="#F25100"/>
<path d="M53.6553 75.3442L60.74 78.2386L60.4371 52.2388L53.6553 75.3442Z" fill="#FF9E10"/>
<path d="M59.9996 77.9353L53.6553 75.3438L62.8604 107.688L59.9996 77.9353Z" fill="#FF6700"/>
<path d="M55.9956 76.3032C56.9392 76.5609 57.8102 77.034 58.5402 77.6851C59.2702 78.3362 59.8392 79.1478 60.2027 80.0559C60.9539 83.8671 61.4542 87.7235 61.7004 91.6002C61.7004 91.6002 60.7749 80.4261 63.0804 75.9834C65.3858 71.5408 65.6719 71.0527 65.6719 71.0527C65.6719 71.0527 61.7846 77.0773 61.2461 76.5388C60.7076 76.0003 60.6234 73.8126 60.6234 73.8126L55.9956 76.3032Z" fill="#FF9E10"/>
<path d="M164.269 215.053C164.269 215.053 196.681 208.119 178.758 230.989L201.746 239.925C201.746 239.925 184.48 214.783 191.531 205.09C198.582 195.397 164.269 215.053 164.269 215.053Z" fill="#FF9E10"/>
<path d="M242.369 211.62C242.369 211.62 251.49 201.405 234.679 183.803C234.679 183.803 249.723 198.141 251.608 197.703C253.493 197.266 262.176 196.407 261.57 189.575C260.965 182.743 264.734 179.125 242.773 176.365C220.812 173.605 242.352 176.365 242.352 176.365L275.723 169.633C275.723 169.633 263.068 177.088 264.027 187.673C264.987 198.258 265.054 238.63 274.124 234.086C279.985 231.124 285.677 227.837 291.172 224.241L267.191 240.161L242.369 211.62Z" fill="#FF9E10"/>
<path d="M195.418 182.927C195.418 182.927 186.348 181.783 196.966 176.196C207.585 170.609 184.48 174.295 184.48 174.295L186.684 181.615C186.684 181.615 208.208 184.981 194.913 185.3L208.729 184.93L195.418 182.927Z" fill="#FF9E10"/>
<path d="M148.029 249.618C148.029 249.618 166.136 247.936 172.733 238.983L174.18 246.455L165.413 248.659L148.029 249.618Z" fill="#FF9E00"/>
<path d="M125.732 124.331C125.732 124.331 139.48 121.639 135.543 131.971C131.605 142.304 122.299 165.965 122.299 165.965C122.299 165.965 140.036 123.372 148.955 129.767C157.874 136.162 180.542 152.536 180.542 152.536C180.542 152.536 176.873 151.475 173.979 137.205C171.084 122.935 167.954 106.258 167.954 106.258C167.954 106.258 173.979 143.869 166.894 139.578C159.809 135.287 142.459 127.949 143.334 116.018C144.209 104.087 145.926 93.1987 145.926 93.1987L139.834 120.848L125.732 124.331Z" fill="#FF8B00"/>
<path d="M292.704 139.51C292.704 139.51 277.39 137.945 278.534 132.342C279.679 126.738 292.704 108.917 292.704 108.917L259.754 144.256C259.754 144.256 275.488 126.889 276.229 131.971C276.969 137.054 264.449 145.602 264.449 145.602C264.449 145.602 271.837 138.602 281.732 139.224C291.627 139.847 292.704 139.51 292.704 139.51Z" fill="#FF8B00"/>
<path d="M296.928 112.518C296.928 112.518 293.31 108.782 288.918 114.453L292.704 108.917L296.928 112.518Z" fill="#EF8200"/>
<path d="M302.211 140.639C302.211 140.639 306.906 141.716 307.512 134.816L306.199 149.474C306.199 149.474 306.772 141.346 302.211 140.639Z" fill="#FF8B00"/>
<path d="M119.69 181.027C119.69 181.027 125.092 183.316 125.732 173.219L139.598 170.156C139.598 170.156 127.112 172.596 134.129 177.83C141.147 183.063 154.996 192.268 161.458 187.64L147.777 198.495C147.777 198.495 153.701 193.295 141.719 184.595C129.737 175.894 121.205 172.613 128.761 183.837C136.317 195.062 119.69 181.027 119.69 181.027Z" fill="#FF8B00"/>
<path d="M87.2449 261.702C87.2449 261.702 98.5872 263.166 98.2843 270.116C97.9814 277.066 96.5005 288.072 96.5005 288.072C96.5005 288.072 100.051 265.858 104.242 269.409C108.432 272.96 115.382 280.011 115.382 280.011C115.382 280.011 102.862 265.942 116.425 277.487C116.425 277.487 102.39 265.909 105.773 260.658C109.155 255.408 117.082 245.26 117.082 245.26L87.2449 261.702Z" fill="#FF8B00"/>
<path d="M194.19 276.949C194.19 276.949 213.341 280.314 220.19 268.955C220.19 268.955 213.678 281.593 218.087 303.689C222.496 325.785 194.19 276.949 194.19 276.949Z" fill="#FF8B00"/>
<path d="M278.096 247.851C278.096 247.851 284.827 274.306 284.827 274.895C284.827 275.484 286.51 249.248 291.172 243.998C295.833 238.747 300.478 258.302 300.478 258.302C300.478 258.302 295.429 240.178 303.944 229.862C303.944 229.862 284.053 249.433 272.812 245.529C261.57 241.625 278.096 247.851 278.096 247.851Z" fill="#FF8B00"/>
<defs>
<linearGradient id="paint0_linear_187_1945" x1="273.47" y1="80.2778" x2="164.652" y2="261.292" gradientUnits="userSpaceOnUse">
<stop stop-color="#00FFFF"/>
<stop offset="0.02" stop-color="#00F0F0"/>
<stop offset="0.09" stop-color="#00BEBE"/>
<stop offset="0.17" stop-color="#009191"/>
<stop offset="0.25" stop-color="#006A6A"/>
<stop offset="0.34" stop-color="#004949"/>
<stop offset="0.43" stop-color="#002E2E"/>
<stop offset="0.53" stop-color="#001A1A"/>
<stop offset="0.65" stop-color="#000B0B"/>
<stop offset="0.78" stop-color="#000303"/>
<stop offset="1"/>
</linearGradient>
<linearGradient id="paint1_linear_187_1945" x1="134.069" y1="345.683" x2="242.887" y2="164.669" gradientUnits="userSpaceOnUse">
<stop stop-color="#FFFF00"/>
<stop offset="0.02" stop-color="#F0F000"/>
<stop offset="0.09" stop-color="#BEBE00"/>
<stop offset="0.17" stop-color="#919100"/>
<stop offset="0.25" stop-color="#6A6A00"/>
<stop offset="0.34" stop-color="#494900"/>
<stop offset="0.43" stop-color="#2E2E00"/>
<stop offset="0.53" stop-color="#1A1A00"/>
<stop offset="0.65" stop-color="#0B0B00"/>
<stop offset="0.78" stop-color="#030300"/>
<stop offset="1"/>
</linearGradient>
<radialGradient id="paint2_radial_187_1945" cx="0" cy="0" r="1" gradientUnits="userSpaceOnUse" gradientTransform="translate(173.474 199.807) scale(130.588)">
<stop stop-color="#00FFFF"/>
<stop offset="0.13" stop-color="#00F4FF"/>
<stop offset="0.37" stop-color="#00D8FF"/>
<stop offset="0.67" stop-color="#00A9FF"/>
<stop offset="1" stop-color="#006FFF"/>
</radialGradient>
<linearGradient id="paint3_linear_187_1945" x1="165.245" y1="248.659" x2="165.245" y2="361.695" gradientUnits="userSpaceOnUse">
<stop stop-color="#00FFFF"/>
<stop offset="0.14" stop-color="#00DCFF"/>
<stop offset="0.32" stop-color="#00B5FF"/>
<stop offset="0.5" stop-color="#0096FF"/>
<stop offset="0.68" stop-color="#0081FF"/>
<stop offset="0.85" stop-color="#0073FF"/>
<stop offset="1" stop-color="#006FFF"/>
</linearGradient>
</defs>
</svg>
