<svg width="386" height="396" viewBox="0 0 386 396" fill="none" xmlns="http://www.w3.org/2000/svg">
<path d="M347.787 118.506L306.966 103.011L279.072 90.1061L239.998 55.7061L206.314 88.3798L162.503 25.8745C123.011 30.9461 86.1923 48.5726 57.4766 76.1553C28.7609 103.738 9.6674 139.817 3.01098 179.074C-3.64545 218.331 2.48748 258.687 20.5056 294.194C38.5237 329.701 67.4735 358.479 103.087 376.286C138.7 394.093 179.093 399.986 218.309 393.096C257.526 386.206 293.491 366.899 320.902 338.02C348.314 309.14 365.721 272.218 370.558 232.696C375.395 193.174 367.405 153.143 347.766 118.506H347.787Z" fill="#5E00A4"/>
<path d="M214.881 285.307C256.666 266.842 275.571 218.001 257.107 176.216C238.643 134.431 189.801 115.526 148.016 133.99C106.231 152.454 87.3261 201.296 105.79 243.081C124.255 284.866 173.096 303.771 214.881 285.307Z" fill="url(#paint0_linear_187_2027)"/>
<path d="M181.452 285.305C223.24 285.305 257.116 251.43 257.116 209.642C257.116 167.855 223.24 133.979 181.452 133.979C139.665 133.979 105.789 167.855 105.789 209.642C105.789 251.43 139.665 285.305 181.452 285.305Z" fill="url(#paint1_linear_187_2027)"/>
<path style="mix-blend-mode:screen" d="M209.366 272.884C244.286 257.468 260.097 216.662 244.681 181.742C229.264 146.822 188.459 131.011 153.539 146.427C118.619 161.844 102.808 202.649 118.224 237.569C133.64 272.489 174.445 288.3 209.366 272.884Z" fill="url(#paint2_linear_187_2027)"/>
<g style="mix-blend-mode:multiply" opacity="0.5">
<path style="mix-blend-mode:multiply" opacity="0.5" d="M181.451 239.833C164.135 239.804 147.265 234.342 133.218 224.215C119.171 214.089 108.657 199.81 103.156 183.391C98.9604 195.833 97.787 209.096 99.7331 222.082C101.679 235.068 106.689 247.404 114.348 258.07C122.007 268.735 132.096 277.425 143.779 283.418C155.462 289.412 168.404 292.538 181.535 292.538C194.666 292.538 207.609 289.412 219.292 283.418C230.975 277.425 241.063 268.735 248.723 258.07C256.382 247.404 261.391 235.068 263.338 222.082C265.284 209.096 264.11 195.833 259.914 183.391C254.408 199.839 243.868 214.139 229.787 224.268C215.706 234.398 198.797 239.842 181.451 239.833Z" fill="url(#paint3_linear_187_2027)"/>
</g>
<path d="M347.789 118.505L326.315 123.642L317.241 130.632L338.399 202.779L318.946 210.105L263.578 285.347L250.694 269.874L235.199 264.716L231.346 205.368L152.652 178.716L132.736 155.558L108.083 139.053L162.441 25.8105C122.942 30.8799 86.1177 48.5064 57.3963 76.0915C28.6749 103.676 9.57685 139.76 2.91797 179.022C-3.7409 218.284 2.39176 258.647 20.4118 294.159C38.4318 329.672 67.3856 358.454 103.004 376.264C138.623 394.073 179.021 399.966 218.243 393.075C257.465 386.184 293.435 366.872 320.849 337.988C348.263 309.103 365.671 272.175 370.507 232.647C375.342 193.118 367.348 153.083 347.704 118.442L347.789 118.505Z" fill="url(#paint4_linear_187_2027)"/>
<path style="mix-blend-mode:screen" opacity="0.44" d="M292.946 332.528C292.946 332.528 366.272 287.496 362.42 189.707C362.462 189.707 346.651 271.033 292.946 332.528Z" fill="url(#paint5_linear_187_2027)"/>
<path opacity="0.06" d="M56.2946 172.043C56.2946 172.043 30.6314 271.158 318.737 248.801C318.737 248.801 211.368 280.211 133.874 256.422C56.3788 232.632 261.474 353.264 311.663 268.948C311.663 268.948 334.821 395.727 113.326 269.579C-15.8528 195.895 69.9157 259.053 69.9157 259.053C69.9157 259.053 -26.2107 208.527 70.6736 225.222C70.6736 225.201 -28.0423 127.179 56.2946 172.043Z" fill="white"/>
<path d="M145.935 114.906L153.514 131.812L173.493 139.348L195.43 173.306L208.756 178.675L211.114 167.938L214.777 178.675L227.935 183.39L230.693 178.043V183.39L265.788 190.296L269.746 242.969L272.188 253.517L287.662 257.601L301.851 280.169L347.788 223.833L349.599 197.538L351.514 210.864L359.683 186.633L368.714 188.569L376.272 178.548L351.746 121.917L367.43 108.169H373.872L385.641 94.2536L338.188 82.3589L145.935 114.906Z" fill="url(#paint6_linear_187_2027)"/>
<g style="mix-blend-mode:multiply">
<path d="M301.851 280.169L301.451 261.116L349.641 194.653L347.788 223.832L301.851 280.169Z" fill="#4F1BA4"/>
</g>
<path d="M287.663 257.6L288.547 245.621L273.073 240.463L272.189 253.516L287.663 257.6Z" fill="#4F1BA4"/>
<path d="M227.936 183.39V163.516L230.693 178.042L227.936 183.39Z" fill="#4F1BA4"/>
<path d="M208.756 178.675L205.682 166.064L209.977 159.18L211.114 167.938L208.756 178.675Z" fill="#4F1BA4"/>
<path d="M173.494 139.347L170.589 131.347L154.146 120.379L173.494 139.347Z" fill="#4F1BA4"/>
<path d="M351.346 209.644V174.528L359.683 186.633L351.346 209.644Z" fill="#4F1BA4"/>
<path d="M367.432 108.17L364.232 99.4331L355.116 106.38L351.747 121.917L367.432 108.17Z" fill="#4F1BA4"/>
<path d="M349.641 63.4329L285.936 88.9487L284.231 82.3592L353.22 52.4224L349.641 63.4329Z" fill="#4F1BA4"/>
<path d="M364.21 99.4324L385.642 94.2955C379.672 83.4987 372.527 73.3952 364.336 64.1692C362.61 62.2323 351.431 65.306 349.6 63.4534C348.484 62.2955 353.642 52.9271 352.505 51.7692C319.01 18.8218 274.61 0.0849609 224.084 0.0849609C216.164 0.102852 208.253 0.623191 200.4 1.64285L145.979 114.906L170.526 131.348L190.442 154.506L267.536 173.138L273.01 240.506L288.484 245.664L301.389 261.159L349.81 195.264L346.378 173.79L376.147 178.59L355.094 106.422L364.21 99.4324Z" fill="#300235"/>
<path opacity="0.06" d="M329.872 125.221C329.872 125.221 302.756 57.0949 225.767 48.8843C148.777 40.6738 237.24 72.9054 237.24 72.9054C237.24 72.9054 166.63 66.8843 182.504 46.0422C198.377 25.2001 302.504 75.937 299.64 59.158C296.777 42.3791 246.525 12.737 265.493 35.3685C265.493 35.3685 204.188 10.9475 283.809 27.158C363.43 43.3685 337.177 92.3159 337.177 92.3159C337.177 92.3159 341.388 57.937 317.914 60.2738C294.44 62.6107 356.167 149.305 349.788 88.5264C349.788 88.5264 361.409 146.063 329.472 113.474L329.872 125.221Z" fill="white"/>
<path d="M269.22 181.138L276.209 89.2434L218.862 79.496L209.683 60.5697L175.935 52.4224H215.998L226.062 72.0434L284.23 82.3592L353.22 52.4224L349.641 63.4329L363.577 63.3066L287.093 93.8329L307.156 160.907L343.851 172.949L349.641 194.654L337.556 175.243L297.409 167.222L281.367 109.307L269.22 181.138Z" fill="url(#paint7_linear_187_2027)"/>
<path style="mix-blend-mode:screen" opacity="0.44" d="M15.9983 189.432C53.0931 146.463 129.683 294.105 242.462 219.326C355.24 144.547 371.788 276.99 302.188 338.211C247.788 386.063 197.093 405.579 111.346 373.516C25.5983 341.453 -8.71745 218.042 15.9983 189.432Z" fill="url(#paint8_linear_187_2027)"/>
<path style="mix-blend-mode:screen" opacity="0.44" d="M26.7988 144.802C26.7988 144.802 48.6515 61.5805 143.367 36.8857C143.367 36.8857 70.1041 75.5805 26.7988 144.802Z" fill="url(#paint9_linear_187_2027)"/>
<path opacity="0.06" d="M75.4933 265.916C75.4933 265.916 119.009 338.337 214.441 350.631C309.872 362.926 196.756 325.01 196.756 325.01C196.756 325.01 283.999 334.694 267.788 355.684C251.577 376.673 116.399 318.673 122.525 336.337C128.651 354 194.525 387.389 167.872 362.821C167.872 362.821 246.546 391.263 146.82 370.505C47.0933 349.747 71.5775 299.894 71.5775 299.894C71.5775 299.894 71.5775 335.579 100.02 334.273C128.462 332.968 39.7038 239.537 56.7354 303.158C56.7354 303.158 33.767 242.547 77.788 278.105L75.4933 265.916Z" fill="white"/>
<defs>
<linearGradient id="paint0_linear_187_2027" x1="98.7615" y1="209.647" x2="264.172" y2="209.647" gradientUnits="userSpaceOnUse">
<stop stop-color="#0090FF"/>
<stop offset="0.24" stop-color="#0093FF"/>
<stop offset="0.43" stop-color="#009DFF"/>
<stop offset="0.59" stop-color="#00ADFF"/>
<stop offset="0.74" stop-color="#00C4FF"/>
<stop offset="0.88" stop-color="#00E1FF"/>
<stop offset="1" stop-color="#00FFFF"/>
</linearGradient>
<linearGradient id="paint1_linear_187_2027" x1="105.789" y1="209.642" x2="257.137" y2="209.642" gradientUnits="userSpaceOnUse">
<stop stop-color="#8DFFFF"/>
<stop offset="0.28" stop-color="#62FFFF"/>
<stop offset="0.77" stop-color="#1CFFFF"/>
<stop offset="1" stop-color="#00FFFF"/>
</linearGradient>
<linearGradient id="paint2_linear_187_2027" x1="181.471" y1="140.531" x2="181.471" y2="278.784" gradientUnits="userSpaceOnUse">
<stop stop-color="#FEFEFE"/>
<stop offset="0.17" stop-color="#BCBCBC"/>
<stop offset="0.33" stop-color="#838383"/>
<stop offset="0.49" stop-color="#545454"/>
<stop offset="0.64" stop-color="#2F2F2F"/>
<stop offset="0.78" stop-color="#151515"/>
<stop offset="0.9" stop-color="#060606"/>
<stop offset="1"/>
</linearGradient>
<linearGradient id="paint3_linear_187_2027" x1="181.451" y1="183.391" x2="181.451" y2="292.359" gradientUnits="userSpaceOnUse">
<stop stop-color="#0090FF"/>
<stop offset="0.13" stop-color="#0492FF"/>
<stop offset="0.26" stop-color="#1097FF"/>
<stop offset="0.38" stop-color="#239FFF"/>
<stop offset="0.5" stop-color="#3FABFF"/>
<stop offset="0.63" stop-color="#62BBFF"/>
<stop offset="0.75" stop-color="#8ECEFF"/>
<stop offset="0.87" stop-color="#C2E4FF"/>
<stop offset="0.99" stop-color="#FCFEFF"/>
<stop offset="1" stop-color="white"/>
</linearGradient>
<linearGradient id="paint4_linear_187_2027" x1="254.21" y1="70.6316" x2="104.736" y2="377.074" gradientUnits="userSpaceOnUse">
<stop stop-color="#FF00FF"/>
<stop offset="0.1" stop-color="#D000D0"/>
<stop offset="0.23" stop-color="#9A009A"/>
<stop offset="0.37" stop-color="#6B006B"/>
<stop offset="0.5" stop-color="#440044"/>
<stop offset="0.63" stop-color="#260026"/>
<stop offset="0.76" stop-color="#110011"/>
<stop offset="0.88" stop-color="#040004"/>
<stop offset="1"/>
</linearGradient>
<linearGradient id="paint5_linear_187_2027" x1="375.875" y1="241.38" x2="272.275" y2="272.675" gradientUnits="userSpaceOnUse">
<stop stop-color="#36FFFF"/>
<stop offset="0.11" stop-color="#32EBEB"/>
<stop offset="0.33" stop-color="#27B6B6"/>
<stop offset="0.66" stop-color="#156262"/>
<stop offset="1"/>
</linearGradient>
<linearGradient id="paint6_linear_187_2027" x1="217.704" y1="203.117" x2="364.567" y2="70.8641" gradientUnits="userSpaceOnUse">
<stop stop-color="#77FFFF"/>
<stop offset="0.01" stop-color="#72E1F3"/>
<stop offset="0.03" stop-color="#6BB8E3"/>
<stop offset="0.05" stop-color="#6492D4"/>
<stop offset="0.08" stop-color="#5E72C7"/>
<stop offset="0.1" stop-color="#5956BC"/>
<stop offset="0.13" stop-color="#5640B3"/>
<stop offset="0.17" stop-color="#5330AC"/>
<stop offset="0.21" stop-color="#5124A7"/>
<stop offset="0.27" stop-color="#4F1DA5"/>
<stop offset="0.43" stop-color="#4F1BA4"/>
</linearGradient>
<linearGradient id="paint7_linear_187_2027" x1="175.935" y1="123.538" x2="363.577" y2="123.538" gradientUnits="userSpaceOnUse">
<stop stop-color="#A81BA4"/>
<stop offset="0.21" stop-color="#A219A4"/>
<stop offset="0.47" stop-color="#9313A4"/>
<stop offset="0.76" stop-color="#790AA4"/>
<stop offset="1" stop-color="#5E00A4"/>
</linearGradient>
<linearGradient id="paint8_linear_187_2027" x1="92.9878" y1="364.671" x2="240.588" y2="146.141" gradientUnits="userSpaceOnUse">
<stop stop-color="#36FFFF"/>
<stop offset="0.04" stop-color="#2FDEDE"/>
<stop offset="0.11" stop-color="#24ABAB"/>
<stop offset="0.19" stop-color="#1A7D7D"/>
<stop offset="0.27" stop-color="#125656"/>
<stop offset="0.35" stop-color="#0C3737"/>
<stop offset="0.43" stop-color="#071F1F"/>
<stop offset="0.52" stop-color="#030E0E"/>
<stop offset="0.62" stop-color="#010303"/>
<stop offset="0.73"/>
</linearGradient>
<linearGradient id="paint9_linear_187_2027" x1="85.0725" y1="36.8857" x2="85.0725" y2="144.802" gradientUnits="userSpaceOnUse">
<stop stop-color="#36FFFF"/>
<stop offset="0.11" stop-color="#32EBEB"/>
<stop offset="0.33" stop-color="#27B6B6"/>
<stop offset="0.66" stop-color="#156262"/>
<stop offset="1"/>
</linearGradient>
</defs>
</svg>
