<svg width="414" height="400" viewBox="0 0 414 400" fill="none" xmlns="http://www.w3.org/2000/svg">
<g clip-path="url(#clip0_199_5670)">
<g opacity="0.1">
<path opacity="0.1" d="M214.603 84.5269C241.072 71.3454 194.274 58.4815 181.958 79.4096C169.641 100.338 299.603 98.3437 265.105 81.2624C265.105 81.2624 322.984 88.3208 270.946 102.985C218.908 117.648 98.3864 56.1346 202.903 64.4811C307.42 72.8276 214.603 84.5269 214.603 84.5269Z" fill="#D2EFFF"/>
<path opacity="0.1" d="M272.727 148.988C243.876 199.314 121.837 141.806 176.204 144.682C230.571 147.558 268.845 150.417 234.436 155.605C234.436 155.605 307.384 155.605 218.554 142.953C129.725 130.301 105.197 115.337 149.576 153.876C193.956 192.414 343.523 160.934 313.684 142.953C283.844 124.972 333.094 110.167 324.783 133.742C324.783 133.742 392.737 94.5323 271.104 108.684C271.104 108.684 345.005 116.325 277.474 123.03C209.943 129.736 85.0982 72.2631 175.957 88.3209C175.957 88.3209 60.7115 48.1764 145.571 108.631C230.43 169.086 301.579 98.6791 272.727 148.988ZM233.624 128.412C229.865 130.601 189.844 130.177 174.545 116.272C165.511 108.084 244.635 121.972 233.624 128.412ZM293.109 130.883C304.137 136.512 324.112 155.587 277.933 157.14C272.71 157.316 282.097 125.254 293.179 130.883H293.109Z" fill="#D2EFFF"/>
<path opacity="0.1" d="M301.596 183.044C325.771 171.698 364.892 151.599 336.253 176.145C307.614 200.69 172.41 232.859 149.612 200.373C126.813 167.887 236.165 186.821 221.378 196.844C221.378 196.844 302.373 189.326 183.81 176.074C65.2466 162.822 91.5391 140.288 123.655 151.864C123.655 151.864 28.896 121.866 107.12 168.61C185.345 215.354 13.4029 185.497 161.576 217.63C309.749 249.764 322.383 204.396 322.383 204.396C322.383 204.396 310.031 221.318 255.558 217.63C201.085 213.942 307.296 214.984 343.329 185.744C379.362 156.505 379.98 128.783 299.602 183.98L301.596 183.044Z" fill="#D2EFFF"/>
<path opacity="0.1" d="M315.607 229.206C315.607 229.206 309.289 297.443 114.443 219.571C114.443 219.571 181.392 263.139 241.141 265.292C300.89 267.445 128.789 298.149 114.443 233.847C114.443 233.847 67.4693 308.754 252.222 278.156C360.021 260.281 284.973 281.103 284.973 281.103C284.973 281.103 364.151 270.515 292.702 259.575C292.649 259.575 385.22 219.571 315.607 229.206Z" fill="#D2EFFF"/>
<path opacity="0.1" d="M289.122 285.496C289.122 285.496 227.537 318.865 143.772 301.731C60.0065 284.596 167.47 290.508 167.47 290.508C167.47 290.508 91.4163 273.868 97.5748 291.002C103.733 308.136 236.607 307.448 225.296 316.73C213.985 326.011 147.46 329.541 178.252 321.3C178.252 321.3 102.763 318.441 193.181 331.517C283.598 344.593 280.51 307.483 280.51 307.483C280.51 307.483 267.964 329.47 244.777 321.3C221.59 313.13 328.207 278.508 291.733 313.342C291.733 313.342 332.089 281.932 282.91 292.431L289.122 285.496Z" fill="#D2EFFF"/>
<path opacity="0.1" d="M215.837 342.617C215.837 342.617 172.092 350.452 156.088 334.306C156.088 334.306 148.076 362.063 215.837 342.617Z" fill="#D2EFFF"/>
</g>
<path style="mix-blend-mode:screen" d="M326.054 310.75C387.496 249.308 387.496 149.692 326.054 88.25C264.612 26.8083 164.996 26.8083 103.554 88.25C42.1124 149.692 42.1124 249.308 103.554 310.75C164.996 372.192 264.612 372.192 326.054 310.75Z" fill="url(#paint0_radial_199_5670)"/>
<path style="mix-blend-mode:screen" opacity="0.53" d="M354.164 217.948C323.725 255.181 255.453 131.942 161.823 197.867C68.1937 263.793 50.9007 152.023 108.426 98.5912C153.371 56.8232 195.845 39.2125 269.181 64.3051C342.518 89.3976 374.351 193.156 354.164 217.948Z" fill="url(#paint1_linear_199_5670)"/>
<path style="mix-blend-mode:screen" opacity="0.55" d="M73.4346 183.609C103.856 146.376 172.128 269.615 265.775 203.69C359.422 137.765 376.61 249.569 319.102 302.983C274.14 344.734 231.666 362.362 158.329 337.27C84.9927 312.177 53.1947 208.419 73.4346 183.609Z" fill="url(#paint2_linear_199_5670)"/>
<g style="mix-blend-mode:screen">
<path style="mix-blend-mode:screen" d="M216.736 54.5818C174.986 37.8887 248.799 21.6015 268.21 48.1057C287.62 74.61 82.7155 72.069 137.1 50.5232C137.1 50.5232 45.8355 59.3462 127.889 78.0333C209.943 96.7203 399.972 18.637 235.194 29.2069C70.4163 39.7769 216.736 54.5818 216.736 54.5818Z" fill="url(#paint3_linear_199_5670)"/>
<path style="mix-blend-mode:screen" d="M325.595 85.1622C459.405 8.61411 277.687 59.4697 277.687 59.4697C420.919 39.0534 223.919 111.808 117.461 103.338C11.0034 94.8675 127.502 85.1622 127.502 85.1622C-64.2566 67.2692 42.8014 116.925 42.8014 116.925C29.6728 87.068 107.209 105.826 60.2885 128.571C13.368 151.317 249.224 191.214 319.19 142.423C389.156 93.6323 350.547 112.531 210.456 128.571C70.3644 144.611 185.363 144.611 185.363 144.611C131.137 138.047 191.486 134.412 277.21 130.759C362.934 127.107 170.505 199.949 125.014 136.23C79.5226 72.5101 191.786 161.71 325.595 85.1622ZM279.91 94.7793C255.788 112.425 192.668 112.919 186.757 110.149C169.393 101.996 294.15 84.4211 279.91 94.7793ZM116.897 146.552C44.0719 144.506 75.5699 120.419 92.9512 113.308C110.332 106.196 125.12 146.764 116.897 146.552Z" fill="url(#paint4_linear_199_5670)"/>
<path style="mix-blend-mode:screen" d="M79.5577 179.339C41.4425 164.975 -20.2301 139.512 24.8553 170.516C69.9407 201.52 283.263 242.423 319.207 201.255C355.152 160.087 182.751 184.103 206.062 196.879C206.062 196.879 78.3578 187.368 265.299 170.569C452.24 153.77 410.79 125.377 360.234 139.935C360.234 139.935 509.643 101.838 386.297 161.11C262.952 220.383 534.065 182.515 300.432 223.207C66.7997 263.898 46.7892 206.549 46.7892 206.549C46.7892 206.549 66.1998 227.989 152.153 223.312C238.107 218.636 70.5759 219.942 13.7736 182.938C-43.0287 145.935 -44.0169 110.802 82.7164 180.627L79.5577 179.339Z" fill="url(#paint5_linear_199_5670)"/>
<path style="mix-blend-mode:screen" d="M57.4647 237.799C57.4647 237.799 67.4346 324.265 374.756 225.588C374.756 225.588 269.181 280.767 174.987 283.485C80.7926 286.202 352.134 325.094 374.756 243.605C374.756 243.605 448.869 338.47 157.5 299.701C-12.4662 277.079 105.868 303.425 105.868 303.425C105.868 303.425 -18.9952 289.979 93.6742 276.179C93.6742 276.25 -52.2754 225.588 57.4647 237.799Z" fill="url(#paint6_linear_199_5670)"/>
<path style="mix-blend-mode:screen" d="M99.2332 309.071C99.2332 309.071 196.286 351.422 328.436 329.629C460.587 307.836 291.062 315.424 291.062 315.424C291.062 315.424 411.055 294.337 401.279 316.059C391.503 337.781 182.01 336.864 199.868 348.616C217.726 360.368 322.613 364.85 273.981 354.421C273.981 354.421 393.021 350.786 250.459 367.338C107.897 383.89 112.821 336.899 112.821 336.899C119.339 345.174 128.213 351.279 138.272 354.407C148.331 357.535 159.102 357.54 169.164 354.421C205.727 344.081 37.6136 300.213 95.1394 344.328C95.1394 344.328 31.4904 304.554 108.938 317.859L99.2332 309.071Z" fill="url(#paint7_linear_199_5670)"/>
<path style="mix-blend-mode:screen" d="M214.796 381.403C214.796 381.403 283.756 391.32 309.008 370.815C309.061 370.886 321.625 406.037 214.796 381.403Z" fill="url(#paint8_linear_199_5670)"/>
</g>
</g>
<defs>
<radialGradient id="paint0_radial_199_5670" cx="0" cy="0" r="1" gradientUnits="userSpaceOnUse" gradientTransform="translate(214.802 199.487) scale(157.331)">
<stop offset="0.29"/>
<stop offset="0.42" stop-color="#010203"/>
<stop offset="0.51" stop-color="#050A0C"/>
<stop offset="0.6" stop-color="#0C181C"/>
<stop offset="0.67" stop-color="#152B33"/>
<stop offset="0.75" stop-color="#214450"/>
<stop offset="0.81" stop-color="#306274"/>
<stop offset="0.88" stop-color="#42869E"/>
<stop offset="0.94" stop-color="#56AFCE"/>
<stop offset="1" stop-color="#6AD8FF"/>
</radialGradient>
<linearGradient id="paint1_linear_199_5670" x1="286.808" y1="66.9731" x2="173.649" y2="255.186" gradientUnits="userSpaceOnUse">
<stop stop-color="#00FDFD"/>
<stop offset="0.12" stop-color="#00C3C3"/>
<stop offset="0.25" stop-color="#008F8F"/>
<stop offset="0.37" stop-color="#006363"/>
<stop offset="0.5" stop-color="#003F3F"/>
<stop offset="0.62" stop-color="#002323"/>
<stop offset="0.75" stop-color="#001010"/>
<stop offset="0.87" stop-color="#000404"/>
<stop offset="1"/>
</linearGradient>
<linearGradient id="paint2_linear_199_5670" x1="185.59" y1="346.894" x2="231.278" y2="163.83" gradientUnits="userSpaceOnUse">
<stop stop-color="#FF00FF"/>
<stop offset="0.01" stop-color="#F600F6"/>
<stop offset="0.05" stop-color="#C800C8"/>
<stop offset="0.09" stop-color="#9D009D"/>
<stop offset="0.14" stop-color="#770077"/>
<stop offset="0.2" stop-color="#570057"/>
<stop offset="0.25" stop-color="#3B003B"/>
<stop offset="0.32" stop-color="#250025"/>
<stop offset="0.4" stop-color="#140014"/>
<stop offset="0.49" stop-color="#090009"/>
<stop offset="0.63" stop-color="#020002"/>
<stop offset="1"/>
</linearGradient>
<linearGradient id="paint3_linear_199_5670" x1="93.6736" y1="54.5818" x2="300.343" y2="54.5818" gradientUnits="userSpaceOnUse">
<stop/>
<stop offset="0.09" stop-color="#1C1F32"/>
<stop offset="0.25" stop-color="#4C5689"/>
<stop offset="0.38" stop-color="#6F7FC8"/>
<stop offset="0.48" stop-color="#8598F0"/>
<stop offset="0.53" stop-color="#8DA1FF"/>
<stop offset="1"/>
</linearGradient>
<linearGradient id="paint4_linear_199_5670" x1="13.0327" y1="104.255" x2="374.757" y2="104.255" gradientUnits="userSpaceOnUse">
<stop/>
<stop offset="0.09" stop-color="#1C1F32"/>
<stop offset="0.25" stop-color="#4C5689"/>
<stop offset="0.38" stop-color="#6F7FC8"/>
<stop offset="0.48" stop-color="#8598F0"/>
<stop offset="0.53" stop-color="#8DA1FF"/>
<stop offset="1"/>
</linearGradient>
<linearGradient id="paint5_linear_199_5670" x1="-23.0182" y1="182.85" x2="435" y2="182.85" gradientUnits="userSpaceOnUse">
<stop/>
<stop offset="0.09" stop-color="#1C1F32"/>
<stop offset="0.25" stop-color="#4C5689"/>
<stop offset="0.38" stop-color="#6F7FC8"/>
<stop offset="0.48" stop-color="#8598F0"/>
<stop offset="0.53" stop-color="#8DA1FF"/>
<stop offset="1"/>
</linearGradient>
<linearGradient id="paint6_linear_199_5670" x1="16.579" y1="267.321" x2="383.173" y2="267.321" gradientUnits="userSpaceOnUse">
<stop/>
<stop offset="0.09" stop-color="#1C1F32"/>
<stop offset="0.25" stop-color="#4C5689"/>
<stop offset="0.38" stop-color="#6F7FC8"/>
<stop offset="0.48" stop-color="#8598F0"/>
<stop offset="0.53" stop-color="#8DA1FF"/>
<stop offset="1"/>
</linearGradient>
<linearGradient id="paint7_linear_199_5670" x1="70.5409" y1="338.558" x2="401.826" y2="338.558" gradientUnits="userSpaceOnUse">
<stop/>
<stop offset="0.09" stop-color="#1C1F32"/>
<stop offset="0.25" stop-color="#4C5689"/>
<stop offset="0.38" stop-color="#6F7FC8"/>
<stop offset="0.48" stop-color="#8598F0"/>
<stop offset="0.53" stop-color="#8DA1FF"/>
<stop offset="1"/>
</linearGradient>
<linearGradient id="paint8_linear_199_5670" x1="214.796" y1="380.52" x2="309.467" y2="380.52" gradientUnits="userSpaceOnUse">
<stop/>
<stop offset="0.09" stop-color="#1C1F32"/>
<stop offset="0.25" stop-color="#4C5689"/>
<stop offset="0.38" stop-color="#6F7FC8"/>
<stop offset="0.48" stop-color="#8598F0"/>
<stop offset="0.53" stop-color="#8DA1FF"/>
<stop offset="1"/>
</linearGradient>
<clipPath id="clip0_199_5670">
<rect width="413.759" height="400" fill="white"/>
</clipPath>
</defs>
</svg>
