<svg width="391" height="400" viewBox="0 0 391 400" fill="none" xmlns="http://www.w3.org/2000/svg">
<g opacity="0.3">
<path opacity="0.3" fill-rule="evenodd" clip-rule="evenodd" d="M377.581 398.726C377.17 399.232 376.617 399.604 375.994 399.794C375.371 399.985 374.705 399.985 374.081 399.795C373.458 399.605 372.905 399.233 372.494 398.727C372.083 398.221 371.832 397.604 371.774 396.955C371.716 396.306 371.852 395.654 372.166 395.083C372.48 394.512 372.957 394.047 373.537 393.749C374.116 393.45 374.772 393.332 375.419 393.408C376.067 393.484 376.676 393.751 377.171 394.176C377.818 394.732 378.223 395.518 378.3 396.368C378.376 397.217 378.118 398.063 377.581 398.726Z" fill="#61D3FF"/>
<path opacity="0.3" fill-rule="evenodd" clip-rule="evenodd" d="M366.524 397.133C366.384 397.297 366.199 397.417 365.992 397.476C365.785 397.536 365.565 397.533 365.36 397.468C365.155 397.403 364.973 397.278 364.838 397.11C364.704 396.942 364.622 396.738 364.603 396.523C364.584 396.308 364.629 396.093 364.732 395.904C364.835 395.715 364.992 395.56 365.183 395.46C365.373 395.36 365.59 395.318 365.804 395.341C366.018 395.363 366.221 395.449 366.387 395.586C366.498 395.678 366.59 395.791 366.657 395.919C366.724 396.047 366.766 396.187 366.778 396.331C366.791 396.475 366.775 396.62 366.731 396.757C366.688 396.895 366.617 397.023 366.524 397.133Z" fill="#61D3FF"/>
<path opacity="0.3" fill-rule="evenodd" clip-rule="evenodd" d="M50.0178 398.726C49.607 399.232 49.0546 399.604 48.4312 399.794C47.8079 399.985 47.1419 399.985 46.5184 399.795C45.8949 399.605 45.3424 399.233 44.9314 398.727C44.5204 398.221 44.2696 397.604 44.2112 396.955C44.1528 396.306 44.2893 395.654 44.6034 395.083C44.9174 394.512 45.3947 394.047 45.9742 393.749C46.5537 393.45 47.2091 393.332 47.8564 393.408C48.5038 393.484 49.1137 393.751 49.6083 394.176C50.2556 394.732 50.6605 395.518 50.737 396.368C50.8135 397.217 50.5554 398.063 50.0178 398.726Z" fill="#61D3FF"/>
<path opacity="0.3" fill-rule="evenodd" clip-rule="evenodd" d="M38.9608 397.133C38.8215 397.297 38.6366 397.417 38.4296 397.476C38.2225 397.536 38.0025 397.533 37.7971 397.468C37.5918 397.403 37.4103 397.278 37.2756 397.11C37.1408 396.942 37.0588 396.738 37.0399 396.523C37.0209 396.308 37.0659 396.093 37.1691 395.904C37.2724 395.715 37.4292 395.56 37.62 395.46C37.8107 395.36 38.0269 395.318 38.2412 395.341C38.4554 395.363 38.6583 395.449 38.8243 395.586C39.0437 395.775 39.1807 396.043 39.2062 396.332C39.2317 396.621 39.1437 396.908 38.9608 397.133Z" fill="#61D3FF"/>
</g>
<path fill-rule="evenodd" clip-rule="evenodd" d="M388.592 223C388.091 226.39 387.522 229.825 386.84 233.124C385.854 238.129 384.663 243.058 383.268 247.912C379.727 260.629 374.87 272.943 368.776 284.654C366.501 288.885 364.226 293.003 361.791 297.053C354.941 308.229 346.992 318.693 338.063 328.289C327.671 339.53 315.987 349.503 303.254 358.002C296.463 362.543 289.38 366.632 282.051 370.242C278.866 371.857 275.635 373.358 272.336 374.792C253.916 382.711 234.374 387.708 214.413 389.602C180.528 392.928 146.362 387.328 115.312 373.358L112.331 372.016C107.372 369.741 102.526 367.147 97.7936 364.395C96.2769 363.515 94.7602 362.605 93.2435 361.665C76.1849 351.179 60.8387 338.135 47.7423 322.989C42.5387 317.043 37.7065 310.782 33.273 304.242C32.7725 303.514 32.2947 302.763 31.7942 301.967C28.2906 296.598 25.0448 291.054 22.0569 285.336C20.4416 282.22 18.8718 279.057 17.5068 275.849L15.664 271.845C9.33247 257.005 4.89162 241.428 2.44593 225.48C1.36809 218.699 0.669321 211.863 0.352876 205.004C0.193622 201.842 0.102618 198.634 0.102618 195.403C0.0776112 167.629 5.98824 140.17 17.4386 114.866C18.6216 112.25 19.8729 109.634 21.2152 107.063C23.7936 101.952 26.607 96.9767 29.6556 92.1384C39.4737 76.3817 51.5025 62.1157 65.374 49.7769C66.0111 49.1854 66.6481 48.6393 67.3078 48.0933C102.784 17.1298 148.306 0.117703 195.394 0.226101C232.094 0.18601 268.056 10.543 299.114 30.0976C302.526 32.2589 305.939 34.5112 309.101 36.9228C311.831 38.8793 314.493 40.9269 317.109 43.0199C329.922 53.2323 341.389 65.0277 351.235 78.1241C354.033 81.8552 356.718 85.6773 359.243 89.6131C363.059 95.4735 366.53 101.551 369.64 107.814C380.115 128.479 386.759 150.87 389.251 173.904C389.251 174.359 389.251 174.814 389.411 175.269C389.684 177.885 389.934 180.524 390.07 183.141C390.943 196.443 390.447 209.799 388.592 223Z" fill="url(#paint0_radial_187_1303)"/>
<g style="mix-blend-mode:multiply" opacity="0.5">
<g style="mix-blend-mode:multiply" opacity="0.5">
<path fill-rule="evenodd" clip-rule="evenodd" d="M388.592 211.648L388.251 211.215C383.314 205.05 376.875 200.022 372.325 193.606C369.686 189.355 366.066 185.797 361.769 183.232C358.681 181.48 355.49 179.914 352.214 178.546C349.279 177.453 346.139 177.294 343.113 176.27C339.132 175.019 336.174 173.063 331.897 172.721C327.984 172.403 324.299 171.516 320.317 171.561C318.042 171.561 309.852 170.014 309.534 173.836C310.151 175.728 311.267 177.417 312.764 178.728C317.111 181.453 321.751 183.682 326.596 185.371C334.809 188.692 343.25 191.104 351.281 194.88C359.508 198.885 367.242 203.832 374.327 209.623C378.876 213.197 383.067 217.205 386.84 221.59C385.854 226.595 384.664 231.524 383.268 236.377C380.749 234.913 378.319 233.303 375.988 231.554C373.349 229.279 370.96 227.004 368.435 224.729C361.522 217.895 354.015 211.69 346.003 206.187C342.84 204.14 339.519 202.229 336.197 200.386C332.876 198.543 328.94 197.497 325.504 195.586C319.407 192.173 313.014 189.125 306.712 186.099C298.909 182.39 289.331 180.525 280.959 178.523C267.163 174.989 253.148 172.374 239.007 170.697C223.87 169.274 208.897 166.456 194.279 162.279C186.953 160.004 179.764 157.729 172.325 155.931C166.046 154.407 159.948 151.973 153.601 150.722C140.497 148.298 127.114 147.754 113.856 149.106C97.7483 150.608 81.6864 146.604 65.5563 149.63C51.7006 152.615 38.2935 157.395 25.6745 163.849C19.2361 166.943 15.4367 173.245 11.1824 178.637C7.30416 183.418 3.71093 188.425 0.421342 193.629C0.262088 190.467 0.171084 187.259 0.171084 184.028C0.132729 156.253 6.04396 128.791 17.507 103.491C21.0621 95.6412 25.1438 88.0404 29.7241 80.7407C39.548 64.9883 51.5761 50.7231 65.4425 38.3792L67.3763 36.6956C74.8804 35.2561 82.4888 34.4267 90.1269 34.2158C97.6801 33.9883 105.688 35.2396 113.173 34.0338C116.68 33.4768 120.224 33.1802 123.775 33.1465C126.96 33.1465 129.963 32.1 133.148 31.9408C144.251 31.4402 155.057 27.2314 166.114 27.3906C171.286 27.3906 176.427 27.3906 181.539 27.3906C188.205 27.3906 194.734 28.5509 201.491 28.5737C217.441 28.262 233.335 30.5676 248.539 35.3988C262.796 40.4268 277.455 44.2323 292.357 46.7741C303.732 48.5714 314.971 50.801 325.3 56.2384C328.985 58.2177 332.125 60.3335 335.719 62.6085C337.702 64.074 339.531 65.7357 341.18 67.5682C343.431 69.4456 345.871 71.0848 348.46 72.4595C351.373 74.4751 354.474 76.2046 357.719 77.6239C358.265 77.8514 358.789 78.0562 359.335 78.2382C361.314 79.0117 363.339 79.7397 365.25 80.5132C367.161 81.2868 367.525 82.2195 368.64 84.0168C369.824 85.3503 370.904 86.7726 371.87 88.2712C372.507 89.7727 372.644 91.6383 373.235 93.2081C374.054 95.3466 374.509 99.692 376.307 101.535C374.964 100.397 373.394 99.601 372.075 98.3952C371.353 97.6732 370.594 96.9897 369.8 96.3476C368.887 95.628 367.904 95.0029 366.865 94.4821C364.769 93.26 362.612 92.1439 360.404 91.1378C356.809 89.9775 353.26 89.3632 349.688 87.8844C345.794 86.4588 341.995 84.7871 338.313 82.8793C334.491 80.6043 331.215 77.4874 327.347 75.3034C319.157 70.7532 311.604 63.3138 302.754 60.2652C299.346 58.902 295.787 57.9548 292.152 57.4442C289.877 57.2167 287.738 56.3521 285.463 56.1929C282.733 56.0336 280.026 56.4431 277.296 56.1929C271.586 55.6014 265.67 54.7141 260.051 53.6903C255.023 52.7803 250.109 51.074 245.058 50.5052C240.008 49.9365 234.661 48.2302 229.474 47.0471C223.559 45.7959 217.53 45.2498 211.592 44.1578C199.534 41.8828 186.066 43.8166 174.031 45.2953C159.607 47.0926 143.341 48.6852 130.304 55.6924C127.028 57.4214 123.479 58.6499 120.249 60.2425C117.799 61.6583 115.51 63.3365 113.424 65.2476C110.693 67.5227 104.005 68.9332 104.323 73.4378C106.462 73.5743 110.056 71.777 112.218 71.2765C116.904 70.2072 121.545 70.2527 126.141 69.1835C128.12 68.7284 130.054 69.1835 132.056 68.8422C134.467 68.3662 136.812 67.6024 139.041 66.5671C145.388 63.8476 151.891 61.5077 158.515 59.56C163.614 58.2039 168.777 57.1029 173.986 56.2611C179.188 55.8741 184.413 55.8741 189.615 56.2611H206.769C213.594 56.2611 220.624 55.4876 227.245 57.6489C231.627 59.373 235.529 62.1278 238.62 65.6799C242.306 69.6157 243.034 74.9849 246.719 78.7615C248.061 80.1492 249.244 82.1968 250.701 83.3116C252.589 84.8814 255.546 86.1781 257.526 87.5887C262.228 90.6746 267.621 92.5503 273.224 93.0488C274.953 93.2081 276.795 94.2773 278.411 94.2773C280.39 94.2773 279.935 94.1181 280.845 92.6166C281.573 91.7174 281.931 90.5748 281.847 89.4211C281.762 88.2673 281.241 87.1891 280.39 86.4056C278.513 84.4468 276.252 82.8976 273.747 81.8555C270.494 80.6042 267.195 80.9455 264.783 78.1472C263.509 76.6911 262.281 73.3013 263.577 71.322C264.624 69.7977 269.242 69.7977 270.88 69.411C274.543 68.4782 275.43 69.411 278.888 70.594C282.347 71.777 286.032 73.0056 289.627 74.2796C294.859 76.1906 299.91 78.5794 304.983 80.991C306.735 81.8328 309.238 82.2878 310.512 83.7893C311.113 84.8963 311.652 86.0356 312.127 87.2019C314.721 91.752 318.475 95.1874 321.227 99.7602C323.502 103.469 325.618 109.998 324.572 114.457C323.684 118.302 321.523 122.966 317.451 124.012C312.901 125.195 310.353 122.443 306.075 121.351C301.798 120.259 298.795 118.529 295.087 120.714C294.423 120.999 293.831 121.429 293.354 121.971C292.877 122.514 292.527 123.156 292.328 123.851C292.13 124.545 292.089 125.276 292.208 125.988C292.327 126.701 292.603 127.378 293.017 127.971C294.928 131.611 298.886 131.907 302.549 132.521C307.58 133.714 312.527 135.234 317.36 137.071C321.91 138.55 326.71 138.573 331.374 139.87C338.885 142.311 346.127 145.512 352.987 149.425C360.449 153.429 367.866 157.456 375.578 160.959C381 163.46 385.883 166.991 389.957 171.356C390.895 184.798 390.437 198.3 388.592 211.648Z" fill="#C4B0B8"/>
</g>
<g style="mix-blend-mode:multiply" opacity="0.5">
<path fill-rule="evenodd" clip-rule="evenodd" d="M368.776 273.28C366.501 277.511 364.226 281.629 361.792 285.679C359.65 283.064 357.291 280.636 354.739 278.421C352.086 275.75 349.666 272.858 347.504 269.776C345.361 267.316 342.915 265.138 340.224 263.292C335.504 259.588 330.279 256.578 324.708 254.351C317.502 251.512 310.534 248.104 303.869 244.159C295.337 239.154 287.784 232.579 279.366 227.369C271.72 222.364 263.452 218.379 254.773 215.516C250.632 214.265 246.583 213.605 242.465 212.103C237.371 210.62 232.095 209.854 226.79 209.828C221.989 209.51 217.325 208.645 212.593 208.054C207.224 207.417 201.787 207.394 196.395 206.689C186.157 205.346 175.919 204.277 165.636 203.185C154.597 202.128 143.51 201.649 132.42 201.752C122.099 201.346 111.765 202.109 101.616 204.027C95.4691 205.207 89.4611 207.022 83.6885 209.442C80.1849 211.034 76.8634 212.399 73.2915 213.81C71.1302 214.651 69.1509 216.085 66.9669 216.767C63.8799 217.562 60.8414 218.534 57.8666 219.679C49.6309 223.638 43.1697 227.096 37.1408 234.012C31.5669 240.405 26.5391 247.298 20.9652 253.714C19.0996 255.853 17.3933 258.264 15.7098 260.539C9.37527 245.692 4.93435 230.107 2.4917 214.151C4.52947 212.555 6.68136 211.11 8.93012 209.828C16.7791 205.278 25.1058 201.82 33.114 197.702C41.4634 193.402 49.3579 188.829 58.5719 186.668C65.6265 185.083 72.841 184.319 80.0712 184.393C91.4465 184.393 102.822 183.847 114.038 185.28C117.496 185.735 120.863 185.394 124.344 186.077C127.45 186.824 130.594 187.401 133.763 187.806C137.744 188.147 141.475 189.512 145.434 190.081C150.166 190.718 154.807 191.127 159.562 191.309C162.701 191.309 165.636 192.401 168.662 192.515C171.826 192.409 174.994 192.485 178.149 192.743C187.477 194.176 197.055 194.631 206.496 195.655C227.586 197.93 248.858 200.569 269.174 206.871C273.545 208.495 277.828 210.348 282.005 212.422C287.264 214.308 292.4 216.519 297.385 219.042C301.389 221.317 305.734 223.388 309.602 225.867C314.007 229.107 318.237 232.577 322.274 236.264C327.598 240.564 333.945 243.59 339.542 247.64C342.909 249.915 346.207 252.304 349.393 254.897C353.215 257.946 358.22 260.335 361.359 263.997C363.862 266.932 366.524 270.117 368.776 273.28Z" fill="#C4B0B8"/>
</g>
<g style="mix-blend-mode:multiply" opacity="0.5">
<path fill-rule="evenodd" clip-rule="evenodd" d="M338.063 316.937C327.671 328.178 315.987 338.151 303.255 346.65C294.587 341.44 284.008 338.983 275.362 333.636C267.604 328.859 258.8 325.787 250.496 322.056C241.782 318.189 233.16 314.526 224.128 311.363C218.161 309.234 211.995 307.709 205.723 306.813C202.632 306.608 199.531 306.608 196.441 306.813C192.655 306.498 188.85 306.498 185.065 306.813C176.534 308.384 167.873 309.146 159.198 309.088C152.532 309.088 145.889 309.088 139.246 309.088C133.74 309.088 128.53 307.928 122.956 307.928C117.032 307.601 111.092 308.091 105.302 309.384C101.688 310.199 98.3857 312.04 95.792 314.685C92.9709 314.207 93.9719 311.591 94.6772 309.976C95.9727 307.542 98.1189 305.672 100.706 304.72C103.348 303.975 106.064 303.525 108.805 303.378C110.261 303.105 111.376 302.286 112.855 302.104C115 301.948 117.135 301.667 119.248 301.262C126.073 299.761 132.238 303.355 138.859 303.332C141.93 303.332 145.001 303.332 147.959 303.332C149.493 303.343 151.022 303.159 152.509 302.786C153.306 302.725 154.08 302.489 154.775 302.096C155.471 301.703 156.072 301.162 156.536 300.511C157.404 299.599 157.988 298.455 158.218 297.217C158.448 295.979 158.314 294.701 157.833 293.538C157.351 292.375 156.542 291.376 155.505 290.664C154.467 289.951 153.244 289.555 151.986 289.523C149.288 289.204 146.562 289.204 143.864 289.523C140.146 290.61 136.339 291.372 132.489 291.798C129.486 291.957 123.843 292.731 120.977 291.684C119.946 291.151 119.033 290.416 118.292 289.523C117.062 287.706 115.522 286.119 113.742 284.836C109.439 281.926 104.544 280.006 99.4093 279.217C94.8592 278.421 89.1488 280.423 84.6669 279.217C74.5884 276.396 86.942 259.265 90.4456 255.784C95.4507 250.983 103.345 248.117 109.693 245.614C114.447 243.749 119.953 244.568 124.822 243.112C124.094 238.88 112.423 241.428 109.829 241.929C104.596 242.907 99.2728 243.635 94.0402 244.727C87.4112 246.377 81.0738 249.031 75.2482 252.599C68.7058 256.052 62.3772 259.896 56.297 264.11C48.1522 270.139 42.3964 278.512 35.8214 286.042L31.8173 290.592C28.3137 285.223 24.9922 279.695 22.0801 273.961C23.1721 272.596 24.3551 271.277 25.5382 269.957C27.4265 267.933 29.2693 265.862 31.1121 263.815C33.1858 261.691 35.5348 259.854 38.0965 258.355C47.1967 252.235 55.5234 245.591 66.6257 243.339C73.9059 241.838 80.9131 239.221 88.2615 237.856C97.066 236.195 105.734 234.034 114.584 232.373C120.002 231.291 125.508 230.705 131.033 230.622C134.042 230.745 137.028 231.218 139.928 232.032C155.012 235.376 170.71 239.108 185.884 243.407C204.085 248.458 222.899 249.96 240.85 255.533C248.767 257.968 256.98 259.947 264.715 262.973C271.881 265.771 278.365 270.458 285.395 273.688C292.086 276.795 298.489 280.487 304.529 284.722C309.079 288.021 314.129 290.751 318.702 294.232C322.092 296.849 324.504 300.193 327.802 302.877C330.986 305.488 333.59 308.735 335.447 312.41C336.106 313.798 337.085 315.368 338.063 316.937Z" fill="#C4B0B8"/>
</g>
<g style="mix-blend-mode:multiply" opacity="0.5">
<path fill-rule="evenodd" clip-rule="evenodd" d="M282.051 358.844C278.866 360.459 275.635 361.938 272.337 363.394C267.786 362.12 262.85 361.665 258.481 360.391C253.476 358.912 248.994 356.045 243.944 354.566C239.394 353.247 234.98 352.61 230.589 351.177C219.364 347.745 207.85 345.339 196.19 343.987C187.921 342.55 179.48 342.397 171.165 343.532C163.755 344.566 156.421 346.086 149.21 348.083C141.134 350.358 133.285 351.427 125.823 355.59C122.774 357.297 120.203 359.412 117.246 361.096C116.632 361.437 116.017 361.733 115.403 362.006L112.423 360.664C107.463 358.389 102.617 355.795 97.8851 353.042C96.3608 352.178 94.8365 351.245 93.335 350.312C95.0868 349.607 96.884 348.97 98.7268 348.356C104.528 346.467 110.102 343.919 116.04 342.486C122.501 340.916 129.395 340.211 135.97 339.073C152.304 336.252 168.594 335.251 185.02 333.431C194.563 332.146 204.206 331.758 213.822 332.271C224.242 333.113 235.299 334.159 245.241 337.663C247.766 338.55 250.519 339.46 252.953 340.529C255.387 341.599 257.503 343.76 260.119 344.943C262.395 345.989 264.897 346.718 267.218 347.628C269.734 348.606 272.048 350.041 274.043 351.859C276.945 353.906 279.629 356.247 282.051 358.844Z" fill="#C4B0B8"/>
</g>
</g>
<g style="mix-blend-mode:multiply" opacity="0.65">
<g style="mix-blend-mode:multiply" opacity="0.65">
<path fill-rule="evenodd" clip-rule="evenodd" d="M242.146 104.037C241.509 108.246 237.846 111.886 235.185 115.116C233.365 117.391 232.227 120.144 230.293 122.214C229.602 122.914 228.839 123.539 228.018 124.08C226.858 124.967 227.085 124.694 225.743 124.353C224.157 123.98 222.627 123.399 221.193 122.624C219.284 121.724 217.239 121.147 215.141 120.918C211.479 120.212 207.884 119.575 204.267 118.643C200.149 117.71 196.099 116.732 191.913 115.935C186.141 114.718 180.657 112.4 175.76 109.11C174.307 108.029 172.788 107.041 171.21 106.153C169.504 105.334 167.479 104.924 165.727 104.173C163.725 103.545 161.783 102.738 159.926 101.762C158.41 100.542 157.202 98.9835 156.399 97.2116C155.607 95.9921 154.741 94.822 153.806 93.708C152.362 92.4071 150.688 91.3885 148.869 90.7049C146.004 89.6569 142.941 89.2681 139.905 89.5674C138.153 89.5674 136.493 90.0452 134.741 90.1134C133.971 90.2233 133.211 90.3906 132.466 90.6139C131.299 90.6818 130.129 90.6818 128.962 90.6139C127.165 90.7504 125.663 91.2054 123.775 91.2054H119.225C116.457 90.8628 113.648 91.3125 111.126 92.5022C110.625 92.798 109.146 93.6398 108.851 94.2313C108.555 94.8228 109.374 95.7783 110.011 96.2788C111.552 97.8192 113.594 98.7556 115.767 98.9179C118.702 98.9179 121.409 98.3264 124.367 98.3264C128.829 98.1918 133.294 98.4125 137.721 98.9861C139.521 99.235 141.275 99.7406 142.931 100.488C144 101.056 144.114 101.83 144.546 102.763C143.669 103.589 142.52 104.067 141.316 104.105C140.36 104.105 139.336 104.105 138.358 104.105C136.403 104.221 134.458 104.465 132.534 104.833C129.099 105.379 125.709 105.743 122.228 106.289C119.748 106.721 117.109 106.084 114.652 106.562C112.253 106.942 109.823 107.095 107.395 107.017C104.483 107.017 101.98 106.084 99.0224 106.835C93.585 108.268 88.9666 111.499 83.5747 112.932C76.1353 114.889 68.6276 116.618 61.2109 118.802C56.8008 120.269 52.6134 122.336 48.7663 124.945C45.422 127.038 42.1232 129.495 38.6196 131.269C36.9648 132.088 35.3617 133.007 33.8192 134.022C32.5224 134.864 31.0436 135.205 29.7469 136.001C26.2205 138.276 22.1709 139.55 18.5536 141.643C16.6198 142.758 14.686 143.577 12.6839 144.578C10.5483 145.752 8.50273 147.083 6.56401 148.56C6.2455 148.787 5.85875 149.037 5.56299 149.288C8.42804 137.324 12.4275 125.661 17.507 114.457C18.6901 111.84 19.9414 109.224 21.2836 106.653C26.994 104.378 32.8409 102.353 38.3011 99.6459C40.8719 98.3719 43.6247 97.5756 46.241 96.4836C48.2645 95.603 50.3384 94.8433 52.4519 94.2085C54.727 93.5488 56.7746 92.343 59.0724 91.9335C60.6194 91.5922 62.1892 91.5467 63.759 91.2964C65.3288 91.0462 67.0351 90.3409 68.6959 89.9769C71.2129 89.629 73.7581 89.5299 76.2945 89.6812H88.9666C97.1747 89.6201 105.369 88.9968 113.492 87.8156C122.979 86.5416 132.898 85.5405 142.248 83.2655C144.066 82.6318 145.838 81.8716 147.549 80.9904C149.451 80.191 151.434 79.6035 153.465 79.2386C158.128 78.3059 162.861 78.0783 167.479 77.1228C172.097 76.1673 176.329 73.642 181.129 73.005C188.392 72.3811 195.707 72.7871 202.856 74.2108C207.354 74.6334 211.803 75.4789 216.142 76.7361C217.826 77.3731 219.737 77.9191 221.352 78.7154C223.079 79.3 224.639 80.291 225.902 81.6047C227.126 83.1721 228.08 84.933 228.723 86.8146C229.283 87.9454 230.055 88.9574 230.999 89.7949C232.079 91.1825 233.241 92.5044 234.479 93.7535C236.277 95.5281 237.983 97.3709 239.689 99.2136C240.406 99.8075 240.994 100.542 241.416 101.371C241.839 102.201 242.087 103.108 242.146 104.037Z" fill="#C4B0B8"/>
</g>
<g style="mix-blend-mode:multiply" opacity="0.65">
<path fill-rule="evenodd" clip-rule="evenodd" d="M14.6405 160.686C16.0738 158.593 17.8484 156.932 19.4636 154.975C22.0064 152.269 24.8194 149.829 27.8586 147.695C34.1012 142.734 40.8054 138.384 47.8791 134.704C53.9763 131.474 60.4374 128.994 66.6028 125.923C70.8114 123.742 75.2742 122.091 79.8892 121.009C83.2659 119.873 86.738 119.043 90.2635 118.529C96.6482 118.548 103.025 118.989 109.351 119.848C114.902 120.303 119.998 120.986 124.662 124.239C126.505 125.536 128.052 126.969 129.781 128.38C132.179 130.112 134.721 131.634 137.38 132.93C139.655 134.136 141.93 135.068 143.978 136.434C144.979 137.071 146.821 138.049 147.345 139.277C148.391 141.734 145.297 144.464 143.5 145.511C142.795 145.921 142.34 146.444 141.725 146.808C140.574 147.207 139.371 147.437 138.153 147.49C132.58 148.628 127.074 149.765 121.432 150.402C115.79 151.039 110.238 151.517 104.642 152.268C99.5865 153.051 94.4888 153.529 89.3762 153.701C86.8964 153.701 84.3711 154.133 81.914 154.361C79.0019 154.657 75.9306 154.588 73.064 154.998C70.9339 155.324 68.7801 155.468 66.6256 155.43C63.519 155.555 60.4249 155.897 57.3661 156.454C51.3145 157.228 45.7178 159.662 39.7799 161.004C36.5721 161.664 33.4325 162.346 30.2247 163.097C27.0168 163.848 24.0593 164.462 20.9424 164.963C19.2365 165.254 17.5087 165.399 15.778 165.395C15.1717 165.477 14.5556 165.348 14.0335 165.028C13.5114 164.709 13.1152 164.22 12.9115 163.643C12.229 162.437 12.32 162.301 12.9115 161.004C13.1176 160.209 13.5718 159.499 14.2083 158.979C14.8453 158.388 15.6643 158.479 14.6405 160.686Z" fill="#C4B0B8"/>
</g>
<g style="mix-blend-mode:multiply" opacity="0.65">
<path fill-rule="evenodd" clip-rule="evenodd" d="M137.038 126.059C137.038 127.151 136.765 127.947 137.652 128.698C138.61 129.336 139.662 129.819 140.769 130.131C142.734 130.694 144.786 130.887 146.821 130.7C147.435 130.743 148.049 130.612 148.592 130.322C149.135 130.033 149.586 129.596 149.892 129.062C150.506 127.924 150.142 127.606 149.164 126.627C147.513 124.758 145.259 123.527 142.794 123.146C141.293 123.146 138.244 123.556 138.244 125.422L137.038 126.059Z" fill="#C4B0B8"/>
</g>
<g style="mix-blend-mode:multiply" opacity="0.65">
<path fill-rule="evenodd" clip-rule="evenodd" d="M102.981 270.389C99.5997 272.072 96.7203 274.614 94.6314 277.76C94.0546 278.468 93.7266 279.346 93.6979 280.259C93.6691 281.171 93.9411 282.068 94.4721 282.811C95.937 284.283 97.8054 285.289 99.8412 285.7C102.913 286.36 106.12 286.997 109.214 287.452C112.521 287.96 115.881 288.013 119.202 287.611C121.477 287.338 123.411 286.974 125.549 286.542C127.805 286.176 130.093 286.054 132.375 286.178C134.763 286.178 137.152 286.041 139.518 286.178C141.247 286.337 142.976 286.656 144.705 286.792C149.493 287.266 154.326 286.912 158.993 285.746C160.644 285.49 162.197 284.801 163.496 283.75C164.795 282.699 165.792 281.324 166.387 279.762C166.927 278.517 167.206 277.173 167.206 275.815C167.206 274.457 166.927 273.114 166.387 271.868C164.248 267.682 159.562 265.316 155.284 263.746C149.678 261.81 143.827 260.676 137.903 260.379C130.952 259.834 123.96 260.559 117.268 262.517C114.797 263.439 112.382 264.502 110.034 265.702C108.033 266.458 106.149 267.492 104.437 268.774C103.791 269.327 103.115 269.843 102.412 270.321C102.116 270.73 101.297 271.549 102.981 270.389Z" fill="#C4B0B8"/>
</g>
<g style="mix-blend-mode:multiply" opacity="0.65">
<path fill-rule="evenodd" clip-rule="evenodd" d="M135.309 253.076C136.396 252.314 137.69 251.901 139.017 251.893C140.066 252.043 141.073 252.407 141.975 252.962C142.318 253.108 142.619 253.336 142.853 253.625C143.087 253.915 143.247 254.258 143.317 254.623C143.317 255.397 143.317 255.419 142.453 255.761C140.786 256.362 138.975 256.433 137.266 255.965C136.625 255.847 136.024 255.574 135.514 255.169C135.218 254.805 135.036 253.872 135.696 253.85L135.309 253.076Z" fill="#C4B0B8"/>
</g>
<g style="mix-blend-mode:multiply" opacity="0.65">
<path fill-rule="evenodd" clip-rule="evenodd" d="M176.101 264.61C176.35 265.34 176.754 266.007 177.284 266.567H177.853C178.546 266.794 179.252 266.976 179.969 267.113C181.864 267.325 183.775 267.379 185.679 267.272C189.023 267.386 195.325 272.027 196.349 266.567C197.236 261.721 190.707 260.174 187.249 259.287C185.606 258.764 183.841 258.764 182.198 259.287C181.06 259.597 179.949 260 178.877 260.492C178.119 260.908 177.472 261.498 176.989 262.214C176.506 262.931 176.202 263.752 176.101 264.61Z" fill="#C4B0B8"/>
</g>
<g style="mix-blend-mode:multiply" opacity="0.65">
<path fill-rule="evenodd" clip-rule="evenodd" d="M275.408 326.993C277.256 326.333 279.159 325.838 281.095 325.514C284.427 325.171 287.794 325.425 291.037 326.265C293.081 326.74 295.003 327.637 296.68 328.899C298.357 330.16 299.751 331.758 300.774 333.59C301.48 335.115 302.253 337.572 300.774 338.937C298.772 340.939 294.381 340.552 291.856 340.484C288.13 340.289 284.462 339.474 281.004 338.072C278.729 337.208 276.454 336.434 274.179 335.57C272.563 335.026 271.109 334.088 269.947 332.84C269.415 332.331 269.027 331.69 268.824 330.983C268.62 330.276 268.607 329.527 268.787 328.813C269.151 327.789 270.766 326.925 271.699 326.538C272.308 326.31 272.963 326.233 273.609 326.312C274.254 326.391 274.871 326.625 275.408 326.993Z" fill="#C4B0B8"/>
</g>
<g style="mix-blend-mode:multiply" opacity="0.65">
<path fill-rule="evenodd" clip-rule="evenodd" d="M195.735 346.603C197.223 346.804 198.698 347.101 200.148 347.49C199.807 348.036 200.444 348.309 200.308 348.901C200.171 349.492 198.783 350.198 198.033 350.448C196.737 350.84 195.376 350.972 194.028 350.835C192.107 351.018 190.168 350.926 188.273 350.562C186.589 350.061 185.633 349.015 187.408 347.968C189.969 346.769 192.81 346.297 195.621 346.603H195.735Z" fill="#C4B0B8"/>
</g>
<g style="mix-blend-mode:multiply" opacity="0.65">
<path fill-rule="evenodd" clip-rule="evenodd" d="M296.202 241.518C296.075 242.282 296.146 243.065 296.406 243.794C296.8 244.425 297.241 245.026 297.726 245.591C299.3 247.574 301.06 249.402 302.981 251.051C304.214 252.009 305.54 252.84 306.94 253.531C308.322 254.423 309.784 255.185 311.308 255.806C313.37 256.574 315.547 256.989 317.746 257.034C320.317 257.034 321.523 255.078 321.569 252.484C321.569 250.573 320.021 248.981 318.907 247.57C317.364 245.8 315.666 244.17 313.833 242.701C310.079 239.38 305.939 236.536 301.958 233.601C300.752 232.668 296.907 230.075 295.405 231.758C294.807 232.773 294.442 233.907 294.336 235.08C294.131 236.195 294.063 237.355 293.904 238.538C293.585 240.768 294.427 243.862 296.202 241.518Z" fill="#C4B0B8"/>
</g>
<g style="mix-blend-mode:multiply" opacity="0.65">
<path fill-rule="evenodd" clip-rule="evenodd" d="M361.245 171.856C358.767 169.267 355.876 167.106 352.691 165.463C348.277 162.756 344.205 159.639 340.041 156.568C337.883 154.755 335.374 153.407 332.67 152.609C330.827 152.149 328.958 151.799 327.074 151.563C323.689 151.373 320.293 151.48 316.927 151.881C310.526 152.165 304.146 152.803 297.816 153.792C293.971 154.498 282.846 157.637 287.897 163.416C289.214 164.522 290.773 165.301 292.447 165.691C294.472 166.533 296.451 167.488 298.522 168.216C303.527 169.991 308.555 171.856 313.628 173.38C317.814 174.655 322.046 175.656 326.186 176.975C329.849 178.226 333.535 179.432 337.243 180.501C340.954 181.529 344.771 182.124 348.618 182.276C350.507 182.276 352.395 182.663 354.283 182.685C356.353 182.811 358.43 182.588 360.426 182.026C364.203 180.638 364.567 176.247 361.245 171.856Z" fill="#C4B0B8"/>
</g>
<g style="mix-blend-mode:multiply" opacity="0.65">
<path fill-rule="evenodd" clip-rule="evenodd" d="M367.775 173.79C367.775 174.381 367.775 175.268 368.116 175.792C368.457 176.315 369.253 176.429 369.708 176.679C370.503 177.216 371.417 177.552 372.37 177.657C374.008 177.657 374.645 176.702 374.327 175.109C374.168 174.245 373.121 173.585 372.484 172.993C371.818 172.485 371.019 172.18 370.183 172.115C369.348 172.051 368.511 172.229 367.775 172.629V173.79Z" fill="#C4B0B8"/>
</g>
<g style="mix-blend-mode:multiply" opacity="0.65">
<path fill-rule="evenodd" clip-rule="evenodd" d="M292.721 61.4017C297.143 59.7114 301.951 59.2937 306.598 60.1959C308.853 60.72 310.995 61.6447 312.923 62.926C314.538 64.0407 315.767 65.5423 317.268 66.8163C319.339 68.5681 321.523 69.5691 322.774 72.0944C323.707 74.0055 322.342 75.1885 320.499 75.5525C318.681 75.7463 316.842 75.5126 315.13 74.87C312.855 74.2558 310.853 73.505 308.737 72.777C306.621 72.0489 304.756 71.5484 302.799 70.7067C301.366 70.1151 299.955 69.4781 298.499 68.9094C296.262 68.0552 294.23 66.7371 292.539 65.0418C291.97 64.4957 291.56 64.1545 291.56 63.3127C291.542 62.9149 291.642 62.5206 291.849 62.1801C292.055 61.8397 292.359 61.5687 292.721 61.4017Z" fill="#C4B0B8"/>
</g>
<g style="mix-blend-mode:multiply" opacity="0.65">
<path fill-rule="evenodd" clip-rule="evenodd" d="M323.138 77.5553C325.413 76.6453 327.324 75.6215 329.395 77.1685C329.998 77.5461 330.462 78.1101 330.717 78.7751C330.971 79.4401 331.002 80.17 330.805 80.8541C330.305 82.2192 327.37 81.9461 326.255 81.7641C324.273 81.3538 322.491 80.2781 321.204 78.7156L323.138 77.5553Z" fill="#C4B0B8"/>
</g>
<g style="mix-blend-mode:multiply" opacity="0.65">
<path fill-rule="evenodd" clip-rule="evenodd" d="M99.4999 49.845C95.1944 51.4954 91.07 53.5843 87.1919 56.0786C82.3793 58.6727 78.2897 62.4261 75.2933 66.9989C72.1082 72.4135 76.2716 78.1922 82.255 78.3742C85.9432 78.6489 89.6417 77.9999 93.016 76.4859C95.7369 75.5062 98.5613 74.8421 101.434 74.5066C105.438 73.5966 109.328 72.368 113.31 71.4125C115.585 70.8893 117.587 70.002 119.816 69.5015C121.916 68.9391 123.958 68.1773 125.913 67.2264C129.804 65.4519 133.512 63.4498 137.289 61.4023C139.837 59.9917 143.795 58.0352 144.774 55.0776C145.456 53.0073 145.615 50.9597 143.431 49.7085C142.14 49.1385 140.747 48.8366 139.336 48.8212C137.465 48.7075 135.588 48.7075 133.717 48.8212C131.897 48.8212 130.168 48.4572 128.37 48.3889C126.095 48.3889 124.071 48.3889 121.909 48.2297C118.202 47.7109 114.457 47.5206 110.716 47.6609C109.078 47.6609 107.531 48.3207 105.893 48.4117C104.461 48.5563 103.054 48.8851 101.707 49.39C99.6137 49.9132 96.4513 50.5502 99.4999 49.845Z" fill="#C4B0B8"/>
</g>
<g style="mix-blend-mode:multiply" opacity="0.65">
<path fill-rule="evenodd" clip-rule="evenodd" d="M145.706 47.1605C147.576 48.3462 149.727 49.0136 151.94 49.0943C154.371 49.3411 156.828 49.0776 159.152 48.3208C160.812 47.6383 163.543 45.6362 161.427 43.9072C159.311 42.1781 156.308 42.9289 153.965 42.9062C152.32 42.7019 150.652 42.9987 149.178 43.7578C147.705 44.5168 146.495 45.7027 145.706 47.1605Z" fill="#C4B0B8"/>
</g>
<g style="mix-blend-mode:multiply" opacity="0.65">
<path fill-rule="evenodd" clip-rule="evenodd" d="M173.985 277.328C176.442 277.532 179.901 278.624 182.176 277.328C183.039 276.885 183.811 276.283 184.451 275.553C185.634 274.006 184.906 272.686 183.108 272.209C180.287 271.481 173.872 273.437 174.577 277.305L173.985 277.328Z" fill="#C4B0B8"/>
</g>
<g style="mix-blend-mode:multiply" opacity="0.65">
<path fill-rule="evenodd" clip-rule="evenodd" d="M161.859 314.275C164.118 311.301 167.133 308.987 170.591 307.575C174.048 306.162 177.82 305.703 181.516 306.244C185.191 307.024 188.759 308.246 192.14 309.884C193.139 310.186 194.062 310.698 194.847 311.385C195.234 311.818 195.371 312.318 195.848 312.682C194.42 314.886 192.194 316.451 189.638 317.05C187.378 317.424 185.072 317.424 182.812 317.05C181.402 316.8 180.173 316.027 178.74 315.913C175.835 315.628 172.909 315.628 170.004 315.913C168.535 316.381 166.982 316.521 165.454 316.322C164.392 315.85 163.385 315.262 162.451 314.571C162.724 314.002 163.543 313.57 161.859 314.275Z" fill="#C4B0B8"/>
</g>
<g style="mix-blend-mode:multiply" opacity="0.65">
<path fill-rule="evenodd" clip-rule="evenodd" d="M202.219 310.225C202.446 313.524 203.106 313.297 206.223 313.137C207.77 313.137 209.135 311.954 208.498 310.202C208.156 309.133 207.11 308.86 206.223 308.496C205.59 308.107 204.842 307.95 204.107 308.054C203.371 308.158 202.695 308.516 202.196 309.065L202.219 310.225Z" fill="#C4B0B8"/>
</g>
<g style="mix-blend-mode:multiply" opacity="0.65">
<path fill-rule="evenodd" clip-rule="evenodd" d="M33.1135 221.316C33.3865 217.949 35.3886 216.629 37.9594 214.491C41.7053 211.206 45.8945 208.464 50.404 206.346C59.4673 202.394 69.2748 200.439 79.1607 200.613C83.1648 200.613 87.1462 200.613 91.1275 200.909C93.8121 201.182 97.5887 200.908 100 202.319C100.641 202.629 101.164 203.137 101.492 203.768C101.82 204.4 101.935 205.12 101.82 205.823C101.365 208.098 97.9299 208.644 96.0644 209.303C93.1978 210.304 90.1947 210.759 87.2599 211.579C82.9537 212.764 78.7471 214.285 74.6788 216.129C67.8537 219.245 60.8237 222.158 53.7711 224.933C50.8123 225.964 47.7665 226.725 44.6708 227.208C42.1238 227.958 39.4144 227.958 36.8674 227.208C36.0302 226.907 35.2996 226.368 34.7658 225.656C34.2321 224.944 33.9186 224.092 33.8643 223.204C33.523 221.68 33.8643 217.949 33.1135 221.316Z" fill="#C4B0B8"/>
</g>
<g style="mix-blend-mode:multiply" opacity="0.65">
<path fill-rule="evenodd" clip-rule="evenodd" d="M108.736 203.411C109.856 204.89 111.472 205.915 113.286 206.3C115.028 206.977 116.861 207.391 118.724 207.529C120.999 207.324 122.478 205.435 120.589 203.752C117.427 200.931 112.49 201.613 108.714 202.273L108.736 203.411Z" fill="#C4B0B8"/>
</g>
<g style="mix-blend-mode:multiply" opacity="0.65">
<path fill-rule="evenodd" clip-rule="evenodd" d="M5.40332 228.824C11.4322 226.686 17.2564 224.047 23.8313 224.274C26.9936 224.274 27.9036 225.867 27.9264 228.824C27.5948 232.718 25.9503 236.384 23.2625 239.221C22.034 240.7 20.4415 241.86 19.2584 243.385C18.5046 244.483 17.6267 245.49 16.6421 246.388C15.8231 247.07 14.0485 248.663 13.0475 248.344C12.5243 248.139 11.7962 246.865 11.455 246.433C10.7604 245.626 10.1291 244.766 9.56668 243.862C8.50062 241.589 7.87531 239.134 7.72388 236.628C7.08206 234.071 6.69343 231.457 6.5636 228.824H5.40332Z" fill="#C4B0B8"/>
</g>
<g style="mix-blend-mode:multiply" opacity="0.65">
<path fill-rule="evenodd" clip-rule="evenodd" d="M291.196 172.288C290.553 172.882 290.148 173.692 290.059 174.563C291.354 175.77 292.817 176.782 294.404 177.566C295.87 178.111 297.399 178.47 298.954 178.636C300.041 178.658 301.122 178.473 302.139 178.089C303.163 177.725 303.118 177.498 302.867 176.793C302.617 176.087 301.639 175.428 301.252 174.904C300.456 173.903 300.046 172.971 298.818 172.425C296.391 171.426 293.77 170.99 291.151 171.151L291.196 172.288Z" fill="#C4B0B8"/>
</g>
<g style="mix-blend-mode:multiply" opacity="0.65">
<path fill-rule="evenodd" clip-rule="evenodd" d="M279.07 89.681C283.37 95.7782 285.895 103.104 289.49 109.656C291.367 113.136 294.389 115.86 298.044 117.368C300.137 118.165 302.39 118.301 304.46 119.143C306.127 119.673 307.882 119.866 309.624 119.712C310.807 119.712 312.923 120.076 313.97 119.416C316.609 117.71 315.54 111.749 314.607 109.474C312.953 105.33 310.503 101.55 307.395 98.349C305.6 96.6041 303.667 95.0065 301.616 93.5714C299.515 92.33 297.288 91.3157 294.973 90.5455C292.134 89.1844 289.021 88.4918 285.873 88.5207C284.964 88.3375 284.028 88.3375 283.12 88.5207C282.415 88.9075 282.369 89.59 281.391 89.681C281.436 89.954 281.414 90.1133 279.07 89.681Z" fill="#C4B0B8"/>
</g>
<g style="mix-blend-mode:multiply" opacity="0.65">
<path fill-rule="evenodd" clip-rule="evenodd" d="M287.147 113.364C285.713 115.639 285.327 116.322 287.147 117.914C288.284 118.961 289.831 118.347 289.422 116.686C289.012 115.025 287.147 112.932 285.349 113.273L287.147 113.364Z" fill="#C4B0B8"/>
</g>
<g style="mix-blend-mode:multiply" opacity="0.65">
<path fill-rule="evenodd" clip-rule="evenodd" d="M251.929 55.0319C255.497 58.4771 260.174 60.5414 265.124 60.8561C266.535 60.8561 267.877 60.0371 267.399 58.581C267.149 57.762 266.307 57.1478 265.784 56.5335C263.644 53.9717 260.658 52.2608 257.366 51.7104C255.091 51.3919 251.701 50.9823 251.337 53.9854L251.929 55.0319Z" fill="#C4B0B8"/>
</g>
<g style="mix-blend-mode:multiply" opacity="0.65">
<path fill-rule="evenodd" clip-rule="evenodd" d="M238.074 121.441C238.688 119.166 238.938 118.438 240.986 117.619C243.033 116.8 243.83 116.549 245.536 117.937C247.811 119.757 248.334 121.896 246.446 124.034C245.377 125.263 242.601 126.969 240.895 125.968C240.225 125.285 239.644 124.521 239.166 123.693C238.46 122.715 238.642 121.987 238.62 120.804L238.074 121.441Z" fill="#C4B0B8"/>
</g>
<g style="mix-blend-mode:multiply" opacity="0.65">
<path fill-rule="evenodd" clip-rule="evenodd" d="M209.772 126.628C211.842 128.379 214.049 130.359 216.984 129.267C218.281 128.766 219.623 127.902 218.303 126.764C217.462 126.036 216.028 126.173 214.959 125.922C214.417 125.668 213.823 125.548 213.225 125.571C212.627 125.595 212.043 125.762 211.524 126.059L209.772 126.628Z" fill="#C4B0B8"/>
</g>
<g style="mix-blend-mode:multiply" opacity="0.65">
<path fill-rule="evenodd" clip-rule="evenodd" d="M184.382 22.7033C187.062 22.6159 189.736 22.3804 192.39 21.998C192.39 21.1563 193.187 20.36 193.05 19.541C192.8 18.1987 190.616 17.7437 189.524 17.5617C187.59 17.2432 182.107 18.2897 182.062 20.9743L184.382 22.7033Z" fill="#C4B0B8"/>
</g>
<g style="mix-blend-mode:multiply" opacity="0.65">
<path fill-rule="evenodd" clip-rule="evenodd" d="M212.388 312.546C212.611 311.984 212.992 311.498 213.484 311.147C213.977 310.796 214.56 310.594 215.164 310.567C216.452 310.454 217.75 310.546 219.009 310.84C221.347 311.395 223.631 312.156 225.834 313.115C228.564 314.093 231.294 315.253 234.07 316.049C237.062 316.818 240.102 317.388 243.17 317.756C247.97 318.438 252.793 318.871 257.548 319.712C258.952 319.947 260.331 320.312 261.666 320.804C262.667 321.146 263.645 321.146 264.624 321.419C265.773 321.595 266.834 322.137 267.65 322.966C267.942 323.257 268.149 323.623 268.25 324.024C268.35 324.425 268.339 324.846 268.218 325.241C267.991 326.037 267.217 326.697 266.922 327.516C266.408 328.721 266.182 330.03 266.262 331.338C266.45 332.597 267.088 333.745 268.059 334.568C269.232 335.612 270.306 336.762 271.267 338.004C271.813 338.823 271.949 339.392 270.653 339.073C269.233 338.598 267.868 337.972 266.58 337.208C264.009 335.888 261.598 334.364 258.982 333.158C257.526 332.475 256.024 331.975 254.568 331.338C253.112 330.701 251.815 330.109 250.382 329.609C247.561 328.608 244.785 327.334 242.032 326.082C237.482 324.171 232.932 322.169 228.382 320.372C226.223 319.558 224.143 318.545 222.171 317.346C221.125 316.686 220.192 315.799 219.123 315.071C218.178 314.652 217.184 314.354 216.165 314.184C215.638 313.993 215.146 313.716 214.709 313.365C213.748 312.553 212.634 311.942 211.433 311.568C211.433 311.568 211.524 311.454 212.388 312.546Z" fill="#C4B0B8"/>
</g>
<g style="mix-blend-mode:multiply" opacity="0.65">
<path fill-rule="evenodd" clip-rule="evenodd" d="M172.825 281.082C172.461 281.241 170.709 281.742 170.55 282.492C170.39 283.243 170.823 283.357 171.301 283.539C172.151 283.755 173.019 283.892 173.894 283.948C175.441 284.199 176.943 284.494 178.444 284.813C179.946 285.131 180.924 285.45 182.198 285.7C183.472 285.95 185.406 286.155 186.93 286.542C188.284 286.931 189.659 287.242 191.048 287.475C192.754 287.748 194.347 288.408 196.076 288.59C199.693 288.976 203.379 289.249 206.996 289.454C210.722 289.664 214.395 290.43 217.894 291.729C219.486 292.298 221.102 292.821 222.671 293.458C224.241 294.095 225.219 294.846 226.539 295.483C229.428 296.893 232.204 298.805 235.184 300.033C238.502 301.236 241.91 302.171 245.376 302.831C250.291 303.901 255.25 304.833 260.164 305.925C265.829 307.177 271.54 308.587 277.091 310.066C279.687 310.678 282.211 311.563 284.621 312.705C286.464 313.683 288.398 314.616 290.195 315.685L294.404 318.143C295.792 318.916 297.043 319.94 298.431 320.736C299.59 321.256 300.671 321.938 301.639 322.761C302.497 323.699 303.409 324.588 304.369 325.423C305.028 326.014 305.574 326.697 306.211 327.311C306.78 327.724 307.273 328.232 307.668 328.813C308.035 329.449 308.34 330.119 308.578 330.815C309.094 331.815 309.663 332.787 310.284 333.727C310.42 334.022 310.466 334.386 310.602 334.659C310.931 335.134 311.305 335.575 311.717 335.979C312.081 336.411 312.331 336.912 312.673 337.344C313.014 337.776 313.924 338.391 314.515 338.982C315.107 339.574 316.154 340.415 316.904 341.257C317.575 342.058 317.995 343.04 318.11 344.078C318.338 344.078 318.565 344.351 318.702 344.374C318.838 344.397 318.952 344.374 319.27 344.215C319.914 343.909 320.499 343.493 320.999 342.986C322.795 341.409 324.33 339.559 325.549 337.503C326.388 336.186 326.815 334.65 326.778 333.09C326.728 332.663 326.558 332.259 326.289 331.925C326.019 331.591 325.66 331.34 325.254 331.201C323.82 330.587 322.205 330.405 320.704 329.723C319.202 329.04 317.405 328.13 315.767 327.447C314.743 326.947 313.878 326.287 312.832 325.855C311.721 325.419 310.673 324.838 309.715 324.126C308.036 322.994 306.425 321.764 304.892 320.44C302.617 318.347 300.183 316.413 297.794 314.525C295.955 312.967 294.034 311.509 292.038 310.157C290.369 309.171 288.58 308.407 286.714 307.882C285.508 307.541 284.257 307.495 283.029 307.268C281.8 307.04 280.344 306.744 278.979 306.608C276.704 306.38 274.429 306.198 272.154 306.107C270.44 306.036 268.743 305.746 267.103 305.243C265.767 304.939 264.481 304.449 263.281 303.787C262.348 303.173 261.37 302.649 260.415 302.058C259.072 301.239 257.821 300.215 256.433 299.464C254.544 298.551 252.772 297.413 251.155 296.074C250.382 295.324 247.037 292.252 248.88 291.297C250.468 290.819 252.168 290.867 253.726 291.433C254.377 291.723 254.994 292.081 255.569 292.503C256.16 292.844 256.706 293.276 257.298 293.617C258.395 294.188 259.566 294.602 260.779 294.846C263.054 295.483 265.329 296.256 267.604 296.848C269.879 297.439 272.563 298.6 275.111 299.123C280.185 300.283 285.486 300.966 290.15 303.377C292.425 304.515 294.7 305.311 296.975 306.403C299.25 307.495 301.002 308.678 303.072 309.725C306.143 311.139 309.135 312.719 312.036 314.457C313.067 315.256 313.945 316.235 314.629 317.346C315.352 318.341 316.02 319.374 316.631 320.44C317.232 321.603 318.107 322.603 319.179 323.352C319.985 323.946 320.885 324.4 321.841 324.695C321.774 324.413 321.632 324.154 321.432 323.944C320.931 323.307 320.34 322.738 319.839 322.078C319.014 321.198 318.502 320.071 318.383 318.871C318.311 317.66 317.902 316.493 317.2 315.503C315.574 313.133 313.656 310.977 311.49 309.088C310.343 307.968 309.031 307.032 307.599 306.312C306.12 305.63 304.573 305.084 303.049 304.447C300.023 303.15 296.929 301.99 293.949 300.829C290.969 299.669 287.124 298.896 283.666 297.94C282.05 297.508 280.39 297.257 278.774 296.802L272.745 294.914C269.388 293.84 266.172 292.366 263.167 290.523C261.825 289.75 260.506 288.954 259.141 288.248C257.411 287.315 255.569 286.587 253.862 285.586C250.934 283.868 247.894 282.348 244.762 281.036C241.591 279.96 238.322 279.198 235.002 278.761C231.726 278.102 228.473 277.442 225.174 276.896C221.352 276.259 217.666 275.371 213.799 275.007C210.727 274.712 207.679 274.234 204.585 274.097C202.84 273.87 201.074 273.87 199.329 274.097C198.027 274.427 196.773 274.924 195.598 275.576C191.357 277.983 186.613 279.37 181.743 279.626C180.355 279.626 178.967 279.876 177.58 279.922C176.516 279.929 175.455 280.051 174.417 280.286C173.007 280.559 172.302 281.036 172.825 281.082Z" fill="#C4B0B8"/>
</g>
<g style="mix-blend-mode:multiply" opacity="0.65">
<path fill-rule="evenodd" clip-rule="evenodd" d="M212.661 261.448C212.007 262.083 211.508 262.862 211.205 263.723C211.046 264.837 212.343 265.77 213.207 266.225C215.208 266.933 217.273 267.443 219.373 267.749C221.943 268.455 224.469 269.297 227.017 270.025C229.367 270.794 231.77 271.395 234.206 271.822C235.23 271.981 236.799 272.368 237.664 271.572C239.439 269.911 237.277 268.386 235.935 267.363C233.317 265.726 230.403 264.62 227.358 264.109C225.265 263.586 223.24 263.154 221.102 262.813C219.568 262.563 218.049 262.229 216.551 261.812C215.937 261.652 215.368 261.812 214.777 261.561C214.185 261.311 213.435 261.015 212.661 261.448Z" fill="#C4B0B8"/>
</g>
<g style="mix-blend-mode:multiply" opacity="0.65">
<path fill-rule="evenodd" clip-rule="evenodd" d="M263.19 363.051C262.175 361.889 260.967 360.912 259.618 360.162C256.865 358.387 253.658 357.341 250.836 355.612C248.065 353.997 245.066 352.809 241.941 352.085C239.501 351.658 237.041 351.354 234.57 351.175C233.091 350.993 231.635 351.175 230.179 350.948C228.59 350.812 226.995 350.766 225.401 350.811C223.832 350.811 222.307 350.811 220.851 351.039C219.395 351.266 217.097 351.039 215.255 351.448C214.299 351.608 211.956 351.903 211.887 353.109C211.819 354.315 213.048 354.861 213.912 355.384C216.014 356.457 218.259 357.224 220.578 357.659C223.832 358.319 227.085 359.07 230.315 359.775C233.068 360.389 235.821 361.072 238.528 361.8C239.78 362.141 240.803 362.619 242.1 363.074C243.397 363.529 244.603 363.825 245.809 364.394C247.929 365.264 250.093 366.024 252.293 366.669L255.205 367.67C256.274 368.034 257.138 368.671 258.162 369.126C259.91 370.063 261.747 370.825 263.645 371.401L268.536 372.561C269.856 372.879 272.381 373.926 273.542 372.788C274.702 371.651 273.132 368.716 272.199 367.601C270.719 366.073 268.958 364.844 267.012 363.984C265.912 363.179 264.537 362.843 263.19 363.051Z" fill="#C4B0B8"/>
</g>
</g>
<path fill-rule="evenodd" clip-rule="evenodd" d="M146.571 149.037C145.866 150.016 145.138 150.88 146.366 151.881C147.12 152.356 147.969 152.661 148.853 152.775C149.737 152.889 150.635 152.809 151.485 152.541C153.328 152.04 156.263 149.97 155.83 147.672C155.398 145.374 151.644 145.397 150.006 145.943C149.026 146.19 148.144 146.729 147.478 147.489C146.812 148.249 146.392 149.194 146.275 150.198L146.571 149.037Z" fill="#FF8142"/>
<path fill-rule="evenodd" clip-rule="evenodd" d="M25.3106 157.683C24.6281 158.662 23.8774 159.526 25.1059 160.527C25.8602 161.002 26.7087 161.307 27.5927 161.421C28.4766 161.535 29.3748 161.455 30.2248 161.187C32.0903 160.664 35.0024 158.616 34.5929 156.318C34.1834 154.02 30.384 154.043 28.7687 154.589C27.7857 154.83 26.9005 155.368 26.2332 156.129C25.5658 156.89 25.1484 157.837 25.0376 158.844L25.3106 157.683Z" fill="#FF8142"/>
<path fill-rule="evenodd" clip-rule="evenodd" d="M253.954 21.7479C253.294 23.0674 253.294 22.9082 253.954 24.023C254.761 25.2492 255.941 26.1827 257.321 26.6848C258.478 26.9431 259.661 27.0652 260.847 27.0488C261.999 27.2423 263.176 27.2423 264.328 27.0488C265.358 27.0371 266.375 26.8128 267.314 26.39C268.254 25.9672 269.096 25.355 269.788 24.5917C271.176 22.3167 269.788 19.8141 268.423 18.0168C265.488 14.354 259.778 14.0582 255.728 15.9693C255.185 16.1789 254.697 16.509 254.3 16.9349C253.903 17.3607 253.608 17.8711 253.437 18.4275C253.266 18.984 253.224 19.5719 253.314 20.1471C253.403 20.7223 253.622 21.2697 253.954 21.7479Z" fill="#FF8142"/>
<path fill-rule="evenodd" clip-rule="evenodd" d="M275.021 30.1203C274.821 29.7757 274.726 29.3804 274.748 28.9828C275.112 28.841 275.501 28.7733 275.891 28.7838C276.282 28.7942 276.666 28.8826 277.022 29.0436C277.378 29.2046 277.699 29.4352 277.964 29.7216C278.23 30.0081 278.436 30.3447 278.57 30.7118C278.815 31.2287 278.895 31.8088 278.797 32.3726C278.484 32.9083 278.016 33.3366 277.455 33.6011C276.879 33.8729 276.226 33.9329 275.61 33.7706C274.994 33.6083 274.455 33.2342 274.088 32.7139C273.656 32.1451 273.064 30.6663 274.088 30.4388L275.021 30.1203Z" fill="#FF8142"/>
<path fill-rule="evenodd" clip-rule="evenodd" d="M206.45 162.301C206.248 161.958 206.153 161.562 206.177 161.164C206.914 160.89 207.728 160.918 208.444 161.242C209.16 161.566 209.719 162.159 209.999 162.893C210.244 163.418 210.323 164.005 210.227 164.576C209.907 165.101 209.44 165.52 208.885 165.782C208.308 166.058 207.652 166.122 207.033 165.964C206.413 165.806 205.869 165.436 205.495 164.918C205.062 164.349 204.471 162.847 205.495 162.643L206.45 162.301Z" fill="#FF8142"/>
<path fill-rule="evenodd" clip-rule="evenodd" d="M361.632 142.986C362.292 144.465 363.43 146.308 365.386 145.83C366.496 145.378 367.467 144.642 368.202 143.695C368.937 142.749 369.409 141.625 369.572 140.438C369.856 138.722 369.769 136.966 369.318 135.287C368.866 133.607 368.061 132.044 366.956 130.701C365.908 129.505 364.759 128.401 363.521 127.402C362.679 126.811 362.065 126.174 360.973 126.265C358.698 126.424 357.856 129.632 357.287 131.361C356.489 133.38 356.401 135.61 357.037 137.685C357.687 139.462 358.608 141.127 359.767 142.622C360.313 143.237 360.995 144.01 361.632 142.986Z" fill="#FF8142"/>
<path fill-rule="evenodd" clip-rule="evenodd" d="M236.822 33.6239C237.482 35.1027 238.642 36.9227 240.576 36.4677C241.692 36.0118 242.667 35.2684 243.402 34.3134C244.137 33.3583 244.607 32.2256 244.762 31.0303C245.051 29.311 244.966 27.5499 244.515 25.866C244.063 24.1822 243.256 22.6149 242.146 21.2703C241.074 20.0716 239.894 18.9749 238.62 17.9943C237.961 17.2928 237.055 16.8764 236.094 16.834C233.819 17.016 232.977 20.2238 232.386 21.9529C231.596 23.9744 231.515 26.2044 232.158 28.2775C232.801 30.0457 233.715 31.7034 234.866 33.1917C235.503 33.8514 236.185 34.6249 236.822 33.6239Z" fill="#FF8142"/>
<path fill-rule="evenodd" clip-rule="evenodd" d="M352.669 145.579C353.917 145.664 355.141 145.964 356.286 146.466C356.274 146.85 356.32 147.234 356.423 147.604C356.423 147.831 356.764 148.173 356.673 148.423C356.4 149.105 355.126 149.128 354.58 149.014C353.752 148.793 352.978 148.406 352.305 147.877C352.079 147.772 351.877 147.623 351.709 147.44C351.541 147.256 351.411 147.042 351.326 146.808C351.554 146.626 351.804 146.466 351.85 146.171L352.669 145.579Z" fill="#FF8142"/>
<path fill-rule="evenodd" clip-rule="evenodd" d="M349.961 232.281C351.209 232.366 352.433 232.666 353.578 233.169C353.567 233.552 353.613 233.936 353.715 234.306C353.715 234.534 354.056 234.875 353.965 235.102C353.692 235.808 352.418 235.808 351.872 235.717C351.044 235.495 350.27 235.108 349.597 234.579C349.371 234.474 349.169 234.326 349.001 234.142C348.833 233.959 348.703 233.744 348.619 233.51C348.846 233.328 349.096 233.169 349.142 232.85L349.961 232.281Z" fill="#FF8142"/>
<path fill-rule="evenodd" clip-rule="evenodd" d="M357.878 113.819C358.242 114.16 358.811 114.911 359.357 115.025C359.903 115.139 360.927 114.411 361.428 114.115C361.893 113.857 362.272 113.466 362.515 112.992C362.758 112.518 362.855 111.982 362.793 111.453C362.673 110.355 362.135 109.345 361.291 108.632C359.692 107.434 357.968 106.412 356.149 105.583C355.592 105.289 354.977 105.122 354.347 105.094C353.718 105.067 353.09 105.179 352.509 105.424C351.235 106.357 352.054 107.972 352.509 109.064C353.253 110.577 354.245 111.953 355.444 113.137C355.796 113.697 356.281 114.161 356.857 114.487C357.433 114.813 358.081 114.99 358.743 115.002L357.878 113.819Z" fill="#FF8142"/>
<path fill-rule="evenodd" clip-rule="evenodd" d="M314.675 286.656C314.404 287.254 314.287 287.911 314.334 288.567C315.337 289.562 316.625 290.222 318.019 290.455C319.036 290.668 320.087 290.655 321.098 290.415C322.109 290.175 323.054 289.715 323.866 289.067C324.657 288.301 325.223 287.333 325.504 286.269C325.504 285.427 324.526 284.426 323.912 283.994C322.408 283.138 320.635 282.886 318.952 283.288C318.166 283.423 317.401 283.66 316.677 283.994C315.699 284.54 315.289 285.495 314.584 286.269L314.675 286.656Z" fill="#FF8142"/>
<path fill-rule="evenodd" clip-rule="evenodd" d="M332.762 296.28C334.072 296.308 335.349 296.702 336.447 297.417C336.06 297.986 336.083 298.851 335.355 299.237C334.564 299.442 333.734 299.442 332.944 299.237C332.448 298.91 332.01 298.502 331.647 298.032C331.559 297.862 331.52 297.67 331.535 297.48C331.55 297.289 331.618 297.106 331.732 296.952C331.846 296.798 332 296.679 332.178 296.608C332.356 296.538 332.55 296.519 332.739 296.553L332.762 296.28Z" fill="#FF8142"/>
<path fill-rule="evenodd" clip-rule="evenodd" d="M154.579 337.298C155.898 337.357 157.178 337.765 158.287 338.481C157.901 339.073 157.923 339.937 157.195 340.301C156.449 340.494 155.666 340.494 154.92 340.301C154.413 339.988 153.973 339.579 153.623 339.096C153.528 338.929 153.482 338.737 153.492 338.545C153.502 338.352 153.568 338.167 153.681 338.011C153.793 337.855 153.949 337.735 154.129 337.665C154.308 337.595 154.504 337.578 154.693 337.617L154.579 337.298Z" fill="#FF8142"/>
<path fill-rule="evenodd" clip-rule="evenodd" d="M359.311 238.538C360.244 239.898 361.558 240.95 363.088 241.564C364.908 242.042 365.773 240.927 366.569 239.289C367.267 237.247 367.4 235.054 366.956 232.942C366.762 230.848 365.836 228.89 364.339 227.413C361.404 225.388 359.038 228.346 358.583 231.099C358.583 231.85 358.265 232.646 358.174 233.374C358.17 234.351 358.339 235.322 358.674 236.24C358.824 237.224 359.092 238.187 359.471 239.107C359.962 239.85 360.56 240.517 361.245 241.086L359.311 238.538Z" fill="#FF8142"/>
<path fill-rule="evenodd" clip-rule="evenodd" d="M167.638 338.619C169.459 339.532 171.502 339.911 173.53 339.711C175.259 339.483 177.034 338.983 178.717 338.596C180.401 338.209 184.496 337.913 184.928 335.57C185.429 332.726 181.47 330.656 179.65 329.336C177.816 327.935 175.695 326.956 173.439 326.47C172.574 326.156 171.654 326.021 170.736 326.071C169.817 326.122 168.918 326.358 168.093 326.766C166.521 327.471 165.238 328.691 164.452 330.224C164.159 331.054 164.093 331.947 164.261 332.811C164.429 333.675 164.825 334.478 165.408 335.138C166.455 336.526 167.592 337.39 167.638 338.619Z" fill="#FF8142"/>
<path fill-rule="evenodd" clip-rule="evenodd" d="M185.907 338.914C185.907 337.754 185.77 337.321 186.748 336.98C187.233 336.855 187.742 336.855 188.227 336.98C188.589 337.183 188.888 337.481 189.093 337.842C189.297 338.203 189.399 338.613 189.387 339.028C189.387 339.778 189.137 340.575 188.204 340.415C187.681 340.415 186.248 339.369 186.293 338.846L185.907 338.914Z" fill="#FF8142"/>
<path fill-rule="evenodd" clip-rule="evenodd" d="M213.094 17.0389C213.094 15.8787 212.957 15.4464 213.935 15.1051C214.42 14.9799 214.929 14.9799 215.414 15.1051C215.779 15.31 216.081 15.6117 216.286 15.977C216.49 16.3423 216.59 16.757 216.574 17.1754C216.574 17.9035 216.324 18.6997 215.391 18.5405C214.868 18.5405 213.435 17.494 213.48 16.9707L213.094 17.0389Z" fill="#FF8142"/>
<path fill-rule="evenodd" clip-rule="evenodd" d="M28.6087 176.019C28.6087 174.859 28.4949 174.449 29.4505 174.085C29.9353 173.959 30.4444 173.959 30.9293 174.085C31.2847 174.301 31.5784 174.605 31.7817 174.968C31.985 175.331 32.091 175.74 32.0895 176.156C32.0895 176.884 31.862 177.68 30.9065 177.521C30.3832 177.521 28.95 176.474 28.9955 175.951L28.6087 176.019Z" fill="#FF8142"/>
<path fill-rule="evenodd" clip-rule="evenodd" d="M323.752 281.901C323.752 280.741 323.752 280.331 324.594 279.967C325.087 279.842 325.603 279.842 326.096 279.967C326.447 280.186 326.736 280.491 326.935 280.854C327.135 281.216 327.237 281.624 327.233 282.038C327.233 282.766 327.006 283.562 326.05 283.403C325.55 283.403 324.094 282.356 324.139 281.833L323.752 281.901Z" fill="#FF8142"/>
<path fill-rule="evenodd" clip-rule="evenodd" d="M214.595 374.768C216.028 375.434 217.569 375.835 219.145 375.952C220.001 375.867 220.851 375.738 221.693 375.565C223.271 375.368 224.737 374.647 225.857 373.517C227.381 371.72 226.289 370.537 224.287 370.196C222.143 369.605 219.879 369.605 217.735 370.196C216.665 370.628 213.503 372.107 215.459 373.676L214.595 374.768Z" fill="#FF8142"/>
<path fill-rule="evenodd" clip-rule="evenodd" d="M181.493 205.436C181.061 206.801 180.742 207.711 182.016 208.826C183.29 209.941 186.566 209.804 188.477 210.054C190.388 210.305 194.301 211.237 192.823 208.143C192.348 207.123 191.627 206.235 190.726 205.561C189.825 204.886 188.771 204.444 187.658 204.276C185.702 203.798 183.108 203.388 181.493 205.049V205.436Z" fill="#FF8142"/>
<path fill-rule="evenodd" clip-rule="evenodd" d="M89.6716 213.24C89.8403 212.865 90.1077 212.542 90.4451 212.307C91.0074 211.903 91.629 211.588 92.2879 211.374C93.2165 211.028 94.1891 210.814 95.1772 210.737C95.382 210.737 96.2237 210.737 96.019 211.17C95.8142 211.602 95.8142 211.329 95.746 211.397C95.5167 211.598 95.2552 211.76 94.9725 211.875L94.2217 212.148C93.9228 212.326 93.6015 212.464 93.2662 212.557C93.0018 212.603 92.7476 212.696 92.5154 212.83C92.1699 213.041 91.804 213.216 91.4234 213.354C90.9419 213.561 90.4235 213.67 89.8991 213.672C89.7398 213.672 89.5806 213.672 89.4896 213.672C89.3986 213.672 89.4213 213.24 89.6716 213.24Z" fill="#FF8142"/>
<path fill-rule="evenodd" clip-rule="evenodd" d="M109.123 208.508C110.662 208.557 112.189 208.786 113.674 209.19C113.787 210.305 112.24 210.737 111.398 210.828C110.809 210.929 110.203 210.866 109.647 210.646C109.146 210.419 108.85 209.782 108.327 209.668L109.123 208.508Z" fill="#FF8142"/>
<path fill-rule="evenodd" clip-rule="evenodd" d="M106.826 122.238C103.818 120.446 100.536 119.162 97.1111 118.438C92.8179 117.59 88.3634 118.257 84.5073 120.326C83.256 121.009 80.6852 121.874 80.7079 123.785C80.7079 126.06 85.5083 125.65 86.7823 125.673C90.5267 125.704 94.2596 126.093 97.9301 126.833C100.747 127.765 103.758 127.946 106.666 127.356C107.244 127.119 107.747 126.73 108.119 126.228C108.492 125.727 108.721 125.134 108.782 124.513C108.941 123.398 107.076 121.965 106.826 122.238Z" fill="#FF8142"/>
<path fill-rule="evenodd" clip-rule="evenodd" d="M111.057 123.443C111.99 123.943 114.22 126.104 114.834 124.239C115.13 123.283 114.629 122.806 114.174 121.964C113.719 121.122 113.719 121.099 112.786 120.849C111.854 120.599 111.376 120.508 110.671 121.441L111.057 123.443Z" fill="#FF8142"/>
<path fill-rule="evenodd" clip-rule="evenodd" d="M359.312 181.958C361.28 181.631 363.279 181.517 365.272 181.616C366.023 181.776 366.774 182.117 367.547 182.322C369.195 182.76 370.695 183.632 371.893 184.847C372.369 185.386 372.684 186.048 372.803 186.758C372.803 187.577 372.006 188.373 371.301 188.805C370.22 189.27 369.033 189.435 367.866 189.283C365.903 189.401 363.942 189.034 362.155 188.214C361.109 187.691 357.4 184.71 359.312 183.209V181.958Z" fill="#FF8142"/>
<path fill-rule="evenodd" clip-rule="evenodd" d="M322.796 250.46C321.886 252.348 321.818 252.485 322.796 254.191C323.96 255.931 325.687 257.216 327.688 257.831C329.098 258.377 332.238 258.446 331.942 256.102C331.783 254.237 329.076 251.984 327.733 250.824C326.213 249.633 324.282 249.093 322.364 249.323L322.796 250.46Z" fill="#FF8142"/>
<path fill-rule="evenodd" clip-rule="evenodd" d="M185.542 221.225C186.089 222.174 186.856 222.977 187.779 223.567C188.702 224.157 189.753 224.516 190.843 224.615C191.647 224.677 192.454 224.562 193.209 224.279C193.963 223.996 194.647 223.552 195.211 222.977C196.918 221.157 195.211 219.541 193.46 218.631C192.767 218.106 191.937 217.791 191.071 217.722C190.204 217.654 189.335 217.835 188.568 218.245C188.248 218.402 187.965 218.625 187.738 218.9C187.511 219.174 187.344 219.494 187.249 219.837C187.067 220.884 188.068 221.43 187.772 222.362L185.542 221.225Z" fill="#FFCE42"/>
<path fill-rule="evenodd" clip-rule="evenodd" d="M232.295 166.373C230.975 164.485 228.655 162.028 231.226 160.14C232.488 159.522 233.901 159.278 235.298 159.435C237.004 159.313 238.718 159.351 240.417 159.548C242.626 159.724 244.677 160.762 246.127 162.438C247.307 164.245 248.083 166.286 248.402 168.421C248.454 169.293 248.305 170.166 247.967 170.972C247.628 171.778 247.109 172.495 246.45 173.069C245.791 173.642 245.008 174.057 244.164 174.281C243.319 174.504 242.434 174.531 241.577 174.359C240.27 174.11 238.995 173.713 237.778 173.176C236.572 172.63 236.071 171.72 235.07 170.901C234.069 170.082 232.158 169.172 231.612 167.488L232.295 166.373Z" fill="#FFCE42"/>
<path fill-rule="evenodd" clip-rule="evenodd" d="M251.929 160.026C253.583 159.638 255.097 158.795 256.297 157.592C255.432 156.682 254.022 155.134 252.77 155.316C250.882 155.658 250.791 157.205 250.768 158.82L251.929 160.026Z" fill="#FFCE42"/>
<path fill-rule="evenodd" clip-rule="evenodd" d="M209.59 92.661C211.227 92.3186 212.739 91.5314 213.958 90.386C213.071 89.476 211.683 87.9289 210.432 88.1109C208.543 88.4294 208.452 89.9765 208.43 91.5918L209.59 92.661Z" fill="#FFCE42"/>
<path fill-rule="evenodd" clip-rule="evenodd" d="M105.87 131.156C107.212 130.109 108.532 128.517 110.215 128.244C111.482 128.019 112.787 128.169 113.969 128.676C114.515 128.949 115.516 129.7 115.653 130.337C115.903 131.52 114.925 131.565 114.06 131.861C112.821 132.37 111.521 132.714 110.192 132.885C109.237 132.885 106.393 134.136 107.007 131.725L105.87 131.156Z" fill="#FFCE42"/>
<path fill-rule="evenodd" clip-rule="evenodd" d="M157.241 64.1777C159.288 63.8489 161.22 63.0119 162.86 61.7434C162.249 61.0306 161.468 60.4838 160.589 60.1537C159.71 59.8236 158.762 59.7209 157.832 59.8551C155.739 60.4011 155.557 60.7651 155.557 63.0174L157.241 64.1777Z" fill="#FFCE42"/>
<path fill-rule="evenodd" clip-rule="evenodd" d="M168.207 304.356C167.569 303.518 167.182 302.516 167.092 301.467C168.002 300.989 168.457 299.874 169.367 299.192C170.601 298.467 172.06 298.224 173.462 298.509C174.918 298.646 177.125 299.601 176.943 301.398C176.737 302.242 176.316 303.018 175.722 303.652C175.129 304.285 174.382 304.755 173.553 305.016C172.204 305.415 170.794 305.569 169.39 305.471L168.207 304.356Z" fill="#FFCE42"/>
<path fill-rule="evenodd" clip-rule="evenodd" d="M217.257 97.9854C216.619 97.1476 216.232 96.1455 216.142 95.0961C217.052 94.6183 217.507 93.5036 218.417 92.821C219.651 92.0962 221.11 91.8531 222.512 92.1385C223.968 92.275 226.175 93.2306 226.016 95.0278C225.801 95.8711 225.375 96.6458 224.778 97.2788C224.181 97.9117 223.433 98.382 222.603 98.6452C221.254 99.0457 219.844 99.1998 218.44 99.1002L217.257 97.9854Z" fill="#FFCE42"/>
<path fill-rule="evenodd" clip-rule="evenodd" d="M232.887 345.921C234.001 345.125 236.186 343.122 237.664 344.601C238.483 345.42 238.051 346.399 237.664 347.218C237.507 347.614 237.258 347.967 236.938 348.248C236.618 348.529 236.235 348.729 235.822 348.833C234.57 349.129 234.092 348.196 233 348.128V347.65L232.887 345.921Z" fill="#FFCE42"/>
<path fill-rule="evenodd" clip-rule="evenodd" d="M146.025 269.821C147.709 271.959 149.916 274.143 151.303 270.708C151.849 269.343 151.667 269.297 150.644 268.433C150.341 268.003 149.9 267.692 149.394 267.551C148.888 267.41 148.349 267.448 147.868 267.659V268.137L146.025 269.821Z" fill="#FFCE42"/>
<g style="mix-blend-mode:soft-light">
<g style="mix-blend-mode:soft-light">
<path fill-rule="evenodd" clip-rule="evenodd" d="M169.572 99.3047C170.738 98.6363 171.947 98.0435 173.189 97.5301C175.517 96.3108 178.148 95.7894 180.765 96.0286C183.151 96.4834 185.598 96.5296 188 96.1651C190.98 95.7328 193.938 95.4826 196.918 95.3006C198.721 95.2921 200.52 95.4674 202.287 95.8238C203.991 96.0801 205.657 96.5462 207.247 97.2116C208.725 97.8259 210.113 98.7587 211.524 99.4867C213.435 100.51 215.323 101.534 217.257 102.535C218.667 103.263 220.192 103.832 221.557 104.674C222.606 105.378 223.535 106.246 224.31 107.245C226.103 109.128 227.703 111.186 229.087 113.387C230.305 115.646 231.077 118.117 231.362 120.667C231.59 122.579 231.362 125.218 229.087 125.65C228.326 125.719 227.559 125.673 226.812 125.513L224.719 125.309C223.582 125.309 222.453 125.493 221.375 125.855C220.169 126.15 219.1 126.469 217.78 126.651C216.004 126.994 214.171 126.908 212.434 126.401C211.465 126.094 210.515 125.729 209.59 125.309C208.316 124.672 207.065 123.921 205.745 123.398C204.769 122.968 203.756 122.626 202.719 122.374C201.559 122.207 200.386 122.153 199.216 122.215C195.825 122.265 192.436 122.006 189.092 121.441C183.906 120.542 178.859 118.974 174.076 116.777C172.094 115.952 170.27 114.79 168.684 113.342C167.496 112.216 166.469 110.929 165.636 109.52C164.476 107.495 163.611 104.742 165.317 102.808C166.003 102.083 166.766 101.435 167.592 100.874C168.344 100.479 169.015 99.9466 169.572 99.3047Z" fill="#FFFE90"/>
</g>
<g style="mix-blend-mode:soft-light">
<path fill-rule="evenodd" clip-rule="evenodd" d="M162.633 100.465C161.745 100.124 160.808 99.9247 159.858 99.8739C159.027 99.8553 158.197 99.9162 157.378 100.056C156.559 100.238 155.74 100.42 154.921 100.647C153.909 100.99 152.939 101.448 152.031 102.012C151.372 102.354 149.756 102.945 149.938 103.855C150.12 104.765 150.871 105.016 151.258 105.289C151.8 105.626 152.391 105.88 153.01 106.039C154.222 106.52 155.48 106.878 156.763 107.109C157.406 107.193 158.06 107.1 158.653 106.839C159.247 106.579 159.758 106.16 160.131 105.63C160.917 104.692 161.499 103.599 161.837 102.422C162.064 101.375 161.268 100.625 162.633 100.465Z" fill="#FFFE90"/>
</g>
<g style="mix-blend-mode:soft-light">
<path fill-rule="evenodd" clip-rule="evenodd" d="M120.59 120.394C119.742 120.509 118.905 120.691 118.087 120.94C117.678 121.099 116.79 121.281 116.495 121.714C116.199 122.146 116.495 122.328 116.859 122.533C117.49 122.884 118.208 123.05 118.929 123.01C120.59 123.147 122.205 122.737 123.843 122.715C124.548 122.715 125.299 122.715 126.118 122.51C126.778 122.445 127.423 122.276 128.029 122.009C128.575 121.736 129.007 121.19 128.575 120.599C128.143 120.007 126.914 119.825 126.141 119.734C124.728 119.479 123.276 119.533 121.887 119.894C121.045 120.144 120.317 120.553 120.59 120.394Z" fill="#FFFE90"/>
</g>
<g style="mix-blend-mode:soft-light">
<path fill-rule="evenodd" clip-rule="evenodd" d="M124.617 159.344C122.859 159.678 121.178 160.333 119.657 161.277C118.815 161.869 117.723 162.415 117.382 163.393C116.54 165.281 119.043 165.827 120.385 166.078C122.316 166.278 124.267 166.171 126.164 165.759C127.006 165.759 127.847 165.759 128.689 165.759C129.739 165.637 130.757 165.32 131.692 164.826C132.966 164.303 134.445 163.484 134.513 161.937C134.624 161.399 134.577 160.841 134.38 160.329C134.182 159.817 133.842 159.372 133.399 159.048C132.507 158.393 131.407 158.086 130.304 158.183C128.316 158.13 126.328 158.328 124.389 158.775L124.617 159.344Z" fill="#FFFE90"/>
</g>
<g style="mix-blend-mode:soft-light">
<path fill-rule="evenodd" clip-rule="evenodd" d="M110.488 166.283C110.807 166.365 111.105 166.515 111.36 166.723C111.616 166.931 111.823 167.192 111.967 167.488C111.321 168.048 110.547 168.439 109.713 168.625C108.879 168.812 108.012 168.789 107.189 168.558C106.439 168.421 105.847 167.944 106.439 167.284C107.03 166.624 107.622 166.874 108.168 166.851L110.488 166.283Z" fill="#FFFE90"/>
</g>
<g style="mix-blend-mode:soft-light">
<path fill-rule="evenodd" clip-rule="evenodd" d="M76.4083 224.001C75.8167 224.274 74.6792 224.593 74.338 225.093C74.203 225.344 74.0815 225.602 73.9739 225.867C73.6956 226.227 73.5316 226.662 73.5032 227.116C73.4748 227.57 73.5833 228.023 73.8147 228.415C74.6565 229.802 76.704 229.984 78.1373 230.075C80.5664 230.117 82.9885 229.803 85.3265 229.143C87.283 228.665 89.1713 227.937 91.1279 227.368C91.9913 227.197 92.8425 226.969 93.676 226.686C93.9574 226.544 94.1973 226.332 94.3722 226.07C94.5472 225.809 94.6512 225.506 94.6741 225.192C94.6971 224.878 94.6381 224.563 94.503 224.279C94.3679 223.994 94.1613 223.749 93.9035 223.569C90.6956 220.679 84.9397 220.907 81.1176 222.09C79.9411 222.533 78.8002 223.065 77.705 223.682L76.704 224.229C76.249 224.479 75.794 225.139 76.4083 224.001Z" fill="#FFFE90"/>
</g>
<g style="mix-blend-mode:soft-light">
<path fill-rule="evenodd" clip-rule="evenodd" d="M299.569 255.192C299.341 255.374 297.931 256.238 297.794 256.83C297.749 257.253 297.749 257.68 297.794 258.104C297.831 258.916 298.056 259.708 298.45 260.419C298.845 261.129 299.399 261.739 300.069 262.199C301.263 263.038 302.574 263.698 303.96 264.155C304.31 264.341 304.701 264.438 305.097 264.438C305.494 264.438 305.884 264.341 306.235 264.155C308.988 262.54 305.621 259.105 304.301 257.762C303.55 256.989 302.481 254.896 301.116 255.169L299.569 255.192Z" fill="#FFFE90"/>
</g>
<g style="mix-blend-mode:soft-light">
<path fill-rule="evenodd" clip-rule="evenodd" d="M276.75 244.795C273.906 242.919 270.907 241.291 267.786 239.926C264.868 238.254 261.826 236.809 258.686 235.603C255.495 234.435 252.195 233.589 248.835 233.078C243.73 232.407 238.56 232.407 233.455 233.078C231.385 233.351 229.36 233.852 227.267 234.079C226.289 234.079 225.402 234.534 224.446 234.693C224.15 235.421 225.243 235.922 225.743 236.218C226.894 236.735 228.089 237.147 229.315 237.446C230.589 237.924 231.908 238.311 233.205 238.743C236.189 239.824 239.226 240.751 242.305 241.518C245.991 242.337 249.813 242.77 253.521 243.43C257.23 244.089 260.347 245.227 263.782 245.909C266.078 246.542 268.434 246.931 270.812 247.07C271.817 247.185 272.835 247.116 273.815 246.865C274.384 246.706 275.18 245.955 276.75 244.795Z" fill="#FFFE90"/>
</g>
<g style="mix-blend-mode:soft-light">
<path fill-rule="evenodd" clip-rule="evenodd" d="M224.219 231.235C222.899 231.472 221.61 231.853 220.374 232.373C219.666 232.77 218.897 233.046 218.099 233.192C216.19 233.556 214.229 233.556 212.32 233.192C211.752 233.192 203.561 232.259 206.246 230.007C208.002 228.799 210.099 228.185 212.229 228.255C214.512 228.158 216.799 228.295 219.054 228.664C220.055 228.795 221.03 229.079 221.944 229.506C222.217 229.643 222.467 229.665 222.535 230.007C222.604 230.348 222.513 230.644 224.219 231.235Z" fill="#FFFE90"/>
</g>
<g style="mix-blend-mode:soft-light">
<path fill-rule="evenodd" clip-rule="evenodd" d="M218.44 235.854C217.871 236.173 217.303 236.491 216.711 236.787C217.143 236.787 217.234 236.491 217.553 236.332C218.051 236.129 218.57 235.984 219.1 235.899C219.646 235.899 221.102 236.15 221.079 236.992C221.079 238.607 217.621 237.674 217.007 237.287L218.44 235.854Z" fill="#FFFE90"/>
</g>
<g style="mix-blend-mode:soft-light">
<path fill-rule="evenodd" clip-rule="evenodd" d="M171.392 226.321C169.913 226.026 168.457 225.798 167.024 225.457C164.998 225.089 162.931 225.005 160.881 225.207C158.462 225.246 156.062 225.645 153.76 226.39C153.078 226.64 152.054 226.913 151.781 227.686C151.053 229.643 154.056 230.576 155.262 230.94C158.315 231.761 161.452 232.235 164.612 232.35C166.023 232.35 167.456 232.35 168.867 232.35C170.303 232.585 171.763 232.638 173.212 232.509C174.303 232.381 175.374 232.114 176.397 231.713C177.102 231.44 177.83 231.349 178.035 230.553C178.536 228.733 176.807 227.459 175.373 226.799C173.599 226.071 171.597 225.138 171.392 226.321Z" fill="#FFFE90"/>
</g>
<g style="mix-blend-mode:soft-light">
<path fill-rule="evenodd" clip-rule="evenodd" d="M111.057 293.299C111.057 292.207 110.898 292.298 111.353 291.661C112.003 290.802 112.769 290.036 113.628 289.386C115.378 287.729 117.703 286.816 120.112 286.838C120.652 286.948 121.151 287.202 121.558 287.573C121.965 287.945 122.263 288.419 122.422 288.946C122.581 289.474 122.593 290.034 122.459 290.568C122.325 291.102 122.048 291.59 121.659 291.979C120.523 293.083 119.217 293.997 117.792 294.687C116.59 295.436 115.277 295.989 113.901 296.325C113.382 296.429 112.846 296.404 112.338 296.253C111.831 296.103 111.368 295.83 110.989 295.46C110.771 295.231 110.612 294.951 110.529 294.645C110.446 294.339 110.44 294.017 110.511 293.708C110.762 293.162 111.49 292.867 111.057 293.299Z" fill="#FFFE90"/>
</g>
<g style="mix-blend-mode:soft-light">
<path fill-rule="evenodd" clip-rule="evenodd" d="M307.054 209.281C304.351 207.061 301.048 205.699 297.567 205.368C296.566 205.186 290.741 204.14 291.492 206.551C291.924 207.962 294.04 208.826 295.2 209.349C297.043 210.282 298.886 211.078 300.774 211.875C304.528 213.467 308.259 215.06 311.945 216.789C313.344 217.565 314.796 218.241 316.29 218.814C316.95 219.018 317.564 219.291 318.065 218.677C318.998 217.494 317.564 215.993 316.814 215.06C315.406 213.365 313.633 212.011 311.626 211.101C310.345 210.591 309.105 209.983 307.918 209.281C307.099 208.69 306.303 208.53 307.054 209.281Z" fill="#FFFE90"/>
</g>
<g style="mix-blend-mode:soft-light">
<path fill-rule="evenodd" clip-rule="evenodd" d="M323.798 220.839H324.048C324.048 219.861 326.096 219.224 326.869 219.155C327.679 219.076 328.494 219.076 329.303 219.155C329.76 219.273 330.187 219.486 330.555 219.78C330.924 220.074 331.226 220.443 331.442 220.862C332.375 222.295 332.784 224.752 330.395 224.274C328.152 224.037 326.092 222.926 324.662 221.18L323.798 220.839Z" fill="#FFFE90"/>
</g>
<g style="mix-blend-mode:soft-light">
<path fill-rule="evenodd" clip-rule="evenodd" d="M335.651 227.482C336.973 229.134 338.686 230.432 340.634 231.258C341.311 231.556 342.049 231.69 342.788 231.65C343.527 231.611 344.246 231.399 344.888 231.031C346.594 229.507 345.662 226.481 344.433 225.025C343.325 223.921 341.931 223.148 340.409 222.79C338.886 222.433 337.294 222.505 335.811 223C335.128 223.227 334.241 223.478 333.922 224.183C333.814 224.604 333.81 225.046 333.909 225.47C334.008 225.893 334.208 226.287 334.491 226.617L335.651 227.482Z" fill="#FFFE90"/>
</g>
<g style="mix-blend-mode:soft-light">
<path fill-rule="evenodd" clip-rule="evenodd" d="M350.94 232.099C350.667 231.803 348.665 229.824 350.052 229.483C351.076 229.21 351.872 230.234 352.532 230.78C353.192 231.326 353.92 231.553 353.329 232.168C352.737 232.782 351.804 232.372 351.235 232.372L350.94 232.099Z" fill="#FFFE90"/>
</g>
<g style="mix-blend-mode:soft-light">
<path fill-rule="evenodd" clip-rule="evenodd" d="M251.793 312.478C251.52 313.001 251.497 312.956 251.588 313.342C251.692 313.703 251.845 314.047 252.043 314.366C252.693 315.202 253.558 315.847 254.545 316.232C255.478 316.664 256.456 317.005 257.412 317.392C258.368 317.779 259.278 318.37 260.233 318.825C261.505 319.407 262.821 319.887 264.169 320.259C265.5 320.743 266.92 320.937 268.332 320.827C268.833 320.827 269.766 320.577 269.97 320.008C270.175 319.44 269.538 318.484 269.015 318.143C268.653 317.932 268.272 317.757 267.877 317.62C267.377 317.392 266.876 317.096 266.353 316.891C265.303 316.415 264.224 316.005 263.122 315.663C261.313 315.361 259.542 314.857 257.844 314.161C256.985 313.53 256.053 313.003 255.069 312.592C254.019 312.192 252.867 312.152 251.793 312.478Z" fill="#FFFE90"/>
</g>
<g style="mix-blend-mode:soft-light">
<path fill-rule="evenodd" clip-rule="evenodd" d="M266.216 322.738C266.057 322.374 265.875 322.261 266.216 322.056C266.558 321.851 266.876 321.874 267.149 321.874C267.698 321.783 268.253 321.737 268.81 321.737C269.144 321.796 269.472 321.888 269.788 322.01C270.285 322.168 270.765 322.374 271.221 322.625C271.287 322.66 271.345 322.709 271.392 322.767C271.44 322.825 271.475 322.892 271.496 322.964C271.517 323.036 271.524 323.111 271.516 323.186C271.508 323.26 271.485 323.332 271.449 323.398C271.085 324.103 269.561 323.944 268.969 323.808C268.412 323.709 267.864 323.565 267.331 323.375C267.035 323.239 266.375 323.125 266.171 322.875L266.216 322.738Z" fill="#FFFE90"/>
</g>
<g style="mix-blend-mode:soft-light">
<path fill-rule="evenodd" clip-rule="evenodd" d="M280.936 321.145C280.936 321.418 280.709 321.759 280.936 322.032C281.164 322.305 281.437 322.556 281.619 322.76C282.397 323.627 283.321 324.351 284.349 324.899C284.804 325.126 285.213 325.422 285.668 325.604C286.123 325.786 286.601 325.854 287.056 325.991C287.511 326.127 287.966 326.355 288.444 326.491C289.064 326.636 289.672 326.826 290.264 327.06C292.483 328.149 294.818 328.981 297.225 329.54C298.231 329.835 299.292 329.882 300.32 329.677C300.843 329.495 301.366 329.29 301.184 328.653C300.892 327.88 300.336 327.235 299.614 326.833C298.664 326.251 297.667 325.749 296.634 325.331C295.314 324.717 293.972 324.148 292.63 323.602C291.288 323.056 290.105 322.669 288.853 322.169C286.941 321.368 284.951 320.766 282.915 320.372C281.846 320.167 280.868 320.167 280.936 321.145Z" fill="#FFFE90"/>
</g>
<g style="mix-blend-mode:soft-light">
<path fill-rule="evenodd" clip-rule="evenodd" d="M289.308 314.935C289.755 314.571 290.314 314.373 290.89 314.373C291.466 314.373 292.024 314.571 292.471 314.935C292.858 315.277 293.153 315.641 292.63 315.982C291.72 316.551 289.559 316.437 289.013 315.39L289.308 314.935Z" fill="#FFFE90"/>
</g>
<g style="mix-blend-mode:soft-light">
<path fill-rule="evenodd" clip-rule="evenodd" d="M322.661 278.852C322.047 278.852 320.249 278.648 319.635 279.307C319.453 279.502 319.351 279.758 319.351 280.024C319.351 280.29 319.453 280.547 319.635 280.741C320.605 281.488 321.721 282.023 322.911 282.311C324.549 282.97 326.255 283.403 327.871 284.131C329.486 284.859 331.442 285.609 333.172 286.406C334.901 287.202 336.129 287.953 337.54 288.863C338.179 289.277 338.839 289.657 339.519 290C340.129 290.355 340.778 290.637 341.453 290.842C341.977 291.02 342.533 291.087 343.085 291.04C343.637 290.993 344.173 290.833 344.661 290.569C346.208 289.386 344.092 286.61 343.182 285.723C342.069 284.598 340.787 283.654 339.382 282.925C337.852 282.246 336.269 281.691 334.65 281.264C333.308 280.855 332.011 280.422 330.714 279.945C329.655 279.547 328.567 279.228 327.461 278.989C326.255 278.739 325.027 278.557 323.798 278.397C322.57 278.238 321.819 278.557 322.661 278.852Z" fill="#FFFE90"/>
</g>
<g style="mix-blend-mode:soft-light">
<path fill-rule="evenodd" clip-rule="evenodd" d="M335.06 277.852C335.628 277.988 336.174 278.147 336.72 278.329C336.72 278.489 336.902 278.534 337.062 278.671C337.241 278.88 337.366 279.13 337.426 279.399C337.426 279.831 337.426 280.104 337.016 280.24C336.637 280.29 336.251 280.257 335.886 280.143C335.52 280.029 335.184 279.837 334.9 279.581C334.559 279.353 333.581 278.58 334.195 278.125L335.06 277.852Z" fill="#FFFE90"/>
</g>
<g style="mix-blend-mode:soft-light">
<path fill-rule="evenodd" clip-rule="evenodd" d="M183.222 66.4075C182.239 65.9974 181.218 65.6849 180.174 65.4747C179.628 65.4747 179.059 65.4747 178.513 65.4747C177.284 65.4747 176.033 65.4747 174.804 65.4747C172.984 65.6795 171.233 66.2255 169.435 66.5213C168.122 66.7699 166.824 67.0889 165.545 67.4768C162.814 67.9692 160.139 68.7313 157.559 69.7518C156.513 70.2524 153.965 71.4354 153.828 72.7549C153.828 73.6877 154.716 73.7332 155.489 73.847C157.67 74.12 159.867 74.234 162.064 74.1882C165.841 74.1882 169.572 73.3464 173.439 73.0734C175.714 72.9142 177.989 72.8459 180.06 72.7549C182.13 72.6639 184.132 72.4592 186.293 72.1862C187.954 72.0042 189.615 71.9587 191.276 71.7766C192.937 71.5946 194.961 71.0714 196.827 70.7529C199.214 70.3845 201.522 69.6153 203.652 68.4778C204.585 67.9546 205.358 67.363 204.63 66.2028C203.902 65.0425 202.173 65.0425 200.945 65.0425C196.281 65.0425 191.663 65.3382 186.976 65.3382C185.998 65.5202 180.424 65.2017 183.222 66.4075Z" fill="#FFFE90"/>
</g>
<g style="mix-blend-mode:soft-light">
<path fill-rule="evenodd" clip-rule="evenodd" d="M195.053 62.3577C197.25 61.1251 199.812 60.7062 202.287 61.1747C202.947 61.3794 204.562 62.0847 203.675 62.8582C203.178 63.1611 202.593 63.2892 202.014 63.2222C201.15 63.2222 200.24 63.2222 199.375 63.2222C197.919 63.2222 196.509 62.517 195.053 62.335V62.3577Z" fill="#FFFE90"/>
</g>
<g style="mix-blend-mode:soft-light">
<path fill-rule="evenodd" clip-rule="evenodd" d="M208.339 68.7049C209.49 68.3562 210.686 68.1798 211.888 68.1817C212.355 68.2729 212.813 68.4101 213.253 68.5912C214.09 68.8452 214.865 69.2714 215.528 69.8424C216.666 70.98 215.915 71.435 214.777 71.89C213.406 72.311 211.951 72.3814 210.546 72.0947C209.94 72.009 209.355 71.8164 208.817 71.526C208.544 71.3895 207.429 70.1609 208.316 70.1382L208.339 68.7049Z" fill="#FFFE90"/>
</g>
<g style="mix-blend-mode:soft-light">
<path fill-rule="evenodd" clip-rule="evenodd" d="M281.96 78.5106C279.685 78.9201 277.728 79.2386 275.589 79.8301C274.64 80.1063 273.675 80.3266 272.7 80.4899C271.631 80.6491 270.539 80.4899 269.447 80.6036C268.513 80.7481 267.57 80.8241 266.626 80.8311C266.013 80.7741 265.396 80.7741 264.783 80.8311C264.169 80.8311 263.259 81.1496 263.486 81.9459C263.714 82.7422 266.353 83.6977 267.217 83.9935C268.787 84.5395 270.425 85.0855 272.018 85.5405C273.649 85.9046 275.308 86.1329 276.977 86.223C277.728 86.223 278.456 86.223 279.252 86.223C280.049 86.223 281.095 86.5188 282.028 86.6325C284.758 86.9738 295.678 88.2933 292.698 82.5374C292.191 81.4508 291.406 80.517 290.423 79.8301C289.393 79.1595 288.253 78.6745 287.056 78.3968C285.667 78.037 284.22 77.9596 282.801 78.1693C280.526 78.5788 278.57 79.5343 281.96 78.5106Z" fill="#FFFE90"/>
</g>
<g style="mix-blend-mode:soft-light">
<path fill-rule="evenodd" clip-rule="evenodd" d="M332.466 102.49C332.541 103.498 332.815 104.482 333.272 105.384C333.729 106.286 334.36 107.088 335.128 107.746C336.609 109.688 338.591 111.19 340.861 112.091C341.976 112.478 343.637 113.115 344.547 111.886C345.457 110.658 344.547 108.724 343.728 107.814C342.625 106.834 341.353 106.063 339.974 105.539C338.609 104.856 337.494 103.992 336.175 103.264C335.153 102.563 334.053 101.983 332.898 101.535C331.897 101.102 331.647 101.762 332.466 102.49Z" fill="#FFFE90"/>
</g>
<g style="mix-blend-mode:soft-light">
<path fill-rule="evenodd" clip-rule="evenodd" d="M83.0512 84.0159C81.8452 84.5174 80.774 85.2956 79.9243 86.2876C79.0746 87.2796 78.4701 88.4576 78.1598 89.7263C77.9323 91.8876 79.9344 92.6611 81.7317 92.9114C83.1167 92.9642 84.5037 92.8804 85.8723 92.6611C86.9509 92.5611 88.0223 92.3939 89.0801 92.1606C90.1711 92.0574 91.2278 91.7243 92.1807 91.1832C93.1336 90.642 93.961 89.9051 94.6085 89.0211C95.1401 88.3267 95.4486 87.4875 95.4932 86.6142C95.5379 85.7409 95.3167 84.8746 94.8588 84.1297C93.56 82.6708 91.7353 81.7871 89.7854 81.6726C88.0523 81.6317 86.3283 81.9332 84.712 82.5599C83.9719 82.7937 83.2897 83.1814 82.71 83.6974C82.3004 84.0614 80.9582 84.744 83.0512 84.0159Z" fill="#FFFE90"/>
</g>
<g style="mix-blend-mode:soft-light">
<path fill-rule="evenodd" clip-rule="evenodd" d="M89.9904 75.3481C89.6719 76.0079 89.0576 76.8497 89.5809 77.6232C90.1042 78.3967 91.2644 78.0327 91.9925 78.0327C93.1755 78.0327 96.1103 77.5549 96.0648 75.7576C96.0648 73.4826 89.6719 74.2333 89.6947 75.8941L89.9904 75.3481Z" fill="#FFFE90"/>
</g>
<g style="mix-blend-mode:soft-light">
<path fill-rule="evenodd" clip-rule="evenodd" d="M33.114 107.973C34.7421 106.403 36.5889 105.077 38.5969 104.037C42.0986 102.074 45.8269 100.546 49.6991 99.4866C52.5658 98.5422 55.6597 98.5422 58.5264 99.4866C59.5047 99.9416 61.0744 100.738 60.8014 102.035C60.5284 103.331 59.3454 104.059 58.5264 104.697C57.2114 105.62 55.7908 106.384 54.2948 106.972C53.0435 107.495 51.7239 108.018 50.4272 108.428C48.9676 108.977 47.5397 109.608 46.1501 110.316C44.4297 111.066 42.7512 111.909 41.1222 112.841C39.1714 113.777 37.2727 114.817 35.4345 115.958C34.3497 116.837 33.1754 117.6 31.9309 118.233C31.2987 118.534 30.6231 118.733 29.9289 118.825C29.5415 118.703 29.1968 118.474 28.9349 118.164C28.6731 117.853 28.5049 117.475 28.4501 117.073C28.3152 115.581 28.6749 114.086 29.4739 112.818C31.1574 109.656 33.8647 105.857 33.114 107.973Z" fill="#FFFE90"/>
</g>
<g style="mix-blend-mode:soft-light">
<path fill-rule="evenodd" clip-rule="evenodd" d="M31.5894 121.828C30.3986 122.502 29.3605 123.416 28.5409 124.512C28.1541 125.058 27.5171 126.378 28.0176 127.06C28.5181 127.743 30.8614 127.197 31.7032 127.06C32.4722 126.968 33.2329 126.816 33.9783 126.605C34.7063 126.355 35.3205 125.991 36.0486 125.741C36.7766 125.491 37.9824 125.058 38.3236 124.012C38.6649 122.965 38.0051 122.419 37.2998 121.737C36.5703 121.131 35.6547 120.793 34.7063 120.781C33.6598 120.781 31.4757 121.032 31.1572 122.237L31.5894 121.828Z" fill="#FFFE90"/>
</g>
<g style="mix-blend-mode:soft-light">
<path fill-rule="evenodd" clip-rule="evenodd" d="M87.67 122.1C88.1706 122.783 88.4891 123.283 89.3763 123.283C90.0557 123.242 90.7277 123.119 91.3784 122.919C92.0837 122.737 93.6534 121.964 93.2212 120.94C92.9709 120.417 92.0154 120.371 91.4921 120.371C90.9689 120.371 90.0816 120.121 89.3308 120.076C88.5801 120.03 86.6235 120.531 86.5098 121.532L87.67 122.1Z" fill="#FFFE90"/>
</g>
<g style="mix-blend-mode:soft-light">
<path fill-rule="evenodd" clip-rule="evenodd" d="M65.7153 172.925C66.6071 172.046 67.6793 171.37 68.8578 170.946C70.0362 170.522 71.2928 170.359 72.5405 170.468C72.9955 170.468 73.6098 170.468 73.7918 171.06C73.9738 171.651 73.6098 171.833 73.2458 172.038C72.4939 172.395 71.6855 172.618 70.857 172.698C70.2427 172.698 69.6739 173.039 69.0597 173.175C68.4454 173.312 67.8311 172.811 67.1714 172.925H65.7153Z" fill="#FFFE90"/>
</g>
<g style="mix-blend-mode:soft-light">
<path fill-rule="evenodd" clip-rule="evenodd" d="M28.4955 301.375C30.995 297.698 34.3941 294.722 38.3692 292.73C40.303 291.866 44.5119 291.342 45.8769 293.39C47.242 295.437 46.0589 297.94 45.2854 299.646C44.4038 301.228 43.4157 302.748 42.3278 304.196C41.8608 305.187 41.2557 306.106 40.5305 306.926C37.8232 309.361 33.2959 311.75 29.633 310.112C28.8437 309.666 28.2055 308.995 27.8002 308.184C27.3949 307.373 27.2409 306.46 27.358 305.561C27.3611 304.43 27.6206 303.314 28.1171 302.297C28.6136 301.281 29.3342 300.39 30.2245 299.692L28.4955 301.375Z" fill="#FFFE90"/>
</g>
<g style="mix-blend-mode:soft-light">
<path fill-rule="evenodd" clip-rule="evenodd" d="M53.908 286.928C53.2643 287.523 52.8597 288.332 52.7705 289.203C53.4457 289.719 54.2386 290.058 55.0777 290.191C55.9167 290.324 56.7756 290.245 57.5769 289.963C58.3782 289.681 59.0966 289.204 59.6675 288.575C60.2384 287.946 60.6437 287.184 60.847 286.36C61.0517 284.767 60.2554 284.085 59.0952 283.448C57.9349 282.811 56.7064 283.266 55.6371 284.608L53.908 286.928Z" fill="#FFFE90"/>
</g>
</g>
<defs>
<radialGradient id="paint0_radial_187_1303" cx="0" cy="0" r="1" gradientUnits="userSpaceOnUse" gradientTransform="translate(153.692 131.542) scale(268.32)">
<stop stop-color="#FF5731"/>
<stop offset="0.7" stop-color="#BA005E"/>
<stop offset="0.95" stop-color="#5E1377"/>
<stop offset="1" stop-color="#8160FF"/>
</radialGradient>
</defs>
</svg>
