<svg width="384" height="384" viewBox="0 0 384 384" fill="none" xmlns="http://www.w3.org/2000/svg">
<path fill-rule="evenodd" clip-rule="evenodd" d="M383.7 191.667C383.692 223.908 375.544 255.626 360.013 283.881C344.482 312.135 322.069 336.012 294.852 353.297C267.636 370.583 236.496 380.718 204.319 382.764C172.143 384.81 139.97 378.7 110.783 365C105.917 362.711 101.156 360.222 96.5001 357.533C71.1847 342.849 49.5302 322.614 33.1667 298.35C27.2298 289.537 22.0502 280.237 17.6834 270.55C6.4841 245.736 0.692139 218.824 0.692139 191.6C0.692139 164.376 6.4841 137.464 17.6834 112.65C21.1675 104.956 25.1654 97.5063 29.65 90.3499C39.2759 74.8969 51.0618 60.8997 64.65 48.7832C95.6065 21.1128 134.726 4.26617 176.1 0.787475C217.475 -2.69122 258.858 7.38688 294 29.4998C297.333 31.5998 300.6 33.8221 303.8 36.1665C306.483 38.0832 309.1 40.0832 311.667 42.1332C331.313 57.8282 347.675 77.2401 359.817 99.2599C371.959 121.28 379.644 145.476 382.433 170.467C383.252 177.504 383.675 184.582 383.7 191.667Z" fill="url(#paint0_radial_199_5692)"/>
<g style="mix-blend-mode:multiply" opacity="0.5">
<g style="mix-blend-mode:multiply" opacity="0.5">
<path fill-rule="evenodd" clip-rule="evenodd" d="M382.517 170.466C381.858 171.691 381.3 172.967 380.85 174.283C380.133 176.201 379.229 178.043 378.15 179.783C377.024 182.055 376.023 184.386 375.15 186.766C372.933 191.916 371.3 197.533 369.433 202.833C367.383 208.75 365.433 214.633 362.9 220.383C361.783 222.966 360.117 225.283 358.933 227.85C357.828 230.394 356.593 232.881 355.233 235.3C351.75 241.3 348.567 247.416 344.9 253.316C338.233 263.933 330.25 273.316 322.5 283.166C318.443 287.993 314.096 292.568 309.483 296.866C304.483 301.866 299.967 307.483 294.733 312.383C290.73 316.331 286.404 319.938 281.8 323.166C279.15 324.916 276.617 326.866 273.967 328.583C270.633 330.783 266.617 332.016 263.017 333.8C251.017 339.566 238.167 343.166 225.55 347.233C212.933 351.3 201.267 356.583 188.633 359.733C186.05 360.383 183.433 360.633 180.8 361.166C178.167 361.7 175.233 362.55 172.333 362.833C166.533 363.483 160.917 365.416 155.067 365.733C150.983 365.933 147.167 365.133 143.167 364.95C138.041 364.855 132.915 365.078 127.817 365.616C122.148 365.983 116.457 365.765 110.833 364.966C105.967 362.677 101.205 360.189 96.5499 357.5L97.0833 357.683C100.417 358.75 103.5 360.666 106.867 361.45C110.233 362.233 114.15 362.866 117.85 363.483C122.7 364.291 127.65 364.291 132.5 363.483C135.083 363.05 137.7 362.75 140.3 362.216C142.9 361.683 145.967 362.35 148.783 361.7C152.7 360.783 157.117 361.5 161.033 361.366C167.9 361.133 174.667 358.6 181.317 357.25C188.7 355.766 195.717 353.083 203.233 352.25C207.219 351.557 211.127 350.474 214.9 349.016C218.074 347.834 220.998 346.065 223.517 343.8C229.1 339.633 234.733 335.35 241.233 332.65C247.749 329.991 254.517 327.997 261.433 326.7C267.39 325.547 272.958 322.904 277.617 319.016C279.517 317.35 281.35 315.483 283.25 313.733C285.672 311.73 287.976 309.587 290.15 307.316C292.517 304.616 295.15 302.133 297.55 299.433C300.15 296.416 302.25 293.033 304.817 290.016C308.9 285.2 315.133 282.7 319.167 277.8C320 276.783 320.567 275.533 321.45 274.55C322.333 273.566 323.333 273 323.9 271.683C324.567 270.016 326.233 266.35 325.333 264.55C323.533 260.916 313.983 270.266 312.45 271.733C310.327 274.067 307.925 276.133 305.3 277.883C303.62 278.928 301.872 279.858 300.067 280.666C297.017 281.9 293.5 282.05 290.283 282.716C281.35 284.633 272.25 285.683 263.233 287.083C251.05 288.983 238.7 291.55 226.7 294.466C215.467 297.2 204.333 300.366 193.1 303.033C187.117 304.466 181.15 305.966 175.15 307.283C167.833 308.95 160.65 311.183 153.283 312.583C141.233 314.916 129.017 317.583 116.7 317.933C107 318.183 97.3999 318.7 87.7166 318.7C74.6333 318.7 60.6333 320.016 47.8166 317.033L47.3499 316.9C42.2495 311.022 37.5129 304.838 33.1666 298.383C37.852 300.487 42.7693 302.031 47.8166 302.983C51.5796 303.408 55.2006 304.667 58.4166 306.666C60.3147 308.203 62.455 309.414 64.75 310.25C72.5853 312.808 81.0313 312.808 88.8666 310.25C91.9999 309.316 95.0833 308.366 98.1666 307.35C100.45 306.583 102.533 305.233 104.833 304.616C111.283 302.95 117.95 301.716 124.467 300.216C127.567 299.516 130.8 298.933 133.85 298C137.283 296.933 140.517 295.183 143.85 293.833C150.167 291.233 156.017 288.566 162.783 287.4C167.033 286.7 171.967 286.166 175.85 284.2C177.117 283.583 179.017 282.7 178.817 281.016C178.583 278.933 175.85 279.483 174.367 279.75C170 280.5 165.55 280.9 161.2 282.05C153.563 284.033 145.746 285.245 137.867 285.666C125.922 286.655 113.929 286.944 101.95 286.533C92.4833 286.05 82.9666 285.216 73.4999 285.3C64.441 285.593 55.3961 284.382 46.7333 281.716C36.8999 278.383 26.8999 275.516 17.8333 270.533C6.634 245.719 0.842041 218.807 0.842041 191.583C0.842041 164.359 6.634 137.447 17.8333 112.633C16.5666 116.133 15.4999 119.7 14.0333 123.083C11.0397 129.599 9.42265 136.663 9.28328 143.833C9.4802 146.607 9.4802 149.392 9.28328 152.166C8.61837 155.275 8.70407 158.497 9.53328 161.566C10.0682 164.179 10.7809 166.751 11.6666 169.266C12.0481 170.057 12.5673 170.774 13.1999 171.383C13.7514 172.181 14.247 173.017 14.6833 173.883C16.2333 176.416 18.4666 179.8 21.1333 181.266C22.9239 182.145 24.7932 182.854 26.7166 183.383C27.5677 183.746 28.4832 183.933 29.4083 183.933C30.3334 183.933 31.2489 183.746 32.0999 183.383C33.9216 182.646 35.8325 182.153 37.7833 181.916C38.8562 182.031 39.9129 182.265 40.9333 182.616C42.2999 182.85 43.6166 182.733 44.9999 183.016C50.5023 184.516 56.153 185.404 61.8499 185.666C66.3833 185.666 70.8333 186.383 75.4333 186.383C80.9227 186.559 86.4178 186.375 91.8833 185.833C95.5666 185.366 99.5499 184.433 103.233 184.166C106.917 183.9 110.867 184.283 114.633 184.166C127.948 184.108 141.03 180.667 152.65 174.166C158.719 170.577 165.222 167.777 172 165.833C180.733 163.333 189.667 160.833 198.667 159.166C206.973 157.543 215.054 154.925 222.733 151.366C226.124 149.751 229.374 147.856 232.45 145.7C235.267 143.783 238.333 142.366 241.067 140.316C248.784 134.34 256.028 127.776 262.733 120.683C266.683 116.733 270.683 112.766 274.8 109.016C278.038 106.193 281.965 104.278 286.183 103.466C293.133 101.8 297.017 93.983 300.767 88.3664C305.5 81.2997 309.417 73.183 309.667 64.483C309.779 60.8974 309.505 57.3101 308.85 53.783C308.61 52.1996 308.167 50.6537 307.533 49.183C306.983 48.2908 306.519 47.3475 306.15 46.3664C305.95 45.5164 305.917 44.6997 305.75 43.883C305.583 43.0664 305.2 42.3664 305.017 41.7497C304.403 39.9115 304.033 38.0008 303.917 36.0664V35.9497C306.6 37.8664 309.217 39.8664 311.783 41.9164C311.85 42.6649 311.85 43.4178 311.783 44.1664C311.617 45.0664 311.3 45.833 311.133 46.733C310.76 47.8844 310.525 49.0761 310.433 50.283C310.365 51.7357 310.477 53.1912 310.767 54.6164C311.7 58.1664 314 61.4664 313.983 65.2164C313.874 69.0252 313.031 72.7771 311.5 76.2664C310.15 79.5997 308.683 82.7664 307.05 85.9997C305.981 88.2305 304.697 90.3517 303.217 92.333C301.775 94.0775 300.466 95.9271 299.3 97.8664C298.455 99.4196 297.693 101.016 297.017 102.65C295.783 105.616 293.783 107.166 291.517 109.316C286.9 113.766 281.133 117.383 276.167 121.666C272.09 125.048 268.396 128.865 265.15 133.05C263.75 134.983 256.533 140.616 258.483 143.583C259.35 144.866 262.083 144.45 263.333 144.45C266.16 144.428 268.95 143.803 271.517 142.616C278.533 139.433 285.517 135.666 292.9 133.466C296.295 132.713 299.636 131.733 302.9 130.533C306.731 128.754 310.439 126.722 314 124.45C316.522 122.692 318.73 120.523 320.533 118.033C321.717 116.616 323.383 115.833 324.683 114.533C325.979 112.913 327.371 111.371 328.85 109.916C333.007 106.593 336.637 102.659 339.617 98.2497C342.35 94.283 343.35 89.3664 344.517 84.9164C344.9 83.7633 345.162 82.5736 345.3 81.3664C345.3 79.833 345.3 78.2664 345.3 76.7497V76.483C365.96 103.878 378.82 136.354 382.517 170.466Z" fill="#C4B0B8"/>
</g>
<g style="mix-blend-mode:multiply" opacity="0.5">
<path fill-rule="evenodd" clip-rule="evenodd" d="M295.25 45.6663C294.517 49.9996 294.117 54.2829 293.25 58.6163C292.383 62.9496 292.167 67.7829 290.433 71.7829C287.467 78.6829 286.533 86.3329 281.867 92.4329C280.115 95.1554 278.081 97.6859 275.8 99.9829C274.836 100.62 273.821 101.177 272.767 101.65C271.783 102.3 270.733 103.316 269.783 104C264.576 107.563 259.64 111.507 255.017 115.8C250.46 120.604 245.435 124.942 240.017 128.75C238.35 129.85 236.55 130.65 234.8 131.6C233.478 132.492 232.097 133.294 230.667 134C228.896 134.547 227.212 135.344 225.667 136.366C224.299 137.376 222.816 138.221 221.25 138.883C218.533 139.95 215.917 141.216 213.217 142.216C211.983 142.716 210.683 143 209.417 143.45C205.833 144.8 203.217 144.683 198.617 145.116C197.167 144.466 198.4 144.416 199.55 143.883C200.292 143.546 200.947 143.044 201.467 142.416C202.491 141.329 203.606 140.331 204.8 139.433C206.833 137.966 209.5 137.233 211.683 135.916C214.467 134.25 217.233 132.05 219.933 130.166C222.037 128.341 223.957 126.315 225.667 124.116C227.7 121.983 230.15 120.066 232.333 118.066C234.933 115.75 237.15 113.066 239.783 110.85C242.499 108.527 244.736 105.696 246.367 102.516C247.1 101.166 248.283 100.183 249.05 98.7996C249.842 97.5513 250.555 96.2543 251.183 94.9163C251.833 93.2496 252.683 91.8163 253.383 90.2663C253.969 88.3673 254.355 86.4122 254.533 84.4329C255.717 78.7996 256.85 73.0996 257.867 67.4496C258.595 62.6284 258.957 57.7589 258.95 52.8829C259.117 48.2663 260.417 43.7496 260.433 39.0829C260.586 37.3874 260.358 35.6793 259.767 34.0829C258.767 31.8829 257.683 29.9663 256.883 27.6829C254.488 20.6511 250.034 14.5017 244.1 10.0329C243.2 9.38294 240.35 7.66628 237.533 5.59961C257.524 10.4594 276.595 18.5309 294 29.4996C295.589 34.7331 296.016 40.2507 295.25 45.6663Z" fill="#C4B0B8"/>
</g>
<g style="mix-blend-mode:multiply" opacity="0.5">
<path fill-rule="evenodd" clip-rule="evenodd" d="M239.75 45.9663C239.317 48.3997 237.867 50.233 237.183 52.533C236.437 55.1564 235.88 57.8299 235.517 60.533C234.95 64.6497 235.317 68.733 234.85 72.883C233.802 80.6888 231.458 88.2651 227.917 95.2997C224.2 102.24 218.759 108.106 212.117 112.333C205.343 116.699 198.218 120.495 190.817 123.683C186.667 125.566 182.3 126.366 178.083 127.966C174.533 129.283 171.033 130.816 167.517 132.2C164 133.583 160.85 135.933 157.317 137.066C155.15 137.766 153.017 138.5 150.833 139.3C147.117 140.616 143.75 142.633 140.1 144.133C134.977 146.356 129.66 148.103 124.217 149.35C118.833 150.616 113.633 149.8 108.217 149.116C103.667 148.711 99.1436 148.054 94.6666 147.15C86.4666 145.2 77.6499 145.75 69.2832 145.75C62.9499 145.75 55.6166 146.366 50.0166 142.933C48.2722 142.11 46.7728 140.846 45.6666 139.266C44.8082 137.039 44.2478 134.707 43.9999 132.333C43.0166 127.683 38.5999 124.533 35.6666 121.133C31.7166 116.666 30.2166 111.033 29.4332 105.3C28.6783 100.351 28.7911 95.3093 29.7666 90.3997C39.3924 74.9467 51.1783 60.9495 64.7666 48.833C61.5499 54.933 59.1332 61.383 56.3166 67.6497C52.0666 77.0663 48.3166 87.3163 48.6832 97.833C48.8166 101.95 49.1666 106.566 51.3666 110.133C53.2165 112.809 55.6794 115.003 58.5499 116.533C62.8705 119.396 67.4322 121.878 72.1832 123.95C77.5499 126 82.9332 127.966 88.2832 130.033C91.3301 131.398 94.5313 132.388 97.8166 132.983C101.969 133.322 106.141 133.361 110.3 133.1C125.017 132.7 138.633 125.8 152.483 121.633C156.95 120.283 161.567 119.666 165.95 118.2C168.591 117.231 171.154 116.061 173.617 114.7C179.783 111.516 186.517 109.133 192.3 105.15C198.066 101.154 203.273 96.4061 207.783 91.033C210.887 87.0869 213.155 82.5504 214.45 77.6997C217.484 67.9574 219.33 57.8845 219.95 47.6997C220.333 43.283 221.867 39.3663 222.9 35.0497C223.32 33.6333 223.357 32.1306 223.005 30.6956C222.654 29.2606 221.927 27.9447 220.9 26.883C216.333 22.8497 209.6 20.3497 203.767 18.933C200.332 17.8505 196.778 17.1901 193.183 16.9663C189.583 16.9663 186 16.9663 182.4 16.9663C178.8 16.9663 175.55 16.1997 172.083 16.1997C168 16.1997 164.2 17.3497 160.167 17.6663C155.941 17.9691 151.735 18.4976 147.567 19.2497C142.663 20.3853 137.832 21.8157 133.1 23.533C123.55 26.3547 114.585 30.871 106.633 36.8663C104.667 38.383 102.533 39.5997 100.467 40.9497C98.9411 42.1169 97.7086 43.6233 96.8666 45.3497C94.5427 48.9228 92.8513 52.8693 91.8666 57.0163C91.2335 60.0224 91.0148 63.1009 91.2166 66.1663C91.1616 70.3155 90.7546 74.4526 89.9999 78.533C89.0499 84.283 83.4999 92.8163 89.5832 97.4163C90.4217 98.0284 91.3743 98.4661 92.3848 98.7037C93.3953 98.9413 94.4432 98.974 95.4666 98.7997C98.5733 98.2943 101.642 97.576 104.65 96.6497C113.067 94.283 121.9 91.4663 130.617 90.3663C133.226 90.2692 135.827 89.9964 138.4 89.5497C140.067 89.0997 141.583 88.5663 143.25 88.2663C147.214 87.2578 150.875 85.3018 153.917 82.5663C155.3 81.4163 156.433 79.9997 157.833 78.8497C159.75 77.183 162.067 76.233 163.9 74.533C166.517 72.1163 169.017 69.533 171.467 66.8997C176.467 61.6163 180.15 54.983 184.433 49.133C187.133 45.433 190.15 41.4163 190.883 36.8163C191.45 33.2663 187.1 31.383 184.467 30.2497C181.587 29.0302 178.436 28.5933 175.333 28.983C171.017 29.7497 167 32.3163 163.083 33.983C154.2 37.9663 144.367 38.9997 136.7 45.133C134 47.333 134 49.4997 133.183 52.5997C132.575 54.0823 131.851 55.5145 131.017 56.883C130.472 57.5817 130.119 58.4106 129.993 59.2877C129.868 60.1647 129.973 61.0594 130.3 61.883C130.867 64.083 131.433 67.1497 134 68.133C135.294 68.4756 136.644 68.5548 137.97 68.3658C139.295 68.1768 140.569 67.7236 141.717 67.033C142.798 66.1813 143.979 65.4649 145.233 64.8997C146.05 64.583 148.05 63.6497 148.833 63.933C150.25 64.4663 149.2 65.3497 148.617 66.1163C148.107 66.7837 147.681 67.5115 147.35 68.283C147.189 69.0578 146.901 69.801 146.5 70.483C144.25 73.033 139.833 74.333 136.65 75.483C133.917 76.433 131.85 77.5663 128.867 77.5997C124.833 77.5997 126.467 74.633 125.883 71.733C125.1 67.983 120.783 66.583 120.3 62.6997C120.04 58.6752 120.839 54.653 122.617 51.033C123.334 49.6042 124.17 48.2382 125.117 46.9497C126.733 44.8377 128.771 43.0841 131.1 41.7997C137.767 37.3663 146.1 35.2663 153.75 32.6997C161.4 30.133 169.633 29.683 177.083 26.9997C182.251 25.4608 187.535 24.346 192.883 23.6663C195.086 23.0908 197.422 23.31 199.479 24.2853C201.536 25.2607 203.184 26.9299 204.133 28.9997C206.283 33.7163 208.817 38.7997 207.317 43.9997C205.477 51.2503 202.727 58.2391 199.133 64.7997C194.483 72.7997 188.817 80.3497 180.417 84.7997C174.483 87.933 168.083 89.6663 161.833 92.0163C157.107 93.8714 152.204 95.2396 147.2 96.0997C139.4 97.283 132.2 101.9 124.617 103.816C114.11 106.437 103.473 108.506 92.7499 110.016C88.9763 110.693 85.1232 110.805 81.3166 110.35C79.5561 110.326 77.809 110.04 76.1332 109.5C74.9166 108.966 73.6832 108.4 72.4666 107.833C68.2999 106.033 64.2666 103.05 64.7499 97.9997C65.1999 93.233 66.9166 88.4497 67.8166 83.7663C68.4499 80.683 68.4999 77.5997 69.2666 74.4997C69.8166 72.133 70.3499 69.7163 70.9332 67.383C71.4435 65.3341 72.2701 63.3773 73.3832 61.583C75.6166 58.483 77.2999 54.9163 79.6666 51.883C80.6702 50.8018 81.5791 49.6364 82.3832 48.3997C82.9193 47.2557 83.609 46.1904 84.4332 45.233C85.3332 44.2163 85.9499 42.9497 86.9166 41.8997C88.8104 40.2562 90.8461 38.7838 92.9999 37.4997C97.5978 34.1223 102.529 31.2239 107.717 28.8497C112.717 26.6497 118.017 25.183 123.2 23.433C127.85 21.7663 132.167 19.2997 136.783 17.5163C142.024 15.5847 147.472 14.2703 153.017 13.5997C164.067 12.1241 175.201 11.3559 186.35 11.2997C200.333 11.2997 215.817 6.04966 229.083 12.733C232.472 14.2803 235.134 17.0738 236.517 20.533C238.843 26.1438 239.978 32.1769 239.85 38.2497C240.017 40.8206 239.983 43.4006 239.75 45.9663Z" fill="#C4B0B8"/>
</g>
</g>
<g style="mix-blend-mode:soft-light" opacity="0.63">
<g style="mix-blend-mode:soft-light" opacity="0.63">
<path fill-rule="evenodd" clip-rule="evenodd" d="M23.3501 106.133C24.3001 108.717 25.6001 110.967 26.4334 113.6C26.9539 115.487 27.7098 117.301 28.6834 119C29.7334 120.667 30.3501 122.633 31.3501 124.383C32.4857 126.28 33.3762 128.313 34.0001 130.433C34.4167 132.1 34.4834 133.767 34.9001 135.267C35.4667 137.317 36.0167 139.367 36.5667 141.4C36.9571 142.664 37.5178 143.87 38.2334 144.983C38.9294 146.439 39.871 147.764 41.0167 148.9C44.8001 151.55 50.2167 150.417 54.5667 149.95C58.5501 149.533 62.5501 149.5 66.5167 148.95C68.6083 148.714 70.7171 148.669 72.8167 148.817C74.8238 148.906 76.8226 149.129 78.8001 149.483C80.4668 149.833 82.1334 149.883 83.9001 150.15C86.3834 150.55 88.9001 151.183 91.3167 151.383C94.0834 151.617 96.9334 152.017 99.6501 152.067C103.633 152.067 107.667 151.733 111.633 152.167C115.093 152.657 118.575 152.974 122.067 153.117C126.647 152.942 131.161 151.96 135.4 150.217C142.417 147.667 149.667 145.567 156.717 143C159.271 141.9 161.73 140.59 164.067 139.083C166.217 137.833 168.533 137 170.617 135.617C174.54 133.189 178.871 131.495 183.4 130.617C187.833 129.633 192.117 128.017 196.517 126.983C199.433 126.3 202.3 124.8 205.217 124.417C204.667 126.717 199.633 127.55 197.833 128.2C193.667 129.7 189.133 130.517 185.1 132.333C182.467 133.517 180.6 135.8 178.533 137.717C176.831 139.57 174.974 141.276 172.983 142.817C170.828 144.299 168.387 145.315 165.817 145.8C160.167 146.933 154.633 148.967 148.967 150.217C143.353 151.293 137.872 152.969 132.617 155.217C131.167 155.867 126.95 157.55 126.767 159.617C126.633 161.283 128.65 160.683 129.817 160.683C132.35 160.683 135.683 160.067 138.05 161.067C139.747 161.913 141.522 162.594 143.35 163.1C147.669 163.84 152.109 163.378 156.183 161.767C161.743 159.774 167.472 158.29 173.3 157.333C177.25 156.583 181.083 155.45 184.967 154.617C187.993 154.08 191.048 153.723 194.117 153.55C198.567 153.117 203.033 152.6 207.45 151.883C211.107 151.542 214.697 150.689 218.117 149.35C220.817 148.033 223.95 147.2 226.333 145.35C226.967 144.85 230.55 141.75 231.333 142.467C233 143.967 223.167 149.617 222.467 150.067C219.272 152.092 215.87 153.769 212.317 155.067C207.806 156.681 203.182 157.963 198.483 158.9C193.133 160.233 187.783 161.333 182.45 162.7C177.117 164.067 171.55 164.733 166.267 166.517C163.584 167.351 160.966 168.382 158.433 169.6C156.133 170.783 153.683 171.567 151.4 172.783C146.5 175.417 141.883 179.117 136.533 180.833C131.939 182.435 127.173 183.498 122.333 184C115.932 184.239 109.522 183.893 103.183 182.967C96.717 182.208 90.2107 181.841 83.7001 181.867C77.6667 181.967 71.6501 183.233 65.6167 183.533C61.4667 183.717 58.1334 182.25 54.3334 180.833C50.1776 179.219 46.1915 177.198 42.4334 174.8C39.0742 172.692 35.1641 171.63 31.2001 171.75C30.3562 171.86 29.5247 172.05 28.7167 172.317C27.7594 172.388 26.8065 172.129 26.0167 171.583C22.2431 169.971 19.1327 167.12 17.2001 163.5C15.4761 159.55 14.3526 155.365 13.8667 151.083C13.6723 148.632 13.6444 146.171 13.7834 143.717C13.7834 140.383 13.1834 137.233 13.2167 133.95C13.2167 128.767 12.6334 123.267 14.2501 118.25C16.0959 113.524 18.6409 109.103 21.8001 105.133C23.4667 102.867 24.7834 100.45 26.4667 98.2666C27.0667 99.4499 25.6334 101.717 25.3501 102.933C24.9334 104.667 24.2667 107.883 23.3501 106.133Z" fill="#C4B0B8"/>
</g>
<g style="mix-blend-mode:soft-light" opacity="0.63">
<path fill-rule="evenodd" clip-rule="evenodd" d="M266.75 134.433C265.217 136.417 262.467 138.933 262.05 141.517C261.633 144.1 264.45 143.683 266.283 143.4C270.311 143.031 274.279 142.175 278.1 140.85C280.317 139.933 282.383 138.667 284.6 137.733C286.433 136.967 288.4 136.683 290.233 135.917C294.6 134.067 299.3 133.1 303.567 131.1C307.352 129.186 310.798 126.664 313.767 123.633C315.994 121.849 317.923 119.723 319.483 117.333C320.567 115.4 321.833 113.5 322.817 111.45C323.896 108.683 324.608 105.786 324.933 102.833C325.125 101.256 325.125 99.661 324.933 98.0834C324.45 94.4834 320.817 94.1501 317.75 94.5668C314.11 95.2972 310.766 97.0824 308.133 99.7001C305.45 102.017 303.133 104.7 300.167 106.65C296.833 108.7 293.5 110.767 290.267 112.983C288.522 114.084 286.897 115.364 285.417 116.8C284.2 118.05 283 119.383 281.683 120.533C280.316 121.673 278.861 122.704 277.333 123.617C276.1 124.383 274.967 125.467 273.7 126.133C272.05 126.963 270.537 128.042 269.217 129.333C268.26 130.16 267.434 131.127 266.767 132.2C265.667 134 265.95 136.467 266.75 134.433Z" fill="#C4B0B8"/>
</g>
<g style="mix-blend-mode:soft-light" opacity="0.63">
<path fill-rule="evenodd" clip-rule="evenodd" d="M310.517 82.1169C310.657 81.2955 311 80.5222 311.516 79.8673C312.031 79.2124 312.701 78.6966 313.467 78.3669C314.633 77.7502 315.5 77.5836 316.283 78.8836C317.8 81.3669 316.7 84.4002 315.717 86.8169C315 88.5669 312.183 90.3336 310.883 88.1169C310.017 86.6336 310.05 82.2169 312.117 81.5836L310.517 82.1169Z" fill="#C4B0B8"/>
</g>
<g style="mix-blend-mode:soft-light" opacity="0.63">
<path fill-rule="evenodd" clip-rule="evenodd" d="M150.383 156.317C151.35 154.483 151.6 154.283 153.3 153.633C154.403 153.081 155.593 152.72 156.817 152.567C158.333 152.417 159.983 151.6 161.5 152.15C163.85 152.983 163.4 155.05 161.817 156.517C161.183 157.198 160.367 157.683 159.467 157.917C158.241 158.237 156.983 158.416 155.717 158.45C153.708 158.709 151.67 158.318 149.9 157.333C149.857 157.143 149.882 156.944 149.97 156.771C150.058 156.597 150.205 156.46 150.383 156.383V156.317Z" fill="#C4B0B8"/>
</g>
<g style="mix-blend-mode:soft-light" opacity="0.63">
<path fill-rule="evenodd" clip-rule="evenodd" d="M60.6668 291.35C66.7943 293.474 73.2317 294.566 79.7168 294.583C87.3905 294.792 95.0699 294.558 102.717 293.883C107.817 293.4 112.85 293.533 117.917 292.8C120.383 292.45 122.717 292.567 125.167 292.45C126.567 292.45 128.05 291.55 129.433 291.983C134.767 293.65 125.283 296.683 124.217 297.217C120.367 299.117 116.05 299.783 111.967 300.967C110.3 301.433 108.783 301.883 107.233 302.417C105.807 303.059 104.343 303.615 102.85 304.083C96.5835 305.433 90.3001 306.05 84.0335 307.417C81.6788 308.029 79.2263 308.171 76.8168 307.833C74.3276 307.129 71.9449 306.092 69.7335 304.75C66.9497 303.513 64.2738 302.047 61.7335 300.367C60.44 299.472 59.2346 298.456 58.1335 297.333C57.6404 296.7 57.2933 295.966 57.1168 295.183C56.4835 293.517 56.5168 292.9 57.9001 291.717C58.4086 291.263 59.0254 290.948 59.691 290.802C60.3565 290.656 61.0485 290.684 61.7001 290.883C61.7168 291.05 61.7501 291.2 60.6668 291.35Z" fill="#C4B0B8"/>
</g>
<g style="mix-blend-mode:soft-light" opacity="0.63">
<path fill-rule="evenodd" clip-rule="evenodd" d="M223.15 354.333C219.968 355.231 216.944 356.614 214.183 358.433C212.983 359.283 211.5 360.733 213.283 361.767C215.667 363.217 219.567 362.45 222.15 362.217C226.617 361.817 231.017 361 235.483 360.417C238.483 360.017 241.45 359.7 244.433 359.1C248.304 358.223 252.116 357.11 255.85 355.767C258.629 354.887 261.284 353.655 263.75 352.1C266.383 350.608 268.912 348.937 271.317 347.1C274.383 344.517 278.417 342.517 279.65 338.4C280.65 334.983 273.233 336.217 271.817 336.4C266.301 337.207 260.884 338.581 255.65 340.5C253.4 341.3 250.967 341.9 248.783 342.883C245.85 344.183 243 345.75 239.983 346.917C238.55 347.467 237.3 348.367 235.85 348.883C234.4 349.4 233.3 349.783 232.033 350.3C230.767 350.817 229.217 351.517 227.783 351.967C224.4 353.183 221.133 354 223.15 354.333Z" fill="#C4B0B8"/>
</g>
<g style="mix-blend-mode:soft-light" opacity="0.63">
<path fill-rule="evenodd" clip-rule="evenodd" d="M282.233 329.433C282.865 327.819 283.947 326.419 285.35 325.4C286.264 324.228 287.542 323.395 288.983 323.033C290.117 322.867 291.883 324.183 291.433 325.5C291.002 326.234 290.481 326.911 289.883 327.517C289.365 328.31 288.669 328.972 287.85 329.45C286.194 330.199 284.321 330.317 282.583 329.783L282.233 329.433Z" fill="#C4B0B8"/>
</g>
<g style="mix-blend-mode:soft-light" opacity="0.63">
<path fill-rule="evenodd" clip-rule="evenodd" d="M301.433 284.583C300.143 285.35 298.788 286.002 297.383 286.533C296.283 286.777 295.17 286.961 294.05 287.083C290.717 287.6 287.383 287.817 284.133 288.15C279.917 288.567 275.8 289.15 271.517 289.483C264.1 290.033 256.283 290.683 249.167 292.967C243.19 294.882 237.404 297.348 231.883 300.333C226.982 302.867 222.323 305.846 217.967 309.233C216.547 310.436 215.206 311.728 213.95 313.1C213.035 313.952 212.273 314.956 211.7 316.067C211.524 316.419 211.422 316.804 211.4 317.197C211.379 317.59 211.439 317.984 211.577 318.353C211.715 318.722 211.927 319.059 212.2 319.342C212.474 319.626 212.803 319.85 213.167 320C215.567 321.534 218.467 321.667 221.217 322.05C225.283 322.6 229.333 323.117 233.383 323.717C237.573 324.402 241.795 324.864 246.033 325.1C250.428 325.496 254.857 324.991 259.05 323.617C261.99 322.576 264.838 321.293 267.567 319.783C270.233 318.25 272.883 316.75 275.417 315.017C277.288 313.906 279.065 312.647 280.733 311.25C281.433 310.6 282.133 310.017 282.867 309.4C284 308.45 284.817 307.233 285.983 306.267C288.534 304.117 290.832 301.685 292.833 299.017C294.383 296.967 296.267 295.217 297.833 293.167C298.814 292.198 299.626 291.071 300.233 289.833C300.84 288.137 301.243 286.375 301.433 284.583Z" fill="#C4B0B8"/>
</g>
<g style="mix-blend-mode:soft-light" opacity="0.63">
<path fill-rule="evenodd" clip-rule="evenodd" d="M310.333 278.55C311.009 277.26 311.945 276.125 313.083 275.217C314.002 274.093 315.135 273.164 316.417 272.483C316.724 272.353 317.061 272.311 317.39 272.361C317.72 272.411 318.029 272.551 318.283 272.767C318.498 273.027 318.658 273.328 318.752 273.652C318.847 273.976 318.875 274.315 318.833 274.65C318.61 275.387 318.229 276.068 317.717 276.643C317.205 277.219 316.573 277.676 315.867 277.983C314.317 278.783 313.417 278.367 311.783 278.15L310.333 278.55Z" fill="#C4B0B8"/>
</g>
<g style="mix-blend-mode:soft-light" opacity="0.63">
<path fill-rule="evenodd" clip-rule="evenodd" d="M366.917 225.517C366.107 226.151 365.37 226.872 364.717 227.667C363.717 229.1 362.9 230.584 361.767 231.95C360.612 233.402 359.585 234.953 358.7 236.584C357.533 238.617 356.167 240.5 355.083 242.567C352.733 247.017 350.867 251.717 348.767 256.284C347.717 258.584 346.783 260.934 345.767 263.234C344.591 265.66 343.745 268.233 343.25 270.884C342.95 272.8 342.45 276.084 345.033 276.434C348.217 276.867 351.433 274.117 353.767 272.284C359.865 267.383 365.094 261.489 369.233 254.85C373.367 248.317 377.383 240.45 376.35 232.467C375.967 228.854 376.051 225.208 376.6 221.617C377.083 217.8 378.267 213.984 378.267 210.134C378.555 207.428 378.527 204.699 378.183 202C378.097 201.119 377.68 200.303 377.017 199.717C376.3 199.3 375.8 199.717 375.167 200.2C373.25 201.589 371.709 203.434 370.683 205.567C369.417 208.184 369.333 211.017 368.283 213.717C367.986 214.674 367.635 215.615 367.233 216.534C366.85 217.267 366.367 217.984 365.967 218.734C365.344 220.081 364.901 221.504 364.65 222.967C364.4 223.85 364.267 224.634 364.017 225.6C363.767 226.567 363.517 227.05 363.383 227.75C363.25 228.45 363.533 229 366.917 225.517Z" fill="#C4B0B8"/>
</g>
<g style="mix-blend-mode:soft-light" opacity="0.63">
<path fill-rule="evenodd" clip-rule="evenodd" d="M337.333 272.85C336.683 273.483 332.817 277.217 334.317 278.183C334.733 278.45 335.883 278.183 336.267 278C337.06 277.62 337.781 277.107 338.4 276.483C338.802 276.2 339.116 275.809 339.305 275.355C339.494 274.9 339.55 274.402 339.467 273.917C339.467 272.25 338.4 272.25 336.967 272.85H337.333Z" fill="#C4B0B8"/>
</g>
<g style="mix-blend-mode:soft-light" opacity="0.63">
<path fill-rule="evenodd" clip-rule="evenodd" d="M346.633 281.75C347.467 280.633 347.7 280.083 348.867 279.717C349.707 279.216 350.601 278.813 351.533 278.517C352.767 278.317 353.35 278.767 353.45 280.017C353.617 282.133 351.017 284.883 349.833 286.383C348.39 288.343 346.711 290.118 344.833 291.667C342.15 293.75 340.217 290.383 341.217 287.883C341.632 286.265 342.23 284.699 343 283.217C344.483 281.1 346.683 281.117 349.05 280.683L346.633 281.75Z" fill="#C4B0B8"/>
</g>
<g style="mix-blend-mode:soft-light" opacity="0.63">
<path fill-rule="evenodd" clip-rule="evenodd" d="M140.25 51.1667C139.111 51.7637 138.112 52.5976 137.322 53.6123C136.531 54.6271 135.967 55.7992 135.667 57.0501C135.283 58.2501 134.817 60.8334 135.833 61.8834C137.5 63.6834 142.217 61.7167 143.917 61.0667C147.157 59.5308 150.498 58.2167 153.917 57.1334C160.367 55.6501 167.467 55.0501 173.017 51.0834C176.149 48.7272 178.855 45.8524 181.017 42.5834C182.4 40.5501 184.25 38.8834 184.35 36.2501C184.717 30.9334 177.283 30.5834 173.783 31.3834C166.314 33.0333 159.048 35.498 152.117 38.7334C148.033 40.7001 142.967 43.2167 140.083 46.8834C139.375 47.911 138.813 49.0331 138.417 50.2167C138.167 51.0501 137.333 53.4667 140.25 51.1667Z" fill="#C4B0B8"/>
</g>
<g style="mix-blend-mode:soft-light" opacity="0.63">
<path fill-rule="evenodd" clip-rule="evenodd" d="M154.117 66.1C153.25 64.1167 152.817 63.9667 154.283 62.7667C155.529 61.824 156.863 61.0036 158.267 60.3167C159.92 59.4868 161.751 59.0748 163.6 59.1167C167.333 59.5667 165.633 63.75 164.483 65.7833C163.962 67.0286 163.109 68.1067 162.017 68.9C161.466 69.337 160.814 69.6298 160.122 69.752C159.429 69.8742 158.717 69.822 158.05 69.6C156.938 69.1813 155.923 68.5405 155.067 67.7167C154.433 67.1667 152.967 66.1333 153.117 65.1333L153.583 65.0333L154.117 66.1Z" fill="#C4B0B8"/>
</g>
<g style="mix-blend-mode:soft-light" opacity="0.63">
<path fill-rule="evenodd" clip-rule="evenodd" d="M127.967 112.016C128.05 110.25 127.967 109.85 129 108.683C130.849 107.086 132.853 105.679 134.983 104.483C139.386 101.68 144.138 99.4664 149.117 97.8998C153.538 96.4769 158.07 95.4288 162.667 94.7665C166.1 94.2165 169.333 93.0998 172.8 92.6165C178.117 91.8831 184.667 89.2831 188.883 94.2831C192.217 98.3665 185.983 103.766 183.017 105.95C180.453 107.786 177.536 109.069 174.45 109.716C170.767 110.65 167.133 111.75 163.467 112.666C156.633 114.333 150.283 117.666 143.733 120.15C141.865 121.078 139.774 121.469 137.696 121.277C135.618 121.086 133.635 120.321 131.967 119.066C129.733 117.733 125.983 113.866 127.967 112.016Z" fill="#C4B0B8"/>
</g>
<g style="mix-blend-mode:soft-light" opacity="0.63">
<path fill-rule="evenodd" clip-rule="evenodd" d="M189.883 81.5832C188.983 83.2498 186.783 86.2165 189.633 87.2498C191.3 87.8165 192.417 86.5165 193.633 85.5832C195.072 84.6688 196.327 83.493 197.333 82.1165C197.577 81.7987 197.741 81.4271 197.811 81.0329C197.881 80.6387 197.855 80.2334 197.736 79.8512C197.616 79.469 197.407 79.121 197.125 78.8366C196.844 78.5521 196.498 78.3394 196.117 78.2165C192.783 76.7332 191.117 79.8832 189.283 82.1165L189.883 81.5832Z" fill="#C4B0B8"/>
</g>
<g style="mix-blend-mode:soft-light" opacity="0.63">
<path fill-rule="evenodd" clip-rule="evenodd" d="M242.2 48.9998C240.701 50.3933 239.539 52.109 238.8 54.0173C238.06 55.9257 237.764 57.977 237.933 60.0165C238.4 64.2998 241.267 65.1998 244.883 63.3498C245.964 62.8865 247.001 62.3287 247.983 61.6832C248.902 60.7166 249.692 59.6354 250.333 58.4665C252.029 56.3449 252.93 53.6984 252.883 50.9832C253.086 48.2493 252.951 45.501 252.483 42.7998C252.219 41.175 251.429 39.6819 250.233 38.5498C248.733 37.5332 247.6 38.8665 246.483 39.7498C245.432 40.4184 244.525 41.2912 243.817 42.3165C242.625 44.5482 241.723 46.9229 241.133 49.3832L242.2 48.9998Z" fill="#C4B0B8"/>
</g>
<g style="mix-blend-mode:soft-light" opacity="0.63">
<path fill-rule="evenodd" clip-rule="evenodd" d="M181.883 140.833C182 138.8 181.883 138.667 183.417 137.5C184.478 136.608 185.591 135.778 186.75 135.017C189.025 133.783 191.524 133.018 194.1 132.767C196.117 132.507 198.166 132.837 200 133.717C200.52 134.078 200.907 134.599 201.102 135.201C201.298 135.803 201.291 136.452 201.083 137.05C200.667 139 198.817 140.233 197.333 141.367C195.82 142.727 194.053 143.774 192.133 144.45C189.97 145.103 187.676 145.194 185.467 144.717C184.117 144.367 181.3 143.8 181.333 141.9L181.883 140.833Z" fill="#C4B0B8"/>
</g>
<g style="mix-blend-mode:soft-light" opacity="0.63">
<path fill-rule="evenodd" clip-rule="evenodd" d="M208.034 122.15C209.039 120.287 210.452 118.674 212.167 117.433C213.413 116.468 214.825 115.739 216.334 115.283C216.782 115.371 217.194 115.588 217.52 115.908C217.846 116.228 218.071 116.637 218.167 117.083C218.284 118.017 217.367 119.267 216.867 120.017C215.74 121.697 214.171 123.035 212.334 123.883C211.505 124.304 210.552 124.41 209.65 124.183C208.7 123.9 208.317 122.983 207.517 122.683L208.034 122.15Z" fill="#C4B0B8"/>
</g>
<g style="mix-blend-mode:soft-light" opacity="0.63">
<path fill-rule="evenodd" clip-rule="evenodd" d="M104 43.1501C101.282 45.565 99.3292 48.7225 98.3834 52.2335C98.1866 52.773 98.1544 53.3587 98.2909 53.9166C98.4273 54.4744 98.7264 54.9791 99.15 55.3668C100.55 56.5835 102.317 55.9168 103.933 55.3668C108.495 53.624 112.819 51.3112 116.8 48.4835C120.417 46.0835 125.283 45.4168 128.067 41.9501C129.567 40.0835 131.15 37.9668 129.733 35.5168C128.467 33.4001 125.267 32.5001 123.067 32.4668C119.776 32.4934 116.546 33.3596 113.683 34.9835C109.949 37.0417 106.659 39.817 104 43.1501Z" fill="#C4B0B8"/>
</g>
<g style="mix-blend-mode:soft-light" opacity="0.63">
<path fill-rule="evenodd" clip-rule="evenodd" d="M89.0002 31.95C93.8658 31.2574 98.5582 29.6574 102.834 27.2333C103.717 26.7 104.6 26.45 105.45 25.9667C106.3 25.4833 106.45 24.9167 107.117 24.3C106.684 22.2333 101.15 23.4833 99.8835 24.0167C98.2168 24.7333 96.5502 25.6833 94.8835 26.55C93.9971 26.9471 93.1443 27.4153 92.3335 27.95C90.8121 29.3947 89.5444 31.0849 88.5835 32.95L89.0002 31.95Z" fill="#C4B0B8"/>
</g>
</g>
<g style="mix-blend-mode:multiply" opacity="0.47">
<g style="mix-blend-mode:multiply" opacity="0.47">
<path fill-rule="evenodd" clip-rule="evenodd" d="M245.933 144.383C244.485 145.307 242.983 146.142 241.433 146.883C238.9 147.917 236.6 149.367 234.083 150.45C231.117 151.733 227.933 152.583 224.883 153.633C220.576 155.04 216.435 156.912 212.533 159.217C208.407 161.6 205.039 165.101 202.817 169.317C202.148 170.558 201.779 171.938 201.739 173.347C201.698 174.756 201.987 176.156 202.583 177.433C203.415 178.968 204.678 180.225 206.217 181.05C208.8 182.217 211.333 181.483 213.933 180.867C217.228 180.16 220.42 179.04 223.433 177.533C225.1 176.7 226.567 175.733 228.167 174.883C229.767 174.033 231.717 173.35 233.483 172.617C234.85 172.05 236.25 171.567 237.667 171.117C239.396 170.54 241.013 169.672 242.45 168.55C245.322 166.5 247.721 163.857 249.483 160.8C251.78 157.107 252.695 152.72 252.067 148.417C251.483 144.967 249 143.283 245.933 144.383Z" fill="#C4B0B8"/>
</g>
<g style="mix-blend-mode:multiply" opacity="0.47">
<path fill-rule="evenodd" clip-rule="evenodd" d="M197.534 169C196.567 167.683 195.867 167.817 194.334 167.9C193.116 168.038 191.909 168.25 190.717 168.533C184.8 169.783 178.767 170.417 172.9 171.867C169.65 172.596 166.499 173.715 163.517 175.2C160.534 176.867 157.467 178.233 154.567 179.967C147.933 184.087 140.654 187.062 133.034 188.767C128.284 189.767 123.517 190.733 118.734 191.633C115.85 192.167 112.95 192.6 110.084 193.3C107.217 194 104.367 194.733 101.484 195.367C96.3315 196.413 91.2626 197.834 86.3168 199.617C81.3168 201.517 76.1502 203.283 72.2002 207.1C70.1835 209.05 67.5835 211.917 67.6002 214.917C67.7363 216.973 68.4149 218.957 69.5668 220.667C73.5168 227.2 81.1002 231.067 87.6668 234.417C96.8002 239.05 107.667 239.65 117.667 240.8C130.706 242.207 143.885 241.543 156.717 238.833C162.484 237.667 168.384 236.517 174.084 235.5C181.067 234.183 188.117 233.267 195.084 231.8C200.817 230.6 206.584 229.25 212.2 227.617C215.298 226.766 218.333 225.702 221.284 224.433C223.848 223.197 226.341 221.817 228.75 220.3C230.794 219.167 232.76 217.897 234.634 216.5C236.199 215.154 237.593 213.62 238.784 211.933C240.653 209.253 242.324 206.44 243.784 203.517C244.859 201.505 246.05 199.558 247.35 197.683C248.684 195.85 250.25 194.133 251.7 192.4C254.734 188.75 258.367 185.6 261.3 181.8C263.144 179.567 264.353 176.878 264.8 174.017C264.967 172.117 264.967 170.167 262.984 169.3C261.033 168.544 258.916 168.32 256.85 168.65C254.79 169.032 252.766 169.589 250.8 170.317C247.304 171.319 243.915 172.664 240.684 174.333C232.55 178.683 224.55 184.1 215.4 186C211.741 187.075 207.837 186.982 204.234 185.733C201.512 184.688 198.923 183.329 196.517 181.683C193.35 179.4 194.317 176.683 195.7 173.6C196.284 172.333 198 169.283 197.534 169Z" fill="#C4B0B8"/>
</g>
<g style="mix-blend-mode:multiply" opacity="0.47">
<path fill-rule="evenodd" clip-rule="evenodd" d="M372.967 126.6C372.945 129.949 372.678 133.291 372.167 136.6C371.95 138.067 371.7 139.517 371.483 140.983C371.167 142.95 370.25 144.7 369.817 146.633C368.819 149.998 367.496 153.258 365.867 156.367C364.367 159.7 363.417 163.033 361.967 166.367C357.883 175.733 355.45 185.683 351.467 195.1C349.5 199.767 347.7 204.583 345.533 209.15C343.6 213.267 341.233 217.2 339.183 221.25C338.433 222.767 336.317 225.567 337.917 227.15C339.2 228.417 341.517 227.25 342.833 226.533C348.2 223.667 350.483 216.883 353.783 212.117C355.45 209.7 358.033 207.9 359.767 205.45C362.293 202.243 364.467 198.773 366.25 195.1C369.367 187.8 371.25 180.267 373.983 172.817C375.949 166.844 376.819 160.565 376.55 154.283C376.789 151.606 376.615 148.908 376.033 146.283C375.233 144 374.65 139.9 372.967 126.6Z" fill="#C4B0B8"/>
</g>
<g style="mix-blend-mode:multiply" opacity="0.47">
<path fill-rule="evenodd" clip-rule="evenodd" d="M363 135.85C360.733 138.033 356.133 143.383 358.317 146.933C359.517 148.9 363.05 148.05 364.3 146.367C365.367 144.933 365.133 142.517 365.133 140.833C365.317 139.791 365.317 138.725 365.133 137.683C364.8 136.917 363.95 136.75 363.767 135.85H363Z" fill="#C4B0B8"/>
</g>
<g style="mix-blend-mode:multiply" opacity="0.47">
<path fill-rule="evenodd" clip-rule="evenodd" d="M319.583 239C316.678 240.706 313.894 242.611 311.25 244.7C308.713 246.41 306.031 247.894 303.233 249.133C296.18 252.482 288.689 254.822 280.983 256.083C271.067 257.75 260.983 259.133 251.417 262.283C244.133 264.683 236.917 267.283 229.75 269.783C222.967 272.2 215.233 273.917 209.183 278C207.683 279 205.683 280.55 206.217 282.567C207.067 285.767 213.667 285.9 216 286C223.083 286.283 230.267 286 237.35 286C240.683 286 244.167 285.817 247.55 286.15C251.773 286.576 256.027 286.576 260.25 286.15C265.567 285.683 271.117 285.783 276.25 284.15C286.133 280.983 295.883 277.283 305.533 273.467C314.2 270.133 326.75 262.983 326 252.167C325.667 247.583 322.75 241.067 319.583 239Z" fill="#C4B0B8"/>
</g>
<g style="mix-blend-mode:multiply" opacity="0.47">
<path fill-rule="evenodd" clip-rule="evenodd" d="M333.817 247.583C332.383 244.6 332 243.85 333.55 241.116C334.55 239.45 337.5 236.833 339.7 236.816C344.117 236.816 344.25 241.816 343.267 244.933C342.4 247.616 341.25 251.7 338.1 251.866C337.596 251.938 337.082 251.897 336.595 251.747C336.108 251.597 335.66 251.342 335.283 251C334.233 250.216 332.8 247.766 331.683 247.666L333.817 247.583Z" fill="#C4B0B8"/>
</g>
<g style="mix-blend-mode:multiply" opacity="0.47">
<path fill-rule="evenodd" clip-rule="evenodd" d="M23.5334 256.117C22.7334 259.45 22.2501 262.517 23.8834 265.75C26.1501 270.233 31.1334 273.233 35.7667 274.7C38.6619 275.538 41.6535 275.997 44.6667 276.067C48.0001 276.217 51.3334 276.733 54.7501 276.8C59.7703 276.871 64.7807 277.266 69.7501 277.983C72.5167 278.4 75.2001 279.2 77.9667 279.533C80.1109 279.775 82.2415 280.125 84.3501 280.583C88.8501 281.633 93.3167 281.667 97.8501 282.25C102.665 282.809 107.534 282.691 112.317 281.9C116.45 281.283 120.85 280.733 122.833 276.717C124.367 273.567 123.233 271.867 120.483 269.717C118.017 267.817 113.817 266.983 111.033 266.033C106.617 264.583 102.233 263.233 97.7001 262.133C91.3834 260.617 85.3167 258.35 79.0834 256.517C66.3167 252.783 54.0001 247.533 40.6667 246.3C35.1167 245.8 28.5501 245.733 23.4334 248.233C21.7663 249.106 20.4831 250.567 19.8334 252.333C18.6834 255.067 20.0167 256.667 23.5334 256.117Z" fill="#C4B0B8"/>
</g>
<g style="mix-blend-mode:multiply" opacity="0.47">
<path fill-rule="evenodd" clip-rule="evenodd" d="M22.8167 232.633C23.5667 234.983 23.4167 235.716 25.5833 236.383C26.977 236.952 28.5076 237.097 29.9833 236.8C31.8167 236.266 34 234.916 34.25 233C34.5 231.083 32.5833 229.266 30.9166 228.333C27.4166 226.45 24.5833 226.666 22.85 230.5L22.8167 232.633Z" fill="#C4B0B8"/>
</g>
<g style="mix-blend-mode:multiply" opacity="0.47">
<path fill-rule="evenodd" clip-rule="evenodd" d="M172.983 75.3497C172.893 74.08 173.159 72.8103 173.75 71.683C174.438 70.0875 175.251 68.5493 176.183 67.083C176.867 66.083 177.3 64.9997 177.95 63.9664C178.85 62.5164 179.783 61.1997 180.55 59.683C181.654 57.7751 182.962 55.9925 184.45 54.3664C185.412 53.2766 186.245 52.0798 186.933 50.7997C187.5 49.733 188.35 48.9164 188.933 47.883C189.683 46.5664 190.183 45.0497 190.867 43.683C191.576 42.2147 192.371 40.79 193.25 39.4164C193.818 38.3736 194.55 37.4284 195.417 36.6164C196.067 35.953 196.782 35.3557 197.55 34.833C199.217 34.083 200.133 34.683 201.017 36.2664C202.398 39.063 203.035 42.1685 202.867 45.283C202.725 48.5073 202.124 51.6949 201.083 54.7497C200.248 56.8746 199.215 58.9168 198 60.8497C195.9 64.5497 193.383 67.9664 190.933 71.433C189.225 73.4619 187.245 75.2454 185.05 76.733C183.816 77.7353 182.41 78.5035 180.9 78.9997C179.988 79.4494 178.983 79.6778 177.967 79.6664C177.103 79.3911 176.262 79.0512 175.45 78.6497C173.367 77.8164 172.433 76.0497 172.983 75.3497Z" fill="#C4B0B8"/>
</g>
<g style="mix-blend-mode:multiply" opacity="0.47">
<path fill-rule="evenodd" clip-rule="evenodd" d="M165.15 78.1999C163.933 78.8333 162.633 79.2666 162.117 80.6166C161.967 80.9833 161.733 81.7499 161.983 82.1499C162.933 83.5666 166.367 81.6666 167.133 80.8833C167.9 80.0999 168.8 78.6999 168 77.6999C167.835 77.4869 167.626 77.3111 167.389 77.184C167.151 77.057 166.889 76.9816 166.62 76.9627C166.351 76.9438 166.081 76.9819 165.828 77.0745C165.574 77.1671 165.343 77.312 165.15 77.4999V78.1999Z" fill="#C4B0B8"/>
</g>
<g style="mix-blend-mode:multiply" opacity="0.47">
<path fill-rule="evenodd" clip-rule="evenodd" d="M228.133 27.3333C227.305 27.6949 226.548 28.203 225.9 28.8333C225.589 29.3926 225.359 29.993 225.217 30.6166C224.37 32.8709 223.81 35.2227 223.55 37.6166C223.3 39.9499 223.233 44.1166 225.967 45.0666C231.3 46.9499 239.083 43.0999 239.517 37.1333C239.767 33.7999 237.85 30.5999 235.933 27.9999C234.982 26.6318 233.862 25.3887 232.6 24.2999C232.155 23.9485 231.644 23.6893 231.097 23.5377C230.551 23.386 229.979 23.3448 229.417 23.4166C227.533 23.7499 226.133 25.6666 228.133 27.3333Z" fill="#C4B0B8"/>
</g>
<g style="mix-blend-mode:multiply" opacity="0.47">
<path fill-rule="evenodd" clip-rule="evenodd" d="M227.067 56.5001C227.067 55.3334 227.067 55.0501 227.833 54.2834C228.304 53.7514 228.869 53.3107 229.5 52.9834C230.767 52.5834 231.583 53.5167 231.65 54.6501C231.65 55.5667 231.733 57.4001 230.917 57.9834C230.1 58.5667 226.783 57.9834 227 56.7501L227.067 56.5001Z" fill="#C4B0B8"/>
</g>
<g style="mix-blend-mode:multiply" opacity="0.47">
<path fill-rule="evenodd" clip-rule="evenodd" d="M265.85 32.3334C265.317 34.5501 265.383 36.8334 264.967 39.1001C264.295 42.8166 263.889 46.576 263.75 50.3501C263.75 52.3001 263.75 54.2334 263.65 56.1667C263.381 58.54 263.303 60.931 263.417 63.3167C263.717 66.4001 264.083 69.6501 266.117 72.1167C267.583 73.7834 269.617 73.2334 271.55 72.5167C273.084 71.7749 274.527 70.8576 275.85 69.7834C276.921 69.0438 277.935 68.2248 278.883 67.3334C283.133 63.3667 286.95 59.0001 288.65 53.3334C289.9 49.1834 291.1 44.5001 290.083 40.1834C289.545 37.4428 288.318 34.8845 286.517 32.7501C285.098 31.204 283.402 29.9377 281.517 29.0167C279.915 28.3626 278.234 27.9254 276.517 27.7167C275.142 27.4282 273.738 27.2996 272.333 27.3334C270.991 27.3362 269.652 27.4646 268.333 27.7167C265.667 28.2167 264.9 31.9334 265.85 32.3334Z" fill="#C4B0B8"/>
</g>
<g style="mix-blend-mode:multiply" opacity="0.47">
<path fill-rule="evenodd" clip-rule="evenodd" d="M270.133 78.5666C270.617 77.0166 271.8 75.4166 273.467 76.2666C274.117 76.5589 274.627 77.0937 274.889 77.7569C275.15 78.4201 275.142 79.1592 274.867 79.8166C274.607 80.2976 274.193 80.6765 273.69 80.8914C273.188 81.1063 272.627 81.1446 272.1 81C271.434 80.6991 270.859 80.2277 270.433 79.6333C269.783 78.7833 270.3 78.1 270.433 77.1333L270.133 78.5666Z" fill="#C4B0B8"/>
</g>
<g style="mix-blend-mode:multiply" opacity="0.47">
<path fill-rule="evenodd" clip-rule="evenodd" d="M275.117 116.633C273.704 116.766 272.311 117.063 270.967 117.517C270.847 117.829 270.672 118.117 270.45 118.367C270.167 118.75 269.317 119.25 269.433 119.783C271.233 120.55 273.783 119.333 275.333 118.5C276.159 118.107 276.928 117.602 277.617 117C278.065 116.609 278.472 116.173 278.833 115.7C279.4 114.667 278.833 114.133 277.783 114.133C276.733 114.133 274.133 114.967 274.033 116.283L275.117 116.633Z" fill="#C4B0B8"/>
</g>
<g style="mix-blend-mode:multiply" opacity="0.47">
<path fill-rule="evenodd" clip-rule="evenodd" d="M334.183 110.667C334.219 111.877 333.943 113.076 333.383 114.15C332.704 115.445 332.355 116.888 332.367 118.35C332.867 121.683 337.517 121.05 339.883 120.733C342.644 120.605 345.283 119.562 347.383 117.767C348.896 116.508 349.874 114.72 350.117 112.767C350.6 109.2 351.433 103.167 346.183 103.233C343.996 103.378 341.896 104.147 340.133 105.45C338.924 106.313 337.855 107.359 336.967 108.55C335.75 109.85 334.4 111.05 334.183 110.667Z" fill="#C4B0B8"/>
</g>
<g style="mix-blend-mode:multiply" opacity="0.47">
<path fill-rule="evenodd" clip-rule="evenodd" d="M297.167 304.167C298.387 299.217 301.428 294.908 305.683 292.1C306.75 291.45 307.667 290.583 309.017 291.25C310.367 291.917 309.85 293 309.533 294.05C308.901 295.649 308.005 297.13 306.883 298.433C305.831 299.634 304.719 300.779 303.55 301.867C302.877 302.624 302.023 303.198 301.067 303.533C299.742 303.543 298.427 303.757 297.167 304.167Z" fill="#C4B0B8"/>
</g>
<g style="mix-blend-mode:multiply" opacity="0.47">
<path fill-rule="evenodd" clip-rule="evenodd" d="M116.05 309.85C116.05 307.933 117.233 307.05 118.75 305.783C122.115 303.17 125.951 301.229 130.05 300.067C133.652 298.735 137.554 298.435 141.317 299.2C142.206 299.34 143.055 299.671 143.803 300.172C144.551 300.673 145.182 301.331 145.65 302.1C146.833 304.95 143.75 309.15 141.483 310.733C138.617 312.717 134.467 313.317 131.183 314.317C128.12 315.222 124.905 315.494 121.733 315.117C120.6 315.048 119.48 314.835 118.4 314.483C117.363 314.231 116.339 313.925 115.333 313.567C114.45 313.083 113.3 312.35 113.217 311.3C113.2 310.667 113.349 310.04 113.65 309.483C114.167 308.583 115.35 308.467 116.05 309.85Z" fill="#C4B0B8"/>
</g>
</g>
<g style="mix-blend-mode:soft-light">
<g style="mix-blend-mode:soft-light">
<path fill-rule="evenodd" clip-rule="evenodd" d="M329 97.7334C327.85 98.5167 325.667 99.6167 326 101.367C326.183 102.183 326.667 102.883 326.917 103.667C327.135 104.361 327.28 105.076 327.35 105.8C327.46 107.012 327.91 108.168 328.65 109.133C329.183 109.7 329.75 109.133 330.117 108.567C330.552 108.002 330.838 107.337 330.95 106.633C330.956 105.702 331.062 104.775 331.267 103.867C331.367 103.517 331.634 103.2 331.717 102.833C331.775 102.33 331.775 101.821 331.717 101.317C331.699 100.509 331.427 99.7283 330.939 99.0849C330.451 98.4414 329.773 97.9684 329 97.7334Z" fill="#C4B0FF"/>
</g>
<g style="mix-blend-mode:soft-light">
<path fill-rule="evenodd" clip-rule="evenodd" d="M310.45 197.833C310.25 197.933 310 198 309.884 198.217C309.848 198.342 309.82 198.47 309.8 198.6C309.8 199.167 310.533 199.417 310.917 199.517C311.467 199.685 312.046 199.741 312.619 199.681C313.192 199.621 313.747 199.446 314.25 199.167C314.624 198.935 314.945 198.63 315.195 198.268C315.444 197.907 315.616 197.498 315.7 197.066C315.696 196.52 315.537 195.986 315.242 195.526C314.947 195.066 314.528 194.699 314.034 194.467C313.626 194.17 313.148 193.988 312.647 193.938C312.146 193.888 311.641 193.973 311.184 194.183C310.842 194.383 310.573 194.686 310.417 195.05C310.317 195.333 310.334 195.65 310.25 195.95C310.167 196.25 309.867 196.633 309.934 197.083C310.005 197.389 310.19 197.657 310.45 197.833Z" fill="#C4B0FF"/>
</g>
<g style="mix-blend-mode:soft-light">
<path fill-rule="evenodd" clip-rule="evenodd" d="M316.767 199.733C316.759 199.614 316.785 199.495 316.841 199.389C316.897 199.283 316.981 199.194 317.084 199.133C317.174 199.056 317.289 199.013 317.409 199.013C317.528 199.013 317.643 199.056 317.734 199.133C317.825 199.199 317.903 199.283 317.962 199.379C318.021 199.476 318.06 199.583 318.077 199.695C318.094 199.806 318.089 199.92 318.061 200.03C318.034 200.14 317.985 200.243 317.917 200.333C317.813 200.441 317.684 200.52 317.541 200.563C317.398 200.607 317.246 200.614 317.1 200.583C316.942 200.541 316.803 200.444 316.709 200.31C316.615 200.176 316.57 200.013 316.584 199.85L316.767 199.733Z" fill="#C4B0FF"/>
</g>
<g style="mix-blend-mode:soft-light">
<path fill-rule="evenodd" clip-rule="evenodd" d="M332.333 176.05C331.943 176.081 331.579 176.259 331.317 176.55C331.225 176.623 331.153 176.717 331.107 176.825C331.06 176.932 331.041 177.05 331.05 177.166C331.168 177.884 331.541 178.535 332.1 179C332.282 179.14 332.494 179.237 332.719 179.283C332.945 179.329 333.177 179.323 333.4 179.266C333.801 179.085 334.172 178.844 334.5 178.55L335.383 177.816C335.66 177.644 335.88 177.394 336.017 177.098C336.153 176.802 336.199 176.472 336.15 176.15C336.077 175.824 335.918 175.524 335.689 175.281C335.46 175.037 335.171 174.86 334.85 174.766C334.419 174.696 333.978 174.736 333.567 174.883C333.133 174.983 332.75 175.033 332.333 176.05Z" fill="#C4B0FF"/>
</g>
<g style="mix-blend-mode:soft-light">
<path fill-rule="evenodd" clip-rule="evenodd" d="M329.45 178.133C329.761 178.253 330.045 178.434 330.284 178.667C330.284 178.833 330.284 178.967 330.284 179.15C330.284 179.333 329.75 179.15 329.567 179.15C329.445 179.111 329.333 179.046 329.238 178.959C329.143 178.873 329.068 178.768 329.017 178.65C329.017 178.65 328.8 178.183 329.017 178.217L329.45 178.133Z" fill="#C4B0FF"/>
</g>
<g style="mix-blend-mode:soft-light">
<path fill-rule="evenodd" clip-rule="evenodd" d="M294.834 190.95C294.517 191.3 294.167 191.7 294.384 192.233C294.511 192.452 294.709 192.622 294.944 192.716C295.18 192.81 295.44 192.822 295.684 192.75C295.934 192.75 296.2 192.65 296.317 192.383C296.434 192.117 296.467 191.8 296.55 191.517C296.767 190.833 297.5 190.533 297.134 189.733C297.053 189.551 296.929 189.392 296.772 189.269C296.615 189.147 296.43 189.066 296.234 189.033C295.6 189.033 295.1 189.617 294.717 190.133L294.834 190.95Z" fill="#C4B0FF"/>
</g>
<g style="mix-blend-mode:soft-light">
<path fill-rule="evenodd" clip-rule="evenodd" d="M200.917 257.867C201.117 257.45 201.35 256.667 202.083 256.4C202.521 256.249 202.996 256.249 203.433 256.4C204.533 256.583 205.617 256.917 204.9 258.067C204.374 258.651 203.672 259.049 202.9 259.2C202.25 259.3 201.033 259.1 201.1 258.55L200.917 257.867Z" fill="#C4B0FF"/>
</g>
<g style="mix-blend-mode:soft-light">
<path fill-rule="evenodd" clip-rule="evenodd" d="M267.017 27.9999C266.767 29.0332 266.433 30.2332 267.567 30.9166C268.008 31.0785 268.486 31.1159 268.947 31.0248C269.409 30.9337 269.836 30.7175 270.183 30.3999C271.286 29.3941 272.039 28.063 272.333 26.5999C272.517 25.3166 270.95 23.9332 269.767 23.7832C267.35 23.4832 266.067 27.3166 265.917 29.1332L267.017 27.9999Z" fill="#C4B0FF"/>
</g>
<g style="mix-blend-mode:soft-light">
<path fill-rule="evenodd" clip-rule="evenodd" d="M261.684 245.483C260.945 246.609 260.659 247.972 260.884 249.3C260.984 250.1 260.984 251.166 262.05 251.433C264.5 252.05 267.05 247.45 267.717 245.983C268.293 244.802 268.562 243.495 268.5 242.183C268.5 241.466 267.9 240.05 267.034 239.75C266.427 239.631 265.801 239.673 265.216 239.872C264.631 240.071 264.108 240.419 263.7 240.883C261.85 242.733 262.034 244.883 260.967 246.883L261.684 245.483Z" fill="#C4B0FF"/>
</g>
<g style="mix-blend-mode:soft-light">
<path fill-rule="evenodd" clip-rule="evenodd" d="M260.383 245.317C259.74 245.417 259.109 245.585 258.5 245.817C258.2 246 257.717 246.267 257.6 246.55C257.483 246.833 257.733 247.283 258.017 247.483C258.142 247.575 258.287 247.637 258.441 247.663C258.594 247.689 258.751 247.679 258.9 247.633C259.144 247.491 259.359 247.305 259.534 247.083C259.821 246.78 260.073 246.444 260.284 246.083C260.414 245.934 260.521 245.765 260.6 245.583C260.7 245.317 260.483 245.233 260.433 245.033L260.383 245.317Z" fill="#C4B0FF"/>
</g>
<g style="mix-blend-mode:soft-light">
<path fill-rule="evenodd" clip-rule="evenodd" d="M257.567 256.25L258.4 256.5C258.3 256.783 258.4 257.083 258.033 257.3C257.685 257.44 257.307 257.492 256.933 257.45C256.567 257.45 256.367 257.15 256.417 256.833C256.467 256.516 256.917 256.283 257.333 256.183L257.567 256.25Z" fill="#C4B0FF"/>
</g>
<g style="mix-blend-mode:soft-light">
<path fill-rule="evenodd" clip-rule="evenodd" d="M215.85 265.467C215.85 265.767 215.85 265.967 216.184 266.1C216.469 266.195 216.774 266.211 217.067 266.146C217.361 266.081 217.631 265.939 217.85 265.733C218.434 265.183 218.967 264.15 218.6 263.583C218.387 263.364 218.104 263.225 217.8 263.192C217.496 263.159 217.189 263.232 216.934 263.4C216.636 263.608 216.362 263.849 216.117 264.117C215.985 264.3 215.892 264.509 215.843 264.729C215.795 264.95 215.791 265.178 215.834 265.4L215.85 265.467Z" fill="#C4B0FF"/>
</g>
<g style="mix-blend-mode:soft-light">
<path fill-rule="evenodd" clip-rule="evenodd" d="M171.984 194.383C171.684 194.65 171.534 194.733 171.467 195.116C171.35 195.522 171.392 195.957 171.584 196.333C172.24 197.089 173.133 197.6 174.117 197.783C174.463 197.88 174.826 197.896 175.178 197.829C175.531 197.763 175.864 197.616 176.15 197.4C176.499 197.165 176.795 196.86 177.019 196.504C177.243 196.148 177.39 195.749 177.45 195.333C177.555 194.928 177.529 194.501 177.376 194.112C177.224 193.723 176.952 193.392 176.6 193.166C175.916 192.651 175.133 192.282 174.3 192.083C173.981 192.024 173.652 192.044 173.341 192.139C173.031 192.235 172.748 192.405 172.517 192.633C172.034 193.05 171.384 193.8 171.984 194.383Z" fill="#C4B0FF"/>
</g>
<g style="mix-blend-mode:soft-light">
<path fill-rule="evenodd" clip-rule="evenodd" d="M178.45 197.333C178.45 197.1 178.45 196.817 178.683 196.75C179.118 196.747 179.537 196.915 179.85 197.217C180.076 197.467 180.196 197.796 180.183 198.133C180.183 198.35 179.95 198.533 179.767 198.65C179.629 198.743 179.466 198.793 179.3 198.793C179.134 198.793 178.971 198.743 178.833 198.65C178.633 198.517 178.133 198.25 178.217 197.95L178.45 197.333Z" fill="#C4B0FF"/>
</g>
<g style="mix-blend-mode:soft-light">
<path fill-rule="evenodd" clip-rule="evenodd" d="M54.7002 172.067C52.8504 169.551 51.9421 166.466 52.1335 163.35C52.1335 162.017 52.1335 159.617 53.9502 159.8C56.5002 160.05 57.8002 163.983 58.5168 165.967C59.7603 168.821 60.3306 171.923 60.1835 175.033C59.6668 179.367 53.9668 170.75 53.4002 169.95L54.7002 172.067Z" fill="#C4B0FF"/>
</g>
<g style="mix-blend-mode:soft-light">
<path fill-rule="evenodd" clip-rule="evenodd" d="M60.1834 157.733C59.7334 160.233 60.8501 163.817 63.5168 164.617C64.4834 164.9 64.8501 164.3 65.3668 163.383C65.6496 162.956 65.8389 162.474 65.9222 161.968C66.0055 161.463 65.9809 160.945 65.8501 160.45C65.5296 159.779 65.1325 159.147 64.6668 158.567C64.3976 158.242 64.1629 157.89 63.9668 157.517C63.7834 157.117 63.8501 156.8 63.5334 156.45C62.7834 155.583 59.8334 154.883 60.2001 156.883L60.1834 157.733Z" fill="#C4B0FF"/>
</g>
<g style="mix-blend-mode:soft-light">
<path fill-rule="evenodd" clip-rule="evenodd" d="M87.9001 336.017C88.5015 334.42 89.5924 333.055 91.0168 332.117C92.6338 331.017 94.4343 330.216 96.3335 329.75C98.1338 329.334 100.018 329.48 101.733 330.167C103.4 331.05 104.867 332.367 106.45 333.4C107.913 334.154 109.292 335.059 110.567 336.1C111.687 337.25 112.551 338.625 113.1 340.133C114.187 342.702 114.375 345.562 113.633 348.25C112.733 350.367 111.483 350.4 109.367 350.367C106.35 350.367 103.517 347.883 101.633 345.717C100.798 344.584 99.8548 343.534 98.8168 342.583C97.4668 341.533 96.0501 340.55 94.6335 339.583C93.2642 338.803 91.9399 337.946 90.6668 337.017C90.0668 336.533 88.3001 335.2 87.9001 336.017Z" fill="#C4B0FF"/>
</g>
<g style="mix-blend-mode:soft-light">
<path fill-rule="evenodd" clip-rule="evenodd" d="M139.15 201.55C138.967 202.65 138.683 203.116 139.483 203.65C139.729 203.817 140.02 203.906 140.317 203.906C140.614 203.906 140.904 203.817 141.15 203.65C141.75 203.283 143.067 201.983 142.817 201.25C142.483 199.583 138.483 199.583 138.7 201.516L139.15 201.55Z" fill="#C4B0FF"/>
</g>
<g style="mix-blend-mode:soft-light">
<path fill-rule="evenodd" clip-rule="evenodd" d="M213.75 252.533C213.117 249.533 216.134 245.25 219.55 242.833C224.4 239.4 231.784 238.633 237.234 239.367C241.8 239.983 245.567 242.383 246.467 245.667C246.7 246.55 246.467 247.467 246.75 248.333C247.034 249.2 247.084 249.383 246.1 250C243.227 251.372 240.156 252.283 237 252.7C233.925 253.313 230.802 253.653 227.667 253.717C225.017 253.717 222.5 253.267 219.867 253.167C218.604 253.168 217.343 253.057 216.1 252.833C215.484 252.65 214 252.833 213.75 252.533Z" fill="#C4B0FF"/>
</g>
<g style="mix-blend-mode:soft-light">
<path fill-rule="evenodd" clip-rule="evenodd" d="M238.783 234.3C239.233 234.85 239.267 235.183 240.15 235.233C240.859 235.235 241.553 235.033 242.15 234.65C242.883 234.233 243.817 233.25 243.517 232.65C242.883 231.583 238.517 232.217 239.033 233.633L238.783 234.3Z" fill="#C4B0FF"/>
</g>
<g style="mix-blend-mode:soft-light">
<path fill-rule="evenodd" clip-rule="evenodd" d="M306.317 177.117C306.445 176.301 306.746 175.523 307.2 174.833C307.407 174.697 307.638 174.603 307.882 174.558C308.125 174.512 308.375 174.515 308.617 174.567C309.067 174.592 309.506 174.723 309.897 174.949C310.287 175.175 310.62 175.489 310.867 175.867C311.283 176.277 311.607 176.771 311.817 177.317C312.5 180.417 307.033 179.083 306.317 177.117Z" fill="#C4B0FF"/>
</g>
</g>
<defs>
<radialGradient id="paint0_radial_199_5692" cx="0" cy="0" r="1" gradientUnits="userSpaceOnUse" gradientTransform="translate(151.35 129.017) scale(263.283)">
<stop stop-color="#7CC5FF"/>
<stop offset="0.84" stop-color="#482088"/>
<stop offset="0.95" stop-color="#403B77"/>
<stop offset="1" stop-color="#4D79D1"/>
</radialGradient>
</defs>
</svg>
