<svg width="383" height="383" viewBox="0 0 383 383" fill="none" xmlns="http://www.w3.org/2000/svg">
<mask id="mask0_246_8158" style="mask-type:alpha" maskUnits="userSpaceOnUse" x="0" y="0" width="383" height="383">
<rect width="383" height="383" fill="#C4C4C4"/>
</mask>
<g mask="url(#mask0_246_8158)">
<path d="M318.027 318.027C387.905 248.148 387.905 134.853 318.027 64.9737C248.148 -4.90512 134.852 -4.90513 64.9731 64.9737C-4.90573 134.853 -4.90573 248.148 64.9731 318.027C134.852 387.906 248.148 387.906 318.027 318.027Z" fill="#FF8D2F"/>
<path d="M191.508 348.282C278.096 348.282 348.289 278.089 348.289 191.502C348.289 104.914 278.096 34.7212 191.508 34.7212C104.92 34.7212 34.7273 104.914 34.7273 191.502C34.7273 278.089 104.92 348.282 191.508 348.282Z" fill="#FFE8BB"/>
<path fill-rule="evenodd" clip-rule="evenodd" d="M304.427 74.6894C314.298 76.7725 347.005 126.612 339.237 128.189C331.469 129.766 301.955 108.467 297.165 99.5313C291.597 89.135 294.556 72.6062 304.427 74.6894ZM325.726 230.711C268.079 274.593 194.352 271.595 195.052 218.017C195.753 164.44 260.817 118.474 277.424 111.057C295.686 102.86 383.353 186.828 325.726 230.691V230.711ZM264.789 59.6401C265.84 66.2205 249.915 72.431 235.352 70.0169C220.79 67.6028 204.904 67.9143 201.458 63.0082C195.014 53.9942 207.688 39.1397 221.199 36.0247C234.71 32.9097 263.757 53.0403 264.789 59.6207V59.6401ZM199.725 27.4196C201.458 23.5259 220.673 20.5082 221.705 22.7471C222.737 24.986 219.427 28.8019 212.535 30.1841C205.643 31.5664 198.109 31.1186 199.725 27.4196ZM60.8943 81.9317C72.5755 60.8861 106.587 26.0373 155.94 21.579C190.614 18.4835 204.222 47.4723 188.628 75.838C173.033 104.204 93.621 109.947 77.501 110.881C61.381 111.816 55.7351 91.335 60.8943 81.9511V81.9317ZM155.142 299.376C148.211 302.822 140.716 301.674 142.351 292.504C144.064 282.633 158.51 280.667 159.561 286.255C160.613 291.842 162.073 295.969 155.142 299.396V299.376ZM51.0237 306.95C22.3854 276.598 35.9745 229.757 51.0237 218.66C66.073 207.563 119.047 254.891 131.507 288.61C143.967 322.33 89.4548 347.639 51.0237 306.969V306.95ZM121.656 355.388C104.309 347.912 125.296 311.797 151.248 306.58C177.2 301.362 242.984 327.002 243.588 339.676C244.191 352.35 167.329 375.148 121.656 355.407V355.388ZM296.172 317.171C286.438 315.224 322.241 278.078 336.784 280.979C351.327 283.879 317.062 321.434 296.172 317.19V317.171ZM191.509 12.3898C174.897 12.3656 158.358 14.6057 142.351 19.0481C141.65 19.2233 140.969 19.418 140.287 19.6322L137.737 20.372C100.431 31.7831 67.7138 54.7492 44.3049 85.9576C20.8959 117.166 8.00512 155.004 7.49194 194.012C8.70131 242.004 28.6154 287.623 62.9862 321.139C97.357 354.654 143.464 373.413 191.47 373.413C239.477 373.413 285.583 354.654 319.954 321.139C354.325 287.623 374.239 242.004 375.449 194.012C374.809 145.641 355.151 99.4658 320.728 65.4764C286.305 31.4871 239.885 12.4163 191.509 12.3898Z" fill="#B13D2F"/>
<path fill-rule="evenodd" clip-rule="evenodd" d="M191.507 7.46436C142.697 7.46436 95.8869 26.8539 61.3733 61.3675C26.8597 95.881 7.47021 142.691 7.47021 191.501C7.47021 192.319 7.47021 193.136 7.47021 193.935C8.67958 241.926 28.5937 287.545 62.9645 321.061C97.3353 354.577 143.442 373.335 191.449 373.335C239.455 373.335 285.562 354.577 319.933 321.061C354.303 287.545 374.217 241.926 375.427 193.935C375.427 193.136 375.427 192.319 375.427 191.501C375.422 142.713 356.047 95.9235 321.559 61.4144C287.072 26.9053 240.295 7.50048 191.507 7.46436ZM339.235 123.361C331.447 124.918 301.952 103.639 297.163 94.7031C291.595 84.3264 294.554 67.7976 304.425 69.8612C314.295 71.9249 347.003 121.745 339.235 123.361ZM221.197 31.2745C234.669 28.14 263.755 48.2316 264.787 54.812C265.819 61.3924 249.913 67.5639 235.35 65.1498C220.788 62.7357 204.901 63.0083 201.455 58.219C195.011 49.205 207.685 34.3505 221.197 31.2355V31.2745ZM199.781 22.6109C201.514 18.7172 220.729 15.6996 221.761 17.9385C222.793 20.1774 219.483 24.0127 212.591 25.3755C205.7 26.7383 198.107 26.271 199.723 22.572L199.781 22.6109ZM140.285 19.5544C140.966 19.3402 141.648 19.1455 142.349 18.9703C146.802 17.77 151.37 17.0456 155.977 16.8093C190.748 15.3102 204.259 42.7025 188.664 71.0683C173.07 99.434 93.6577 105.177 77.5377 106.112C61.4177 107.046 55.7329 86.4874 60.8921 77.1035C70.6264 59.5818 106.02 30.3789 137.735 20.2942C138.591 20.0216 139.428 19.7685 140.285 19.5544ZM155.14 294.548C148.209 297.994 140.713 296.846 142.349 287.676C144.062 277.805 158.508 275.839 159.559 281.426C160.61 287.014 162.07 291.122 155.14 294.548ZM51.0215 302.122C22.3832 271.77 35.9722 224.929 51.0215 213.832C66.0707 202.734 119.045 250.063 131.505 283.782C143.965 317.502 89.4525 342.792 51.0215 302.122ZM121.654 350.559C104.307 343.084 125.294 306.969 151.246 301.752C177.197 296.534 242.982 322.174 243.585 334.848C244.189 347.522 167.327 370.301 121.654 350.559ZM296.17 312.343C286.436 310.396 322.239 273.25 336.782 276.15C351.325 279.051 317.06 316.587 296.17 312.343ZM325.723 225.844C268.077 269.726 194.349 266.728 195.05 213.15C195.751 159.573 260.815 113.627 277.422 106.19C295.683 98.0518 383.351 182 325.723 225.844Z" fill="url(#paint0_radial_246_8158)"/>
<g style="mix-blend-mode:multiply" opacity="0.58">
<g style="mix-blend-mode:multiply" opacity="0.58">
<path fill-rule="evenodd" clip-rule="evenodd" d="M355.786 139.751C354.346 140.705 351.639 142.068 352.087 144.229C352.301 145.222 352.885 146.176 353.197 147.052C353.486 147.902 353.662 148.785 353.723 149.68C353.882 151.147 354.44 152.541 355.339 153.71C356 154.411 356.701 153.71 357.13 153.01C357.688 152.322 358.045 151.493 358.161 150.615C358.179 149.468 358.316 148.326 358.57 147.208C358.687 146.78 359.018 146.39 359.115 145.923C359.2 145.277 359.2 144.622 359.115 143.976C359.061 143.016 358.712 142.095 358.116 141.339C357.521 140.584 356.707 140.029 355.786 139.751Z" fill="#C4B0FF"/>
</g>
<g style="mix-blend-mode:multiply" opacity="0.58">
<path fill-rule="evenodd" clip-rule="evenodd" d="M166.569 114.539C166.466 114.289 166.441 114.015 166.497 113.751C166.552 113.487 166.686 113.246 166.88 113.059C169.002 113.059 169.762 117.303 167.756 118.121C165.751 118.939 165.187 115.902 165.81 114.539H166.569Z" fill="#C4B0FF"/>
</g>
<g style="mix-blend-mode:multiply" opacity="0.58">
<path fill-rule="evenodd" clip-rule="evenodd" d="M127.475 141.386C128.585 140.861 129.422 140.121 130.727 140.413C131.737 140.668 132.638 141.241 133.297 142.048C134.069 143.074 134.607 144.257 134.874 145.514C135.139 146.078 135.247 146.704 135.185 147.324C134.666 148.55 133.868 149.638 132.854 150.5C131.84 151.362 130.638 151.975 129.344 152.289C128.091 152.778 126.784 153.118 125.451 153.301C124.516 153.301 123.504 153.515 122.628 153.671C121.891 153.929 121.105 154.015 120.33 153.924C119.684 153.684 119.079 153.342 118.539 152.912C117.79 152.382 117.181 151.678 116.764 150.861C116.346 150.044 116.134 149.137 116.145 148.22C116.281 144.969 120.155 142.379 122.803 141.055C125.042 139.965 128.488 138.622 127.475 141.386Z" fill="#C4B0FF"/>
</g>
<g style="mix-blend-mode:multiply" opacity="0.58">
<path fill-rule="evenodd" clip-rule="evenodd" d="M137.658 136.986C137.347 137.921 137.074 138.213 137.833 138.719C138.124 138.892 138.451 138.995 138.789 139.022C139.126 139.049 139.465 138.999 139.78 138.875C140.909 138.485 142.35 136.772 141.493 135.604C141.065 135.02 140.053 133.968 139.352 133.891C138.559 133.959 137.817 134.308 137.26 134.876C136.703 135.444 136.368 136.192 136.315 136.986H137.658Z" fill="#C4B0FF"/>
</g>
<g style="mix-blend-mode:multiply" opacity="0.58">
<path fill-rule="evenodd" clip-rule="evenodd" d="M27.3108 126.104C27.0257 126.511 26.8148 126.966 26.6878 127.447C26.2984 128.654 25.8896 129.861 25.5197 131.068C24.7799 133.327 23.7091 135.468 22.9498 137.746C22.4756 139.406 22.1178 141.098 21.8791 142.808C21.7428 143.684 21.626 144.618 21.5481 145.475C21.7623 145.475 21.918 145.086 22.0737 144.93C22.5605 144.404 22.9498 143.762 23.4755 143.256C24.6631 142.165 25.8701 140.978 26.9604 139.79C27.1281 139.541 27.3241 139.313 27.5444 139.109C27.8754 138.875 28.2842 138.7 28.6152 138.505C29.2254 138.167 29.7775 137.733 30.2506 137.22C31.2077 135.881 31.8712 134.356 32.1974 132.742C32.3532 132.217 32.3727 131.672 32.5284 131.146C32.7099 130.592 32.853 130.026 32.9567 129.452C33.125 128.195 33.0389 126.918 32.7036 125.695C32.4116 124.274 32.2948 121.918 30.8541 121.061C30.1727 120.652 29.6081 121.392 29.2966 121.976C28.9851 122.56 28.6347 123.495 28.2842 124.235C27.9338 124.974 27.1356 126.318 27.3108 126.104Z" fill="#C4B0FF"/>
</g>
<g style="mix-blend-mode:multiply" opacity="0.58">
<path fill-rule="evenodd" clip-rule="evenodd" d="M181.871 157.546C182.221 156.943 182.708 155.833 183.603 156.027C184.499 156.222 184.518 157.488 184.421 158.189C184.187 159.843 182.065 158.189 182.202 157.04L181.871 157.546Z" fill="#C4B0FF"/>
</g>
<g style="mix-blend-mode:multiply" opacity="0.58">
<path fill-rule="evenodd" clip-rule="evenodd" d="M198.012 167.925C197.662 168.51 197.511 169.193 197.584 169.872C197.673 170.311 197.921 170.703 198.28 170.972C198.639 171.241 199.084 171.369 199.531 171.332C201.049 171.332 202.081 171.001 202.393 169.385C202.424 168.822 202.336 168.259 202.135 167.732C201.933 167.205 201.623 166.727 201.225 166.328C200.891 166.014 200.456 165.828 199.998 165.803C199.064 165.803 198.616 166.465 198.168 167.185L198.012 167.925Z" fill="#C4B0FF"/>
</g>
<g style="mix-blend-mode:multiply" opacity="0.58">
<path fill-rule="evenodd" clip-rule="evenodd" d="M294.378 72.7412C295.744 73.4293 297.014 74.2933 298.155 75.3111C299.01 76.279 299.804 77.2999 300.53 78.3676C301.791 79.7099 303.166 80.941 304.638 82.0472C305.924 83.0516 306.897 84.4025 307.442 85.9409C307.653 86.581 307.728 87.2584 307.661 87.9292C307.594 88.6 307.386 89.2492 307.052 89.8346C306.559 90.5722 305.955 91.229 305.261 91.7815L304.307 92.5602C304.142 92.7531 303.952 92.9233 303.743 93.0664C303.412 93.2611 303.334 93.0664 303.159 92.8717C302.798 92.4121 302.612 91.8397 302.633 91.2559C302.581 90.2392 302.336 89.2417 301.913 88.3161C301.562 87.4205 301.27 86.5055 300.842 85.6489C300.413 84.7923 300.005 83.9357 299.615 83.0596C299.226 82.1835 298.953 81.5605 298.622 80.8207C298.291 80.0809 297.824 79.3995 297.435 78.6986C297.045 77.9977 296.675 77.5889 296.364 76.9854C296.052 76.3818 295.994 76.265 295.76 75.8951C295.574 75.6271 295.418 75.34 295.293 75.0385C295.143 74.7612 294.974 74.4945 294.787 74.2403C294.596 73.7572 294.459 73.2544 294.378 72.7412Z" fill="#C4B0FF"/>
</g>
<g style="mix-blend-mode:multiply" opacity="0.58">
<path fill-rule="evenodd" clip-rule="evenodd" d="M332.889 263.066C332.636 263.202 332.344 263.28 332.208 263.552C332.151 263.703 332.111 263.86 332.091 264.02C332.091 264.701 332.987 265.012 333.473 265.149C334.163 265.368 334.891 265.444 335.611 265.37C336.331 265.296 337.028 265.075 337.659 264.72C338.121 264.437 338.52 264.061 338.828 263.615C339.136 263.169 339.348 262.664 339.45 262.131C339.457 261.467 339.278 260.815 338.934 260.248C338.59 259.68 338.095 259.22 337.503 258.919C337.003 258.554 336.413 258.33 335.797 258.272C335.18 258.214 334.559 258.323 333.999 258.588C333.583 258.829 333.255 259.197 333.064 259.639C332.973 260.005 332.901 260.375 332.85 260.749C332.734 261.236 332.383 261.605 332.461 262.151C332.501 262.494 332.651 262.815 332.889 263.066Z" fill="#C4B0FF"/>
</g>
<g style="mix-blend-mode:multiply" opacity="0.58">
<path fill-rule="evenodd" clip-rule="evenodd" d="M340.677 265.479C340.672 265.335 340.706 265.193 340.775 265.066C340.843 264.94 340.943 264.833 341.066 264.758C341.164 264.642 341.302 264.566 341.453 264.545C341.603 264.523 341.757 264.558 341.884 264.641C342.081 264.77 342.227 264.966 342.294 265.192C342.361 265.419 342.344 265.662 342.248 265.877C342.152 266.093 341.982 266.267 341.769 266.369C341.556 266.471 341.314 266.493 341.085 266.433C340.892 266.382 340.722 266.264 340.608 266.1C340.494 265.936 340.442 265.736 340.462 265.537L340.677 265.479Z" fill="#C4B0FF"/>
</g>
<g style="mix-blend-mode:multiply" opacity="0.58">
<path fill-rule="evenodd" clip-rule="evenodd" d="M359.891 236.277C359.406 236.32 358.955 236.542 358.626 236.9C358.513 236.985 358.425 237.098 358.37 237.228C358.315 237.358 358.296 237.5 358.314 237.64C358.436 238.536 358.896 239.35 359.599 239.918C359.827 240.082 360.088 240.195 360.363 240.249C360.639 240.302 360.923 240.296 361.196 240.23C361.691 240.008 362.151 239.712 362.558 239.354C362.928 239.081 363.279 238.769 363.629 238.458C363.971 238.234 364.242 237.917 364.41 237.545C364.579 237.173 364.639 236.76 364.583 236.355C364.488 235.956 364.29 235.589 364.011 235.288C363.731 234.988 363.378 234.765 362.987 234.642C362.45 234.557 361.9 234.611 361.39 234.798C360.884 234.915 360.358 234.973 359.891 236.277Z" fill="#C4B0FF"/>
</g>
<g style="mix-blend-mode:multiply" opacity="0.58">
<path fill-rule="evenodd" clip-rule="evenodd" d="M356.312 238.808C356.693 238.953 357.038 239.179 357.325 239.47C357.325 239.664 357.441 239.84 357.325 240.054C357.208 240.268 356.663 240.054 356.448 240.054C356.151 239.949 355.907 239.733 355.767 239.45C355.767 239.333 355.514 238.866 355.767 238.905L356.312 238.808Z" fill="#C4B0FF"/>
</g>
<g style="mix-blend-mode:multiply" opacity="0.58">
<path fill-rule="evenodd" clip-rule="evenodd" d="M313.654 254.598C313.264 255.026 312.836 255.513 313.108 256.175C313.263 256.446 313.506 256.655 313.797 256.769C314.087 256.882 314.408 256.892 314.705 256.798C314.997 256.798 315.347 256.681 315.484 256.35C315.602 255.999 315.699 255.642 315.776 255.279C316.029 254.462 316.944 254.072 316.496 253.099C316.395 252.876 316.241 252.682 316.047 252.533C315.854 252.383 315.627 252.284 315.386 252.242C314.608 252.242 313.985 252.963 313.439 253.605L313.654 254.598Z" fill="#C4B0FF"/>
</g>
<g style="mix-blend-mode:multiply" opacity="0.58">
<path fill-rule="evenodd" clip-rule="evenodd" d="M32.1365 172.828C30.667 173.138 29.3164 173.861 28.2428 174.911C28.2524 175.099 28.2524 175.288 28.2428 175.476C28.0363 175.945 27.9297 176.452 27.9297 176.965C27.9297 177.478 28.0363 177.985 28.2428 178.454C29.7613 181.355 32.7789 181.005 35.524 180.985C38.2691 180.966 42.2017 181.297 40.8584 177.228C40.2354 175.281 39.3788 172.322 37.6656 171.154C36.7505 170.55 36.2833 170.842 35.4072 171.154C34.1521 171.492 32.9705 172.059 31.9223 172.828H32.1365Z" fill="#C4B0FF"/>
</g>
<g style="mix-blend-mode:multiply" opacity="0.58">
<path fill-rule="evenodd" clip-rule="evenodd" d="M142.255 252.902C142.703 252.103 143.384 250.565 144.533 250.449C145.682 250.332 145.779 250.877 146.48 251.364C147.979 252.434 149.381 253.836 147.921 255.744C147.499 256.197 146.975 256.543 146.392 256.753C145.81 256.963 145.186 257.031 144.572 256.951C143.599 256.795 141.963 255.588 142.275 254.44L142.255 252.902Z" fill="#C4B0FF"/>
</g>
<g style="mix-blend-mode:multiply" opacity="0.58">
<path fill-rule="evenodd" clip-rule="evenodd" d="M249.566 113.916C249.226 114.353 249.012 114.873 248.947 115.422C248.882 115.971 248.968 116.527 249.196 117.031C249.373 118.247 249.856 119.399 250.597 120.38C251.727 121.548 253.284 121.275 254.725 121.567C255.178 121.751 255.673 121.808 256.156 121.732C256.64 121.657 257.094 121.452 257.47 121.139C258.466 120.318 259.304 119.322 259.942 118.199C260.849 116.356 261.345 114.337 261.395 112.284C261.446 110.23 261.049 108.19 260.234 106.304C259.202 104.007 257.684 101.378 255.075 100.639C253.992 100.308 252.838 100.281 251.74 100.559C250.642 100.836 249.641 101.409 248.845 102.215C248.107 103.077 247.585 104.103 247.325 105.207C247.064 106.311 247.071 107.461 247.346 108.562C247.502 109.088 247.638 109.614 247.774 110.12C247.846 110.767 247.846 111.42 247.774 112.067C247.969 112.865 248.3 113.624 249.566 113.916Z" fill="#C4B0FF"/>
</g>
<g style="mix-blend-mode:multiply" opacity="0.58">
<path fill-rule="evenodd" clip-rule="evenodd" d="M154.069 135.196C155.529 136.345 155.315 136.15 155.529 137.61C155.529 138.253 155.88 138.389 155.744 138.993C155.59 139.392 155.325 139.738 154.98 139.991C154.634 140.243 154.224 140.39 153.797 140.414C153.174 140.414 152.239 139.187 151.986 138.72C151.733 138.253 151.752 137.63 151.986 136.929L154.069 135.196Z" fill="#C4B0FF"/>
</g>
<g style="mix-blend-mode:multiply" opacity="0.58">
<path fill-rule="evenodd" clip-rule="evenodd" d="M279.39 53.8354C279.079 55.0814 278.67 56.5805 280.052 57.4176C280.598 57.6167 281.188 57.662 281.758 57.5487C282.328 57.4354 282.856 57.1678 283.284 56.7752C284.639 55.5407 285.561 53.9022 285.912 52.1027C286.126 50.5063 284.218 48.8125 282.739 48.6373C279.779 48.2674 278.183 52.9788 278.008 55.2177L279.39 53.8354Z" fill="#C4B0FF"/>
</g>
<g style="mix-blend-mode:multiply" opacity="0.58">
<path fill-rule="evenodd" clip-rule="evenodd" d="M89.7278 73.8295C89.5721 73.479 88.8517 72.4666 88.9686 72.0189C89.0854 71.5711 89.2606 71.7852 89.3579 71.61C89.498 71.3065 89.7032 71.0375 89.9589 70.8222C90.2146 70.6068 90.5146 70.4504 90.8375 70.364C91.4973 70.2082 92.1902 70.279 92.8048 70.5651C93.4193 70.8512 93.9196 71.3359 94.2251 71.941C94.4675 72.3083 94.5783 72.747 94.5394 73.1854C94.5006 73.6239 94.3143 74.0362 94.0109 74.3551C93.5886 74.7847 93.0209 75.0409 92.4193 75.0733C91.8177 75.1058 91.2257 74.9121 90.7597 74.5303L89.7278 73.8295Z" fill="#C4B0FF"/>
</g>
<g style="mix-blend-mode:multiply" opacity="0.58">
<path fill-rule="evenodd" clip-rule="evenodd" d="M272.712 324.743C271.376 326.615 270.606 328.831 270.493 331.129C270.337 332.608 269.967 334.536 271.135 335.529C273.841 337.904 278.417 330.973 279.701 328.715C280.842 326.747 281.595 324.579 281.921 322.329C282.175 320.587 281.854 318.809 281.006 317.267C280.382 316.771 279.594 316.529 278.799 316.59C278.005 316.652 277.263 317.012 276.723 317.598C273.9 319.954 273.335 323.847 271.466 326.904L272.712 324.743Z" fill="#C4B0FF"/>
</g>
<g style="mix-blend-mode:multiply" opacity="0.58">
<path fill-rule="evenodd" clip-rule="evenodd" d="M271.329 323.887C270.531 323.746 269.714 323.746 268.915 323.887C268.506 324.043 267.845 324.276 267.611 324.724C267.484 325.038 267.432 325.378 267.459 325.716C267.486 326.054 267.591 326.381 267.767 326.671C267.961 327.002 268.37 327.43 268.779 327.372C269.188 327.313 269.46 326.944 269.714 326.729C270.173 326.309 270.584 325.839 270.94 325.328C271.148 325.101 271.331 324.853 271.485 324.588C271.699 324.14 271.485 323.906 271.485 323.517L271.329 323.887Z" fill="#C4B0FF"/>
</g>
<g style="mix-blend-mode:multiply" opacity="0.58">
<path fill-rule="evenodd" clip-rule="evenodd" d="M264.185 341.836L265.1 342.712C264.886 343.14 264.886 343.744 264.399 343.919C263.933 344.006 263.451 343.908 263.055 343.646C262.855 343.494 262.706 343.283 262.629 343.042C262.552 342.802 262.552 342.544 262.627 342.303C262.727 342.047 262.916 341.836 263.159 341.707C263.402 341.579 263.683 341.541 263.951 341.602L264.185 341.836Z" fill="#C4B0FF"/>
</g>
<g style="mix-blend-mode:multiply" opacity="0.58">
<path fill-rule="evenodd" clip-rule="evenodd" d="M160.552 278.522C160.417 278.771 160.365 279.056 160.403 279.336C160.442 279.617 160.569 279.877 160.767 280.08C161.088 280.418 161.52 280.63 161.985 280.677C162.449 280.723 162.915 280.601 163.297 280.333C163.938 279.846 164.45 279.211 164.789 278.481C165.128 277.752 165.285 276.951 165.244 276.147C165.05 275.232 163.862 274.2 162.947 274.726C162.412 275.013 161.915 275.366 161.467 275.777C160.878 276.506 160.549 277.41 160.533 278.347L160.552 278.522Z" fill="#C4B0FF"/>
</g>
<g style="mix-blend-mode:multiply" opacity="0.58">
<path fill-rule="evenodd" clip-rule="evenodd" d="M164.368 228.492C163.94 228.9 163.726 229.017 163.628 229.582C163.535 229.88 163.502 230.194 163.533 230.505C163.563 230.816 163.655 231.118 163.804 231.392C164.767 232.527 166.096 233.292 167.561 233.553C168.076 233.702 168.619 233.728 169.146 233.63C169.674 233.532 170.171 233.313 170.598 232.989C171.124 232.646 171.57 232.193 171.906 231.663C172.242 231.132 172.46 230.535 172.545 229.913C172.701 229.309 172.663 228.672 172.436 228.092C172.209 227.512 171.804 227.018 171.28 226.681C170.273 225.905 169.111 225.353 167.873 225.065C167.395 224.982 166.904 225.012 166.441 225.154C165.977 225.296 165.554 225.546 165.205 225.883C164.446 226.428 163.492 227.557 164.368 228.492Z" fill="#C4B0FF"/>
</g>
<g style="mix-blend-mode:multiply" opacity="0.58">
<path fill-rule="evenodd" clip-rule="evenodd" d="M173.986 232.715C173.986 232.364 173.986 231.936 174.337 231.839C174.661 231.831 174.983 231.889 175.285 232.009C175.586 232.13 175.859 232.31 176.089 232.539C176.427 232.911 176.608 233.4 176.595 233.902C176.487 234.228 176.266 234.504 175.972 234.681C175.78 234.845 175.541 234.944 175.29 234.965C175.038 234.986 174.787 234.927 174.57 234.798C174.278 234.603 173.519 234.214 173.636 233.747L173.986 232.715Z" fill="#C4B0FF"/>
</g>
<g style="mix-blend-mode:multiply" opacity="0.58">
<path fill-rule="evenodd" clip-rule="evenodd" d="M144.569 187.063C144.496 187.598 144.613 188.142 144.9 188.601C145.429 189.431 146.133 190.136 146.963 190.664C148.024 191.402 149.294 191.778 150.585 191.735C151.068 191.645 151.512 191.411 151.86 191.064C152.207 190.716 152.441 190.272 152.531 189.788C152.659 188.62 152.362 187.445 151.694 186.479C151.085 185.63 150.28 184.939 149.349 184.465C148.417 183.991 147.386 183.747 146.34 183.753C143.926 183.987 143.829 187.491 144.569 187.063Z" fill="#C4B0FF"/>
</g>
<g style="mix-blend-mode:multiply" opacity="0.58">
<path fill-rule="evenodd" clip-rule="evenodd" d="M154.73 195.392C154.471 195.167 154.288 194.868 154.204 194.535C154.535 194.379 154.652 193.99 155.022 193.854C155.402 193.751 155.807 193.8 156.151 193.99C156.387 194.1 156.587 194.273 156.732 194.489C156.876 194.705 156.958 194.957 156.969 195.217C156.969 195.82 156.774 195.956 156.268 196.209C155.762 196.463 155.84 196.463 155.45 196.209C155.193 196.051 154.952 195.869 154.73 195.664V195.392Z" fill="#C4B0FF"/>
</g>
<g style="mix-blend-mode:multiply" opacity="0.58">
<path fill-rule="evenodd" clip-rule="evenodd" d="M202.138 129.552C199.497 129.092 196.812 128.936 194.136 129.085C192.195 129.386 190.277 129.815 188.393 130.37C185.434 131.246 182.552 132.628 179.729 133.699C173.889 135.841 166.938 137.34 164.407 143.764C163.181 146.899 164.407 149.955 164.641 153.187C164.797 156.034 164.797 158.887 164.641 161.734C164.524 163.146 164.7 164.567 165.159 165.907C165.619 167.247 166.35 168.478 167.308 169.521C169.672 171.564 172.533 172.947 175.602 173.532C177.795 174.29 180.123 174.582 182.435 174.388C186.329 173.863 189.152 170.203 191.683 167.438C192.683 166.265 193.798 165.196 195.012 164.245C196.119 163.568 197.329 163.075 198.594 162.785C201.145 161.929 203.968 161.442 205.817 159.339C211.054 153.362 213.994 143.258 210.509 135.86C209.112 133.037 207.337 130.417 205.233 128.073C204.513 127.255 202.8 125.639 202.138 129.552Z" fill="#C4B0FF"/>
</g>
<g style="mix-blend-mode:multiply" opacity="0.58">
<path fill-rule="evenodd" clip-rule="evenodd" d="M201.613 120.187C201.267 119.343 201.139 118.425 201.243 117.519C202.274 117.013 202.605 115.027 203.501 114.19C203.884 113.808 204.363 113.537 204.888 113.407C205.412 113.277 205.963 113.292 206.48 113.45C206.978 113.614 207.431 113.892 207.802 114.262C208.174 114.632 208.454 115.084 208.62 115.581C208.787 116.078 208.835 116.607 208.761 117.126C208.686 117.645 208.492 118.14 208.193 118.571C208.076 118.785 207.784 118.863 207.648 119.057C207.512 119.252 207.453 119.817 207.297 119.992C206.733 120.673 206.441 120.479 205.643 120.693C204.844 120.907 204.786 121.355 203.696 121.043C202.605 120.732 202.391 119.875 201.613 119.603V120.187Z" fill="#C4B0FF"/>
</g>
<g style="mix-blend-mode:multiply" opacity="0.58">
<path fill-rule="evenodd" clip-rule="evenodd" d="M17.7919 231.311C15.5114 228.218 14.3946 224.419 14.638 220.584C14.638 218.948 14.638 215.989 16.8769 216.203C20.0114 216.515 21.6078 221.382 22.4839 223.816C24.0386 227.328 24.7583 231.153 24.5865 234.991C23.944 240.325 16.9353 229.695 16.2345 228.722L17.7919 231.311Z" fill="#C4B0FF"/>
</g>
<g style="mix-blend-mode:multiply" opacity="0.58">
<path fill-rule="evenodd" clip-rule="evenodd" d="M24.546 213.672C23.9814 216.748 25.3637 221.167 28.7318 222.141C29.8999 222.491 30.3671 221.751 30.9901 220.622C31.343 220.1 31.578 219.508 31.6789 218.886C31.7797 218.264 31.744 217.627 31.5742 217.02C31.1877 216.194 30.7041 215.416 30.1335 214.704C29.7996 214.299 29.5062 213.862 29.2574 213.399C29.0433 212.913 29.1211 212.523 28.7318 212.075C27.7973 211.024 24.1761 210.129 24.546 212.621V213.672Z" fill="#C4B0FF"/>
</g>
<g style="mix-blend-mode:multiply" opacity="0.58">
<path fill-rule="evenodd" clip-rule="evenodd" d="M77.5195 221.459C78.2697 219.481 79.6344 217.795 81.4133 216.65C83.4101 215.3 85.632 214.318 87.9742 213.749C90.1856 213.22 92.5073 213.397 94.613 214.255C96.5598 215.346 98.5067 216.962 100.454 218.149C102.26 219.077 103.963 220.193 105.535 221.478C106.914 222.893 107.976 224.586 108.65 226.443C109.721 229.266 110.597 233.588 109.292 236.45C107.988 239.312 106.664 239.097 104.055 239.058C100.337 239.058 96.8519 236.002 94.5351 233.335C93.5067 231.923 92.3392 230.619 91.0502 229.441C89.3954 228.137 87.6432 226.93 85.9105 225.722C84.1686 224.801 82.4846 223.774 80.8681 222.646C80.1673 222.101 78.0062 220.446 77.5195 221.459Z" fill="#C4B0FF"/>
</g>
<g style="mix-blend-mode:multiply" opacity="0.58">
<path fill-rule="evenodd" clip-rule="evenodd" d="M115.424 239.121C115.132 240.736 114.724 241.437 115.911 242.235C116.28 242.492 116.718 242.629 117.167 242.629C117.616 242.629 118.054 242.492 118.423 242.235C119.318 241.71 121.304 239.802 121.051 238.673C120.525 236.298 114.587 236.2 114.899 239.082L115.424 239.121Z" fill="#C4B0FF"/>
</g>
<g style="mix-blend-mode:multiply" opacity="0.58">
<path fill-rule="evenodd" clip-rule="evenodd" d="M220.321 78.5829C219.945 77.9567 219.774 77.228 219.835 76.4998C222.463 75.9157 223.631 79.4006 224.624 81.2111C225.189 82.243 226.279 83.781 224.877 84.696C224.25 84.9385 223.596 85.1083 222.93 85.2022C222.429 85.3689 221.897 85.4222 221.373 85.358C219.134 84.8907 219.309 82.9244 219.29 81.1722L220.321 78.5829Z" fill="#C4B0FF"/>
</g>
<g style="mix-blend-mode:multiply" opacity="0.58">
<path fill-rule="evenodd" clip-rule="evenodd" d="M213.567 312.845C213.82 307.199 218.843 301.163 223.711 298.535C230.622 294.875 239.636 297.289 245.827 301.358C248.471 303.109 250.652 305.474 252.184 308.25C253.716 311.027 254.554 314.132 254.627 317.303C254.627 318.977 254.101 320.535 254.062 322.209C254.062 323.474 254.062 324.253 252.758 324.74C248.934 325.726 244.931 325.792 241.077 324.935C237.161 324.437 233.327 323.436 229.668 321.956C226.572 320.496 223.711 318.529 220.615 316.991C219.071 316.342 217.613 315.505 216.274 314.499C215.573 313.954 213.684 313.468 213.567 312.845Z" fill="#C4B0FF"/>
</g>
<g style="mix-blend-mode:multiply" opacity="0.58">
<path fill-rule="evenodd" clip-rule="evenodd" d="M249.388 293.127C249.739 294.353 249.661 294.937 250.693 295.483C251.097 295.665 251.535 295.76 251.978 295.76C252.421 295.76 252.859 295.665 253.263 295.483C254.256 295.113 255.774 293.847 255.56 292.601C255.171 290.382 249.856 289.311 249.914 292.076L249.388 293.127Z" fill="#C4B0FF"/>
</g>
<g style="mix-blend-mode:multiply" opacity="0.58">
<path fill-rule="evenodd" clip-rule="evenodd" d="M327.788 237.561C327.947 236.556 328.312 235.595 328.859 234.738C329.117 234.566 329.406 234.448 329.711 234.392C330.015 234.335 330.328 234.34 330.631 234.407C331.182 234.446 331.718 234.61 332.197 234.886C332.676 235.163 333.086 235.545 333.395 236.004C333.907 236.511 334.305 237.122 334.563 237.795C335.4 241.688 328.723 239.975 327.788 237.561Z" fill="#C4B0FF"/>
</g>
</g>
<path fill-rule="evenodd" clip-rule="evenodd" d="M219.214 171.701C231.07 159.085 260.546 145.944 271.156 149.039C281.767 152.135 278.496 178.593 272.772 190.741C267.048 202.889 218.104 204.038 216.469 197.73C214.834 191.422 214.873 176.315 219.214 171.701Z" fill="#B13D2F"/>
<path fill-rule="evenodd" clip-rule="evenodd" d="M221.899 174.525C233.21 163.097 261.342 151.163 271.466 154.005C281.589 156.848 278.474 180.755 273.023 191.755C267.572 202.755 220.828 203.806 219.27 198.082C217.713 192.359 217.752 178.692 221.899 174.525Z" fill="url(#paint1_radial_246_8158)"/>
<path fill-rule="evenodd" clip-rule="evenodd" d="M282.622 202.832C290.059 192.475 298.723 191.443 305.206 194.091C306.58 195.031 307.779 196.203 308.749 197.556C310.696 202.832 296.445 216.363 287.197 217.823C276.821 219.439 278.884 208.05 282.622 202.832Z" fill="#B13D2F"/>
<path fill-rule="evenodd" clip-rule="evenodd" d="M285.133 205.536C292.57 195.159 301.234 194.127 307.717 196.794C314.2 199.461 297.574 216.263 287.197 217.82C276.82 219.378 281.395 210.734 285.133 205.536Z" fill="url(#paint2_radial_246_8158)"/>
</g>
<defs>
<radialGradient id="paint0_radial_246_8158" cx="0" cy="0" r="1" gradientUnits="userSpaceOnUse" gradientTransform="translate(150.175 101.206) scale(267.187)">
<stop stop-color="#FF8425"/>
<stop offset="0.84" stop-color="#C03440"/>
<stop offset="0.93" stop-color="#A43166"/>
<stop offset="1" stop-color="#CF68D1"/>
</radialGradient>
<radialGradient id="paint1_radial_246_8158" cx="0" cy="0" r="1" gradientUnits="userSpaceOnUse" gradientTransform="translate(192.793 84.8918) scale(334.023)">
<stop stop-color="#FF8425"/>
<stop offset="0.84" stop-color="#C03440"/>
<stop offset="0.93" stop-color="#A43166"/>
<stop offset="1" stop-color="#CF68D1"/>
</radialGradient>
<radialGradient id="paint2_radial_246_8158" cx="0" cy="0" r="1" gradientUnits="userSpaceOnUse" gradientTransform="translate(159.989 86.2316) scale(334.023 334.024)">
<stop stop-color="#FF8425"/>
<stop offset="0.84" stop-color="#C03440"/>
<stop offset="0.93" stop-color="#A43166"/>
<stop offset="1" stop-color="#CF68D1"/>
</radialGradient>
</defs>
</svg>
